<?xml version="1.0" encoding="iso-8859-1"?>
<!-- Uploaded to: SVG Repo, www.svgrepo.com, Generator: SVG Repo Mixer Tools -->
<svg height="800px" width="800px" version="1.1" id="Layer_1" xmlns="http://www.w3.org/2000/svg" xmlns:xlink="http://www.w3.org/1999/xlink" 
	 viewBox="0 0 512 512" xml:space="preserve">
<path style="fill:#806749;" d="M408.661,92.193c-0.001-0.001-2.015-3.694-2.015-3.695C377.224,35.546,319.928,0,255.985,0
	C162.144,0,85.711,75.309,83.485,168.671v0.122c0,0.501,0,1.002-0.011,1.503c-0.011,0.757,0.011,1.503,0.011,2.226v322.783
	c0,9.22,7.475,16.696,16.696,16.696l0,0h111.304c123.189,0,217.043-100.493,217.043-217.043V172.522
	C428.529,145.291,421.947,117.218,408.661,92.193z"/>
<path style="fill:#5F4D37;" d="M428.529,172.522v122.435C428.529,412.463,333.632,512,211.485,512H100.181
	c-9.22,0-16.696-7.475-16.696-16.696v-17.675c82.532,9.661,153.043-53.426,155.737-133.398c-11.475-1.113-22.628-3.361-33.336-6.611
	c0.011,0.612,0.033,1.235,0.033,1.859c0,58.301-47.438,105.739-105.739,105.739c-5.699,0-11.242-0.579-16.696-1.447V409.8
	c5.365,1.28,10.941,2.026,16.696,2.026c39.891,0,72.348-32.456,72.348-72.348c0-5.932-0.757-11.687-2.137-17.197
	c-51.89-29.774-86.906-85.738-86.906-149.76c0-0.723-0.022-1.469-0.011-2.226c0.011-0.501,0.011-1.002,0.011-1.503v-0.122
	c0-0.423,0.067-0.846,0.089-1.269c2.115-40.292,29.618-74.017,66.905-85.37c8.682-2.671,18.037-4.118,27.609-4.118
	c32.278,0,60.778,16.25,77.919,40.96V0c63.826,0,120.251,34.704,150.639,88.498c0,0.011,0.011,0.022,0.022,0.033
	c0.722,1.298,1.992,3.662,1.992,3.662C422.073,117.752,428.529,145.065,428.529,172.522z"/>
<path style="fill:#FFFFFF;" d="M256.007,311.652c-76.689,0-139.13-62.442-139.13-139.13c0-33.725,27.492-61.217,61.217-61.217
	s61.217,27.492,61.217,61.217c0,9.22,7.475,16.696,16.696,16.696c9.22,0,16.696-7.475,16.696-16.696
	c0-33.725,27.492-61.217,61.217-61.217s61.217,27.492,61.217,61.217C395.138,249.21,332.697,311.652,256.007,311.652z"/>
<path style="fill:#E0E0E2;" d="M395.138,172.522c0-33.725-27.492-61.217-61.217-61.217s-61.217,27.492-61.217,61.217
	c0,9.22-7.475,16.696-16.696,16.696v122.435C332.697,311.652,395.138,249.21,395.138,172.522z"/>
<g>
	<path style="fill:#5F4D37;" d="M178.094,194.783c-12.277,0-22.261-9.99-22.261-22.261s9.984-22.261,22.261-22.261
		c12.277,0,22.261,9.99,22.261,22.261S190.372,194.783,178.094,194.783z"/>
	<path style="fill:#5F4D37;" d="M333.92,194.783c-12.277,0-22.261-9.99-22.261-22.261s9.984-22.261,22.261-22.261
		c12.277,0,22.261,9.99,22.261,22.261S346.198,194.783,333.92,194.783z"/>
	<path style="fill:#5F4D37;" d="M301.203,239.979l-33.391,33.391c-6.521,6.521-17.087,6.521-23.609,0l-33.391-33.391
		c-6.521-6.521-6.521-17.087,0-23.609s17.087-6.521,23.609,0l21.587,21.587l21.587-21.587c3.261-3.261,7.533-4.892,11.804-4.892
		s8.544,1.631,11.804,4.892C307.725,222.891,307.725,233.456,301.203,239.979z"/>
</g>
</svg>