<?xml version="1.0" encoding="iso-8859-1"?>
<!-- Uploaded to: SVG Repo, www.svgrepo.com, Generator: SVG Repo Mixer Tools -->
<svg height="800px" width="800px" version="1.1" id="Layer_1" xmlns="http://www.w3.org/2000/svg" xmlns:xlink="http://www.w3.org/1999/xlink" 
	 viewBox="0 0 512 512" xml:space="preserve">
<path style="fill:#A78966;" d="M256,172.522c-27.619,0-50.087-22.468-50.087-50.087S228.381,72.348,256,72.348
	s50.087,22.468,50.087,50.087S283.619,172.522,256,172.522z"/>
<path style="fill:#957856;" d="M306.087,122.435c0-27.619-22.468-50.087-50.087-50.087v100.174
	C283.619,172.522,306.087,150.054,306.087,122.435z"/>
<path style="fill:#D8B68A;" d="M256,139.13c-101.287,0-183.652,82.365-183.652,183.652v33.391c0,9.238,7.456,16.696,16.696,16.696
	h333.913c9.239,0,16.696-7.457,16.696-16.696v-33.391C439.652,221.496,357.287,139.13,256,139.13z"/>
<path style="fill:#CAA579;" d="M439.652,322.783v33.391c0,9.238-7.456,16.696-16.696,16.696H256V139.13
	C357.287,139.13,439.652,221.496,439.652,322.783z"/>
<path style="fill:#E6C892;" d="M339.478,372.87H172.522V222.609c0-46.103,37.375-83.478,83.478-83.478l0,0
	c46.103,0,83.478,37.375,83.478,83.478V372.87z"/>
<path style="fill:#D8B68A;" d="M339.478,372.87V222.609c0-46.104-37.375-83.478-83.478-83.478V372.87H339.478z"/>
<path style="fill:#F7E4B3;" d="M461.913,339.478H50.087C22.483,339.478,0,361.962,0,389.565c0,27.603,22.483,50.087,50.087,50.087
	h411.826c27.603,0,50.087-22.483,50.087-50.087C512,361.962,489.516,339.478,461.913,339.478z"/>
<path style="fill:#E6C892;" d="M512,389.565c0,27.603-22.483,50.087-50.087,50.087H256V339.478h205.913
	C489.516,339.478,512,361.962,512,389.565z"/>
<polygon style="fill:#616267;" points="429.857,339.478 329.683,439.652 282.49,439.652 382.664,339.478 "/>
</svg>