
<svg version="1.0" xmlns="http://www.w3.org/2000/svg"
 width="528.000000pt" height="201.000000pt" viewBox="0 0 528.000000 201.000000"
 preserveAspectRatio="xMidYMid meet">

<g transform="translate(0.000000,201.000000) scale(0.100000,-0.100000)"
fill="#000000" stroke="none">
<path d="M2908 1973 c6 -2 18 -2 25 0 6 3 1 5 -13 5 -14 0 -19 -2 -12 -5z"/>
<path d="M2754 1956 c-12 -31 0 -51 31 -51 27 0 30 3 30 30 0 25 -4 30 -28 33
-17 2 -29 -2 -33 -12z"/>
<path d="M2968 1963 c6 -2 18 -2 25 0 6 3 1 5 -13 5 -14 0 -19 -2 -12 -5z"/>
<path d="M3035 1952 c12 -3 -26 -15 -90 -29 -60 -13 -139 -38 -174 -54 -35
-16 -66 -27 -68 -25 -3 2 3 19 12 36 11 22 13 31 4 28 -18 -6 -89 -137 -78
-143 5 -4 28 10 51 29 22 19 75 49 116 67 74 30 243 78 286 80 19 1 18 2 -4 9
-14 4 -36 8 -50 8 -20 0 -21 -1 -5 -6z"/>
<path d="M2901 1824 c0 -11 3 -14 6 -6 3 7 2 16 -1 19 -3 4 -6 -2 -5 -13z"/>
<path d="M2888 1771 c-5 -18 -8 -84 -8 -146 0 -178 -55 -346 -150 -461 l-40
-49 0 -322 c0 -180 -4 -323 -9 -323 -5 0 -11 30 -13 66 -3 54 -8 70 -27 85
-37 30 -65 12 -69 -44 -3 -41 1 -50 34 -87 l37 -41 -6 -83 c-5 -70 -11 -92
-36 -133 -18 -28 -26 -50 -19 -52 6 -2 14 3 19 10 4 8 15 23 24 34 16 19 16
17 11 -35 -3 -30 -6 -79 -6 -107 l0 -53 -39 0 c-41 0 -67 20 -57 45 3 9 0 15
-9 15 -22 0 -19 -53 3 -73 15 -13 39 -17 116 -17 90 0 99 2 121 25 28 27 33
65 10 65 -8 0 -15 -9 -15 -20 0 -24 -28 -40 -69 -40 l-31 0 0 103 0 102 24
-30 c37 -45 41 -24 7 31 -28 43 -31 56 -31 124 0 72 2 77 25 88 l25 12 0 321
0 321 36 41 c47 56 120 206 139 290 11 49 15 109 13 220 -2 97 -6 140 -10 118z
m-248 -1228 c0 -38 -2 -43 -14 -34 -20 17 -39 68 -32 86 4 13 10 14 26 5 16
-8 20 -21 20 -57z"/>
<path d="M2420 1523 c-13 -62 -26 -392 -16 -418 8 -23 31 -7 67 46 33 50 34
47 14 -36 -21 -84 -19 -105 5 -105 16 0 19 4 12 16 -7 13 27 240 42 281 14 35
-16 -4 -60 -78 -44 -76 -48 -80 -57 -58 -10 28 -1 253 14 335 14 78 -4 93 -21
17z"/>
<path d="M10 1000 c0 -123 1 -130 20 -130 16 0 20 7 20 34 0 31 3 34 36 38 33
4 38 1 60 -34 15 -23 32 -38 44 -38 25 0 25 7 -1 49 l-20 33 22 24 c30 32 31
87 3 115 -24 23 -79 38 -141 39 l-43 0 0 -130z m140 70 c25 -25 25 -45 0 -70
-13 -13 -33 -20 -60 -20 l-40 0 0 55 0 55 40 0 c27 0 47 -7 60 -20z"/>
<path d="M1390 999 c0 -130 0 -130 23 -127 17 2 23 11 25 34 3 28 7 32 36 36
29 3 35 -1 55 -34 16 -28 28 -38 47 -38 l25 0 -25 42 -25 42 25 29 c62 74 -6
147 -138 147 l-48 0 0 -131z m138 75 c48 -33 13 -94 -55 -94 l-33 0 0 55 0 55
33 0 c18 0 43 -7 55 -16z"/>
<path d="M2850 1002 c0 -133 0 -133 23 -130 20 3 22 9 25 76 l3 73 71 -76 c51
-55 77 -75 92 -73 20 3 21 10 24 126 l3 122 -26 0 c-25 0 -25 0 -25 -90 l0
-90 -95 97 -94 98 -1 -133z"/>
<path d="M3647 1123 c-18 -17 -5 -33 28 -33 l34 0 3 -107 c3 -103 4 -108 26
-111 22 -3 22 -2 22 107 l0 111 35 0 c28 0 35 4 35 20 0 18 -7 20 -88 20 -49
0 -92 -3 -95 -7z"/>
<path d="M3990 1032 c0 -85 3 -103 20 -125 26 -32 79 -44 121 -27 50 21 59 44
59 153 0 96 0 98 -22 95 -22 -3 -23 -8 -26 -101 -3 -93 -4 -98 -27 -109 -19
-8 -31 -8 -50 0 -23 11 -24 16 -27 109 -3 93 -4 98 -25 101 -23 3 -23 1 -23
-96z"/>
<path d="M4350 1000 c0 -123 1 -130 20 -130 16 0 20 7 20 34 0 31 3 34 36 38
33 4 38 1 60 -34 15 -23 32 -38 44 -38 25 0 25 7 -1 49 l-20 33 22 24 c30 32
31 87 3 115 -24 23 -79 38 -141 39 l-43 0 0 -130z m140 70 c11 -11 20 -27 20
-35 0 -29 -38 -55 -80 -55 l-40 0 0 55 0 55 40 0 c27 0 47 -7 60 -20z"/>
<path d="M5117 1124 c-4 -4 -7 -63 -7 -131 l0 -123 85 0 c78 0 85 2 85 20 0
18 -7 20 -60 20 l-59 0 -3 107 c-2 88 -6 108 -18 111 -9 1 -19 0 -23 -4z"/>
<path d="M372 998 l3 -123 88 -3 c82 -3 87 -2 87 18 0 18 -6 20 -65 20 l-65 0
0 30 c0 30 1 30 55 30 48 0 55 2 55 20 0 18 -7 20 -55 20 l-55 0 0 35 0 34 62
3 c50 2 63 6 66 21 3 15 -6 17 -88 17 l-91 0 3 -122z"/>
<path d="M730 1100 c-46 -46 -6 -120 65 -120 40 0 64 -24 48 -48 -15 -24 -64
-28 -80 -6 -13 17 -14 17 -31 0 -16 -16 -16 -18 8 -38 20 -16 35 -19 74 -15
125 12 107 147 -19 147 -14 0 -29 8 -35 20 -9 16 -6 22 16 37 24 15 29 16 54
1 19 -11 32 -13 44 -6 17 9 17 11 0 29 -25 27 -116 27 -144 -1z"/>
<path d="M1060 995 l0 -125 85 0 c78 0 85 2 85 20 0 18 -7 20 -65 20 l-65 0 0
30 0 30 61 0 c52 0 60 2 57 18 -2 13 -15 18 -61 20 l-57 3 0 34 0 35 65 0 c58
0 65 2 65 20 0 18 -7 20 -85 20 l-85 0 0 -125z"/>
<path d="M1760 1116 c0 -1 26 -58 58 -126 l59 -123 56 118 c32 64 57 121 57
126 0 5 -9 9 -20 9 -15 0 -29 -19 -56 -72 l-37 -73 -36 73 c-28 58 -40 72 -58
72 -13 0 -23 -2 -23 -4z"/>
<path d="M2217 1005 c-31 -63 -57 -120 -57 -125 0 -13 37 -13 45 0 3 6 35 10
70 10 35 0 67 -4 70 -10 8 -12 45 -13 45 -1 0 10 -108 241 -112 241 -2 0 -29
-52 -61 -115z m83 -22 c11 -25 18 -48 16 -50 -2 -2 -22 -3 -44 -1 l-41 3 21
48 c11 26 22 47 24 47 2 0 12 -21 24 -47z"/>
<path d="M3302 1000 c-54 -114 -58 -125 -39 -128 10 -2 24 1 30 7 14 14 134
15 142 1 3 -5 15 -10 26 -10 26 0 22 14 -46 150 l-53 105 -60 -125z m67 -68
c-23 -2 -43 -1 -45 1 -2 2 6 26 18 53 l21 49 23 -50 24 -50 -41 -3z"/>
<path d="M4775 1005 c-30 -65 -55 -122 -55 -126 0 -12 37 -11 45 1 3 6 35 10
70 10 35 0 67 -4 70 -10 8 -13 45 -13 45 -1 0 10 -106 230 -115 239 -2 2 -29
-49 -60 -113z m105 -67 c0 -5 -20 -8 -45 -8 -25 0 -45 2 -45 5 0 2 10 25 22
50 l22 46 23 -43 c12 -24 22 -46 23 -50z"/>
<path d="M2860 715 l0 -95 65 0 c37 0 65 4 65 10 0 6 -22 10 -50 10 -47 0 -50
2 -50 25 0 23 4 25 45 25 25 0 45 5 45 10 0 6 -20 10 -45 10 -45 0 -45 0 -45
35 l0 35 50 0 c38 0 50 4 50 15 0 12 -14 15 -65 15 l-65 0 0 -95z"/>
<path d="M3145 798 c-57 -32 -39 -86 31 -97 30 -5 40 -11 42 -28 3 -17 -3 -24
-22 -29 -15 -3 -32 -1 -41 6 -8 6 -19 9 -25 5 -21 -13 11 -35 50 -35 41 0 70
24 70 59 0 21 -11 28 -75 48 -20 6 -30 15 -30 28 0 17 6 20 48 18 51 -1 62 12
21 27 -32 13 -44 12 -69 -2z"/>
<path d="M3720 715 l0 -95 65 0 c37 0 65 4 65 10 0 6 -22 10 -50 10 -47 0 -50
2 -50 25 0 23 4 25 45 25 25 0 45 5 45 10 0 6 -20 10 -45 10 -45 0 -45 0 -45
35 l0 35 50 0 c38 0 50 4 50 15 0 12 -14 15 -65 15 l-65 0 0 -95z"/>
<path d="M3970 715 c0 -78 3 -95 15 -95 10 0 15 10 15 30 0 27 3 30 29 30 23
0 34 -7 48 -30 9 -16 23 -30 30 -30 17 0 16 6 -3 36 -16 23 -16 26 6 49 47 50
-5 105 -100 105 l-40 0 0 -95z m94 69 c26 -10 38 -41 26 -64 -8 -15 -21 -20
-50 -20 l-40 0 0 45 c0 41 2 45 24 45 13 0 32 -3 40 -6z"/>
<path d="M4550 715 l0 -95 60 0 c33 0 60 4 60 10 0 6 -20 10 -45 10 l-45 0 0
85 c0 69 -3 85 -15 85 -12 0 -15 -17 -15 -95z"/>
<path d="M4790 714 l0 -96 65 4 c54 3 70 9 92 30 49 50 26 128 -44 147 -21 6
-55 11 -75 11 l-38 0 0 -96z m110 63 c34 -17 51 -54 39 -85 -14 -36 -38 -51
-81 -52 l-38 0 0 75 0 75 28 0 c15 0 38 -6 52 -13z"/>
<path d="M3395 715 c-10 -47 -15 -88 -12 -91 12 -13 25 8 31 51 8 53 18 51 50
-12 l23 -46 30 53 c33 57 37 56 48 -7 4 -29 12 -43 22 -43 11 0 14 7 10 23 -3
12 -11 50 -18 85 -7 34 -16 62 -19 62 -3 0 -19 -25 -35 -55 -17 -30 -33 -55
-36 -55 -3 0 -16 19 -29 43 -47 85 -45 85 -65 -8z"/>
<path d="M4293 710 c-28 -62 -37 -90 -28 -90 8 0 17 5 20 10 3 6 28 10 55 10
27 0 52 -4 55 -10 3 -5 13 -10 21 -10 10 0 1 25 -31 90 -25 50 -46 90 -48 90
-1 0 -21 -40 -44 -90z m67 -7 c8 -21 16 -41 18 -45 2 -5 -15 -8 -37 -8 -23 0
-41 4 -41 10 0 14 33 80 40 80 3 0 12 -17 20 -37z"/>
<path d="M5142 713 c-29 -59 -38 -89 -30 -92 7 -2 14 1 16 8 5 14 112 15 112
1 0 -5 7 -10 15 -10 8 0 15 2 15 4 0 7 -80 176 -83 176 -2 0 -22 -39 -45 -87z
m68 -13 c11 -21 20 -42 20 -45 0 -3 -18 -5 -40 -5 -22 0 -40 4 -40 10 0 10 32
80 37 80 1 0 12 -18 23 -40z"/>
</g>
</svg>
