<?xml version="1.0" standalone="no"?>
<!DOCTYPE svg PUBLIC "-//W3C//DTD SVG 20010904//EN"
 "http://www.w3.org/TR/2001/REC-SVG-20010904/DTD/svg10.dtd">
<svg version="1.0" xmlns="http://www.w3.org/2000/svg"
 width="300.000000pt" height="251.000000pt" viewBox="0 0 300.000000 251.000000"
 preserveAspectRatio="xMidYMid meet">
<metadata>
Created by potrace 1.16, written by Peter Selinger 2001-2019
</metadata>
<g transform="translate(0.000000,251.000000) scale(0.100000,-0.100000)"
fill="#000000" stroke="none">
<path d="M0 2370 c0 -105 3 -140 13 -140 8 0 9 -2 1 -8 -7 -4 -12 -47 -13
-114 -2 -93 0 -108 16 -117 17 -10 17 -10 1 -11 -10 0 -18 -7 -18 -16 0 -11 6
-14 22 -9 17 6 20 4 15 -9 -4 -9 -2 -16 4 -16 6 0 7 -4 4 -10 -3 -5 -15 -10
-26 -10 -10 0 -19 -4 -19 -8 0 -11 76 -9 87 2 5 5 3 6 -5 2 -10 -6 -11 -1 -6
21 9 38 13 43 30 43 10 0 12 5 8 13 -5 8 -2 8 9 -2 18 -14 23 -41 8 -41 -5 0
-12 6 -14 13 -4 9 -8 8 -16 -3 -16 -22 -13 -30 6 -24 13 4 14 3 5 -4 -9 -6
-11 -18 -7 -35 4 -15 4 -34 1 -43 -5 -13 -9 -14 -21 -4 -9 7 -18 10 -22 7 -3
-4 -13 -1 -21 6 -13 11 -14 9 -1 -10 9 -15 16 -19 21 -10 5 8 9 7 13 -4 4 -10
17 -15 34 -14 20 1 28 -2 24 -11 -5 -14 -31 -26 -42 -20 -3 3 -18 -5 -31 -15
-23 -19 -23 -19 -2 -9 17 8 22 8 22 -3 0 -8 7 -20 16 -28 13 -10 17 -10 24 0
4 8 13 10 19 7 6 -4 11 -1 11 8 0 13 4 14 28 4 43 -19 47 -26 12 -25 -19 1
-35 -3 -37 -10 -3 -7 3 -13 12 -13 11 0 15 -5 11 -15 -3 -9 0 -15 9 -15 8 0
15 -3 15 -6 0 -10 -29 -34 -42 -34 -7 0 -24 -12 -38 -27 l-25 -27 38 22 c40
23 62 28 53 13 -4 -5 0 -12 6 -15 7 -3 2 -3 -12 0 -24 6 -24 5 -8 -12 14 -14
21 -16 30 -6 17 17 33 15 18 -3 -14 -17 -50 -20 -50 -5 0 6 -4 10 -10 10 -5 0
-10 -9 -10 -20 0 -12 -10 -25 -23 -31 -12 -6 -32 -23 -42 -40 -13 -19 -25 -27
-35 -23 -8 4 -21 7 -27 7 -19 1 -16 17 2 17 11 0 14 7 11 25 -3 16 1 28 12 35
14 8 13 9 -10 10 -14 0 -29 6 -31 13 -3 6 -6 -30 -6 -80 -1 -82 1 -93 17 -93
16 -1 16 -1 0 -14 -17 -12 -18 -58 -18 -700 l0 -686 295 0 295 0 -6 26 c-5 19
-4 25 5 20 6 -4 11 -16 11 -27 0 -16 7 -19 46 -19 l46 0 -22 35 c-12 20 -17
35 -10 35 8 0 8 6 0 22 -10 21 -9 21 9 -2 l21 -25 -6 35 c-3 19 -8 41 -10 48
-2 7 0 11 5 8 14 -9 21 -79 9 -93 -7 -9 -6 -20 6 -38 l17 -25 177 2 c121 2
176 6 175 14 -1 6 -5 42 -9 80 -3 38 -8 72 -10 75 -2 3 3 30 11 59 8 29 11 58
7 64 -8 12 -8 18 -16 127 -3 42 -6 80 -7 85 -4 25 3 54 17 68 19 20 34 12 34
-18 0 -29 26 -52 53 -48 16 3 18 0 12 -15 -29 -69 -36 -102 -31 -150 3 -34 1
-57 -7 -65 -7 -7 -12 -39 -11 -73 0 -33 -3 -64 -6 -70 -11 -16 -19 -78 -13
-108 5 -26 8 -27 62 -27 52 1 54 2 36 15 -11 8 -30 24 -42 36 -22 20 -22 22
-7 57 29 68 64 187 59 200 -2 7 3 16 12 19 15 6 14 7 -3 14 -17 7 -17 8 4 8
19 1 23 6 22 29 -1 15 -2 47 -1 72 l1 44 35 -73 c20 -41 38 -72 40 -69 3 3 -8
34 -24 69 -16 35 -34 88 -39 117 l-10 54 39 -38 c51 -50 50 -32 -1 30 -44 53
-53 88 -20 79 25 -7 27 20 2 39 -39 30 -52 59 -72 158 -11 58 -21 119 -21 135
-2 29 -2 29 -6 3 -3 -18 -9 -25 -19 -21 -12 4 -12 1 1 -23 18 -34 20 -53 4
-37 -6 6 -20 40 -30 75 l-19 63 6 -55 c3 -30 16 -77 30 -103 31 -62 36 -113
12 -111 -22 2 -22 2 3 -27 21 -24 21 -24 1 -27 -11 -2 -39 6 -61 18 -23 11
-41 16 -41 10 0 -5 -5 -10 -11 -10 -6 0 -9 7 -6 15 4 8 2 17 -4 21 -6 3 -6 10
-1 17 5 7 12 30 16 52 4 22 9 52 12 67 4 21 2 28 -10 28 -19 0 -21 25 -4 36 8
5 9 2 5 -10 -5 -11 -3 -16 5 -14 6 2 15 14 19 27 6 14 5 20 -1 16 -6 -3 -10 1
-10 9 0 8 4 17 9 21 5 3 19 31 31 63 24 65 66 125 81 116 14 -8 -1 49 -15 58
-16 11 -38 10 -31 -2 4 -6 10 -8 15 -5 5 3 11 1 15 -5 4 -6 -6 -10 -24 -10
-16 0 -33 5 -36 10 -3 6 -1 10 4 10 6 0 11 3 11 8 0 4 -11 7 -24 7 -15 0 -22
-5 -19 -12 3 -9 -5 -13 -23 -13 -16 0 -24 4 -18 8 6 4 14 17 18 30 6 17 0 29
-22 52 -24 23 -29 25 -25 10 3 -11 11 -25 19 -31 19 -16 18 -49 -2 -49 -9 0
-14 7 -12 17 2 10 -5 26 -15 36 -10 10 -15 22 -12 27 3 4 1 10 -3 12 -5 1 -12
15 -16 31 -5 21 -3 27 9 27 12 0 13 4 6 18 -6 11 -6 24 0 33 9 15 9 15 13 -20
2 -14 16 -34 31 -47 18 -14 26 -28 22 -38 -4 -9 -2 -16 2 -16 5 0 11 6 14 13
3 7 9 2 15 -13 6 -14 11 -19 11 -12 1 7 -6 26 -14 42 -9 17 -11 30 -5 30 13 0
13 37 0 45 -13 8 -13 25 0 25 6 0 15 -10 20 -22 8 -19 9 -17 4 11 -4 23 -3 31
5 27 23 -15 10 23 -24 65 l-35 44 36 3 c32 3 35 6 30 25 -3 12 -6 26 -6 30 0
5 -4 6 -9 3 -4 -3 -19 6 -31 19 -13 14 -18 25 -12 25 7 0 12 -4 12 -10 0 -5 4
-10 10 -10 5 0 7 7 4 15 -7 16 19 17 45 1 10 -6 12 -5 7 2 -5 9 50 128 70 151
2 2 20 -7 41 -19 l38 -22 -33 29 c-35 32 -40 48 -16 57 15 6 69 -22 59 -32 -3
-3 -14 3 -25 13 -11 10 -23 16 -26 13 -3 -4 8 -14 25 -24 17 -10 31 -22 31
-26 0 -4 5 -8 11 -8 8 0 9 4 0 13 -6 8 -8 17 -4 20 3 4 0 14 -8 24 -11 14 -6
13 24 -5 44 -26 40 -9 -5 18 -28 17 -29 18 -9 25 24 7 29 25 7 25 -8 0 -24 8
-37 18 -17 15 -19 21 -9 27 8 5 11 4 7 -2 -4 -6 25 -25 66 -44 94 -45 95 -45
72 -21 -11 11 -22 20 -25 20 -23 0 -29 4 -23 19 5 12 2 15 -9 10 -10 -3 -19 0
-22 9 -7 18 -2 18 37 -3 33 -18 111 -27 101 -12 -3 5 3 6 12 2 11 -4 15 -2 11
4 -4 6 3 8 18 5 25 -4 25 -22 0 -22 -19 0 -60 -44 -92 -98 -24 -40 -25 -50
-21 -138 4 -78 3 -94 -10 -94 -11 0 -13 -9 -7 -47 4 -27 12 -59 19 -73 7 -14
20 -40 29 -59 19 -36 9 -65 -19 -54 -19 7 -18 -7 2 -22 16 -11 16 -12 0 -18
-10 -4 -19 -1 -22 8 -8 20 -24 19 -24 -2 0 -13 -3 -12 -19 5 -22 26 -33 28
-24 6 5 -14 3 -14 -16 -3 -11 8 -21 16 -21 19 0 3 -12 6 -26 6 -19 2 -24 -2
-20 -13 4 -11 2 -13 -9 -9 -13 4 -14 2 -5 -14 10 -19 9 -20 -32 -15 -36 5 -40
4 -24 -6 11 -7 37 -9 67 -6 29 4 51 2 55 -5 4 -6 -1 -8 -16 -3 -18 6 -21 3
-19 -17 2 -12 -1 -34 -5 -47 -12 -36 5 -42 54 -17 29 15 53 36 67 62 l23 39 0
-33 c0 -18 6 -45 14 -60 17 -33 70 -85 60 -59 -9 25 11 21 29 -6 16 -22 16
-22 10 11 -4 24 -2 32 10 32 8 0 20 -7 27 -15 7 -8 19 -15 26 -15 20 0 18 46
-2 54 -14 5 -12 10 11 27 17 14 25 28 22 40 -3 12 4 21 24 29 27 11 69 68 69
92 0 7 -13 -1 -30 -17 -16 -16 -33 -26 -36 -22 -3 3 -16 2 -28 -3 -14 -5 -30
-3 -44 4 l-23 12 25 12 c34 15 33 32 -1 32 -14 0 -23 3 -20 7 4 3 28 5 53 5
32 -2 45 1 42 10 -3 7 -13 13 -24 14 -66 3 -87 6 -75 11 14 6 51 40 51 47 0 3
-12 6 -27 8 -28 3 -28 3 -24 71 2 46 -1 67 -8 67 -7 0 -22 9 -34 20 -18 18
-19 22 -7 30 12 8 13 13 3 29 -11 17 -8 20 25 26 20 3 55 7 77 8 22 1 45 5 52
10 14 9 63 -8 63 -22 0 -6 12 -27 26 -48 26 -39 28 -62 10 -148 -6 -30 7 -65
20 -52 4 3 1 13 -6 22 -7 9 -10 19 -6 22 9 9 26 -17 26 -40 0 -10 -16 -33 -35
-53 -45 -45 -46 -83 -2 -143 33 -45 62 -66 51 -37 -4 10 -1 16 7 16 7 0 9 -3
6 -6 -14 -14 14 -41 55 -53 46 -14 88 -31 154 -62 33 -15 46 -31 72 -83 18
-35 32 -69 32 -75 0 -6 5 -11 11 -11 5 0 8 -4 5 -9 -3 -4 1 -26 8 -47 8 -22
20 -65 27 -96 7 -32 20 -65 31 -74 10 -10 18 -22 18 -28 0 -7 -3 -6 -8 2 -6 9
-28 4 -89 -23 -97 -42 -136 -46 -132 -12 2 12 -1 29 -6 37 -12 19 -36 -164
-38 -295 -2 -111 19 -290 40 -328 8 -16 16 -41 18 -55 1 -15 5 -44 10 -65 6
-30 4 -42 -11 -58 -18 -20 -18 -20 33 -18 29 1 50 6 47 11 -3 4 0 8 5 8 6 0
11 -4 11 -10 0 -5 5 -10 11 -10 8 0 7 5 -1 15 -7 9 -9 19 -5 23 4 4 10 1 12
-6 4 -10 8 -10 19 -1 11 9 14 7 14 -10 0 -21 2 -22 172 -20 107 0 166 4 157
10 -9 5 -10 9 -2 9 6 0 14 -4 18 -9 3 -6 114 -10 265 -10 l260 0 0 222 c0 122
-4 217 -8 210 -5 -9 -11 -6 -21 9 -12 19 -11 20 8 15 19 -5 21 -1 21 42 0 26
-5 52 -12 59 -9 9 -9 12 0 12 20 0 13 17 -10 25 l-23 8 23 4 c17 3 22 11 22
33 l0 30 -35 -18 c-19 -9 -35 -22 -35 -29 0 -15 -37 -5 -44 13 -3 8 -1 14 4
14 4 0 29 21 54 46 52 52 60 78 21 68 -27 -7 -30 1 -15 40 6 16 17 26 30 26
11 0 20 7 20 15 0 13 -3 13 -20 3 -10 -7 -22 -9 -26 -6 -12 13 5 38 26 38 19
0 20 6 19 138 -1 99 -4 130 -11 112 -5 -14 -7 -35 -5 -47 3 -14 0 -20 -9 -16
-7 2 -10 11 -8 18 3 7 1 16 -5 20 -6 3 -11 1 -11 -4 0 -6 -4 -11 -9 -11 -4 0
-6 11 -3 25 2 15 0 25 -7 25 -6 0 -11 -7 -11 -15 0 -8 -4 -15 -10 -15 -14 0
-12 23 4 45 8 11 12 25 9 32 -3 7 0 13 7 13 7 0 10 7 5 18 -5 14 -4 15 7 4 7
-7 13 -18 13 -25 0 -7 9 -12 20 -12 19 0 20 8 23 103 2 71 -1 102 -8 97 -6 -3
-8 -10 -5 -15 3 -5 1 -11 -4 -14 -5 -4 -12 -2 -16 4 -4 6 -12 7 -18 4 -7 -4
-3 2 8 13 12 11 27 23 35 26 10 3 7 6 -7 6 -12 1 -24 -3 -28 -9 -3 -5 -12 -7
-20 -3 -8 3 -15 0 -15 -6 0 -6 -5 -11 -11 -11 -5 0 -7 6 -3 13 6 10 4 10 -7 0
-15 -15 -33 -18 -25 -5 4 7 -19 8 -44 3 -3 -1 4 -8 14 -16 19 -15 19 -15 -2
-15 -14 0 -26 9 -31 23 -8 19 -10 20 -16 5 -8 -21 -29 -13 -21 8 8 22 -11 17
-28 -7 -8 -12 -19 -18 -24 -15 -5 3 -15 -1 -22 -9 -15 -18 -31 -20 -28 -3 4
15 -41 19 -66 6 -13 -7 -16 -7 -12 1 9 14 4 14 -29 1 -17 -7 -24 -7 -20 0 8
12 -1 13 -23 1 -12 -6 -23 -5 -36 4 -17 13 -16 14 11 28 15 8 33 12 39 10 6
-2 17 3 24 12 16 19 31 20 24 0 -9 -23 9 -18 25 6 11 19 11 21 -2 16 -8 -3
-19 -1 -25 5 -8 8 -13 7 -18 -5 -3 -9 -11 -17 -16 -17 -6 0 -8 7 -4 15 3 9 0
15 -9 15 -9 0 -12 -6 -9 -15 5 -13 2 -14 -19 -6 -21 8 -24 7 -20 -7 3 -12 -5
-21 -26 -29 -17 -6 -31 -7 -31 -2 0 5 -6 9 -14 9 -16 0 -28 -58 -14 -66 5 -3
19 2 31 13 l21 18 -16 -25 c-9 -14 -23 -24 -32 -22 -9 2 -16 -3 -16 -10 -2
-35 -12 -124 -15 -136 -3 -7 4 -23 15 -34 13 -14 20 -17 20 -8 0 7 3 10 6 7 4
-3 16 0 28 8 23 17 56 20 56 5 0 -5 -6 -10 -12 -10 -9 0 -8 -4 2 -10 12 -7 12
-10 1 -10 -7 0 -11 -6 -7 -15 3 -8 -9 -30 -29 -51 -34 -36 -37 -54 -10 -54 9
0 12 -6 9 -15 -4 -9 0 -15 10 -15 20 0 19 -7 -3 -45 -10 -16 -26 -32 -37 -34
-16 -3 -15 0 6 18 19 17 20 20 5 13 -11 -5 -26 -7 -33 -5 -7 3 -20 2 -29 -1
-14 -6 -14 -9 3 -29 17 -19 16 -19 -9 2 -27 24 -36 38 -18 26 6 -3 7 9 4 31
-5 28 -3 35 6 29 8 -4 6 3 -3 17 -9 14 -14 33 -10 42 4 9 1 16 -6 16 -9 0 -10
14 -4 53 10 70 13 102 18 166 2 30 10 57 16 61 8 5 8 10 2 14 -11 7 4 87 18
96 9 6 8 24 -5 53 -5 11 -2 24 9 36 9 10 16 21 16 26 0 5 -6 0 -14 -10 -12
-17 -14 -5 -11 95 3 130 13 210 26 210 5 0 9 5 9 11 0 5 -5 7 -10 4 -11 -7
-14 8 -3 19 4 3 18 36 32 73 26 66 53 97 44 50 -3 -14 0 -27 5 -31 10 -6 28
82 18 92 -3 3 -6 0 -6 -6 0 -7 -5 -12 -11 -12 -11 0 -6 24 16 75 7 17 16 41
19 55 3 14 15 36 26 50 l20 25 -19 -47 c-12 -28 -16 -50 -11 -53 13 -8 32 4
25 16 -3 5 0 6 8 3 8 -3 18 0 22 6 4 6 15 8 25 5 10 -3 21 -1 25 5 3 5 14 10
23 10 10 0 25 8 34 19 27 31 98 159 98 175 0 9 4 16 8 16 5 0 16 18 26 39 9
22 25 42 34 44 9 3 -18 5 -60 6 -46 1 -78 -3 -78 -9 0 -5 -5 -10 -11 -10 -5 0
-7 4 -4 10 3 6 -16 9 -49 8 -51 -1 -56 -4 -67 -30 -15 -36 -23 -31 -10 6 10
24 8 26 -14 26 -19 0 -26 -7 -31 -27 -9 -44 -22 -79 -23 -63 0 8 3 32 8 53 l9
37 -174 0 c-132 0 -174 -3 -174 -12 0 -9 -3 -10 -8 -2 -4 6 -36 12 -70 13 -50
2 -62 -1 -56 -11 6 -10 5 -11 -7 -1 -12 10 -249 12 -1032 13 l-1017 0 0 -140z
m2359 -761 c-1 -51 -4 -68 -12 -60 -14 14 -27 14 -27 0 0 -5 5 -7 10 -4 6 3
10 -1 10 -10 0 -10 5 -13 12 -9 8 5 9 2 4 -12 -4 -10 -12 -43 -18 -71 -6 -29
-14 -53 -19 -53 -5 0 -6 6 -3 14 3 8 1 17 -5 20 -5 3 -12 -7 -16 -24 -4 -17
-11 -28 -16 -24 -5 3 -5 13 1 24 7 13 6 19 -6 24 -24 9 -46 7 -39 -4 4 -6 10
-8 15 -5 5 3 11 1 15 -5 3 -5 2 -10 -3 -10 -6 0 -8 -9 -5 -20 3 -11 9 -20 14
-20 5 0 9 -7 9 -16 0 -14 -3 -14 -15 -4 -8 7 -15 19 -15 26 0 8 -4 14 -10 14
-5 0 -9 3 -8 8 1 4 -5 21 -14 37 l-17 30 5 -39 c4 -34 2 -37 -11 -26 -12 10
-15 10 -15 -4 0 -17 -13 -19 -44 -7 -15 6 -16 10 -7 16 10 6 10 9 1 15 -8 5
-2 17 20 40 18 18 35 29 39 24 10 -15 29 -14 35 1 3 8 1 17 -4 20 -6 4 -10 1
-10 -5 0 -6 -4 -8 -10 -5 -17 11 -11 23 18 34 95 40 132 75 132 126 0 19 2 35
5 35 3 0 4 -32 4 -71z m-231 -853 c-2 -19 0 -32 5 -29 8 5 4 -16 -10 -53 -5
-13 23 -44 39 -44 6 0 3 8 -6 19 -12 13 -15 27 -10 45 9 36 27 33 22 -3 -2
-17 -1 -28 4 -25 4 3 8 -4 8 -15 0 -11 -9 -25 -20 -31 -11 -6 -20 -15 -20 -21
0 -6 9 -8 20 -4 14 5 20 2 20 -9 0 -9 -6 -16 -14 -16 -11 0 -14 -17 -12 -82 2
-46 1 -76 -1 -68 -12 41 -13 41 -38 14 -31 -34 -34 -69 -5 -61 18 4 20 2 14
-16 -8 -28 -20 -40 -40 -43 -9 -1 -13 0 -10 3 3 3 -1 12 -9 20 -18 17 -19 33
-4 33 5 0 7 -4 4 -10 -3 -5 -2 -10 3 -10 9 0 8 43 -3 138 -6 46 -4 52 12 52
16 1 16 2 3 13 -8 7 -14 22 -12 34 2 17 -3 26 -21 32 -27 10 -32 21 -42 87
l-6 41 42 11 c32 8 45 8 53 -1 6 -7 10 -10 9 -8 -3 6 17 41 23 41 4 0 4 -15 2
-34z"/>
<path d="M2655 2184 c-11 -8 -28 -13 -38 -10 -11 2 -16 2 -13 -1 3 -4 -8 -14
-24 -24 -17 -11 -30 -26 -30 -34 0 -9 -5 -13 -10 -10 -6 4 -8 16 -5 28 6 21 6
22 -9 3 -21 -26 -20 -33 6 -39 26 -7 58 8 58 28 0 8 5 15 10 15 12 0 14 -27 3
-32 -11 -4 -77 -105 -102 -155 -12 -24 -32 -50 -46 -59 -13 -8 -22 -21 -19
-28 3 -7 0 -25 -6 -41 -9 -25 -9 -26 5 -15 13 11 15 8 15 -20 0 -39 10 -34 15
6 1 16 7 30 13 32 5 1 8 11 5 22 -5 19 74 180 89 180 11 0 10 -7 -3 -33 -10
-18 -9 -20 2 -9 7 7 14 25 15 40 1 15 3 30 3 35 1 4 6 7 11 7 6 0 10 -15 10
-32 l1 -33 15 27 c12 22 12 31 2 47 -10 17 -7 26 21 66 36 50 38 62 6 39z"/>
</g>
</svg>
