<?xml version="1.0" standalone="no"?>
<!DOCTYPE svg PUBLIC "-//W3C//DTD SVG 20010904//EN"
 "http://www.w3.org/TR/2001/REC-SVG-20010904/DTD/svg10.dtd">
<svg version="1.0" xmlns="http://www.w3.org/2000/svg"
 width="300.000000pt" height="250.000000pt" viewBox="0 0 300.000000 250.000000"
 preserveAspectRatio="xMidYMid meet">

<g transform="translate(0.000000,250.000000) scale(0.100000,-0.100000)"
fill="#000000" stroke="none">
<path d="M166 2455 c4 -8 10 -12 15 -9 11 6 2 24 -11 24 -5 0 -7 -7 -4 -15z"/>
<path d="M176 2402 c-3 -5 -38 -13 -77 -16 -39 -4 -77 -10 -85 -13 -18 -6 -19
-69 -1 -76 9 -4 9 -6 0 -6 -9 -1 -12 -92 -13 -390 l0 -389 35 -16 c33 -16 47
-36 25 -36 -5 0 -10 3 -10 8 0 4 -11 12 -25 19 -30 13 -33 3 -5 -15 11 -7 20
-17 20 -23 0 -15 61 -71 69 -64 3 4 -2 11 -12 16 -18 10 -23 29 -9 29 12 0 82
-71 82 -82 0 -5 -6 -6 -12 -2 -7 4 -4 -3 7 -15 17 -20 20 -21 23 -6 2 9 -1 22
-7 28 -15 15 -14 30 0 21 9 -5 10 1 5 22 -4 16 -12 32 -18 35 -7 4 -6 8 2 11
15 5 -34 96 -56 105 -8 3 -11 10 -7 16 3 6 -7 21 -23 34 l-29 23 32 -11 c30
-10 38 -20 34 -42 -1 -5 7 -8 16 -7 35 4 54 0 48 -10 -3 -5 -13 -7 -23 -4 -16
5 -16 5 0 -6 9 -6 15 -17 12 -24 -3 -8 4 -16 16 -19 12 -3 19 -10 16 -15 -3
-5 1 -18 9 -28 8 -10 15 -14 15 -7 0 6 -5 15 -11 19 -8 5 -8 9 1 14 10 6 8 15
-6 39 -17 29 -12 60 5 32 5 -7 13 -11 18 -8 6 4 8 -5 6 -21 -4 -21 -2 -24 6
-12 6 8 11 24 11 35 0 11 4 26 9 33 5 9 8 -8 6 -42 -1 -41 2 -56 12 -56 7 0
13 12 14 28 l0 27 10 -24 c7 -18 6 -27 -3 -32 -10 -7 -10 -11 0 -21 6 -6 12
-8 12 -3 1 6 8 -1 16 -15 l15 -25 -4 28 c-3 16 0 26 6 24 6 -2 12 -14 14 -27
5 -32 13 -39 13 -11 0 12 6 29 14 37 13 12 15 10 14 -16 -1 -16 5 -37 13 -46
7 -9 14 -31 15 -48 1 -17 6 -44 13 -59 6 -16 11 -35 11 -43 0 -8 6 -17 14 -20
8 -3 11 -15 8 -30 -4 -24 11 -33 23 -14 4 6 11 8 16 5 5 -4 9 -1 9 5 0 6 5 8
10 5 14 -9 110 14 110 26 0 4 7 6 16 2 14 -5 16 -1 12 20 -4 23 -3 25 9 16 23
-19 41 5 25 32 -8 12 -9 18 -3 14 6 -3 11 0 12 7 0 7 5 3 11 -9 13 -26 43 -30
55 -8 5 9 30 17 58 21 27 3 53 10 56 16 3 5 9 9 13 9 20 -3 25 0 20 13 -8 20
26 29 40 10 11 -15 14 -15 31 2 10 11 20 18 22 17 2 -2 8 -3 14 -3 8 0 7 5 -1
15 -7 9 -10 18 -7 22 4 3 12 -6 18 -21 16 -34 32 -14 23 28 -5 22 -3 27 7 21
8 -4 4 2 -9 15 -13 12 -21 25 -18 28 4 3 13 -3 20 -14 14 -18 15 -18 21 -1 10
25 20 21 41 -18 13 -24 24 -33 34 -29 37 14 36 19 30 -153 0 -13 -5 -23 -11
-23 -8 0 -7 -5 1 -15 7 -8 8 -15 3 -15 -9 0 -10 -40 -1 -56 15 -24 31 -139 34
-238 2 -90 6 -112 22 -130 11 -11 23 -34 26 -51 17 -72 18 -85 7 -85 -6 0 -11
10 -11 23 0 20 -39 77 -54 77 -8 0 4 -53 14 -60 3 -3 12 -20 20 -39 11 -26 11
-36 2 -39 -7 -2 -12 -8 -12 -13 0 -5 11 -4 26 1 37 14 44 13 44 -11 0 -11 4
-18 8 -15 12 7 6 -68 -7 -92 -17 -33 -13 -52 12 -53 20 -1 20 -2 2 -6 -11 -3
-25 -12 -32 -20 -6 -8 -17 -12 -22 -8 -6 3 -14 -1 -17 -10 -4 -8 -14 -20 -24
-25 -15 -8 -17 -6 -11 23 5 23 12 32 26 32 11 0 23 -4 27 -10 10 -14 21 22 12
43 -4 9 -7 19 -6 22 0 3 -7 6 -16 6 -9 1 -24 4 -34 8 -11 5 -18 1 -23 -13 -6
-19 -8 -19 -21 -6 -20 20 -31 19 -43 -2 -10 -17 -10 -17 -11 0 0 9 -4 17 -9
17 -13 0 -24 -34 -12 -38 6 -2 11 -9 11 -15 0 -7 7 -21 15 -31 12 -15 17 -17
29 -7 12 10 17 8 26 -8 11 -21 -3 -31 -15 -11 -4 6 -11 8 -16 4 -6 -3 -19 2
-29 11 -18 16 -18 16 -14 -2 4 -13 -3 -21 -23 -29 -26 -9 -29 -8 -30 8 -1 14
3 18 13 14 9 -3 12 -1 9 4 -3 6 -2 10 3 10 17 0 5 41 -16 56 -12 8 -22 25 -23
37 0 16 -2 18 -7 7 -8 -18 -48 -25 -57 -10 -3 6 -11 8 -16 5 -5 -4 -9 1 -9 10
0 13 4 14 23 4 21 -12 21 -11 5 8 -22 24 -24 40 -3 23 13 -11 15 -8 15 19 0
33 -8 39 -29 19 -10 -11 -11 -9 -5 6 6 16 4 18 -12 11 -10 -4 -29 -8 -41 -8
-13 1 -20 -3 -17 -8 8 -14 -20 -11 -35 3 -10 11 -15 10 -25 -4 -9 -13 -16 -14
-31 -5 -18 9 -18 9 -7 -6 10 -12 11 -20 2 -34 -10 -16 -10 -15 -5 5 4 13 2 22
-5 22 -7 0 -14 -9 -17 -21 -4 -15 -8 -17 -14 -8 -4 8 -3 20 4 28 9 12 9 13 -1
7 -8 -5 -12 0 -12 14 0 12 -4 19 -9 16 -5 -4 -11 0 -14 6 -2 7 -4 1 -4 -14 0
-15 3 -25 8 -22 5 3 9 -2 9 -10 0 -8 -5 -18 -10 -21 -8 -5 -7 -12 2 -23 10
-12 10 -14 1 -8 -8 4 -13 1 -13 -8 0 -9 -4 -16 -9 -16 -4 0 -5 18 -1 40 5 28
3 45 -7 60 -15 21 -15 21 -39 -7 -13 -15 -24 -23 -24 -16 0 6 7 18 15 27 20
20 19 25 -5 19 -11 -3 -17 -9 -14 -15 9 -14 -16 -37 -33 -31 -14 5 -13 8 3 21
19 14 19 15 0 8 -12 -4 -27 0 -39 11 -20 18 -20 17 -13 -27 4 -30 3 -40 -3
-30 -8 12 -11 11 -17 -5 -3 -11 -14 -38 -24 -60 -10 -22 -20 -47 -23 -55 -4
-11 -6 -9 -6 5 -1 11 8 35 20 54 21 35 22 72 2 78 -7 3 -12 -7 -11 -24 0 -15
-7 -41 -16 -58 -9 -16 -16 -38 -16 -47 0 -10 -5 -18 -10 -18 -6 0 -10 6 -9 13
4 34 -1 40 -19 23 -18 -15 -19 -15 -30 9 -7 15 -8 25 -2 25 14 0 12 33 -3 55
-10 12 -16 14 -21 7 -4 -7 -13 -12 -19 -12 -7 0 -1 9 13 20 19 15 22 22 12 29
-10 6 -8 10 10 16 17 5 19 8 7 12 -9 2 -21 15 -27 28 -14 31 -29 32 -35 3 -2
-13 -3 -8 -1 10 3 30 1 32 -24 29 -15 -2 -39 0 -54 4 -24 7 -28 5 -28 -14 -1
-21 -2 -20 -27 8 -16 18 -24 23 -20 12 16 -42 19 -67 8 -67 -6 0 -10 3 -10 8
1 4 1 12 0 19 -1 15 -31 5 -31 -11 0 -6 -7 -24 -15 -40 -17 -33 -11 -49 16
-41 13 4 19 2 19 -8 0 -8 7 -20 15 -27 13 -11 14 -6 10 36 -3 34 -2 41 4 24
19 -58 23 -67 42 -78 16 -11 19 -9 19 9 0 11 5 17 10 14 10 -6 7 -76 -4 -105
-7 -18 -62 -19 -58 -1 1 6 -3 11 -9 11 -6 0 -8 8 -5 17 5 15 3 14 -9 -2 -9
-11 -13 -25 -10 -33 2 -7 0 -10 -5 -7 -15 9 -12 -18 5 -41 8 -12 11 -24 8 -28
-4 -3 -15 11 -24 31 -21 43 -23 57 -9 48 6 -3 7 1 4 10 -6 14 -8 14 -19 -1 -7
-10 -17 -14 -24 -9 -10 6 -11 3 -1 -15 10 -18 9 -21 -1 -15 -9 6 -11 3 -6 -8
3 -10 2 -17 -3 -17 -6 0 -10 3 -10 8 0 4 -9 18 -20 32 -12 15 -18 18 -14 7 8
-21 -14 -23 -22 -2 -17 45 -23 -6 -23 -200 l0 -215 32 1 c18 1 24 3 14 6 -14
4 -15 8 -7 18 8 10 8 19 0 34 -9 18 -8 20 7 14 10 -4 28 -13 41 -21 12 -8 30
-12 40 -10 10 3 23 -1 30 -9 7 -7 19 -10 25 -6 8 5 7 9 -5 11 -37 7 -16 17 42
19 45 2 60 -1 60 -11 0 -8 14 -19 31 -25 40 -14 40 -14 32 5 -5 13 -2 15 14
10 16 -5 20 -1 22 24 5 69 6 80 14 80 4 0 8 -7 8 -15 3 -28 4 -33 12 -41 4 -4
-1 -13 -11 -18 -14 -8 -17 -16 -11 -31 4 -11 8 -14 8 -8 1 9 60 43 75 43 0 0
2 -11 2 -25 1 -14 -2 -25 -8 -25 -5 0 -7 4 -4 9 3 5 -1 11 -9 15 -8 3 -15 1
-15 -4 0 -5 -7 -7 -15 -4 -9 4 -15 0 -15 -9 0 -9 8 -18 18 -20 38 -10 126 -6
140 5 13 11 14 11 8 0 -6 -9 6 -12 48 -10 31 1 56 6 56 11 0 5 6 5 13 -2 10
-7 17 -7 24 0 8 8 13 8 17 0 4 -6 39 -11 83 -11 72 0 75 1 60 18 -11 12 -13
22 -7 32 8 13 10 12 10 -2 0 -11 5 -15 15 -12 9 4 15 0 15 -7 0 -8 9 -3 21 11
18 23 19 23 9 3 -9 -19 -8 -23 5 -23 9 0 13 -4 10 -10 -4 -6 40 -10 126 -10
126 0 131 1 126 20 -3 13 0 20 8 20 7 0 20 2 27 5 9 3 20 -5 28 -19 10 -20 20
-25 46 -24 22 1 31 5 27 15 -3 7 0 13 6 13 6 0 11 -7 11 -15 0 -13 98 -15 820
-15 l820 0 0 203 c0 111 -4 207 -8 212 -4 6 -13 10 -19 11 -33 3 -35 7 -8 13
31 6 49 41 22 41 -8 0 -17 7 -21 15 -3 9 0 15 10 15 8 0 12 5 9 10 -3 5 -1 10
4 10 6 0 11 5 11 11 0 6 -6 9 -12 6 -7 -2 -21 0 -30 5 -14 7 -18 5 -19 -9 0
-13 -3 -12 -11 7 -6 14 -10 28 -10 32 1 4 -11 5 -27 2 -16 -4 -32 -1 -35 5 -4
6 -14 11 -22 11 -8 0 -12 -5 -9 -10 3 -5 -1 -10 -9 -10 -9 0 -16 7 -16 16 0
14 -3 14 -15 4 -14 -11 -19 -7 -16 13 0 4 -8 7 -20 7 -11 0 -18 -4 -15 -9 4
-5 -2 -8 -11 -6 -10 2 -26 4 -35 4 -20 1 -14 26 8 35 9 3 12 1 9 -4 -3 -6 1
-10 10 -10 9 0 21 13 26 30 6 16 16 27 21 24 6 -4 9 -1 6 7 -5 14 -56 17 -102
5 -32 -8 -54 -45 -35 -57 7 -4 16 -6 18 -3 3 3 0 8 -6 12 -8 5 -9 12 -2 22 8
11 12 12 16 2 2 -6 9 -10 14 -6 5 3 9 -2 9 -11 0 -23 -45 -41 -65 -25 -13 11
-15 10 -9 -6 5 -18 5 -18 -10 0 -15 19 -41 13 -29 -7 3 -7 -3 -4 -15 7 -12 11
-30 16 -41 13 -11 -3 -22 0 -23 5 -2 6 -19 7 -40 3 -28 -5 -39 -14 -48 -36
-10 -23 -15 -27 -26 -18 -8 6 -14 17 -13 23 0 7 2 6 6 -2 5 -14 23 -7 23 10 0
6 -10 7 -27 3 -16 -4 -35 -8 -43 -8 -20 0 -40 -22 -40 -44 -1 -15 -4 -14 -23
8 -13 14 -28 24 -35 21 -7 -2 -12 1 -12 7 0 6 -4 11 -10 11 -22 0 -8 -22 22
-35 26 -11 28 -14 12 -15 -30 0 -51 -27 -35 -43 10 -9 11 -8 6 4 -4 10 -2 19
3 23 5 3 8 -5 7 -17 -1 -13 6 -27 19 -34 28 -17 36 -16 30 2 -4 8 -1 15 5 15
6 0 11 -4 11 -10 0 -5 9 -19 20 -30 l20 -20 0 21 c0 11 -4 18 -9 15 -5 -3 -11
1 -15 9 -4 12 2 14 27 11 18 -3 41 -8 52 -11 11 -4 16 -3 10 2 -5 4 -11 17
-13 28 -3 20 -2 20 13 1 8 -11 15 -23 15 -27 0 -14 57 -28 69 -16 8 8 14 8 22
0 9 -9 19 -6 40 9 20 15 32 18 41 11 19 -15 58 -23 60 -12 0 5 1 15 2 22 2 24
36 37 36 14 0 -8 9 -22 20 -32 11 -10 20 -24 20 -32 0 -7 8 -13 18 -13 24 0
56 -35 47 -50 -5 -8 -11 -8 -19 -1 -7 6 -16 8 -19 4 -4 -3 -7 -1 -7 5 0 7 -8
12 -17 12 -15 0 -16 -2 -3 -10 12 -8 11 -10 -7 -10 -17 0 -23 6 -23 21 0 11
-5 19 -11 17 -6 -2 -10 -8 -10 -13 0 -17 -31 -45 -48 -44 -11 0 -9 4 7 11 32
16 27 25 -10 21 -28 -3 -30 -2 -11 6 28 13 20 47 -12 55 -13 3 -30 9 -39 12
-12 5 -15 2 -10 -10 4 -10 1 -16 -9 -16 -20 0 -59 -49 -50 -63 3 -6 1 -7 -5
-3 -6 4 -8 14 -5 24 5 13 3 14 -7 5 -7 -6 -19 -9 -28 -6 -12 5 -14 1 -10 -21
5 -25 4 -26 -13 -10 -10 9 -23 13 -28 9 -17 -10 -36 6 -20 17 11 7 9 8 -6 6
-11 -2 -19 -11 -19 -20 1 -16 0 -16 -25 0 -14 9 -32 24 -38 32 -11 13 -14 13
-23 0 -8 -12 -10 -11 -10 8 0 12 6 22 13 23 6 0 -1 5 -17 11 -24 9 -31 8 -43
-7 -7 -10 -14 -17 -15 -14 -2 2 -9 15 -17 29 -14 25 -14 25 7 7 15 -14 22 -15
28 -6 9 16 -41 60 -60 53 -8 -3 -17 -1 -21 5 -3 6 -11 11 -17 11 -6 0 -3 -12
7 -26 9 -14 14 -28 11 -32 -3 -3 -6 0 -6 7 0 10 -10 11 -35 7 -32 -6 -51 7
-24 16 7 2 6 8 -4 16 -12 10 -18 10 -31 -3 -9 -9 -16 -12 -16 -6 0 6 -4 11
-10 11 -5 0 -10 -12 -10 -26 0 -23 3 -25 25 -20 38 10 30 -8 -10 -23 -19 -7
-35 -16 -35 -20 0 -9 -39 -24 -54 -22 -4 1 -14 -3 -21 -9 -9 -8 -17 -7 -28 5
-20 20 -26 19 -24 -4 0 -11 6 -17 14 -14 31 12 10 -8 -23 -22 -46 -19 -60 -19
-44 0 7 9 10 18 6 22 -10 10 -56 12 -56 2 0 -5 -6 -9 -14 -9 -8 0 -17 -7 -20
-16 -5 -13 -9 -14 -22 -4 -11 10 -18 10 -26 2 -20 -20 -35 -14 -48 18 -7 17
-16 30 -21 30 -16 0 -7 54 21 135 49 138 103 317 103 341 0 13 3 24 8 24 13 0
11 26 -4 38 -9 7 -29 5 -72 -10 -50 -17 -77 -19 -165 -15 -58 3 -119 11 -136
18 -28 11 -32 18 -38 63 -9 77 -7 96 8 96 8 0 17 7 20 16 5 12 1 14 -17 8 -22
-6 -22 -6 3 21 l25 27 -25 -7 -25 -7 23 24 c24 26 30 47 9 29 -17 -14 -27 -4
-27 25 0 13 9 28 20 34 16 8 20 21 20 58 1 49 12 114 25 145 7 17 5 16 -29 -2
-20 -12 -50 -21 -66 -21 -16 0 -33 -7 -37 -15 -7 -11 -12 -1 -19 35 -8 40 -8
50 3 50 17 0 17 37 1 43 -7 3 -4 6 7 6 15 1 25 12 34 38 21 56 51 79 144 107
81 25 87 29 87 53 0 14 3 24 6 20 4 -3 3 -22 0 -41 -5 -24 -11 -33 -20 -30 -9
3 -16 -5 -19 -23 -5 -22 0 -33 21 -50 27 -23 48 -31 38 -14 -3 5 0 9 7 8 42
-1 57 5 71 33 8 17 10 27 4 24 -8 -5 -8 2 -3 22 4 16 7 37 7 47 0 9 4 17 9 17
6 0 7 -4 4 -10 -3 -5 -2 -10 4 -10 14 0 31 33 31 59 0 11 -9 25 -21 32 l-21
11 22 15 21 15 -20 19 c-28 27 -94 26 -122 -2 -17 -17 -19 -23 -8 -30 8 -5 17
-9 22 -9 15 0 6 -19 -13 -25 -12 -4 -20 -15 -20 -27 0 -21 -1 -20 -20 2 -11
13 -16 26 -11 29 5 3 12 30 16 58 5 41 13 58 36 77 30 26 51 27 124 10 l30 -7
-20 22 c-26 30 -85 55 -99 41 -5 -5 -19 -10 -31 -9 -19 0 -19 1 3 11 26 13 30
33 5 24 -16 -6 -16 -6 0 12 22 24 21 32 0 32 -16 0 -16 -2 -3 -11 22 -16 -63
-2 -103 16 -25 12 -27 14 -7 10 14 -3 41 -8 60 -11 34 -5 34 -5 15 11 -19 16
-19 17 15 9 19 -4 42 -8 50 -9 9 0 20 -4 26 -7 6 -4 21 -9 35 -12 13 -2 32 -7
42 -11 29 -12 19 1 -23 29 -22 14 -49 26 -61 26 -11 0 -34 9 -50 21 -16 11
-36 18 -44 15 -7 -2 -25 4 -38 14 -14 11 -42 21 -63 22 -44 3 -86 34 -56 41
21 4 108 -20 136 -38 12 -8 46 -23 76 -35 64 -25 164 -88 218 -137 20 -19 61
-50 90 -70 29 -19 51 -37 48 -40 -7 -7 29 -35 74 -58 31 -16 33 -19 15 -25
-13 -5 -28 -1 -43 11 -13 10 -36 21 -53 24 -16 4 -27 10 -24 15 3 5 -4 12 -16
15 -14 5 -17 10 -10 14 12 8 -45 39 -94 51 -16 4 -37 11 -45 14 -14 6 -14 -4
-6 -73 9 -78 9 -81 -22 -144 -18 -35 -32 -69 -32 -75 0 -10 78 -52 97 -52 25
0 72 -53 89 -100 10 -28 24 -51 31 -51 22 -2 28 -4 40 -12 6 -4 14 -3 17 2 3
5 15 7 26 4 15 -4 20 0 21 13 0 11 3 14 6 7 2 -7 8 -13 13 -13 14 0 5 32 -13
44 -9 7 -12 17 -8 24 5 9 14 1 27 -23 10 -19 25 -35 32 -35 7 0 10 5 6 11 -4
7 1 7 16 -1 20 -11 22 -10 17 4 -4 9 -2 16 3 16 6 0 10 -4 10 -10 0 -5 21 -10
46 -10 25 0 43 4 40 9 -3 5 2 8 11 7 9 0 18 5 21 13 3 10 0 12 -14 7 -10 -4
-15 -4 -12 0 9 8 -16 34 -34 34 -7 1 -24 7 -38 16 -25 14 -25 14 15 12 22 -2
45 -9 51 -17 9 -12 12 -11 17 3 4 9 1 16 -5 16 -6 0 -9 3 -5 6 11 11 -39 51
-64 50 -18 -1 -25 5 -27 22 -2 15 -15 29 -35 37 -18 8 -26 14 -19 15 7 0 10 5
7 10 -3 6 -2 10 4 10 5 0 14 -6 18 -13 4 -6 25 -25 46 -40 21 -16 45 -37 55
-47 13 -14 19 -15 29 -5 8 9 7 16 -7 28 -10 8 -21 13 -24 10 -3 -4 -6 -1 -6 5
0 17 14 15 40 -6 17 -14 20 -22 12 -42 -6 -16 -6 -34 0 -50 6 -15 12 -20 15
-13 4 10 10 10 26 -2 28 -19 43 -19 27 0 -9 11 -9 15 -1 15 7 0 10 4 6 10 -3
5 -12 7 -20 4 -7 -3 -18 3 -24 15 -16 30 -13 36 8 17 13 -12 21 -14 26 -6 9
14 35 -6 35 -26 0 -8 5 -14 10 -14 6 0 10 -5 10 -11 0 -6 -7 -8 -16 -5 -8 3
-12 2 -9 -3 3 -5 1 -12 -4 -16 -6 -3 -2 -14 10 -26 11 -11 17 -24 14 -28 -2
-5 2 -14 10 -21 12 -10 13 -7 5 22 -13 44 -12 59 2 28 6 -14 12 -28 12 -32 2
-15 17 -20 41 -14 25 6 25 7 10 44 l-15 37 32 -37 33 -36 85 5 c47 3 89 10 93
17 6 8 10 8 14 -1 7 -18 33 -16 33 2 0 13 4 14 21 4 12 -6 19 -7 15 -1 -3 5 3
12 14 15 11 3 20 1 20 -4 0 -20 30 -7 36 16 6 25 20 26 89 10 42 -9 86 -16
122 -18 l43 -3 -1 106 c0 58 -3 110 -7 116 -10 13 -62 17 -62 4 0 -20 -51 -5
-77 22 -37 38 -54 37 -46 -4 6 -31 6 -31 -13 -12 -11 10 -29 28 -41 39 l-22
21 32 2 c17 2 43 10 57 19 21 15 22 18 8 21 -10 2 -18 7 -18 12 0 5 -6 7 -14
4 -8 -3 -25 9 -41 30 -15 20 -32 36 -39 36 -6 0 -4 -5 4 -10 12 -8 11 -10 -7
-10 -12 0 -30 -3 -40 -7 -17 -6 -17 -5 1 15 11 12 15 22 9 22 -5 0 -16 11 -23
25 -7 14 -18 25 -23 25 -6 0 -3 -8 6 -17 13 -16 14 -20 1 -37 -8 -11 -14 -17
-14 -13 0 4 -9 3 -20 -3 -34 -18 -22 -27 39 -26 33 1 57 -2 55 -6 -3 -4 16
-19 41 -34 25 -14 44 -28 42 -30 -8 -9 -107 28 -101 37 3 6 -2 10 -12 9 -26
-3 -83 11 -90 21 -7 12 -61 11 -69 -1 -3 -5 -12 -10 -18 -10 -8 0 -7 4 2 9 20
13 22 38 4 52 -12 11 -13 8 -7 -16 5 -20 4 -26 -5 -21 -6 4 -11 1 -11 -6 0 -7
-7 -2 -16 10 -9 13 -22 21 -30 18 -8 -3 -14 1 -14 10 0 10 -6 14 -14 11 -10
-4 -13 -1 -10 8 4 10 0 12 -20 7 -36 -10 -36 -24 0 -42 17 -9 43 -26 59 -38
16 -13 35 -20 42 -17 8 2 12 1 9 -4 -15 -24 -47 -17 -97 21 -82 61 -142 94
-147 80 -2 -7 -8 -12 -13 -12 -4 0 -6 6 -3 14 3 9 -11 23 -38 40 -40 24 -69
38 -203 101 -103 48 -248 77 -398 80 -76 2 -143 8 -150 13 -15 12 -72 29 -116
36 -38 5 -72 -11 -64 -31 3 -7 0 -13 -5 -13 -6 0 -9 14 -7 30 2 17 1 30 -3 31
-4 0 -16 2 -27 5 -11 2 -51 8 -90 13 -38 5 -110 19 -160 31 -84 20 -99 20
-230 10 -185 -15 -521 -16 -540 0 -7 6 -16 7 -19 2z m767 -39 c-7 -2 -21 -2
-30 0 -10 3 -4 5 12 5 17 0 24 -2 18 -5z m270 -60 c-7 -2 -19 -2 -25 0 -7 3
-2 5 12 5 14 0 19 -2 13 -5z m143 -109 c-3 -8 0 -14 6 -14 6 0 9 -3 5 -6 -3
-3 -15 -3 -28 1 -17 6 -19 9 -8 16 10 6 11 9 2 9 -7 0 -13 4 -13 9 0 5 9 7 21
4 12 -3 18 -11 15 -19z m49 -12 c-3 -3 -11 0 -18 7 -9 10 -8 11 6 5 10 -3 15
-9 12 -12z m-1221 -33 c26 -11 44 -24 41 -29 -6 -9 18 -20 48 -21 l22 0 -22
-9 c-29 -12 -63 -1 -63 20 0 27 -49 14 -56 -15 -5 -19 -11 -23 -32 -20 -15 2
-35 4 -44 4 -10 1 -18 6 -18 11 0 6 21 10 48 10 46 1 47 1 26 19 -16 13 -19
22 -12 34 11 21 6 21 62 -4z m1306 -39 c0 -5 -5 -10 -11 -10 -5 0 -7 5 -4 10
3 6 8 10 11 10 2 0 4 -4 4 -10z m-96 -50 c5 -5 21 -10 34 -10 23 0 24 -2 17
-37 -4 -21 -7 -51 -6 -68 1 -21 -2 -26 -8 -16 -5 8 -7 25 -5 38 3 14 1 22 -5
19 -5 -4 -12 -2 -16 4 -3 5 -1 10 4 10 6 0 11 5 11 11 0 6 -7 9 -15 5 -9 -3
-15 0 -15 8 0 8 -13 19 -30 26 -16 7 -30 16 -30 21 0 12 50 3 64 -11z m-77 4
c-3 -3 -12 -4 -19 -1 -8 3 -5 6 6 6 11 1 17 -2 13 -5z m-1 -34 c13 0 24 -4 24
-10 0 -14 -41 -13 -73 3 -34 15 -35 30 -1 17 14 -6 36 -10 50 -10z m454 -30
c0 -5 -4 -10 -10 -10 -5 0 -10 5 -10 10 0 6 5 10 10 10 6 0 10 -4 10 -10z
m342 -15 c0 -5 -5 -11 -10 -13 -5 -1 -9 4 -9 13 0 9 4 14 9 13 5 -2 10 -8 10
-13z m-347 -23 c-3 -3 -11 0 -18 7 -9 10 -8 11 6 5 10 -3 15 -9 12 -12z
m-1598 -8 c-3 -3 -12 -4 -19 -1 -8 3 -5 6 6 6 11 1 17 -2 13 -5z m1669 -32
c-4 -3 -14 2 -24 12 -16 18 -16 18 6 6 13 -6 21 -14 18 -18z m-262 1 c3 -10 9
-24 12 -30 7 -16 -42 -18 -51 -3 -3 6 1 10 10 10 12 0 15 6 10 20 -8 25 10 27
19 3z m310 -9 c9 -3 14 -10 11 -14 -3 -5 4 -6 14 -3 16 4 19 1 15 -14 -5 -19
-7 -19 -60 -4 -47 14 -52 18 -37 29 19 13 33 15 57 6z m11 -84 c3 -5 2 -10 -4
-10 -5 0 -13 5 -16 10 -3 6 -2 10 4 10 5 0 13 -4 16 -10z m195 -15 c11 -13 10
-14 -4 -9 -9 3 -16 10 -16 15 0 13 6 11 20 -6z m-102 -44 c14 -8 10 -10 -15
-8 -18 1 -28 6 -23 11 5 5 6 16 3 25 -4 13 -3 13 7 -1 6 -10 18 -22 28 -27z
m917 30 c3 -6 -4 -9 -15 -8 -11 1 -20 5 -20 9 0 11 28 10 35 -1z m-40 -21 c3
-5 1 -10 -4 -10 -6 0 -11 5 -11 10 0 6 2 10 4 10 3 0 8 -4 11 -10z m-830 -20
c3 -5 1 -10 -4 -10 -6 0 -11 5 -11 10 0 6 2 10 4 10 3 0 8 -4 11 -10z m599
-29 c3 -4 -6 -6 -19 -3 -14 2 -25 6 -25 8 0 8 39 4 44 -5z m-726 -36 c-3 -3
-9 2 -12 12 -6 14 -5 15 5 6 7 -7 10 -15 7 -18z m753 -3 c-7 -2 -18 1 -23 6
-8 8 -4 9 13 5 13 -4 18 -8 10 -11z m-257 -33 c-2 -4 4 -5 14 -2 24 6 44 -18
32 -37 -8 -13 -10 -12 -10 3 0 10 -8 17 -19 17 -23 0 -45 25 -36 41 6 8 10 8
16 -2 4 -7 6 -16 3 -20z m-1194 11 c0 -5 -5 -10 -11 -10 -5 0 -7 5 -4 10 3 6
8 10 11 10 2 0 4 -4 4 -10z m1550 -4 c0 -3 -4 -8 -10 -11 -5 -3 -10 -1 -10 4
0 6 5 11 10 11 6 0 10 -2 10 -4z m-1590 -16 c0 -5 -7 -7 -15 -4 -8 4 -15 8
-15 10 0 2 7 4 15 4 8 0 15 -4 15 -10z m-36 -25 c-4 -10 0 -15 12 -15 16 0 17
-2 4 -10 -16 -10 -36 13 -25 30 9 15 15 12 9 -5z m93 -2 c3 -7 -3 -9 -16 -6
-12 3 -21 10 -21 15 0 13 32 6 37 -9z m903 -14 c0 -11 -3 -11 -24 -3 -23 9
-20 23 4 17 11 -3 20 -9 20 -14z m354 4 c-5 -5 -12 -12 -16 -18 -4 -6 -8 -2
-8 8 0 9 7 17 17 17 9 0 12 -3 7 -7z m-2110 -35 l17 -33 -21 28 c-12 15 -27
24 -32 21 -7 -4 -8 -2 -4 4 11 19 21 14 40 -20z m2196 12 c0 -5 -2 -10 -4 -10
-3 0 -8 5 -11 10 -3 6 -1 10 4 10 6 0 11 -4 11 -10z m-2260 -45 c0 -5 -5 -3
-10 5 -5 8 -10 20 -10 25 0 6 5 3 10 -5 5 -8 10 -19 10 -25z m830 -9 c0 -6 -7
-2 -15 8 -8 11 -15 25 -15 30 0 6 7 2 15 -8 8 -11 15 -25 15 -30z m-770 -5 c0
-5 3 -18 6 -28 5 -16 4 -16 -10 1 -18 23 -20 36 -6 36 6 0 10 -4 10 -9z m240
-17 c0 -2 -9 0 -19 6 -13 7 -22 7 -26 0 -3 -5 -12 -10 -18 -10 -7 0 -4 7 7 15
13 10 24 11 37 4 11 -5 19 -12 19 -15z m-517 -54 c-6 -7 -23 23 -23 40 0 8 6
4 13 -10 8 -14 12 -27 10 -30z m892 30 c10 -11 16 -20 13 -20 -3 0 -13 9 -23
20 -10 11 -16 20 -13 20 3 0 13 -9 23 -20z m-214 -7 c13 -17 13 -17 -6 -3 -11
8 -22 16 -24 17 -2 2 0 3 6 3 6 0 17 -8 24 -17z m395 -2 c0 -11 -4 -17 -8 -15
-10 7 -10 34 0 34 4 0 8 -9 8 -19z m-371 -31 c3 -5 1 -10 -4 -10 -6 0 -11 5
-11 10 0 6 2 10 4 10 3 0 8 -4 11 -10z m-265 -14 c0 -3 -4 -8 -10 -11 -5 -3
-10 -1 -10 4 0 6 5 11 10 11 6 0 10 -2 10 -4z m15 -36 c3 -6 -1 -7 -9 -4 -18
7 -21 14 -7 14 6 0 13 -4 16 -10z m-63 -22 c13 -13 17 -17 8 -10 -9 6 -19 10
-22 7 -3 -3 -11 1 -18 10 -20 24 6 18 32 -7z m108 8 c0 -3 -4 -8 -10 -11 -5
-3 -10 -1 -10 4 0 6 5 11 10 11 6 0 10 -2 10 -4z m60 -6 c0 -5 -2 -10 -4 -10
-3 0 -8 5 -11 10 -3 6 -1 10 4 10 6 0 11 -4 11 -10z m-90 -35 c-7 -8 -17 -15
-22 -15 -6 0 -5 7 2 15 7 8 17 15 22 15 6 0 5 -7 -2 -15z m219 6 c7 -5 9 -11
4 -14 -6 -4 -19 0 -29 8 -15 11 -16 14 -4 15 8 0 21 -4 29 -9z m-309 -16 c0
-8 -2 -15 -4 -15 -2 0 -6 7 -10 15 -3 8 -1 15 4 15 6 0 10 -7 10 -15z m105
-56 c-5 -37 -15 -51 -15 -21 0 12 -9 26 -19 32 -30 16 -37 -7 -10 -36 27 -29
18 -33 -11 -4 -11 11 -20 26 -20 34 0 8 -6 17 -12 19 -7 3 9 4 35 2 34 -3 46
-1 41 7 -4 7 -3 8 4 4 6 -3 9 -20 7 -37z m901 -693 c11 -66 11 -82 -2 -121
-19 -53 -29 -59 -20 -11 4 18 2 45 -3 58 -5 14 -5 31 -1 38 5 8 6 19 2 25 -9
15 -9 37 2 60 8 17 7 18 -5 8 -11 -9 -14 -6 -16 20 -2 28 -1 29 14 15 8 -9 22
-50 29 -92z m-1246 30 c0 -3 -4 -8 -10 -11 -5 -3 -10 -1 -10 4 0 6 5 11 10 11
6 0 10 -2 10 -4z m2236 -45 c2 -17 0 -32 -4 -35 -4 -2 -7 13 -8 35 -1 45 7 44
12 0z m34 19 c0 -5 -4 -10 -10 -10 -5 0 -10 5 -10 10 0 6 5 10 10 10 6 0 10
-4 10 -10z m-2210 -22 c10 -21 10 -21 -3 -6 -8 10 -18 14 -22 10 -5 -4 -5 -1
-1 6 10 17 14 15 26 -10z m2025 -8 c9 -16 11 -30 6 -30 -5 0 -11 8 -15 18 -3
9 -9 23 -12 30 -12 26 6 10 21 -18z m428 -5 c11 -5 22 -17 24 -25 3 -11 1 -11
-10 3 -8 9 -17 17 -20 17 -20 0 -57 22 -52 30 5 8 12 7 22 -2 8 -7 24 -17 36
-23z m47 -1 c0 -8 -4 -12 -10 -9 -5 3 -10 10 -10 16 0 5 5 9 10 9 6 0 10 -7
10 -16z m-290 -4 c0 -5 -4 -10 -10 -10 -5 0 -10 5 -10 10 0 6 5 10 10 10 6 0
10 -4 10 -10z m94 -6 c3 -8 2 -12 -4 -9 -6 3 -10 10 -10 16 0 14 7 11 14 -7z
m-1738 -3 c-3 -5 1 -22 9 -37 15 -29 4 -50 -19 -37 -6 4 -5 8 2 11 17 5 15 22
-2 22 -8 0 -13 6 -12 13 2 15 15 37 22 37 3 0 3 -4 0 -9z m-227 -63 c6 -27 7
-27 35 -13 31 17 52 10 24 -8 -15 -10 -15 -13 0 -35 13 -20 13 -25 1 -33 -20
-12 -32 -11 -23 3 5 8 2 9 -9 5 -14 -5 -15 -3 -5 13 19 30 1 36 -32 11 -17
-12 -30 -17 -30 -12 0 6 10 16 22 22 13 7 18 14 11 16 -7 3 -9 12 -6 21 6 15
5 15 -13 2 -13 -10 -15 -10 -7 -1 7 8 10 28 7 45 -5 28 -4 29 7 11 7 -10 15
-32 18 -47z m312 29 c-10 -9 -11 -8 -5 6 3 10 9 15 12 12 3 -3 0 -11 -7 -18z
m-375 -13 c-5 -19 -4 -24 5 -18 9 5 10 2 6 -9 -4 -10 -1 -17 6 -17 7 -1 -1 -8
-16 -16 -33 -18 -46 -12 -26 12 8 9 14 22 15 28 0 6 2 19 2 29 1 9 5 17 8 17
3 0 3 -12 0 -26z m221 4 c-3 -8 -6 -5 -6 6 -1 11 2 17 5 13 3 -3 4 -12 1 -19z
m2148 2 c3 -5 1 -10 -4 -10 -6 0 -11 5 -11 10 0 6 2 10 4 10 3 0 8 -4 11 -10z
m-2188 -32 c-3 -7 -5 -2 -5 12 0 14 2 19 5 13 2 -7 2 -19 0 -25z m-447 -4 c0
-8 -4 -14 -10 -14 -5 0 -10 9 -10 21 0 11 5 17 10 14 6 -3 10 -13 10 -21z m65
6 c-3 -11 1 -30 11 -45 9 -14 14 -28 11 -31 -10 -11 -38 57 -32 76 4 11 9 20
11 20 3 0 3 -9 -1 -20z m615 4 c0 4 9 2 20 -4 11 -6 20 -15 20 -21 0 -6 -4 -7
-10 -4 -5 3 -10 1 -10 -4 0 -6 -4 -11 -10 -11 -5 0 -10 5 -10 12 0 6 -8 21
-17 32 -17 20 -17 20 0 7 9 -7 17 -10 17 -7z m-172 -31 c0 -14 6 -29 13 -34
11 -7 11 -9 -3 -9 -11 0 -15 -6 -11 -21 3 -11 0 -38 -7 -59 -10 -32 -11 -42 0
-55 7 -8 16 -13 20 -10 5 3 15 -1 23 -9 13 -13 15 -12 15 10 0 26 -17 31 -36
12 -9 -9 -12 -8 -12 5 0 9 5 17 10 17 6 0 10 9 10 20 0 11 7 20 15 20 8 0 15
5 15 10 0 19 19 10 32 -17 7 -14 24 -30 37 -35 20 -7 22 -6 12 6 -7 8 -10 20
-6 26 3 5 0 10 -8 10 -8 0 -17 10 -20 23 -5 18 -4 20 6 7 14 -18 47 -25 47
-10 0 5 5 10 11 10 5 0 7 -5 3 -11 -3 -6 0 -15 7 -20 10 -6 11 -9 2 -9 -7 0
-13 -6 -13 -14 0 -16 25 -15 59 3 30 17 34 13 14 -12 -12 -17 -24 -22 -42 -19
-19 4 -23 2 -18 -11 6 -17 -19 -32 -28 -17 -9 15 -45 32 -45 22 0 -6 9 -12 19
-15 15 -4 18 -11 14 -28 -3 -13 -2 -21 2 -17 5 5 16 -4 25 -19 16 -26 15 -30
-3 -61 -11 -18 -22 -30 -25 -27 -3 3 0 11 6 17 21 21 13 32 -10 12 l-21 -19 6
34 c6 30 5 32 -10 20 -9 -8 -14 -9 -10 -3 4 7 0 14 -8 18 -22 8 -19 -30 3 -44
15 -10 15 -11 0 -6 -9 3 -19 0 -21 -7 -2 -7 -8 -8 -13 -4 -5 4 -3 11 4 16 8 5
3 16 -18 39 -29 33 -45 39 -54 23 -7 -10 18 -34 26 -25 3 3 9 1 13 -5 3 -6 2
-11 -4 -11 -5 0 -17 -3 -26 -6 -9 -4 -15 -3 -13 2 4 14 -22 55 -32 49 -4 -3
-6 4 -3 15 4 16 1 20 -18 18 -18 -2 -25 2 -27 20 -2 12 1 22 7 22 6 0 11 7 11
17 0 9 3 13 7 10 3 -4 13 -1 21 6 13 10 14 9 3 -12 -9 -16 -10 -26 -2 -32 6
-5 9 -7 7 -3 -2 3 4 25 15 48 20 47 18 81 -6 105 -15 15 -15 14 -9 -3 6 -15 4
-17 -14 -11 -16 4 -22 2 -22 -9 0 -8 -4 -18 -10 -21 -23 -14 -8 26 21 54 17
17 28 35 25 39 -3 5 5 7 18 5 17 -4 24 -12 24 -30z m1417 20 c-2 -10 -4 -22
-5 -28 0 -5 -5 -2 -11 8 -10 17 -5 37 11 37 4 0 7 -8 5 -17z m-1269 -30 c2
-21 1 -24 -6 -13 -8 12 -10 9 -10 -12 0 -21 -4 -26 -16 -21 -10 4 -22 -1 -29
-11 -19 -25 -45 -10 -45 27 0 32 9 32 15 0 2 -10 4 -20 4 -22 1 -2 10 4 20 13
11 10 24 15 30 11 7 -3 8 0 5 9 -3 9 -1 16 5 16 6 0 11 10 11 22 0 29 13 15
16 -19z m99 27 c3 -5 2 -10 -4 -10 -5 0 -13 5 -16 10 -3 6 -2 10 4 10 5 0 13
-4 16 -10z m1825 -24 c0 -11 -19 -15 -25 -6 -3 5 1 10 9 10 9 0 16 -2 16 -4z
m-1300 -16 c0 -5 -4 -10 -10 -10 -5 0 -10 -13 -10 -30 0 -16 -4 -30 -10 -30
-13 0 -13 10 1 49 10 29 29 43 29 21z m1243 3 c-7 -2 -19 -2 -25 0 -7 3 -2 5
12 5 14 0 19 -2 13 -5z m-878 -27 c0 -18 -3 -22 -12 -14 -7 6 -13 17 -13 24 0
8 6 14 13 14 6 0 12 -11 12 -24z m585 14 c0 -5 -2 -10 -4 -10 -3 0 -8 5 -11
10 -3 6 -1 10 4 10 6 0 11 -4 11 -10z m36 1 c-4 -5 0 -12 6 -14 7 -3 3 -6 -9
-6 -25 -1 -31 14 -10 22 18 8 19 8 13 -2z m-2136 -16 c-7 -9 -15 -13 -17 -11
-7 7 7 26 19 26 6 0 6 -6 -2 -15z m94 3 c-3 -4 -9 -8 -15 -8 -5 0 -9 4 -9 8 0
5 7 9 15 9 8 0 12 -4 9 -9z m50 -23 c-4 -8 -11 -15 -16 -15 -6 0 -5 6 2 15 7
8 14 15 16 15 2 0 1 -7 -2 -15z m710 0 c-4 -8 -7 -15 -9 -15 -2 0 -5 7 -9 15
-3 9 0 15 9 15 9 0 12 -6 9 -15z m1143 -25 c28 -14 40 -26 36 -36 -3 -9 2 -14
13 -15 12 0 8 -4 -10 -9 -26 -8 -66 2 -66 16 0 3 5 2 10 -1 6 -3 10 -1 10 4 0
6 -8 11 -17 12 -16 0 -16 1 1 8 23 9 14 16 -34 26 -29 6 -33 5 -23 -7 10 -11
8 -14 -8 -14 -10 0 -19 4 -19 9 0 4 -6 5 -12 2 -7 -4 -2 2 11 13 14 11 31 18
38 15 7 -3 13 1 13 8 0 10 3 11 8 3 4 -7 26 -22 49 -34z m-2037 15 c-7 -9 -15
-13 -19 -10 -3 3 1 10 9 15 21 14 24 12 10 -5z m110 -5 c0 -11 -4 -20 -8 -20
-4 0 -8 9 -8 20 0 11 4 20 8 20 4 0 8 -9 8 -20z m660 -24 c0 -5 -6 -3 -14 3
-11 9 -14 8 -12 -6 0 -10 8 -23 16 -30 9 -7 10 -12 4 -13 -25 0 -36 40 -25 89
2 7 30 -33 31 -43z m1625 34 c3 -5 2 -10 -4 -10 -5 0 -13 5 -16 10 -3 6 -2 10
4 10 5 0 13 -4 16 -10z m-2518 -6 c-3 -3 -12 -4 -19 -1 -8 3 -5 6 6 6 11 1 17
-2 13 -5z m158 -4 c-3 -5 -12 -10 -18 -10 -7 0 -6 4 3 10 19 12 23 12 15 0z
m2485 0 c0 -5 -5 -10 -11 -10 -5 0 -7 5 -4 10 3 6 8 10 11 10 2 0 4 -4 4 -10z
m-1868 -22 c-7 -7 -12 -8 -12 -2 0 14 12 26 19 19 2 -3 -1 -11 -7 -17z m554 1
c19 -22 19 -22 -3 -8 -13 8 -23 17 -23 21 0 12 6 9 26 -13z m-993 -4 c-3 -9
-8 -14 -10 -11 -3 3 -2 9 2 15 9 16 15 13 8 -4z m505 -3 c2 -7 -1 -12 -6 -12
-18 0 -42 12 -42 21 0 13 43 4 48 -9z m189 -4 c-3 -8 -6 -5 -6 6 -1 11 2 17 5
13 3 -3 4 -12 1 -19z m140 0 c-3 -8 -6 -5 -6 6 -1 11 2 17 5 13 3 -3 4 -12 1
-19z m-1018 8 c-2 -2 -15 -9 -29 -15 -24 -11 -24 -11 -6 3 16 13 49 24 35 12z
m1101 -37 c0 -14 -5 -11 -31 17 l-24 27 28 -18 c15 -9 27 -21 27 -26z m1228
19 c-2 -6 -10 -13 -16 -14 -7 -1 -8 0 -2 3 5 2 8 9 4 14 -3 5 0 9 6 9 7 0 10
-5 8 -12z m91 -14 c10 7 26 -12 18 -20 -7 -7 -64 22 -73 37 -3 6 5 3 19 -6 15
-9 31 -14 36 -11z m-2299 1 c0 -8 -4 -15 -10 -15 -5 0 -7 7 -4 15 4 8 8 15 10
15 2 0 4 -7 4 -15z m133 -33 c7 7 11 11 10 9 -1 -2 2 -11 7 -21 7 -13 3 -22
-15 -38 -14 -12 -25 -19 -25 -14 0 4 -4 2 -8 -5 -5 -8 -13 -2 -24 17 -10 17
-13 32 -7 35 5 4 9 -1 9 -9 0 -8 5 -18 11 -22 8 -5 10 2 7 23 -5 33 15 63 20
31 3 -16 6 -17 15 -6z m944 22 c-3 -3 -12 -4 -19 -1 -8 3 -5 6 6 6 11 1 17 -2
13 -5z m-302 -13 c3 -5 1 -12 -4 -15 -5 -3 -11 1 -15 9 -6 16 9 21 19 6z
m1600 -1 c3 -5 2 -10 -4 -10 -5 0 -13 5 -16 10 -3 6 -2 10 4 10 5 0 13 -4 16
-10z m-2368 -62 c0 -13 3 -31 8 -42 8 -18 7 -18 -13 0 -25 21 -27 29 -9 49 16
18 15 19 14 -7z m758 13 c3 -5 2 -12 -3 -15 -5 -3 -9 1 -9 9 0 17 3 19 12 6z
m426 -23 c8 -15 8 -18 0 -14 -6 4 -16 16 -22 28 -8 15 -8 18 0 14 6 -4 16 -16
22 -28z m861 0 c-18 -19 -22 -20 -22 -6 0 9 8 21 17 27 27 15 29 3 5 -21z
m-2226 13 c-4 -5 0 -11 6 -14 7 -2 9 -8 5 -13 -9 -10 -28 16 -21 28 3 4 7 8
10 8 3 0 3 -4 0 -9z m234 -10 c5 -11 10 -26 9 -33 0 -7 -4 -3 -9 10 -5 12 -14
22 -20 22 -5 0 -10 5 -10 10 0 17 19 11 30 -9z m100 -6 c-7 -9 -15 -13 -18
-10 -3 2 1 11 8 20 7 9 15 13 18 10 3 -2 -1 -11 -8 -20z m338 0 c-3 -3 -9 2
-12 12 -6 14 -5 15 5 6 7 -7 10 -15 7 -18z m-761 -2 c-4 -3 -2 -12 5 -20 8
-11 7 -12 -6 -7 -9 3 -16 9 -16 13 0 9 11 21 18 21 3 0 2 -3 -1 -7z m788 -2
c-3 -5 1 -16 9 -24 8 -8 12 -17 9 -21 -9 -9 -35 32 -28 44 3 6 8 10 11 10 3 0
3 -4 -1 -9z m1645 -1 c0 -5 -2 -10 -4 -10 -3 0 -8 5 -11 10 -3 6 -1 10 4 10 6
0 11 -4 11 -10z m-2368 -29 c-7 -4 -12 -12 -11 -17 1 -5 0 -16 -1 -24 -2 -8
-6 1 -9 20 -7 36 6 57 24 39 6 -6 6 -12 -3 -18z m82 7 c-5 -7 -2 -9 9 -5 11 4
14 2 10 -9 -4 -11 -9 -12 -19 -3 -12 10 -11 29 2 29 3 0 2 -5 -2 -12z m76 -3
c-9 -11 -9 -19 -2 -28 6 -7 7 -19 3 -26 -6 -9 -10 -4 -14 15 -6 32 0 54 15 54
6 0 5 -6 -2 -15z m515 5 c3 -5 1 -10 -4 -10 -6 0 -11 5 -11 10 0 6 2 10 4 10
3 0 8 -4 11 -10z m1272 -15 c-4 -8 -11 -15 -17 -15 -7 0 -7 6 0 21 13 23 26
19 17 -6z m613 5 c9 -16 8 -18 -5 -14 -8 4 -15 12 -15 20 0 20 7 17 20 -6z
m-1625 -19 c-8 -17 -12 -37 -9 -45 3 -9 1 -16 -5 -16 -17 0 -13 51 6 72 23 26
26 22 8 -11z m1173 4 c-3 -3 -9 2 -12 12 -6 14 -5 15 5 6 7 -7 10 -15 7 -18z
m187 -1 c0 -14 7 -18 25 -17 23 2 23 2 5 -6 -11 -5 -14 -10 -7 -10 17 -1 15
-21 -2 -21 -8 0 -17 7 -20 16 -3 9 -12 14 -19 11 -8 -3 -20 -1 -28 5 -11 8
-11 9 3 5 24 -8 47 21 27 35 -12 8 -12 9 1 5 8 -2 15 -12 15 -23z m138 -19
c20 -4 37 -11 37 -15 0 -12 -63 -3 -95 15 -27 15 -28 16 -5 12 14 -3 42 -9 63
-12z m-1998 -13 c-3 -3 -11 0 -18 7 -9 10 -8 11 6 5 10 -3 15 -9 12 -12z
m1572 -14 c2 -17 0 -19 -7 -8 -5 8 -6 18 -4 22 8 12 10 10 11 -14z m133 7 c0
-8 -2 -15 -4 -15 -2 0 -6 7 -10 15 -3 8 -1 15 4 15 6 0 10 -7 10 -15z m-2034
-22 c-7 -7 -26 7 -26 19 0 6 6 6 15 -2 9 -7 13 -15 11 -17z m2544 23 c0 -2 -7
-7 -16 -10 -8 -3 -12 -2 -9 4 6 10 25 14 25 6z m-591 -40 c-1 -16 -2 -17 -6
-3 -2 9 -11 17 -19 17 -8 0 -13 4 -9 10 10 16 35 -1 34 -24z m46 24 c3 -5 2
-10 -4 -10 -5 0 -13 5 -16 10 -3 6 -2 10 4 10 5 0 13 -4 16 -10z m-2089 -38
c-7 -7 -20 -10 -29 -6 -15 5 -14 8 6 24 25 21 46 5 23 -18z m1154 28 c0 -5 -5
-10 -11 -10 -5 0 -7 5 -4 10 3 6 8 10 11 10 2 0 4 -4 4 -10z m-511 -19 c7 -5
10 -14 6 -20 -5 -9 -10 -9 -21 0 -26 22 -14 38 15 20z m1611 6 c0 -2 -9 -12
-20 -22 -19 -18 -20 -17 -20 3 0 15 6 22 20 22 11 0 20 -2 20 -3z m-1760 -46
c0 -5 -9 -7 -20 -4 -11 3 -20 7 -20 9 0 2 9 4 20 4 11 0 20 -4 20 -9z m340 -1
c0 -5 -5 -10 -11 -10 -5 0 -7 5 -4 10 3 6 8 10 11 10 2 0 4 -4 4 -10z m1545 0
c3 -6 -1 -7 -9 -4 -18 7 -21 14 -7 14 6 0 13 -4 16 -10z"/>
<path d="M850 320 c-20 -12 -10 -19 14 -10 11 3 15 9 10 13 -6 3 -16 2 -24 -3z"/>
<path d="M873 242 c0 -26 2 -39 7 -32 5 7 6 20 2 28 -4 11 -2 13 9 6 18 -11
39 -14 38 -6 0 4 -12 17 -27 28 l-27 22 -2 -46z"/>
<path d="M775 250 c-3 -5 -1 -10 4 -10 6 0 11 5 11 10 0 6 -2 10 -4 10 -3 0
-8 -4 -11 -10z"/>
<path d="M811 241 c-10 -6 -10 -10 -1 -16 13 -8 24 -1 19 14 -3 6 -10 7 -18 2z"/>
<path d="M1628 2313 c7 -3 16 -2 19 1 4 3 -2 6 -13 5 -11 0 -14 -3 -6 -6z"/>
<path d="M2142 2204 c-12 -8 -22 -11 -22 -6 0 4 -24 9 -52 11 -67 3 -54 -16
16 -23 38 -4 52 -1 69 15 25 23 20 25 -11 3z"/>
<path d="M2288 2213 c6 -2 18 -2 25 0 6 3 1 5 -13 5 -14 0 -19 -2 -12 -5z"/>
<path d="M2330 2169 c0 -5 5 -7 10 -4 6 3 10 8 10 11 0 2 -4 4 -10 4 -5 0 -10
-5 -10 -11z"/>
<path d="M2165 2131 c28 -16 52 -27 54 -26 10 10 -39 45 -69 50 -34 5 -34 5
15 -24z"/>
<path d="M2248 2138 c7 -7 12 -24 12 -38 0 -19 8 -30 27 -39 31 -14 55 1 35
21 -10 10 -15 10 -22 -2 -5 -8 -10 -13 -11 -10 -2 13 -9 56 -11 68 -1 6 -10
12 -22 12 -15 0 -17 -3 -8 -12z"/>
<path d="M1545 2132 c6 -5 28 -14 50 -19 22 -6 48 -14 58 -18 9 -4 17 -3 17 2
0 10 -46 28 -100 38 -23 5 -31 4 -25 -3z"/>
<path d="M2360 2090 c6 -11 12 -20 14 -20 2 0 2 9 -1 20 -3 11 -9 20 -15 20
-5 0 -4 -9 2 -20z"/>
<path d="M2442 2073 c2 -21 9 -38 18 -41 12 -4 13 -3 3 10 -15 18 -5 32 13 18
9 -8 12 -6 10 7 -1 18 -23 42 -39 43 -4 0 -6 -17 -5 -37z"/>
<path d="M2595 2040 c3 -5 11 -10 16 -10 6 0 7 5 4 10 -3 6 -11 10 -16 10 -6
0 -7 -4 -4 -10z"/>
<path d="M2562 2018 c5 -15 28 -18 29 -3 0 6 -7 12 -17 13 -10 3 -15 -1 -12
-10z"/>
<path d="M1575 1990 c-3 -5 -1 -10 4 -10 6 0 11 5 11 10 0 6 -2 10 -4 10 -3 0
-8 -4 -11 -10z"/>
<path d="M1600 1991 c0 -6 4 -13 10 -16 6 -3 7 1 4 9 -7 18 -14 21 -14 7z"/>
<path d="M1495 1980 c-4 -7 3 -8 22 -4 38 9 42 14 10 14 -14 0 -29 -5 -32 -10z"/>
<path d="M2790 1976 c0 -2 9 -6 20 -9 11 -3 18 -1 14 4 -5 9 -34 13 -34 5z"/>
<path d="M2940 1976 c0 -2 9 -6 20 -9 11 -3 18 -1 14 4 -5 9 -34 13 -34 5z"/>
<path d="M2933 1936 c0 -16 54 -43 64 -32 3 3 -1 6 -10 6 -9 0 -17 6 -17 14 0
8 -7 17 -16 20 -21 8 -21 8 -21 -8z"/>
<path d="M2849 1928 c-1 -2 -3 -13 -4 -26 -2 -18 6 -27 36 -42 22 -10 39 -14
39 -9 0 5 14 9 30 9 17 0 30 5 30 11 0 6 -8 9 -19 6 -10 -2 -25 0 -34 4 -10 6
-18 5 -22 -1 -9 -15 -25 -12 -25 5 0 8 -5 15 -11 15 -6 0 -9 7 -5 15 4 12 -10
23 -15 13z"/>
<path d="M2060 1746 c0 -2 7 -7 16 -10 8 -3 12 -2 9 4 -6 10 -25 14 -25 6z"/>
<path d="M1595 1699 c-4 -6 -5 -12 -2 -15 2 -3 7 2 10 11 7 17 1 20 -8 4z"/>
<path d="M2210 1600 c11 -11 22 -20 25 -20 3 0 1 9 -5 20 -6 11 -17 20 -25 20
-11 0 -10 -5 5 -20z"/>
<path d="M2210 1550 c0 -5 7 -10 15 -10 8 0 15 5 15 10 0 6 -7 10 -15 10 -8 0
-15 -4 -15 -10z"/>
<path d="M2930 1528 c0 -10 29 -9 55 2 16 7 12 9 -17 8 -21 -1 -38 -6 -38 -10z"/>
<path d="M2830 1520 c-8 -5 -5 -9 8 -12 11 -3 25 -2 32 2 8 5 5 9 -8 12 -11 3
-25 2 -32 -2z"/>
<path d="M2740 1511 c0 -5 11 -8 25 -7 33 1 33 16 0 16 -14 0 -25 -4 -25 -9z"/>
<path d="M2708 1503 c7 -3 16 -2 19 1 4 3 -2 6 -13 5 -11 0 -14 -3 -6 -6z"/>
<path d="M2600 1486 c0 -2 9 -6 20 -9 11 -3 20 -1 20 4 0 5 -9 9 -20 9 -11 0
-20 -2 -20 -4z"/>
<path d="M2970 1480 c-8 -5 -12 -12 -9 -15 8 -8 39 5 39 16 0 11 -11 11 -30
-1z"/>
<path d="M1107 1474 c-16 -16 -7 -44 14 -44 16 0 19 3 12 13 -6 6 -12 18 -14
25 -3 7 -8 10 -12 6z"/>
<path d="M2881 1469 c-1 -23 24 -53 38 -45 6 4 9 12 6 17 -10 15 12 10 29 -7
9 -8 20 -12 26 -9 15 9 12 25 -4 19 -7 -3 -16 2 -19 10 -4 11 -16 15 -36 12
-17 -2 -32 2 -35 8 -2 6 -5 4 -5 -5z"/>
<path d="M2330 1462 c0 -4 9 -13 20 -20 20 -12 26 -6 12 13 -9 12 -32 18 -32
7z"/>
<path d="M2400 1459 c0 -5 5 -7 10 -4 6 3 10 8 10 11 0 2 -4 4 -10 4 -5 0 -10
-5 -10 -11z"/>
<path d="M2817 1459 c8 -8 8 -20 3 -35 -7 -19 -6 -24 5 -24 8 0 15 -7 15 -16
0 -11 -5 -14 -16 -10 -8 3 -24 2 -34 -4 -15 -8 -17 -6 -13 10 4 14 0 20 -13
21 -11 1 -32 2 -49 3 -16 1 -38 6 -48 10 -13 6 -16 5 -11 -8 5 -13 1 -15 -25
-10 -20 4 -31 3 -31 -5 0 -6 -4 -11 -10 -11 -5 0 -10 16 -10 37 0 42 -10 39
-14 -3 -2 -16 2 -33 9 -39 9 -8 8 -14 -6 -27 -18 -17 -19 -17 -19 4 0 16 -3
19 -11 11 -7 -7 -26 -9 -48 -6 -34 6 -35 5 -21 -12 14 -17 14 -18 -8 -6 -20
11 -25 9 -42 -11 -17 -20 -19 -21 -20 -5 0 10 5 15 10 12 6 -3 10 -1 10 4 0 6
-5 11 -11 11 -5 0 -8 4 -5 9 3 5 0 11 -7 14 -8 3 -12 -8 -13 -33 -1 -36 2 -39
35 -45 20 -4 30 -10 24 -12 -7 -3 -13 -12 -14 -21 0 -11 -2 -12 -6 -4 -2 6 -9
12 -14 12 -13 0 3 -34 24 -49 13 -9 17 -21 13 -40 -3 -14 -3 -20 0 -13 8 17
27 15 21 -2 -4 -9 2 -17 14 -21 27 -9 36 2 21 25 -8 14 1 10 33 -12 25 -18 45
-36 45 -42 0 -6 -5 -5 -12 2 -19 19 -28 14 -28 -15 0 -21 3 -24 9 -14 8 12 12
12 25 2 14 -12 16 -10 16 8 0 11 4 21 8 21 5 0 8 -10 7 -22 -1 -17 -8 -23 -23
-22 -16 0 -19 -3 -11 -12 13 -16 20 -96 8 -88 -5 3 -9 11 -9 19 0 8 -5 17 -10
20 -7 4 -9 -2 -4 -19 5 -21 3 -25 -10 -20 -19 7 -21 -6 -3 -26 6 -8 2 -6 -10
4 -13 11 -23 15 -23 10 0 -5 -4 -3 -9 5 -8 12 -12 13 -25 2 -12 -10 -14 -17
-5 -27 6 -8 16 -11 22 -7 5 3 7 1 3 -5 -3 -6 7 -24 24 -40 16 -17 32 -26 36
-21 3 5 0 9 -5 9 -6 0 -11 4 -11 9 0 5 8 8 17 7 10 0 19 7 21 18 2 11 0 16 -7
12 -7 -4 -11 1 -11 12 0 15 5 19 19 15 11 -3 17 -11 14 -21 -2 -10 5 -27 17
-40 19 -20 20 -24 6 -38 -9 -8 -16 -21 -16 -27 0 -8 3 -7 9 2 6 9 11 10 15 2
4 -6 12 -9 17 -6 5 4 9 -1 9 -9 0 -9 5 -16 11 -16 6 0 9 7 5 15 -3 9 0 15 9
15 8 0 15 4 15 9 0 5 -10 7 -22 3 -20 -5 -21 -3 -10 11 12 13 10 18 -7 29 -33
20 -24 28 14 12 74 -31 126 -11 100 39 l-14 27 25 -17 c14 -9 35 -17 47 -19
12 -2 33 -6 46 -10 21 -6 22 -5 12 15 -7 11 -20 21 -31 21 -22 0 -36 16 -18
22 6 2 -15 16 -46 31 -63 30 -69 51 -15 53 19 1 28 0 21 -3 -6 -3 -9 -9 -6
-15 4 -6 -3 -5 -17 2 -23 11 -23 10 -5 -4 11 -9 27 -16 37 -16 9 0 20 -7 23
-16 3 -8 10 -13 14 -10 5 3 14 -6 21 -20 7 -17 17 -24 26 -20 10 3 15 -1 15
-13 0 -21 23 -44 33 -34 4 3 7 -1 7 -10 0 -11 8 -17 22 -17 20 0 21 1 3 20
-15 16 -15 22 -5 35 10 13 9 15 -9 15 -14 0 -20 -4 -15 -12 4 -7 3 -8 -4 -4
-7 4 -12 14 -12 22 0 18 40 15 64 -5 14 -12 16 -10 16 15 0 36 -10 51 -32 51
-14 0 -15 -4 -6 -20 10 -20 9 -20 -26 1 -41 24 -50 27 -41 12 4 -6 -1 -7 -11
-3 -11 4 -13 8 -6 11 7 2 10 8 6 13 -3 5 5 9 17 9 18 0 20 3 11 12 -17 17 -15
33 3 18 8 -7 15 -18 15 -25 0 -7 9 -15 20 -18 13 -3 20 0 20 10 0 9 6 13 15 9
9 -3 15 0 15 8 0 20 -12 27 -26 15 -14 -11 -14 6 -1 29 6 8 1 12 -13 12 -15 0
-20 5 -17 14 5 12 1 13 -24 4 -19 -7 -28 -15 -25 -24 3 -8 -1 -14 -9 -14 -23
0 -18 18 10 36 35 23 32 38 -7 30 -25 -4 -29 -3 -18 5 11 8 12 12 3 16 -7 2
-13 9 -13 13 0 5 15 3 34 -5 18 -8 36 -12 39 -8 4 3 18 -2 32 -11 23 -15 26
-15 32 0 3 9 0 20 -7 24 -8 5 -9 9 -1 14 7 5 11 46 11 112 0 96 -5 116 -24 97
-17 -17 -116 -24 -116 -7 0 7 4 14 10 16 5 2 7 13 4 26 -5 17 -14 22 -37 22
-23 0 -28 -3 -20 -11z m-93 -111 c8 -12 13 -25 10 -29 -7 -11 -34 0 -31 13 1
6 -4 13 -11 15 -7 3 -10 -1 -7 -9 4 -9 -2 -14 -15 -14 -24 0 -24 0 -8 26 17
26 43 25 62 -2z m-244 -49 c0 -6 -4 -7 -10 -4 -5 3 -10 11 -10 16 0 6 5 7 10
4 6 -3 10 -11 10 -16z m210 1 c0 -5 -5 -10 -11 -10 -5 0 -7 -4 -4 -10 9 -15
-11 -12 -24 4 -10 11 -8 15 6 19 30 8 33 7 33 -3z m-71 -17 c-1 -5 -1 -15 0
-23 1 -13 2 -13 11 0 5 8 10 10 10 5 0 -6 -5 -16 -11 -22 -9 -9 -16 -6 -30 10
-16 20 -16 23 -1 29 23 9 22 9 21 1z m-93 -58 c-3 -20 -16 -31 -16 -13 0 13 8
28 16 28 1 0 1 -7 0 -15z m71 -21 c-3 -3 -12 -4 -19 -1 -8 3 -5 6 6 6 11 1 17
-2 13 -5z m53 -40 c0 -22 -16 -17 -17 6 -1 11 2 18 8 15 5 -4 9 -13 9 -21z
m150 6 c0 -5 14 -17 31 -25 17 -9 29 -19 26 -22 -6 -5 -53 23 -75 44 -11 11
-11 13 2 13 9 0 16 -4 16 -10z m-190 -10 c0 -5 -4 -10 -10 -10 -5 0 -10 5 -10
10 0 6 5 10 10 10 6 0 10 -4 10 -10z m63 -80 c-3 -13 3 -19 24 -25 18 -5 23
-9 13 -12 -43 -13 -43 -13 -30 -28 10 -12 10 -15 -3 -15 -8 0 -17 5 -19 11 -2
5 -11 7 -21 3 -14 -5 -15 -9 -6 -20 7 -8 20 -12 29 -9 9 3 22 -1 28 -8 9 -11
6 -13 -18 -9 -28 4 -35 -3 -31 -30 1 -8 -12 -10 -26 -5 -4 1 -8 10 -8 20 -1
11 5 17 19 17 18 0 19 1 2 13 -21 15 -12 47 13 47 29 0 32 11 11 38 -26 32
-25 40 4 35 17 -4 22 -10 19 -23z m277 0 c0 -6 -9 -5 -20 2 -11 7 -20 16 -20
21 0 4 9 3 20 -3 11 -6 20 -15 20 -20z m-224 -7 c-6 -6 -36 9 -36 18 0 5 9 4
20 -3 10 -7 18 -14 16 -15z m-96 -17 c0 -11 -19 -15 -25 -6 -3 5 1 10 9 10 9
0 16 -2 16 -4z m230 -26 c0 -6 -9 -5 -20 2 -11 7 -20 16 -20 21 0 4 9 3 20 -3
11 -6 20 -15 20 -20z m-336 -102 c-5 -8 -2 -9 11 -4 15 5 16 4 5 -9 -10 -12
-15 -13 -21 -3 -7 12 -3 28 7 28 3 0 2 -5 -2 -12z m216 -30 c0 -4 -10 -4 -22
1 -25 9 -32 11 -48 11 -7 0 -6 5 2 13 10 11 17 11 40 -2 15 -9 28 -19 28 -23z"/>
<path d="M12 1445 c-7 -8 -8 -15 -3 -15 5 0 12 -8 14 -17 3 -10 5 -3 6 15 1
36 1 37 -17 17z"/>
<path d="M2220 1448 c0 -3 9 -6 20 -5 11 1 20 5 20 9 0 3 -9 6 -20 5 -11 -1
-20 -5 -20 -9z"/>
<path d="M2750 1450 c0 -5 5 -10 10 -10 6 0 10 5 10 10 0 6 -4 10 -10 10 -5 0
-10 -4 -10 -10z"/>
<path d="M2430 1440 c-8 -5 -23 -7 -32 -4 -10 3 -18 1 -18 -5 0 -18 18 -21 45
-7 20 10 35 12 52 5 19 -7 24 -6 21 3 -6 16 -48 21 -68 8z"/>
<path d="M1768 1435 c-3 -4 -14 -8 -23 -9 -20 -3 -26 -42 -27 -178 -1 -48 -5
-85 -9 -82 -5 3 -9 0 -9 -5 0 -6 4 -11 9 -11 13 0 41 -87 41 -128 0 -28 -3
-33 -16 -28 -14 5 -15 4 -5 -8 9 -11 10 -20 2 -35 -12 -22 -15 -70 -8 -136 5
-50 3 -48 27 -35 20 11 65 90 50 90 -18 0 -20 38 -9 164 5 72 10 160 9 196 -1
78 -22 215 -32 205z m-12 -602 c-11 -11 -17 4 -9 23 7 18 8 18 11 1 2 -10 1
-21 -2 -24z"/>
<path d="M2144 1431 c4 -5 -4 -19 -16 -30 -12 -12 -16 -21 -10 -21 17 0 15
-18 -3 -22 -13 -2 -12 -10 7 -48 12 -25 28 -53 36 -62 8 -10 11 -18 5 -18 -11
0 -37 28 -47 50 -3 8 -4 5 -2 -7 2 -13 0 -23 -5 -23 -5 0 -9 5 -9 10 0 6 -5
10 -10 10 -7 0 -7 -7 1 -21 6 -12 12 -32 14 -46 1 -13 7 -29 13 -35 8 -8 9 -4
6 13 -5 20 -4 21 6 9 10 -13 11 -12 5 5 -4 11 -10 29 -13 40 -5 20 -5 20 16 1
11 -10 22 -27 24 -39 4 -27 28 -35 28 -9 0 11 -6 23 -12 25 -8 3 -6 6 5 6 22
1 22 15 0 36 -13 13 -14 18 -3 25 7 4 10 15 7 23 -4 12 -1 15 11 11 15 -5 15
-4 0 9 -20 16 -24 37 -7 37 5 0 7 5 4 10 -3 6 -1 10 4 10 6 0 11 7 11 16 0 14
3 14 15 4 12 -10 15 -10 15 1 0 11 2 11 10 -1 5 -8 12 -11 15 -8 12 11 -6 30
-22 24 -9 -4 -21 -2 -28 4 -14 11 -33 -5 -21 -17 7 -7 -13 -33 -26 -33 -5 0
-7 4 -3 9 3 5 0 13 -7 17 -8 5 -7 9 5 13 15 6 14 8 -4 19 -12 8 -18 9 -15 3z
m21 -131 c3 -5 1 -10 -4 -10 -6 0 -11 5 -11 10 0 6 2 10 4 10 3 0 8 -4 11 -10z"/>
<path d="M221 1383 c10 -50 15 -60 26 -49 4 3 1 12 -5 18 -7 7 -12 24 -12 39
0 15 -4 30 -9 33 -5 3 -5 -15 0 -41z"/>
<path d="M2323 1416 c4 -10 7 -22 7 -27 0 -5 5 -9 11 -9 15 0 7 43 -10 48 -10
3 -12 0 -8 -12z"/>
<path d="M2520 1416 c0 -2 8 -10 18 -17 15 -13 16 -12 3 4 -13 16 -21 21 -21
13z"/>
<path d="M350 1400 c0 -5 5 -10 11 -10 5 0 7 5 4 10 -3 6 -8 10 -11 10 -2 0
-4 -4 -4 -10z"/>
<path d="M1950 1391 c0 -12 5 -21 10 -21 6 0 10 6 10 14 0 8 -4 18 -10 21 -5
3 -10 -3 -10 -14z"/>
<path d="M2300 1398 c0 -9 7 -22 17 -29 15 -13 15 -12 3 11 -17 34 -20 36 -20
18z"/>
<path d="M2490 1406 c0 -2 7 -7 16 -10 8 -3 12 -2 9 4 -6 10 -25 14 -25 6z"/>
<path d="M60 1397 c0 -4 7 -23 14 -42 9 -20 11 -35 5 -35 -5 0 -14 11 -19 25
-5 14 -12 25 -15 25 -11 0 7 -45 22 -55 8 -6 13 -15 12 -20 -1 -6 4 -23 11
-40 7 -16 12 -34 11 -38 -1 -5 3 -6 8 -3 11 7 54 -82 45 -95 -3 -5 0 -9 6 -9
28 0 15 60 -23 108 -17 21 -16 51 1 44 11 -4 10 2 -4 23 -22 33 -30 70 -12 59
7 -4 8 -3 4 4 -4 7 -13 12 -21 12 -8 0 -21 10 -29 22 -9 12 -16 19 -16 15z
m50 -117 c0 -5 -2 -10 -4 -10 -3 0 -8 5 -11 10 -3 6 -1 10 4 10 6 0 11 -4 11
-10z"/>
<path d="M1920 1390 c0 -5 5 -10 10 -10 6 0 10 5 10 10 0 6 -4 10 -10 10 -5 0
-10 -4 -10 -10z"/>
<path d="M1980 1391 c0 -5 5 -13 10 -16 22 -14 -2 -23 -35 -14 -19 6 -40 7
-45 4 -5 -3 -7 0 -5 7 4 10 -4 13 -35 10 -22 -2 -40 -6 -40 -8 0 -3 9 -14 20
-26 11 -12 20 -25 20 -28 0 -11 -30 -7 -30 4 0 6 -8 20 -16 31 -15 18 -15 12
-8 -75 4 -52 7 -103 6 -112 0 -11 6 -18 18 -18 10 0 21 -4 24 -9 3 -5 0 -9 -7
-8 -30 1 -47 -4 -47 -13 0 -5 7 -10 15 -10 8 0 15 5 15 11 0 5 5 7 10 4 17
-10 11 -25 -9 -25 -10 0 -22 -7 -25 -16 -10 -26 -7 -76 4 -69 14 9 12 -18 -2
-34 -8 -8 -8 -11 -2 -8 7 4 14 -3 17 -15 5 -18 8 -19 22 -8 16 13 12 49 -7 61
-5 3 -10 12 -11 20 -2 8 -6 20 -10 27 -5 7 -3 12 3 12 6 0 16 -13 21 -30 6
-16 14 -30 18 -30 4 0 15 -13 24 -30 10 -17 13 -30 8 -30 -6 0 -11 5 -11 11 0
5 -4 7 -10 4 -20 -12 -9 -23 20 -20 21 3 33 -1 39 -14 13 -24 64 -23 69 2 2
10 0 17 -5 16 -19 -3 -33 2 -33 12 0 5 5 7 10 4 6 -3 10 -1 10 5 0 6 4 9 9 5
6 -3 6 7 1 27 -12 39 -4 50 9 14 13 -32 21 -34 14 -3 -4 17 -3 19 6 7 5 -8 8
-25 4 -37 -6 -25 7 -29 37 -13 15 8 20 6 25 -11 4 -11 4 -23 1 -26 -3 -4 -6 1
-6 10 0 9 -4 17 -9 17 -4 0 -6 -12 -3 -26 3 -19 1 -25 -7 -20 -6 4 -9 12 -6
17 4 5 1 9 -5 9 -10 0 -8 -15 7 -58 3 -8 0 -10 -10 -6 -8 3 -17 14 -20 25 -3
10 -10 19 -17 19 -7 0 -9 -8 -5 -22 6 -19 5 -21 -6 -10 -20 18 -28 15 -22 -10
5 -20 1 -18 -27 11 -26 28 -34 32 -42 20 -7 -11 -11 -11 -15 -1 -8 19 -29 14
-29 -7 0 -11 4 -17 8 -15 5 3 11 -2 14 -10 3 -9 10 -16 16 -16 5 0 7 4 4 8 -2
4 0 14 5 22 8 13 10 13 19 0 13 -19 13 -40 0 -40 -5 0 -7 7 -4 15 4 8 1 15 -4
15 -12 0 -7 -41 9 -82 12 -29 34 -37 43 -15 3 8 9 6 20 -7 14 -17 16 -18 16
-3 0 9 5 17 11 17 6 0 8 7 5 16 -4 12 -1 14 14 9 16 -5 19 -3 14 12 -4 11 0 9
12 -7 10 -14 18 -29 16 -33 -1 -4 6 -3 17 2 10 6 22 7 26 3 4 -4 4 4 0 18 l-8
25 24 -20 c13 -11 21 -16 17 -11 -4 5 -3 15 3 23 10 11 15 11 28 1 14 -12 14
-11 3 4 -10 12 -11 22 -3 35 8 15 10 15 15 3 2 -8 7 -22 9 -30 3 -8 4 6 4 32
-2 46 -9 59 -22 38 -4 -6 -11 -8 -16 -4 -6 3 -9 0 -8 -7 1 -8 -3 -25 -8 -39
-9 -21 -12 -22 -18 -8 -4 9 -4 21 -1 27 4 5 -3 16 -15 25 -12 8 -18 19 -14 25
3 6 1 11 -4 11 -6 0 -11 5 -11 11 0 21 -32 78 -42 76 -6 -1 -14 10 -19 26 -9
31 -3 34 24 10 18 -16 20 -16 14 -2 -3 10 0 16 6 15 7 0 12 4 12 9 0 5 -3 9
-6 8 -4 -1 -5 6 -2 16 3 14 -3 21 -27 29 -27 10 -30 14 -21 31 6 11 11 29 11
40 0 12 3 21 8 21 4 0 7 18 7 39 0 22 -3 37 -7 35 -5 -3 -8 0 -8 5 0 6 -7 11
-15 11 -8 0 -15 5 -15 10 0 6 5 10 11 10 5 0 7 5 4 11 -4 6 -13 8 -21 5 -8 -3
-11 0 -8 9 3 7 -4 18 -15 25 -13 6 -21 7 -21 1z m-33 -93 c-3 -7 -5 -2 -5 12
0 14 2 19 5 13 2 -7 2 -19 0 -25z m110 -37 c1 -13 -3 -18 -12 -15 -22 9 -27
34 -7 34 10 0 18 -8 19 -19z m-37 -26 c0 -5 -5 -3 -10 5 -5 8 -10 20 -10 25 0
6 5 3 10 -5 5 -8 10 -19 10 -25z m25 -25 c3 -5 -1 -10 -10 -10 -9 0 -13 5 -10
10 3 6 8 10 10 10 2 0 7 -4 10 -10z m-56 -155 c1 -5 -9 6 -21 25 -12 19 -21
39 -20 43 1 4 -4 18 -13 30 -8 12 -15 28 -14 37 1 15 67 -116 68 -135z m6 115
c3 -5 1 -10 -4 -10 -6 0 -11 5 -11 10 0 6 2 10 4 10 3 0 8 -4 11 -10z m65 -60
c0 -17 -2 -19 -14 -8 -14 13 -12 28 5 28 5 0 9 -9 9 -20z m-146 -39 c-7 -7
-34 21 -28 31 3 5 12 1 19 -9 7 -10 12 -20 9 -22z m47 -3 c11 -21 11 -22 -4
-9 -10 7 -17 17 -17 22 0 15 9 10 21 -13z m22 -68 c7 -29 1 -24 -17 11 -12 23
-12 28 -2 20 8 -7 16 -21 19 -31z m151 -115 c3 -8 1 -15 -4 -15 -6 0 -10 7
-10 15 0 8 2 15 4 15 2 0 6 -7 10 -15z m-154 -75 c0 -5 -5 -10 -11 -10 -5 0
-7 5 -4 10 3 6 8 10 11 10 2 0 4 -4 4 -10z"/>
<path d="M2075 1390 c-3 -5 -1 -10 4 -10 6 0 11 5 11 10 0 6 -2 10 -4 10 -3 0
-8 -4 -11 -10z"/>
<path d="M0 1380 c0 -6 7 -10 15 -10 8 0 15 2 15 4 0 2 -7 6 -15 10 -8 3 -15
1 -15 -4z"/>
<path d="M250 1371 c0 -5 5 -13 10 -16 6 -3 10 -2 10 4 0 5 -4 13 -10 16 -5 3
-10 2 -10 -4z"/>
<path d="M2232 1368 c5 -15 28 -23 28 -10 0 5 -7 13 -16 16 -10 4 -14 1 -12
-6z"/>
<path d="M2077 1363 c-3 -4 1 -19 9 -33 12 -22 13 -23 13 -5 1 24 -14 50 -22
38z"/>
<path d="M335 1350 c-3 -6 1 -7 9 -4 18 7 21 14 7 14 -6 0 -13 -4 -16 -10z"/>
<path d="M409 1337 c13 -35 14 -47 1 -27 -5 8 -12 12 -15 8 -4 -4 4 -21 17
-40 12 -18 24 -35 25 -37 2 -2 5 -2 8 1 7 7 -23 99 -37 113 -5 6 -5 -2 1 -18z"/>
<path d="M2 1315 c-2 -27 1 -33 13 -29 18 7 19 16 3 32 -9 9 -9 12 1 12 7 0 9
5 6 10 -12 19 -21 10 -23 -25z"/>
<path d="M2220 1329 c7 -11 14 -18 17 -15 8 8 -5 36 -17 36 -7 0 -7 -6 0 -21z"/>
<path d="M2291 1328 c7 -13 6 -18 -5 -18 -7 0 -17 -7 -20 -16 -9 -23 -7 -34 5
-34 5 0 7 5 4 10 -3 6 1 10 9 10 9 0 17 6 17 13 1 6 3 21 4 33 1 11 -4 21 -11
21 -9 0 -10 -5 -3 -19z"/>
<path d="M264 1316 c6 -16 4 -17 -10 -5 -14 12 -16 11 -13 -5 2 -11 9 -21 15
-23 17 -6 27 28 13 41 -9 8 -10 6 -5 -8z"/>
<path d="M1103 1298 c4 -37 39 -98 45 -79 2 6 9 8 14 5 7 -4 8 -2 4 5 -4 6
-12 8 -18 5 -7 -4 -8 -2 -4 4 7 12 -19 78 -36 88 -5 3 -7 -9 -5 -28z"/>
<path d="M145 1310 c3 -5 8 -10 11 -10 2 0 4 5 4 10 0 6 -5 10 -11 10 -5 0 -7
-4 -4 -10z"/>
<path d="M208 1285 c2 -14 8 -28 13 -31 15 -9 10 33 -5 45 -11 9 -12 6 -8 -14z"/>
<path d="M330 1291 c0 -6 4 -13 10 -16 6 -3 7 1 4 9 -7 18 -14 21 -14 7z"/>
<path d="M361 1284 c0 -11 3 -14 6 -6 3 7 2 16 -1 19 -3 4 -6 -2 -5 -13z"/>
<path d="M2203 1285 c-16 -18 -6 -45 17 -45 10 0 26 -7 34 -16 9 -8 16 -11 16
-6 0 14 -38 45 -48 38 -5 -3 -7 6 -4 19 5 28 2 30 -15 10z"/>
<path d="M925 1283 c-11 -2 -30 -9 -43 -15 -21 -11 -21 -13 -5 -30 9 -10 21
-18 27 -18 26 -1 35 -16 27 -45 l-9 -30 -1 34 c-1 30 -3 33 -26 27 -21 -5 -27
-2 -35 19 -5 14 -14 25 -20 25 -14 0 -12 -16 4 -29 21 -18 27 -51 8 -44 -12 5
-14 2 -8 -18 4 -13 9 -41 11 -62 2 -30 0 -36 -10 -27 -8 7 -15 7 -19 1 -4 -5
-2 -13 4 -16 6 -4 8 -15 5 -26 -4 -10 -2 -19 3 -19 5 0 13 10 17 23 4 14 8 17
12 9 3 -7 0 -18 -5 -25 -13 -15 -9 -52 4 -52 5 -1 19 -6 32 -13 23 -13 30 -4
12 14 -7 7 -5 11 7 11 26 0 31 -14 26 -61 -4 -39 -3 -40 11 -22 9 11 16 14 16
8 0 -7 7 -12 15 -12 9 0 15 9 15 25 l0 25 20 -20 c11 -11 20 -24 20 -30 0 -5
6 -10 14 -10 8 0 17 -8 19 -17 4 -14 5 -13 6 4 0 12 -4 25 -9 28 -15 9 -1 27
16 21 8 -3 11 0 7 10 -4 10 0 12 11 8 9 -3 16 -10 16 -15 0 -5 5 -9 10 -9 6 0
5 11 -3 28 -8 15 -18 37 -21 49 -6 19 -4 22 11 16 16 -6 17 -5 3 13 -8 10 -23
29 -33 41 -10 11 -17 29 -14 40 4 17 4 17 12 -2 5 -11 15 -26 22 -33 7 -7 13
-20 13 -28 0 -8 5 -14 11 -14 6 0 9 7 5 15 -7 19 1 19 20 1 8 -9 11 -22 7 -33
-6 -17 -6 -17 10 -1 22 21 22 36 0 40 -16 3 -27 48 -11 48 4 0 8 -8 8 -17 0
-13 3 -14 12 -5 8 8 8 15 0 25 -7 8 -9 17 -5 20 3 4 1 12 -4 19 -6 7 -9 23 -7
36 3 16 -1 22 -16 22 -20 0 -19 -20 3 -48 5 -7 7 -16 3 -19 -4 -4 -11 -1 -16
7 -12 19 -12 4 -1 -38 13 -44 -5 -42 -26 3 -16 33 -16 36 1 48 16 12 15 16
-22 55 -22 23 -45 42 -51 42 -7 0 -9 5 -6 10 3 6 1 10 -4 10 -22 0 -10 -25 30
-61 32 -29 39 -42 34 -58 -3 -12 -11 -21 -17 -21 -5 0 -8 6 -5 14 3 8 0 22 -7
32 -17 23 -51 12 -41 -14 5 -13 3 -14 -5 -6 -9 9 -9 17 -1 33 13 24 -6 64 -26
56 -7 -2 -12 -1 -12 3 1 4 1 13 0 21 -1 15 -16 6 -16 -10 0 -5 -4 -9 -9 -8 -5
0 -12 -5 -16 -11 -4 -7 -12 -10 -18 -6 -14 8 -3 46 14 46 7 0 16 5 19 10 6 10
4 11 -30 3z m-24 -36 c-1 -12 -15 -9 -19 4 -3 6 1 10 8 8 6 -3 11 -8 11 -12z
m-4 -154 c-4 -3 0 -15 10 -25 9 -10 12 -18 8 -18 -5 0 2 -11 14 -24 l22 -23
-26 0 c-17 0 -24 4 -21 12 2 7 -1 18 -7 24 -8 8 -7 11 3 11 10 0 9 4 -3 18
-15 16 -14 32 1 32 3 0 2 -3 -1 -7z m143 -55 c0 -12 -3 -18 -7 -14 -11 10 -12
36 -2 36 5 0 9 -10 9 -22z m39 -31 c0 -21 -1 -21 -9 -2 -12 28 -12 37 0 30 6
-3 10 -16 9 -28z m-6 -49 c6 -22 5 -22 -8 -4 -17 22 -20 40 -6 32 5 -3 11 -16
14 -28z m-90 9 c3 -8 0 -14 -7 -14 -7 0 -13 6 -13 14 0 7 4 13 8 13 4 0 9 -6
12 -13z"/>
<path d="M1317 1283 c-4 -3 -7 -11 -7 -17 0 -6 5 -5 12 2 6 6 9 14 7 17 -3 3
-9 2 -12 -2z"/>
<path d="M7 1273 c-11 -11 -8 -183 3 -183 6 0 10 3 10 8 0 4 22 7 50 7 47 -1
49 0 44 25 l-5 25 15 -25 c11 -18 15 -20 16 -8 0 17 -44 76 -67 91 -7 4 -13
19 -13 31 0 28 -35 47 -53 29z m16 -38 c-3 -9 -8 -14 -10 -11 -3 3 -2 9 2 15
9 16 15 13 8 -4z m12 -35 c3 -5 1 -10 -4 -10 -6 0 -11 5 -11 10 0 6 2 10 4 10
3 0 8 -4 11 -10z m53 -44 c3 -24 2 -26 -11 -15 -8 8 -11 16 -6 17 6 2 4 11 -3
20 -11 13 -11 14 2 10 8 -2 16 -17 18 -32z"/>
<path d="M181 1260 c14 -31 19 -36 19 -24 0 6 -7 19 -16 30 -14 18 -14 18 -3
-6z"/>
<path d="M1064 1269 c-3 -6 -1 -16 5 -22 8 -8 11 -5 11 11 0 24 -5 28 -16 11z"/>
<path d="M260 1256 c0 -9 5 -16 10 -16 6 0 10 4 10 9 0 6 -4 13 -10 16 -5 3
-10 -1 -10 -9z"/>
<path d="M396 1235 c-13 -57 -14 -65 -5 -65 5 0 9 9 9 19 0 11 4 21 8 23 5 2
5 14 2 28 l-7 25 -7 -30z"/>
<path d="M371 1234 c0 -11 3 -14 6 -6 3 7 2 16 -1 19 -3 4 -6 -2 -5 -13z"/>
<path d="M1101 1224 c0 -11 3 -14 6 -6 3 7 2 16 -1 19 -3 4 -6 -2 -5 -13z"/>
<path d="M2296 1227 c3 -10 9 -15 12 -12 3 3 0 11 -7 18 -10 9 -11 8 -5 -6z"/>
<path d="M2321 1225 c-1 -24 14 -50 22 -38 3 4 -1 19 -9 33 -12 22 -13 23 -13
5z"/>
<path d="M231 1214 c0 -11 3 -14 6 -6 3 7 2 16 -1 19 -3 4 -6 -2 -5 -13z"/>
<path d="M438 1206 c-4 -18 -1 -26 8 -26 16 0 18 18 5 38 -6 10 -10 7 -13 -12z"/>
<path d="M2211 1221 c-12 -8 -13 -14 -3 -35 11 -26 32 -36 32 -16 0 6 -5 10
-10 10 -6 0 -8 11 -4 25 7 28 6 29 -15 16z"/>
<path d="M2400 1205 c0 -9 5 -15 11 -13 6 2 11 8 11 13 0 5 -5 11 -11 13 -6 2
-11 -4 -11 -13z"/>
<path d="M200 1201 c0 -6 4 -13 10 -16 6 -3 7 1 4 9 -7 18 -14 21 -14 7z"/>
<path d="M335 1200 c3 -5 8 -10 11 -10 2 0 4 5 4 10 0 6 -5 10 -11 10 -5 0 -7
-4 -4 -10z"/>
<path d="M597 1183 c-4 -3 2 -12 13 -20 11 -8 20 -23 20 -34 0 -10 5 -19 10
-19 6 0 10 -4 10 -10 0 -15 33 -50 47 -50 7 0 13 -5 13 -11 0 -5 4 -8 9 -5 5
3 8 -12 7 -35 -2 -30 2 -43 15 -50 27 -14 28 -12 14 35 -19 62 -34 88 -49 83
-15 -6 -39 29 -31 43 4 6 2 10 -3 10 -6 0 -13 11 -16 25 -4 14 -13 25 -21 25
-8 0 -15 5 -15 10 0 11 -13 13 -23 3z"/>
<path d="M730 1181 c0 -5 -3 -18 -6 -28 -6 -16 -5 -16 9 2 19 23 21 35 7 35
-5 0 -10 -4 -10 -9z"/>
<path d="M180 1170 c0 -5 5 -10 11 -10 5 0 7 5 4 10 -3 6 -8 10 -11 10 -2 0
-4 -4 -4 -10z"/>
<path d="M2060 1165 c0 -8 5 -15 10 -15 6 0 10 7 10 15 0 8 -4 15 -10 15 -5 0
-10 -7 -10 -15z"/>
<path d="M2285 1170 c3 -5 8 -10 11 -10 2 0 4 5 4 10 0 6 -5 10 -11 10 -5 0
-7 -4 -4 -10z"/>
<path d="M786 1153 c-6 -14 -5 -15 5 -6 7 7 10 15 7 18 -3 3 -9 -2 -12 -12z"/>
<path d="M2940 1160 c0 -5 5 -10 11 -10 5 0 7 5 4 10 -3 6 -8 10 -11 10 -2 0
-4 -4 -4 -10z"/>
<path d="M690 1151 c0 -6 4 -13 10 -16 6 -3 7 1 4 9 -7 18 -14 21 -14 7z"/>
<path d="M815 1142 c-6 -22 3 -52 16 -52 12 0 12 57 0 65 -5 3 -12 -3 -16 -13z"/>
<path d="M2965 1140 c-4 -6 -4 -10 -1 -10 2 0 11 -3 20 -6 9 -3 16 -2 16 4 0
14 -28 23 -35 12z"/>
<path d="M567 1116 c-3 -8 -2 -39 2 -70 5 -36 4 -60 -3 -67 -8 -9 -8 -10 2 -5
17 10 15 -2 -3 -21 -9 -8 -13 -18 -9 -22 4 -3 9 0 11 7 3 6 9 9 14 6 6 -4 6
-10 0 -18 -8 -9 -7 -13 4 -13 8 0 12 4 9 9 -3 4 0 8 5 8 6 0 11 -4 11 -10 0
-5 5 -10 10 -10 6 0 4 10 -4 23 -12 18 -19 97 -9 97 1 0 12 -23 25 -51 17 -42
23 -48 29 -33 4 11 1 29 -8 43 -14 22 -14 24 1 18 24 -9 20 32 -5 63 -11 14
-18 19 -14 13 3 -7 1 -13 -4 -13 -6 0 -11 6 -11 14 0 7 -11 21 -24 29 -20 13
-25 14 -29 3z m28 -17 c11 -16 1 -19 -13 -3 -7 8 -8 14 -3 14 5 0 13 -5 16
-11z"/>
<path d="M742 1110 c0 -14 2 -19 5 -12 2 6 2 18 0 25 -3 6 -5 1 -5 -13z"/>
<path d="M496 1111 c-9 -14 -15 -79 -8 -86 4 -3 7 -16 7 -28 0 -15 6 -22 18
-21 20 2 22 -7 5 -24 -7 -7 -9 -12 -4 -12 4 0 14 7 23 16 14 14 14 18 -8 47
-12 18 -16 26 -7 19 12 -10 17 -10 27 1 6 8 8 17 4 21 -4 4 -7 18 -8 33 0 17
-7 28 -22 34 -12 4 -25 4 -27 0z"/>
<path d="M2490 1096 c0 -10 4 -15 9 -12 5 4 12 0 14 -6 4 -8 6 -9 6 -2 1 6 -6
17 -14 24 -12 10 -15 9 -15 -4z"/>
<path d="M390 1064 c0 -14 4 -23 9 -20 5 3 7 15 4 26 -7 28 -13 25 -13 -6z"/>
<path d="M120 1070 c0 -5 5 -10 11 -10 5 0 7 5 4 10 -3 6 -8 10 -11 10 -2 0
-4 -4 -4 -10z"/>
<path d="M458 1055 c2 -14 8 -22 13 -19 5 3 5 14 -1 25 -14 26 -18 24 -12 -6z"/>
<path d="M2472 1065 c3 -20 48 -32 48 -13 0 5 -6 8 -12 5 -7 -2 -19 3 -26 12
-11 14 -12 14 -10 -4z"/>
<path d="M250 1050 c0 -5 5 -10 11 -10 5 0 7 5 4 10 -3 6 -8 10 -11 10 -2 0
-4 -4 -4 -10z"/>
<path d="M2540 1050 c0 -5 5 -10 10 -10 6 0 10 5 10 10 0 6 -4 10 -10 10 -5 0
-10 -4 -10 -10z"/>
<path d="M2165 1040 c3 -5 8 -10 11 -10 2 0 4 5 4 10 0 6 -5 10 -11 10 -5 0
-7 -4 -4 -10z"/>
<path d="M2295 1040 c3 -5 8 -10 11 -10 2 0 4 5 4 10 0 6 -5 10 -11 10 -5 0
-7 -4 -4 -10z"/>
<path d="M2265 1030 c3 -5 8 -10 11 -10 2 0 4 5 4 10 0 6 -5 10 -11 10 -5 0
-7 -4 -4 -10z"/>
<path d="M2430 1030 c0 -5 5 -10 10 -10 6 0 10 5 10 10 0 6 -4 10 -10 10 -5 0
-10 -4 -10 -10z"/>
<path d="M230 1026 c0 -2 7 -7 16 -10 8 -3 12 -2 9 4 -6 10 -25 14 -25 6z"/>
<path d="M290 1025 c0 -5 5 -17 10 -25 5 -8 10 -10 10 -5 0 6 -5 17 -10 25 -5
8 -10 11 -10 5z"/>
<path d="M2127 1011 c4 -3 10 -10 14 -14 3 -4 11 -2 17 5 8 10 5 13 -15 14
-13 1 -21 -1 -16 -5z"/>
<path d="M2220 1012 c0 -5 7 -15 15 -22 8 -7 15 -9 15 -6 0 4 -7 14 -15 22 -8
9 -15 11 -15 6z"/>
<path d="M2280 1000 c0 -5 5 -10 11 -10 5 0 7 5 4 10 -3 6 -8 10 -11 10 -2 0
-4 -4 -4 -10z"/>
<path d="M174 976 c-2 -20 1 -22 11 -13 7 7 10 18 8 24 -8 21 -18 15 -19 -11z"/>
<path d="M0 970 c0 -11 4 -20 9 -20 5 0 7 9 4 20 -3 11 -7 20 -9 20 -2 0 -4
-9 -4 -20z"/>
<path d="M2161 967 c0 -16 -5 -26 -11 -22 -5 3 -7 11 -4 19 3 7 -2 13 -10 13
-11 0 -12 -5 -6 -17 13 -25 34 -40 45 -32 13 9 17 32 6 32 -5 0 -12 8 -14 18
-3 10 -5 6 -6 -11z"/>
<path d="M2214 983 c3 -6 2 -14 -4 -18 -17 -10 -11 -24 9 -22 21 1 22 21 1 40
-9 8 -11 8 -6 0z"/>
<path d="M1193 966 c4 -10 7 -22 7 -27 0 -5 4 -9 9 -9 12 0 2 38 -12 47 -7 4
-8 0 -4 -11z"/>
<path d="M200 942 c0 -14 6 -22 16 -22 14 0 15 3 3 18 -7 9 -15 19 -16 21 -2
2 -3 -5 -3 -17z"/>
<path d="M2336 938 c5 -7 2 -9 -8 -5 -19 7 -38 -11 -38 -36 0 -16 3 -17 14 -8
11 10 17 8 25 -6 14 -25 37 -3 23 23 -5 11 -7 25 -5 32 3 6 0 12 -7 12 -6 0
-8 -5 -4 -12z"/>
<path d="M1814 926 c-8 -22 1 -30 21 -19 15 9 15 11 1 22 -13 11 -17 10 -22
-3z"/>
<path d="M2360 910 c0 -5 5 -10 11 -10 5 0 7 5 4 10 -3 6 -8 10 -11 10 -2 0
-4 -4 -4 -10z"/>
<path d="M2784 913 c3 -4 1 -12 -5 -19 -15 -18 6 -27 31 -12 20 13 27 27 13
29 -5 0 -16 2 -26 4 -11 2 -16 1 -13 -2z"/>
<path d="M2980 905 c7 -9 15 -13 17 -11 7 7 -7 26 -19 26 -6 0 -6 -6 2 -15z"/>
<path d="M1110 881 c0 -11 2 -21 4 -21 14 0 36 14 36 23 0 6 -3 7 -7 4 -3 -4
-12 -2 -20 4 -10 9 -13 7 -13 -10z"/>
<path d="M1830 874 c0 -8 5 -12 10 -9 6 3 10 10 10 16 0 5 -4 9 -10 9 -5 0
-10 -7 -10 -16z"/>
<path d="M2240 880 c0 -5 7 -10 15 -10 8 0 15 5 15 10 0 6 -7 10 -15 10 -8 0
-15 -4 -15 -10z"/>
<path d="M1010 869 c0 -5 5 -7 10 -4 6 3 10 8 10 11 0 2 -4 4 -10 4 -5 0 -10
-5 -10 -11z"/>
<path d="M2745 860 c-3 -5 -1 -10 4 -10 6 0 11 5 11 10 0 6 -2 10 -4 10 -3 0
-8 -4 -11 -10z"/>
<path d="M2980 860 c0 -5 5 -10 11 -10 5 0 7 5 4 10 -3 6 -8 10 -11 10 -2 0
-4 -4 -4 -10z"/>
<path d="M2560 856 c0 -2 7 -7 16 -10 8 -3 12 -2 9 4 -6 10 -25 14 -25 6z"/>
<path d="M2875 850 c-3 -6 1 -7 9 -4 18 7 21 14 7 14 -6 0 -13 -4 -16 -10z"/>
<path d="M546 841 c-4 -5 3 -15 15 -21 18 -10 20 -9 17 6 -4 20 -23 30 -32 15z"/>
<path d="M620 825 c0 -20 5 -23 35 -23 25 0 35 4 35 15 0 13 -2 13 -17 2 -15
-12 -16 -12 -11 2 5 12 0 18 -18 22 -20 3 -24 0 -24 -18z"/>
<path d="M1893 835 c0 -8 5 -15 10 -15 5 0 6 -11 3 -24 -5 -20 -3 -23 12 -19
18 4 18 7 3 38 -17 37 -28 44 -28 20z"/>
<path d="M347 810 c10 -11 19 -20 21 -20 1 0 -2 9 -8 20 -6 11 -15 20 -20 20
-6 0 -2 -9 7 -20z"/>
<path d="M433 823 c-15 -3 -23 -12 -23 -24 0 -11 -5 -17 -10 -14 -6 4 -8 11
-5 16 4 5 2 9 -3 9 -5 0 -9 -11 -9 -24 0 -26 32 -43 41 -22 2 6 5 4 5 -4 1
-21 54 -41 72 -28 11 8 10 9 -3 5 -9 -3 -19 1 -22 9 -3 8 -1 14 5 14 6 0 9 7
5 15 -7 20 1 19 22 -2 18 -17 19 -20 21 -53 0 -11 6 -20 11 -20 13 0 2 45 -20
85 -9 17 -22 30 -28 30 -5 0 -14 3 -18 8 -4 4 -10 6 -13 6 -3 -1 -16 -4 -28
-6z m37 -29 c0 -8 -4 -12 -10 -9 -5 3 -10 13 -10 21 0 8 5 12 10 9 6 -3 10
-13 10 -21z"/>
<path d="M590 820 c0 -5 5 -10 10 -10 6 0 10 5 10 10 0 6 -4 10 -10 10 -5 0
-10 -4 -10 -10z"/>
<path d="M1810 820 c0 -5 5 -10 11 -10 5 0 7 5 4 10 -3 6 -8 10 -11 10 -2 0
-4 -4 -4 -10z"/>
<path d="M120 807 c0 -10 -4 -16 -9 -13 -5 3 -8 -8 -7 -25 3 -39 -10 -47 -33
-20 -22 25 -51 19 -51 -10 0 -19 19 -22 31 -5 4 4 15 -6 25 -23 10 -17 21 -31
25 -31 8 0 29 47 29 65 0 8 5 15 10 15 5 0 9 -5 7 -12 -1 -6 6 -14 16 -16 16
-3 18 0 12 20 l-7 23 17 -23 c19 -27 35 -21 33 13 -1 13 -5 22 -9 19 -4 -2 -5
-14 -2 -27 4 -20 4 -20 -9 3 -8 14 -10 27 -6 28 4 2 8 8 8 14 0 7 -5 6 -14 -1
-14 -12 -46 -5 -58 13 -5 7 -8 4 -8 -7z"/>
<path d="M1847 813 c-13 -13 -7 -20 17 -20 21 0 23 2 11 13 -15 16 -19 17 -28
7z"/>
<path d="M2710 804 c0 -30 8 -34 38 -18 35 18 43 18 36 -1 -4 -8 -2 -15 4 -15
15 0 22 28 8 33 -7 3 -25 3 -40 0 -18 -4 -31 -1 -37 8 -7 11 -9 9 -9 -7z"/>
<path d="M2940 800 c0 -5 5 -10 11 -10 5 0 7 5 4 10 -3 6 -8 10 -11 10 -2 0
-4 -4 -4 -10z"/>
<path d="M1810 790 c0 -5 5 -10 11 -10 5 0 7 5 4 10 -3 6 -8 10 -11 10 -2 0
-4 -4 -4 -10z"/>
<path d="M2976 792 c6 -4 14 -14 17 -22 4 -10 6 -8 6 8 1 15 -5 22 -16 22 -11
0 -14 -3 -7 -8z"/>
<path d="M600 780 c0 -5 5 -10 11 -10 5 0 7 5 4 10 -3 6 -8 10 -11 10 -2 0 -4
-4 -4 -10z"/>
<path d="M939 786 c-2 -2 -22 -6 -44 -9 -24 -2 -39 -9 -37 -16 1 -8 -3 -8 -17
1 -15 9 -26 9 -45 0 -19 -8 -26 -8 -30 1 -2 7 -5 4 -5 -7 -1 -16 -3 -17 -18
-5 -15 12 -16 12 -10 -3 8 -22 3 -23 -17 -2 -15 14 -16 13 -16 -13 0 -28 15
-53 32 -53 4 0 8 8 8 18 0 13 2 14 9 3 7 -11 10 -9 16 9 6 20 9 21 17 7 13
-23 32 -21 52 6 l17 22 -6 -30 c-4 -22 -3 -26 5 -15 9 13 11 13 20 0 9 -13 14
-7 11 13 -2 14 38 7 47 -9 7 -13 12 -10 25 18 16 32 21 27 20 -18 0 -8 9 -9
28 -4 15 5 30 6 33 2 3 -3 6 3 6 14 0 10 3 29 6 41 5 19 2 21 -28 20 -18 -1
-36 -6 -40 -12 -4 -5 -10 -2 -14 8 -6 16 -16 22 -25 13z m81 -55 c0 -5 -7 -12
-16 -15 -14 -5 -15 -4 -4 9 14 17 20 19 20 6z m-290 -22 c0 -6 -4 -7 -10 -4
-5 3 -10 11 -10 16 0 6 5 7 10 4 6 -3 10 -11 10 -16z"/>
<path d="M1110 770 c-8 -11 -21 -19 -29 -17 -10 1 -20 -12 -28 -36 -11 -33
-11 -41 3 -55 15 -15 16 -14 9 7 -6 18 -4 22 6 15 11 -6 11 -5 0 9 -12 15 -12
17 3 11 12 -4 16 0 16 16 0 12 4 18 10 15 6 -4 10 -3 9 2 -4 22 2 25 16 7 8
-10 15 -14 15 -8 0 7 6 14 14 17 11 5 11 0 -2 -23 -14 -25 -15 -31 -3 -42 8
-7 11 -8 8 -2 -5 8 2 11 18 10 18 -1 23 -5 19 -16 -11 -26 -10 -64 3 -77 16
-17 28 -16 14 1 -17 20 -4 45 21 38 15 -4 19 -1 16 9 -3 8 -10 13 -16 12 -6
-2 -9 4 -6 11 7 17 -24 36 -46 28 -12 -4 -13 -2 -3 9 13 16 12 44 -3 58 -21
20 -50 21 -64 1z"/>
<path d="M315 770 c-8 -13 4 -32 16 -25 12 8 12 35 0 35 -6 0 -13 -4 -16 -10z"/>
<path d="M355 770 c3 -5 8 -10 11 -10 2 0 4 5 4 10 0 6 -5 10 -11 10 -5 0 -7
-4 -4 -10z"/>
<path d="M1851 771 c-9 -6 -10 -11 -2 -15 6 -4 11 -3 11 3 0 6 7 7 17 4 11 -4
14 -3 9 5 -8 14 -16 15 -35 3z"/>
<path d="M2335 760 c-4 -6 -18 -10 -31 -7 -13 2 -24 0 -24 -6 0 -5 -7 -3 -16
4 -14 11 -18 10 -29 -5 -8 -10 -11 -25 -7 -34 5 -14 7 -12 13 8 6 23 7 23 8
-7 1 -18 6 -33 12 -33 7 0 9 10 4 27 -5 23 -4 25 9 14 11 -10 13 -18 6 -31 -6
-12 -7 -21 -1 -25 9 -5 33 27 28 36 -1 2 0 3 2 2 2 -2 11 3 19 10 13 10 14 8
8 -13 -4 -14 -4 -20 1 -13 10 14 93 -3 93 -19 0 -5 5 -6 11 -3 6 5 4 12 -7 20
-17 12 -17 14 -1 29 21 22 22 46 1 46 -8 0 -12 -5 -8 -11 3 -6 -5 -3 -20 6
-25 17 -26 17 -20 -1 5 -18 5 -18 -10 0 -12 15 -16 16 -16 5 0 -11 -2 -12 -9
0 -6 10 -10 10 -16 1z m33 -45 c-3 -3 -9 2 -12 12 -6 14 -5 15 5 6 7 -7 10
-15 7 -18z"/>
<path d="M2484 759 c-23 -37 -32 -59 -24 -64 5 -3 11 -1 15 5 4 6 16 3 32 -10
54 -43 143 -11 111 40 -14 21 -58 28 -58 8 0 -6 -3 -8 -6 -5 -4 4 -1 13 6 22
11 13 10 14 -4 9 -9 -3 -16 -10 -16 -16 0 -14 -34 -5 -41 11 -5 13 -7 13 -15
0z m41 -59 c3 -5 1 -10 -4 -10 -6 0 -11 5 -11 10 0 6 2 10 4 10 3 0 8 -4 11
-10z"/>
<path d="M2891 754 c0 -11 3 -14 6 -6 3 7 2 16 -1 19 -3 4 -6 -2 -5 -13z"/>
<path d="M665 750 c3 -6 -1 -7 -9 -4 -9 3 -16 1 -16 -4 0 -6 -8 -19 -17 -28
-16 -15 -16 -17 -2 -12 9 4 22 1 28 -5 15 -15 33 3 36 37 2 18 -2 26 -11 26
-9 0 -12 -4 -9 -10z"/>
<path d="M2137 749 c-9 -5 -21 -8 -26 -5 -5 3 -11 -1 -14 -9 -4 -9 -1 -12 9
-8 7 3 14 0 14 -7 0 -7 6 -10 13 -7 16 6 42 -31 40 -58 -1 -15 0 -16 3 -3 3 9
11 15 19 12 9 -4 17 4 21 21 8 33 -1 43 -26 27 -16 -10 -21 -9 -30 8 -6 11 -7
20 -3 19 25 -4 63 2 63 11 0 13 -60 12 -83 -1z"/>
<path d="M1700 729 c0 -5 5 -7 10 -4 6 3 10 8 10 11 0 2 -4 4 -10 4 -5 0 -10
-5 -10 -11z"/>
<path d="M2060 731 c0 -5 -31 -7 -69 -4 -44 3 -71 1 -75 -6 -4 -6 -12 -11 -17
-11 -6 0 -7 5 -3 11 3 6 -8 3 -26 -6 -17 -9 -38 -14 -46 -11 -8 3 -12 2 -9 -4
7 -11 -29 -32 -39 -22 -4 3 -4 -2 0 -13 6 -15 4 -17 -9 -12 -27 10 -20 -15 16
-54 17 -19 26 -28 20 -19 -7 9 -13 19 -13 22 0 10 38 16 47 7 4 -4 9 3 9 16 2
26 -25 43 -36 24 -5 -7 -10 -8 -14 -1 -8 13 22 26 54 23 34 -4 36 -8 16 -30
-16 -17 -15 -19 8 -35 29 -19 36 -20 36 -6 0 6 -8 10 -17 10 -15 0 -14 2 3 19
10 10 24 16 29 13 6 -3 4 1 -3 10 -10 13 -10 17 3 22 9 3 13 11 9 17 -5 8 -3
9 5 4 8 -5 9 -11 3 -17 -11 -11 33 -98 49 -98 14 0 11 12 -8 25 -14 11 -13 13
10 17 21 4 27 1 27 -12 0 -9 14 -29 30 -45 17 -16 30 -26 30 -22 0 3 -11 16
-25 29 -33 31 -19 53 30 50 22 -2 34 1 31 7 -4 5 3 16 15 25 24 16 19 52 -5
43 -7 -3 -19 0 -25 6 -9 9 -10 7 -5 -8 7 -17 5 -18 -8 -8 -8 7 -18 9 -23 5 -4
-4 -5 5 -1 21 3 15 4 27 1 27 -3 0 -5 -4 -5 -9z m-32 -33 c20 -20 14 -27 -13
-15 -14 7 -25 15 -25 20 0 11 25 8 38 -5z m-53 -18 c3 -5 1 -10 -4 -10 -6 0
-11 5 -11 10 0 6 2 10 4 10 3 0 8 -4 11 -10z m115 -25 c0 -8 -2 -15 -4 -15 -2
0 -6 7 -10 15 -3 8 -1 15 4 15 6 0 10 -7 10 -15z m-90 -15 c0 -5 -2 -10 -4
-10 -3 0 -8 5 -11 10 -3 6 -1 10 4 10 6 0 11 -4 11 -10z"/>
<path d="M2940 699 c0 -5 5 -7 10 -4 6 3 10 8 10 11 0 2 -4 4 -10 4 -5 0 -10
-5 -10 -11z"/>
<path d="M1003 675 c-17 -19 -16 -24 5 -22 10 0 18 9 18 19 0 21 -7 22 -23 3z"/>
<path d="M50 664 c0 -8 5 -12 10 -9 6 3 10 10 10 16 0 5 -4 9 -10 9 -5 0 -10
-7 -10 -16z"/>
<path d="M100 663 c0 -7 -7 -13 -15 -13 -7 0 -18 -8 -24 -17 -9 -17 -11 -17
-26 2 -16 20 -16 19 -5 -2 9 -19 8 -23 -4 -23 -8 0 -17 8 -19 18 -4 14 -5 14
-6 1 -1 -23 44 -69 69 -69 11 0 20 -5 20 -12 0 -6 3 -9 6 -5 3 3 2 11 -2 18
-4 7 -9 27 -11 43 -3 28 -2 29 10 12 13 -18 14 -18 19 7 3 14 1 32 -3 39 -7
10 -9 10 -9 1z m-40 -62 c0 -6 -4 -13 -10 -16 -5 -3 -10 1 -10 9 0 9 5 16 10
16 6 0 10 -4 10 -9z"/>
<path d="M380 655 c-7 -9 0 -12 26 -13 23 -1 34 3 32 10 -5 15 -46 18 -58 3z"/>
<path d="M1119 661 c-11 -4 -13 -13 -9 -31 l6 -25 8 28 c5 22 10 26 20 18 12
-10 26 -6 26 9 0 8 -32 9 -51 1z"/>
<path d="M458 630 c20 -23 14 -33 -19 -28 -22 3 -33 0 -40 -13 -6 -11 -5 -20
1 -24 5 -3 10 -18 10 -31 0 -16 5 -24 13 -21 6 2 11 10 10 16 -2 6 4 11 12 11
18 0 20 -26 3 -33 -10 -3 -10 -7 -2 -17 9 -9 13 -5 18 17 15 69 14 112 -2 125
-14 10 -15 10 -4 -2z m-2 -67 c-10 -10 -19 5 -10 18 6 11 8 11 12 0 2 -7 1
-15 -2 -18z"/>
<path d="M1030 632 c0 -10 22 -32 32 -32 15 0 8 15 -12 28 -11 7 -20 9 -20 4z"/>
<path d="M1085 630 c3 -5 8 -10 11 -10 2 0 4 5 4 10 0 6 -5 10 -11 10 -5 0 -7
-4 -4 -10z"/>
<path d="M2880 630 c0 -5 5 -10 10 -10 6 0 10 5 10 10 0 6 -4 10 -10 10 -5 0
-10 -4 -10 -10z"/>
<path d="M1705 610 c3 -5 8 -10 11 -10 2 0 4 5 4 10 0 6 -5 10 -11 10 -5 0 -7
-4 -4 -10z"/>
<path d="M490 603 c0 -5 9 -14 20 -21 11 -7 20 -8 20 -2 0 5 -9 14 -20 20 -11
6 -20 7 -20 3z"/>
<path d="M1916 595 c-11 -30 -6 -40 11 -22 12 12 14 20 6 28 -7 7 -12 6 -17
-6z"/>
<path d="M2087 599 c7 -7 15 -10 18 -7 3 3 -2 9 -12 12 -14 6 -15 5 -6 -5z"/>
<path d="M1026 585 c-3 -9 -6 -22 -5 -28 0 -7 5 -1 10 12 5 13 8 26 5 28 -2 2
-6 -3 -10 -12z"/>
<path d="M2125 590 c3 -5 11 -10 16 -10 6 0 7 5 4 10 -3 6 -11 10 -16 10 -6 0
-7 -4 -4 -10z"/>
<path d="M1110 566 c0 -9 5 -16 10 -16 6 0 10 4 10 9 0 6 -4 13 -10 16 -5 3
-10 -1 -10 -9z"/>
<path d="M1165 570 c4 -6 11 -8 16 -5 14 9 11 15 -7 15 -8 0 -12 -5 -9 -10z"/>
<path d="M1255 571 c-3 -5 -1 -12 5 -16 5 -3 10 1 10 9 0 18 -6 21 -15 7z"/>
<path d="M1830 570 c0 -5 5 -10 11 -10 5 0 7 5 4 10 -3 6 -8 10 -11 10 -2 0
-4 -4 -4 -10z"/>
<path d="M2007 573 c-4 -3 -7 -11 -7 -17 0 -6 5 -5 12 2 6 6 9 14 7 17 -3 3
-9 2 -12 -2z"/>
<path d="M2165 570 c-3 -5 -1 -10 4 -10 6 0 11 5 11 10 0 6 -2 10 -4 10 -3 0
-8 -4 -11 -10z"/>
<path d="M1 554 c0 -11 3 -14 6 -6 3 7 2 16 -1 19 -3 4 -6 -2 -5 -13z"/>
<path d="M1618 546 c-25 -27 -31 -52 -23 -92 6 -35 11 -39 39 -28 23 9 20 24
-5 24 -11 0 -17 4 -14 10 4 6 15 8 26 5 15 -5 18 -3 12 12 -6 16 -5 16 10 4 9
-7 17 -9 17 -5 0 5 10 15 22 23 l21 13 -21 -27 c-17 -21 -19 -31 -11 -46 5
-10 14 -19 19 -19 10 0 35 41 32 53 -1 4 2 7 7 7 6 0 20 -18 32 -40 22 -39 47
-56 35 -24 -4 9 -1 23 6 31 10 12 9 18 -7 29 -22 17 -12 19 16 3 16 -8 23 -7
33 7 7 9 18 14 24 10 8 -5 12 0 12 14 0 17 4 19 24 14 21 -5 24 -2 22 19 -1
26 -16 27 -16 1 0 -10 -5 -12 -12 -7 -20 12 -58 15 -58 4 0 -5 6 -12 13 -15 6
-3 1 -4 -13 -3 -14 1 -33 9 -43 19 -27 24 -57 30 -57 11 0 -13 -3 -13 -15 -3
-8 7 -15 9 -15 5 0 -4 -6 -3 -13 4 -20 16 -78 9 -99 -13z m25 -1 c-3 -9 -8
-14 -10 -11 -3 3 -2 9 2 15 9 16 15 13 8 -4z m47 1 c0 -3 -4 -8 -10 -11 -5 -3
-10 -1 -10 4 0 6 5 11 10 11 6 0 10 -2 10 -4z m60 -36 c0 -13 -1 -13 -10 0 -5
8 -10 22 -10 30 0 13 1 13 10 0 5 -8 10 -22 10 -30z m-36 -66 c3 -8 2 -12 -4
-9 -6 3 -10 10 -10 16 0 14 7 11 14 -7z"/>
<path d="M20 548 c0 -7 5 -20 10 -28 8 -12 10 -11 10 7 0 12 -4 25 -10 28 -5
3 -10 0 -10 -7z"/>
<path d="M1028 543 c-10 -2 -18 -9 -18 -14 0 -13 13 -11 36 6 19 14 14 17 -18
8z"/>
<path d="M110 521 c-7 -15 -7 -21 0 -21 12 0 25 28 17 36 -3 3 -10 -4 -17 -15z"/>
<path d="M200 501 c0 -5 5 -13 10 -16 6 -3 10 -2 10 4 0 5 -4 13 -10 16 -5 3
-10 2 -10 -4z"/>
<path d="M1882 465 c-11 -12 -10 -15 3 -15 8 0 15 7 15 15 0 18 -2 18 -18 0z"/>
<path d="M2388 469 c-23 -13 -23 -29 0 -29 11 0 18 7 18 20 0 11 0 20 -1 20 0
0 -8 -5 -17 -11z"/>
<path d="M2467 466 c-3 -8 -3 -17 0 -20 9 -9 34 15 27 25 -8 13 -21 11 -27 -5z"/>
<path d="M217 439 c7 -7 15 -10 18 -7 3 3 -2 9 -12 12 -14 6 -15 5 -6 -5z"/>
<path d="M1645 424 c-10 -8 -15 -17 -11 -21 4 -4 11 -1 17 7 8 13 10 13 18 0
6 -8 12 -12 15 -10 2 3 -1 12 -8 21 -10 15 -14 15 -31 3z"/>
<path d="M165 10 c-14 -6 -4 -9 34 -9 30 -1 52 1 50 3 -11 9 -66 13 -84 6z"/>
<path d="M285 10 c-3 -5 -1 -10 4 -10 6 0 11 5 11 10 0 6 -2 10 -4 10 -3 0 -8
-4 -11 -10z"/>
</g>
</svg>
