<?xml version="1.0" standalone="no"?>
<!DOCTYPE svg PUBLIC "-//W3C//DTD SVG 20010904//EN"
 "http://www.w3.org/TR/2001/REC-SVG-20010904/DTD/svg10.dtd">
<svg version="1.0" xmlns="http://www.w3.org/2000/svg"
 width="300.000000pt" height="250.000000pt" viewBox="0 0 300.000000 250.000000"
 preserveAspectRatio="xMidYMid meet">

<g transform="translate(0.000000,250.000000) scale(0.100000,-0.100000)"
fill="#000000" stroke="none">
<path d="M131 2495 c-1 -5 -10 -50 -20 -100 -10 -49 -24 -127 -31 -172 -7 -46
-17 -83 -22 -83 -5 0 -8 6 -7 13 1 6 1 29 0 50 -1 30 -5 37 -21 37 -29 0 -25
19 8 32 22 9 24 12 9 15 -39 10 -48 -4 -46 -67 2 -45 6 -60 15 -56 22 9 25
-10 4 -29 -24 -22 -26 -55 -4 -55 8 0 12 -5 9 -10 -4 -6 -12 -8 -18 -4 -7 3
-3 -3 8 -13 11 -10 29 -29 40 -43 17 -20 18 -22 3 -17 -25 9 -34 -14 -13 -30
17 -11 17 -13 2 -13 -10 0 -14 -5 -11 -14 3 -8 1 -17 -5 -20 -6 -4 -8 -13 -4
-21 3 -9 -1 -15 -11 -15 -14 0 -16 -23 -16 -199 l0 -199 25 -6 c15 -4 25 -13
25 -25 0 -14 -6 -17 -28 -13 -15 2 -23 1 -19 -4 12 -13 39 -14 60 -2 18 9 18
11 -9 40 l-29 30 35 -4 35 -3 0 49 c0 30 5 51 13 53 8 3 12 -10 12 -46 0 -39
-5 -55 -22 -71 -13 -12 -17 -20 -9 -20 7 0 11 -6 8 -14 -4 -10 -1 -13 7 -10
11 4 14 -12 15 -75 1 -57 -2 -81 -11 -81 -6 0 -3 -6 7 -14 18 -13 18 -18 7
-51 -8 -21 -10 -41 -5 -48 5 -7 6 -30 2 -52 -5 -34 -7 -37 -14 -18 -6 18 -11
21 -25 13 -14 -7 -20 -6 -24 7 -4 9 -3 19 2 22 6 4 5 16 0 31 -7 16 -12 20
-15 12 -4 -10 -8 -9 -18 4 -10 14 -9 25 3 56 8 21 21 38 29 38 20 0 16 43 -7
63 -23 19 -25 15 -7 -13 10 -17 9 -22 -2 -29 -8 -5 -20 -7 -27 -4 -9 3 -12
-27 -13 -134 0 -127 1 -140 19 -151 16 -10 20 -10 20 1 0 7 14 14 32 15 18 2
35 7 36 12 8 22 22 8 22 -20 0 -30 0 -30 29 -16 16 9 31 12 35 9 3 -4 6 6 6
20 0 28 14 37 23 15 4 -10 6 -10 6 0 1 6 8 12 17 12 11 0 13 -6 9 -19 -4 -14
0 -23 13 -30 23 -12 33 -5 25 17 -6 15 -4 15 14 -1 11 -9 32 -17 47 -17 22 0
26 4 22 18 -5 13 0 18 18 20 30 2 60 -31 53 -58 -4 -17 -2 -20 10 -16 12 5 14
1 11 -19 -3 -14 -1 -25 3 -25 5 0 9 -7 9 -16 0 -10 5 -14 15 -10 12 4 13 2 6
-12 -5 -9 -9 -37 -9 -61 -1 -24 -3 -46 -6 -49 -3 -3 -6 5 -6 17 0 17 -4 21
-15 17 -8 -3 -15 -1 -15 4 0 6 7 10 15 10 16 0 18 12 9 48 -4 14 -14 22 -29
22 -20 0 -22 -3 -15 -38 4 -21 6 -46 4 -55 -1 -9 4 -17 12 -17 8 0 14 -7 14
-15 0 -11 5 -12 26 -5 14 6 23 6 20 1 -3 -5 2 -12 11 -15 11 -5 26 4 45 24 32
36 33 35 13 -13 -19 -45 -19 -47 0 -47 8 0 15 -5 15 -11 0 -6 -9 -8 -20 -4
-15 5 -23 0 -32 -19 -11 -26 -19 -31 -31 -20 -3 4 0 13 8 21 22 22 18 33 -15
39 -16 4 -30 10 -30 15 0 5 -7 9 -15 9 -8 0 -15 -8 -15 -17 0 -9 3 -13 7 -10
3 4 12 -1 19 -11 11 -14 13 -14 14 -2 0 12 3 11 11 -3 15 -25 6 -31 -23 -16
-21 11 -22 11 -10 -4 8 -9 22 -19 33 -22 27 -9 24 -35 -3 -35 -22 -1 -23 -1
-4 -15 20 -15 20 -15 0 -15 -11 0 -15 -3 -8 -8 11 -7 7 -85 -5 -78 -3 2 -7
-11 -8 -29 -3 -29 0 -32 18 -28 12 4 24 14 26 24 3 10 11 20 18 23 9 3 12 0 8
-10 -3 -9 2 -14 16 -14 12 0 21 4 21 9 0 15 -30 41 -46 41 -16 0 -18 9 -5 28
6 10 17 1 42 -32 19 -24 42 -44 51 -43 9 1 14 5 12 9 -3 4 -1 8 4 8 9 0 16 23
29 95 6 32 42 96 82 145 20 24 35 48 34 52 -2 4 3 5 11 2 16 -6 40 21 31 35
-3 6 3 19 15 31 11 11 20 16 20 12 0 -4 -5 -13 -12 -20 -25 -25 2 -22 49 5 31
18 47 34 45 44 -1 9 4 22 13 29 8 7 15 20 15 30 0 10 7 31 15 46 19 37 19 58
1 51 -10 -4 -13 -1 -10 8 3 7 15 15 26 18 11 3 17 10 13 16 -3 6 -10 9 -14 6
-5 -2 -8 8 -8 23 0 15 2 21 4 15 8 -23 32 -14 39 14 4 16 15 39 26 52 22 28
20 32 -11 24 -17 -4 -19 -8 -9 -14 10 -7 9 -9 -4 -9 -31 0 -29 19 4 37 18 9
38 16 44 15 6 -1 19 6 28 17 16 17 16 23 2 67 -8 27 -15 43 -15 35 -1 -8 -8
-23 -18 -33 -15 -17 -15 -18 5 -18 27 0 29 -26 3 -40 -25 -13 -27 -13 -43 4
-8 7 -39 33 -69 58 -49 40 -57 44 -68 29 -10 -14 -11 -13 -6 5 6 24 -38 85
-58 81 -6 -1 -12 3 -12 8 -1 6 -20 39 -43 74 -23 35 -47 79 -54 97 -7 19 -15
34 -19 34 -10 0 -17 -74 -7 -78 4 -2 5 -9 1 -15 -5 -7 -8 -34 -9 -62 -3 -150
-7 -162 -37 -100 -13 26 -22 34 -39 32 -18 -2 -24 4 -26 26 -3 25 -22 40 -22
16 0 -5 -4 -7 -10 -4 -5 3 -10 -1 -10 -10 0 -10 -5 -13 -12 -9 -8 5 -9 2 -5
-10 4 -10 7 -19 7 -21 0 -2 8 -1 19 2 15 4 18 0 14 -20 -8 -39 -36 -23 -67 39
-15 30 -34 54 -42 54 -11 0 -13 6 -8 23 4 12 12 25 18 30 15 10 -30 48 -50 40
-8 -3 -23 3 -33 13 -18 18 -18 20 1 41 l21 22 -57 28 c-31 15 -56 30 -56 35 0
4 8 13 19 20 27 19 63 95 59 126 -3 25 -6 22 -32 -28 -37 -70 -77 -124 -85
-112 -3 5 -23 15 -43 21 -44 14 -54 27 -38 45 8 10 8 15 0 18 -7 2 -13 53 -15
138 -4 114 -8 137 -22 148 -10 7 -28 10 -40 7 -16 -4 -23 -1 -23 10 0 18 -1
18 40 4 36 -13 54 1 44 33 -3 10 2 18 13 22 10 3 -4 3 -32 1 -34 -3 -45 -2
-34 5 8 5 47 11 85 14 48 4 58 3 34 -3 l-35 -8 30 -2 c17 0 59 4 94 9 105 18
170 17 174 0 6 -30 -27 -120 -85 -234 l-20 -38 25 17 c14 9 28 12 31 7 2 -4
10 -46 15 -92 13 -100 26 -123 17 -28 -5 52 -3 75 9 98 9 17 13 35 10 39 -8
14 5 41 21 41 17 0 71 47 62 55 -3 4 -15 2 -26 -4 -24 -13 -62 -15 -61 -3 0 4
17 45 37 92 l37 85 68 3 67 3 1 -43 c0 -33 2 -38 9 -23 8 19 9 19 9 -3 1 -18
-16 -84 -46 -186 -4 -12 7 -6 30 18 20 20 38 35 39 34 2 -1 26 4 53 12 28 7
58 12 67 11 12 -1 15 3 11 20 -4 14 -2 20 5 16 5 -4 13 -1 15 5 3 7 6 1 6 -14
1 -25 5 -27 59 -33 31 -4 63 -11 71 -15 18 -10 61 11 61 30 0 8 9 30 20 48 11
17 16 32 12 33 -4 0 3 4 16 9 12 5 22 17 22 27 0 14 -2 15 -9 4 -14 -22 -23 5
-16 49 4 22 11 40 17 40 6 0 8 -11 4 -25 -5 -19 -3 -23 9 -19 19 8 19 28 0 44
-20 17 -19 47 3 59 9 6 11 11 5 11 -7 0 -13 7 -13 16 0 9 -5 12 -12 8 -8 -5
-9 -2 -5 10 4 10 7 23 7 29 0 7 4 6 10 -3 8 -12 10 -11 10 7 0 12 5 25 10 28
18 11 11 35 -10 35 -11 0 -19 -3 -19 -7 3 -21 -3 -33 -17 -33 -11 0 -14 6 -9
20 6 19 2 20 -105 20 -96 0 -111 -2 -117 -17 -3 -10 -13 -26 -21 -35 -10 -13
-11 -18 -3 -18 7 0 9 -5 5 -11 -5 -8 -9 -8 -14 1 -5 8 -14 2 -29 -18 -35 -50
-123 -102 -171 -102 -48 0 -128 18 -136 32 -3 5 5 6 20 2 15 -4 26 -2 26 4 0
18 123 34 128 17 3 -10 -16 -15 -70 -18 -51 -3 -30 -19 25 -19 50 0 79 14 93
46 6 14 17 20 32 19 16 -2 22 2 22 17 0 11 6 20 13 20 8 0 23 10 35 23 24 26
29 43 10 31 -9 -5 -9 -2 1 9 12 15 10 17 -19 17 -19 0 -39 -7 -47 -17 -14 -17
-14 -17 -9 0 4 14 -1 17 -28 17 -32 0 -34 -2 -40 -44 -7 -47 -9 -48 -76 -61
-19 -4 -41 -12 -47 -17 -21 -17 -16 33 7 67 26 40 25 55 -4 55 -31 0 -37 -9
-41 -66 -4 -45 -18 -74 -37 -74 -5 0 -7 4 -4 8 4 7 -73 -3 -169 -22 -11 -2
-39 -7 -63 -10 -24 -3 -52 -11 -63 -16 -11 -6 -23 -9 -27 -6 -4 2 -26 1 -50
-4 -39 -7 -42 -6 -42 16 0 12 7 53 15 89 9 37 14 72 11 79 -2 6 -5 7 -5 1z
m819 -15 c0 -5 -7 -7 -15 -4 -8 4 -15 8 -15 10 0 2 7 4 15 4 8 0 15 -4 15 -10z
m-108 -7 c-6 -2 -10 -9 -7 -13 3 -5 -3 -14 -14 -19 -14 -8 -22 -7 -32 6 -9 10
-9 14 -2 10 6 -4 18 -1 25 7 7 9 20 15 28 15 10 0 11 -2 2 -6z m202 -36 c-3
-8 -12 -18 -20 -21 -10 -4 -13 -2 -8 7 21 37 41 47 28 14z m50 -8 c-9 -11 -19
-17 -21 -15 -8 7 21 45 30 39 4 -3 1 -14 -9 -24z m-310 -14 c-7 -17 -20 -20
-28 -6 -4 5 0 12 6 14 23 9 28 7 22 -8z m149 -25 c-3 -12 -8 -19 -11 -16 -5 6
5 36 12 36 2 0 2 -9 -1 -20z m157 0 c-10 -7 -11 -10 -2 -10 24 0 12 -15 -14
-17 -33 -1 -46 -14 -34 -33 9 -13 11 -13 20 0 8 13 12 12 29 -7 20 -21 20 -21
0 -26 -11 -3 -19 0 -19 7 0 6 -9 12 -20 12 -12 0 -19 -5 -16 -13 3 -7 1 -15
-3 -18 -5 -2 -11 8 -14 23 -5 27 15 62 37 62 6 0 17 9 24 21 7 12 16 18 20 14
3 -3 0 -10 -8 -15z m-40 6 c0 -2 -7 -7 -16 -10 -8 -3 -12 -2 -9 4 6 10 25 14
25 6z m-73 -38 c-3 -8 -6 -5 -6 6 -1 11 2 17 5 13 3 -3 4 -12 1 -19z m-137 -9
c0 -5 -7 -9 -15 -9 -17 0 -20 -16 -5 -25 16 -10 12 -55 -5 -55 -13 0 -14 4 -5
21 8 15 8 24 0 34 -8 10 -8 19 0 35 10 20 30 19 30 -1z m42 -1 c-7 -7 -12 -8
-12 -2 0 14 12 26 19 19 2 -3 -1 -11 -7 -17z m-369 -17 c-3 -11 -16 -22 -32
-25 -28 -5 -204 -31 -286 -41 -27 -4 -60 -9 -72 -12 -17 -4 -23 -1 -23 10 0
10 12 18 33 21 17 3 61 10 97 15 36 6 99 15 140 21 101 14 134 20 139 26 8 8
9 4 4 -15z m607 15 c0 -3 -4 -8 -10 -11 -5 -3 -10 -1 -10 4 0 6 5 11 10 11 6
0 10 -2 10 -4z m-122 -41 c-3 -3 -9 2 -12 12 -6 14 -5 15 5 6 7 -7 10 -15 7
-18z m-515 -32 c-9 -16 -17 -29 -18 -30 -1 -1 -14 2 -31 6 -29 9 -29 9 -3 10
14 1 34 10 44 21 25 28 29 25 8 -7z m394 5 c-3 -8 -6 -5 -6 6 -1 11 2 17 5 13
3 -3 4 -12 1 -19z m-200 6 c-3 -3 -12 -4 -19 -1 -8 3 -5 6 6 6 11 1 17 -2 13
-5z m316 -11 c-7 -2 -13 -9 -13 -14 0 -6 4 -8 9 -4 5 3 12 1 16 -5 3 -5 1 -10
-5 -10 -6 0 -8 -4 -5 -10 9 -15 -4 -12 -21 4 -17 18 -8 46 15 45 10 0 11 -2 4
-6z m92 -23 c-3 -5 -11 -10 -16 -10 -6 0 -7 5 -4 10 3 6 11 10 16 10 6 0 7 -4
4 -10z m-692 -7 c-7 -2 -19 -2 -25 0 -7 3 -2 5 12 5 14 0 19 -2 13 -5z m447 3
c0 -3 -4 -8 -10 -11 -5 -3 -10 -1 -10 4 0 6 5 11 10 11 6 0 10 -2 10 -4z
m-533 -12 c-3 -3 -12 -4 -19 -1 -8 3 -5 6 6 6 11 1 17 -2 13 -5z m573 -41
c-11 -17 -11 -17 -6 0 3 10 6 24 7 30 0 9 2 9 5 0 3 -7 0 -20 -6 -30z m-57 22
c10 -5 12 -17 7 -50 -4 -24 -3 -46 2 -47 5 -2 2 -12 -6 -23 -14 -19 -15 -17
-11 28 2 26 0 58 -5 72 -10 27 -9 28 13 20z m267 -24 c0 -11 -4 -22 -9 -25
-11 -7 -20 14 -13 32 7 19 22 14 22 -7z m-199 -44 c-10 -9 -11 -8 -5 6 3 10 9
15 12 12 3 -3 0 -11 -7 -18z m-128 2 c-6 -6 -9 -26 -6 -45 3 -19 2 -34 -3 -34
-10 0 -17 67 -8 81 3 5 10 9 17 9 8 0 8 -3 0 -11z m220 -29 c-3 -11 -9 -17
-15 -14 -5 3 -4 12 3 20 16 19 18 18 12 -6z m107 6 c0 -21 -12 -26 -26 -11
-18 18 -18 20 6 22 11 1 20 -4 20 -11z m-1020 -17 c0 -5 3 -8 8 -5 4 2 12 -6
18 -18 9 -20 8 -22 -18 -18 -15 2 -28 11 -28 18 0 8 -5 14 -11 14 -5 0 -7 5
-4 10 8 13 35 13 35 -1z m54 -314 c-7 -16 -24 -21 -24 -6 0 8 7 13 27 20 1 1
0 -6 -3 -14z m26 -10 c-6 -8 -9 -23 -5 -35 4 -11 2 -20 -4 -20 -12 0 -15 29
-5 54 3 9 11 16 16 16 6 0 6 -6 -2 -15z m-50 -36 c0 -5 -4 -9 -10 -9 -5 0 -10
7 -10 16 0 8 5 12 10 9 6 -3 10 -10 10 -16z m121 4 c22 -12 35 -26 37 -43 3
-20 1 -23 -9 -12 -20 19 -37 15 -86 -23 -25 -19 -41 -35 -36 -35 15 0 75 30
97 49 21 17 21 18 0 -34 -3 -8 -1 -15 5 -15 6 0 11 -4 11 -10 0 -15 -17 -12
-35 6 -9 9 -19 14 -22 10 -4 -3 -1 -12 5 -18 14 -14 16 -28 3 -28 -5 0 -13 9
-16 21 -5 14 -10 17 -18 10 -7 -5 -24 -9 -39 -8 -40 3 -38 41 2 62 17 9 28 20
25 25 -3 6 1 7 9 4 12 -5 16 1 16 25 0 36 4 37 51 14z m19 -153 c0 -5 -2 -10
-4 -10 -3 0 -8 5 -11 10 -3 6 -1 10 4 10 6 0 11 -4 11 -10z m130 -4 c0 -3 -4
-8 -10 -11 -5 -3 -10 -1 -10 4 0 6 5 11 10 11 6 0 10 -2 10 -4z m64 -12 c5
-14 4 -15 -9 -4 -13 11 -14 10 -9 -4 3 -9 1 -16 -5 -16 -12 0 -15 23 -4 33 11
11 21 8 27 -9z m-178 -40 c-3 -8 -10 -13 -16 -9 -6 3 -5 16 3 32 9 21 13 23
15 9 2 -9 1 -24 -2 -32z m80 27 c-3 -4 6 -6 19 -3 37 7 30 -12 -10 -27 -19 -7
-35 -19 -35 -27 0 -20 -16 -18 -25 4 -13 28 -13 54 -1 42 16 -16 30 -12 16 5
-11 13 -8 15 14 15 15 0 25 -4 22 -9z m-136 -40 c7 -11 18 -17 24 -14 6 4 7 2
3 -3 -5 -5 -12 -9 -15 -9 -4 0 -13 -4 -21 -9 -10 -7 -12 -4 -6 13 4 12 2 21
-4 21 -6 0 -11 5 -11 10 0 16 14 12 30 -9z m204 3 c3 -8 2 -12 -4 -9 -6 3 -10
10 -10 16 0 14 7 11 14 -7z m41 -24 c3 -5 1 -10 -4 -10 -6 0 -11 5 -11 10 0 6
2 10 4 10 3 0 8 -4 11 -10z m-242 -44 c3 -8 -1 -17 -9 -20 -9 -4 -14 1 -14 14
0 23 15 27 23 6z m278 -25 c-8 -14 -7 -19 2 -18 36 2 74 -28 89 -69 15 -42 15
-44 -5 -50 -15 -5 -27 0 -42 18 l-22 25 0 -29 c0 -16 4 -24 7 -17 6 8 9 8 15
-1 4 -6 5 -12 4 -13 -2 -1 -14 -11 -27 -22 -22 -18 -23 -18 -16 0 5 13 4 16
-4 11 -7 -4 -12 -14 -12 -22 0 -8 -5 -14 -10 -14 -6 0 -15 -11 -20 -25 -5 -14
-14 -25 -19 -25 -6 0 -8 -7 -5 -15 4 -8 1 -15 -5 -15 -6 0 -11 5 -11 11 0 5
-4 8 -9 5 -18 -11 -42 6 -36 25 5 15 0 20 -25 26 -22 4 -28 8 -18 14 9 6 9 9
1 9 -6 0 -14 -4 -18 -10 -3 -5 -12 -7 -20 -3 -8 3 -15 1 -15 -5 0 -5 10 -12
21 -15 14 -4 20 -11 16 -20 -4 -11 4 -17 27 -21 32 -6 96 -51 96 -68 0 -5 -20
3 -43 17 -41 23 -113 38 -77 16 8 -6 17 -8 21 -5 4 2 10 0 13 -5 4 -5 -3 -12
-14 -16 -11 -3 -20 -11 -20 -16 0 -14 20 -11 37 7 15 14 18 13 39 -13 l22 -28
-41 -6 c-26 -4 -66 -1 -104 8 -67 16 -71 22 -64 100 1 16 -5 24 -24 29 -13 3
-22 10 -19 16 3 5 12 7 20 4 7 -3 16 -1 18 3 3 5 17 6 31 3 15 -2 25 0 25 7 0
6 -11 11 -24 11 -19 0 -26 7 -31 31 -4 18 -3 35 4 42 7 7 9 4 6 -11 -2 -12 0
-22 6 -22 15 0 10 40 -6 46 -20 8 -21 100 -2 107 17 6 19 -24 3 -36 -6 -5 -1
-7 12 -4 17 4 22 2 18 -8 -3 -8 4 -21 14 -28 11 -8 17 -17 13 -20 -3 -4 -1 -7
5 -7 6 0 13 4 16 9 3 5 14 7 25 4 14 -3 20 2 24 26 6 27 11 31 37 31 18 0 29
4 25 10 -3 6 5 10 19 10 14 0 28 -4 31 -10 10 -17 21 -11 22 12 1 11 8 25 15
29 19 12 20 11 9 -10z m374 -1 c3 -5 -1 -10 -10 -10 -9 0 -13 5 -10 10 3 6 8
10 10 10 2 0 7 -4 10 -10z m-545 -10 c0 -5 8 -11 18 -11 16 -1 16 -2 0 -6 -10
-2 -18 -11 -18 -19 0 -8 -4 -14 -10 -14 -5 0 -8 13 -7 30 2 27 17 45 17 20z
m575 -20 c3 -5 1 -10 -4 -10 -6 0 -11 5 -11 10 0 6 2 10 4 10 3 0 8 -4 11 -10z
m-25 -54 c0 -3 -4 -8 -10 -11 -5 -3 -10 -1 -10 4 0 6 5 11 10 11 6 0 10 -2 10
-4z m52 -28 c-7 -7 -12 -8 -12 -2 0 14 12 26 19 19 2 -3 -1 -11 -7 -17z m-52
-12 c0 -3 -4 -8 -10 -11 -5 -3 -10 -1 -10 4 0 6 5 11 10 11 6 0 10 -2 10 -4z
m42 -38 c-7 -7 -12 -8 -12 -2 0 14 12 26 19 19 2 -3 -1 -11 -7 -17z m-317 2
c3 -5 2 -10 -4 -10 -5 0 -13 5 -16 10 -3 6 -2 10 4 10 5 0 13 -4 16 -10z m51
-27 c1 -18 -1 -20 -17 -10 -24 15 -25 40 -1 35 9 -2 17 -13 18 -25z m-89 11
c-3 -3 -12 -4 -19 -1 -8 3 -5 6 6 6 11 1 17 -2 13 -5z m311 -37 c-1 -19 2 -39
6 -45 3 -6 2 -13 -4 -17 -13 -8 -13 -52 0 -60 6 -3 10 -14 9 -23 0 -14 -2 -14
-6 -2 -3 8 -15 22 -26 31 -19 15 -19 18 -3 40 20 29 20 39 1 39 -19 0 -16 27
5 52 19 24 20 23 18 -15z m52 13 c0 -5 -5 -10 -11 -10 -5 0 -7 5 -4 10 3 6 8
10 11 10 2 0 4 -4 4 -10z m-145 -20 c3 -5 1 -10 -4 -10 -6 0 -11 5 -11 10 0 6
2 10 4 10 3 0 8 -4 11 -10z m212 -22 c-3 -8 -6 -5 -6 6 -1 11 2 17 5 13 3 -3
4 -12 1 -19z m-67 -7 c0 -6 -4 -13 -10 -16 -5 -3 -10 1 -10 9 0 9 5 16 10 16
6 0 10 -4 10 -9z m-110 -31 c0 -5 -4 -10 -9 -10 -6 0 -13 5 -16 10 -3 6 1 10
9 10 9 0 16 -4 16 -10z m103 -30 c-3 -12 -8 -19 -11 -16 -5 6 5 36 12 36 2 0
2 -9 -1 -20z m-143 0 c0 -5 -4 -10 -10 -10 -5 0 -10 5 -10 10 0 6 5 10 10 10
6 0 10 -4 10 -10z m0 -30 c0 -5 -2 -10 -4 -10 -3 0 -8 5 -11 10 -3 6 -1 10 4
10 6 0 11 -4 11 -10z m-670 -9 c0 -14 -26 -20 -41 -9 -11 8 -11 9 3 4 10 -3
20 -1 23 4 8 12 15 13 15 1z m440 -11 c0 -5 -2 -10 -4 -10 -3 0 -8 5 -11 10
-3 6 -1 10 4 10 6 0 11 -4 11 -10z m-70 -42 c0 -13 -5 -9 -31 19 l-24 26 27
-19 c15 -10 28 -22 28 -26z m112 -50 c0 -72 0 -72 10 -28 15 66 16 70 29 70 8
0 9 -12 4 -37 -4 -21 -11 -67 -14 -103 l-6 -65 -8 43 c-5 27 -12 42 -22 42
-11 0 -15 13 -15 54 0 30 -3 62 -7 72 -4 12 -3 15 5 10 8 -4 12 -1 12 10 0 10
3 14 6 11 4 -4 7 -39 6 -79z m338 78 c0 -2 3 -12 7 -22 4 -12 3 -15 -5 -10
-14 9 -16 -22 -2 -44 8 -12 10 -12 15 2 4 9 14 19 22 22 14 6 14 4 -1 -16 -9
-13 -21 -33 -27 -44 -10 -19 -61 -52 -65 -42 -1 1 -11 -5 -22 -15 -12 -11 -26
-16 -32 -12 -14 9 -52 -24 -43 -38 3 -5 1 -7 -4 -4 -11 7 -54 -41 -107 -118
-16 -22 -26 -35 -24 -30 19 55 33 85 40 85 4 0 8 6 8 13 0 6 13 22 30 35 19
15 27 29 23 39 -4 11 -3 14 6 9 9 -6 10 0 5 21 l-7 28 22 -19 c16 -15 24 -17
33 -8 15 15 31 16 22 0 -4 -7 -3 -8 5 -4 6 4 9 11 6 16 -3 5 15 19 39 31 40
18 45 24 40 45 -12 46 -10 84 3 84 7 0 13 -2 13 -4z m-100 -121 c-24 -25 -46
-45 -49 -45 -3 0 15 20 39 45 24 25 46 45 49 45 3 0 -15 -20 -39 -45z m-128
-40 c-10 -43 -18 -61 -20 -47 -3 21 26 127 33 120 2 -2 -4 -34 -13 -73z m-127
-35 c-3 -5 -16 -15 -28 -21 -19 -9 -19 -8 3 10 28 23 34 26 25 11z m239 -22
c-10 -13 -27 -29 -37 -36 -9 -7 -14 -19 -11 -25 4 -7 3 -9 -1 -4 -5 4 -19 -3
-32 -15 -30 -28 -30 -10 0 19 31 31 91 82 96 83 2 0 -4 -10 -15 -22z m-169
-78 c-3 -5 -13 -10 -21 -10 -8 0 -12 5 -9 10 3 6 13 10 21 10 8 0 12 -4 9 -10z
m96 -27 c-5 -10 -25 -35 -44 -55 -19 -21 -32 -41 -28 -45 3 -5 0 -3 -8 3 -10
10 -9 19 11 53 12 23 28 39 35 37 6 -3 17 2 23 10 17 19 23 18 11 -3z m-118
-90 c-6 -16 -20 -17 -25 -1 -6 17 15 39 24 25 3 -5 4 -16 1 -24z m-68 -13 c3
-5 1 -10 -4 -10 -6 0 -11 5 -11 10 0 6 2 10 4 10 3 0 8 -4 11 -10z m65 -35
c19 -14 29 -25 23 -25 -6 0 -13 -9 -16 -19 -3 -14 -1 -18 9 -14 8 3 14 0 14
-5 0 -12 -38 -27 -46 -19 -3 3 1 19 10 35 13 26 13 32 1 42 -11 9 -16 6 -27
-15 -13 -23 -16 -25 -27 -11 -15 18 -6 37 14 29 8 -3 15 -1 15 5 0 6 -6 13
-12 15 -7 3 -8 6 -2 6 5 1 25 -10 44 -24z"/>
<path d="M300 1291 c0 -12 5 -21 10 -21 6 0 10 6 10 14 0 8 -4 18 -10 21 -5 3
-10 -3 -10 -14z"/>
<path d="M420 1294 c0 -13 18 -39 24 -34 2 3 -2 14 -10 24 -8 11 -14 16 -14
10z"/>
<path d="M230 1159 c0 -5 9 -9 20 -9 11 0 20 2 20 4 0 2 -9 6 -20 9 -11 3 -20
1 -20 -4z"/>
<path d="M277 1084 c3 -8 8 -14 12 -15 3 0 14 -2 24 -4 25 -5 21 2 -12 18 -25
12 -29 12 -24 1z"/>
<path d="M1230 2489 c0 -5 4 -9 9 -9 5 0 11 -9 14 -19 3 -14 1 -18 -9 -14 -18
7 -18 -11 -1 -29 25 -25 28 -48 6 -48 -16 0 -18 -4 -11 -17 5 -9 7 -34 4 -56
-3 -22 -1 -38 4 -35 5 2 45 21 89 42 85 40 88 40 206 15 50 -11 52 -12 80 -75
18 -39 34 -62 40 -58 7 4 9 -1 4 -15 -4 -14 3 -38 25 -76 17 -30 33 -55 36
-55 6 0 -1 39 -9 46 -12 13 -7 24 8 18 9 -4 15 -19 15 -36 0 -16 9 -41 20 -55
11 -14 20 -35 19 -47 0 -15 -7 -8 -21 22 -11 24 -21 42 -22 40 -2 -1 2 -48 8
-103 l11 -100 180 0 c113 0 180 -4 180 -10 0 -6 -9 -35 -20 -65 -16 -44 -37
-72 -104 -137 -45 -46 -85 -83 -88 -83 -2 0 -24 -16 -47 -36 -38 -31 -45 -43
-50 -87 -6 -39 -14 -58 -40 -82 -43 -40 -61 -89 -39 -107 9 -7 34 -35 56 -63
35 -45 46 -52 106 -67 82 -22 92 -22 85 -3 -4 8 -1 15 5 15 6 0 11 -8 11 -19
0 -16 10 -19 73 -23 126 -9 245 -72 287 -151 21 -39 75 -206 96 -297 15 -61
20 -87 44 -227 5 -32 18 -80 29 -108 34 -89 71 -210 71 -231 0 -11 -5 -25 -12
-32 -9 -9 36 -12 205 -12 l217 0 0 179 c0 134 -3 180 -12 184 -10 4 -10 7 0
18 16 18 16 73 0 63 -10 -6 -10 -4 0 7 6 7 12 26 12 41 0 35 -31 39 -54 6 -9
-12 -18 -19 -22 -16 -10 11 3 25 40 42 l34 16 1 145 c1 80 0 145 -3 145 -2 0
-14 -30 -26 -66 -12 -36 -24 -64 -26 -62 -2 2 10 45 26 95 l29 91 1 806 0 806
-511 0 c-450 0 -510 -2 -505 -15 7 -18 -1 -18 -34 0 -18 9 -29 10 -37 3 -8 -6
-13 -7 -13 -1 0 5 -18 10 -41 11 -25 1 -38 -2 -34 -8 4 -6 11 -8 16 -4 6 3 7
-5 3 -23 -9 -35 -14 -42 -14 -17 -1 18 -1 18 -11 2 -11 -19 -29 -24 -29 -9 0
5 6 16 13 23 14 14 12 38 -4 38 -4 0 -6 -6 -3 -14 3 -8 1 -17 -5 -21 -6 -3
-11 2 -11 13 0 19 -9 20 -163 21 -161 1 -164 1 -175 -21 l-11 -23 0 22 c-1 22
-4 22 -101 21 -55 0 -100 -4 -100 -9z m500 -9 c0 -5 -4 -10 -10 -10 -5 0 -10
5 -10 10 0 6 5 10 10 10 6 0 10 -4 10 -10z m245 -30 c14 -15 15 -20 4 -20 -22
0 -42 17 -35 29 9 14 10 14 31 -9z m-525 -15 c0 -8 -4 -15 -10 -15 -5 0 -7 7
-4 15 4 8 8 15 10 15 2 0 4 -7 4 -15z m243 1 c4 -10 1 -13 -8 -9 -8 3 -12 9
-9 14 7 12 11 11 17 -5z m-173 -6 c0 -5 -5 -10 -11 -10 -5 0 -7 5 -4 10 3 6 8
10 11 10 2 0 4 -4 4 -10z m363 -34 c3 -8 3 -16 0 -19 -7 -8 -32 16 -26 26 7
11 20 8 26 -7z m-415 -20 c-2 -1 -12 -8 -22 -16 -18 -14 -19 -14 -7 8 7 12 17
20 22 16 6 -3 9 -7 7 -8z m210 -4 c6 -18 -15 -14 -22 4 -4 10 -1 14 6 12 6 -2
14 -10 16 -16z m-58 -2 c0 -5 -2 -10 -4 -10 -3 0 -8 5 -11 10 -3 6 -1 10 4 10
6 0 11 -4 11 -10z m98 -3 c6 -7 8 -18 4 -24 -5 -7 -11 -3 -19 13 -12 26 -3 33
15 11z m-58 -37 c0 -5 -2 -10 -4 -10 -3 0 -8 5 -11 10 -3 6 -1 10 4 10 6 0 11
-4 11 -10z m33 -4 c3 -8 0 -16 -6 -19 -7 -3 -13 3 -13 14 0 22 12 25 19 5z
m18 -49 c-10 -9 -11 -8 -5 6 3 10 9 15 12 12 3 -3 0 -11 -7 -18z m-31 -27 c0
-5 -4 -10 -10 -10 -5 0 -10 5 -10 10 0 6 5 10 10 10 6 0 10 -4 10 -10z m40
-16 c0 -8 -4 -12 -10 -9 -5 3 -10 10 -10 16 0 5 5 9 10 9 6 0 10 -7 10 -16z
m54 -73 c-6 -6 -24 19 -24 34 1 6 7 1 15 -9 8 -11 12 -22 9 -25z m-39 19 c8
-13 -5 -13 -25 0 -13 8 -13 10 2 10 9 0 20 -4 23 -10z m73 -14 c10 -23 7 -36
-9 -36 -5 0 -6 7 -3 15 4 8 1 22 -6 30 -7 8 -8 15 -3 15 5 0 15 -11 21 -24z
m-68 -27 c0 -14 -16 -11 -29 5 -10 12 -8 13 8 9 12 -3 21 -9 21 -14z m60 -119
c0 -5 -2 -10 -4 -10 -3 0 -8 5 -11 10 -3 6 -1 10 4 10 6 0 11 -4 11 -10z m140
0 c0 -5 -5 -10 -11 -10 -5 0 -7 5 -4 10 3 6 8 10 11 10 2 0 4 -4 4 -10z m-160
-100 c0 -5 -4 -10 -10 -10 -5 0 -10 5 -10 10 0 6 5 10 10 10 6 0 10 -4 10 -10z
m903 -250 c3 -11 1 -18 -4 -14 -5 3 -9 12 -9 20 0 20 7 17 13 -6z m104 -45
c-5 -11 -15 -23 -20 -27 -8 -4 -8 -14 0 -30 8 -18 7 -32 -2 -53 l-12 -30 -8
54 c-4 32 -3 56 2 60 6 3 16 24 23 46 11 33 14 37 20 20 4 -11 3 -29 -3 -40z
m-137 20 c7 -8 9 -22 6 -32 -6 -16 -6 -16 12 0 10 9 21 17 25 17 12 0 -5 -146
-24 -207 -10 -34 -19 -69 -19 -77 0 -14 -49 -56 -65 -56 -4 0 -5 42 -1 93 13
175 18 207 33 207 11 0 12 8 7 35 -7 37 5 46 26 20z m215 -107 c-4 -40 -9 -75
-12 -78 -3 -3 -13 5 -23 17 -33 41 -11 131 34 133 4 0 5 -33 1 -72z m-77 -113
c-7 -30 -17 -54 -23 -52 -13 5 -11 74 4 112 11 26 14 28 22 12 7 -11 6 -35 -3
-72z m-862 27 c-18 -16 -18 -16 -6 6 6 13 14 21 18 18 3 -4 -2 -14 -12 -24z
m902 -49 c18 -66 23 -118 13 -143 l-10 -25 -7 23 c-3 12 -10 22 -15 22 -15 0
-10 -19 11 -40 20 -20 27 -41 13 -39 -35 6 -44 -16 -16 -36 11 -8 17 -30 19
-69 3 -57 -4 -68 -25 -42 -9 11 -9 19 1 36 11 18 11 22 -4 31 -10 6 -18 16
-18 24 0 8 -5 17 -11 21 -9 5 -10 -1 -5 -22 4 -16 12 -30 17 -32 11 -4 12 -32
1 -32 -4 0 -9 -14 -10 -31 -3 -34 17 -59 47 -59 16 0 21 -6 21 -26 l0 -26 -19
23 c-11 13 -22 21 -26 17 -4 -4 2 -17 13 -29 17 -17 18 -25 9 -39 -10 -17 -13
-14 -29 22 -10 22 -18 48 -18 59 0 10 -9 24 -21 32 -25 18 -23 64 3 59 26 -4
31 16 8 30 -23 15 -24 25 -9 65 8 22 12 24 19 13 12 -19 12 -13 1 28 -6 20 -6
32 0 32 5 0 7 11 3 25 -3 14 -3 32 0 41 6 15 8 15 26 -1 11 -10 20 -13 20 -7
0 6 -8 16 -17 21 -14 7 -17 19 -15 60 5 60 15 65 30 14z m76 -17 c1 -19 5 -38
9 -42 12 -13 8 -34 -8 -34 -9 0 -14 9 -13 23 1 12 -2 42 -6 67 -7 36 -6 43 5
33 7 -7 13 -28 13 -47z m-974 30 c0 -2 -7 -9 -15 -16 -13 -11 -14 -10 -9 4 5
14 24 23 24 12z m577 -133 c-3 -25 -13 -52 -22 -62 -16 -15 -17 -14 -11 14 4
17 9 47 12 67 9 53 27 35 21 -19z m250 25 c-3 -7 -5 -2 -5 12 0 14 2 19 5 13
2 -7 2 -19 0 -25z m153 -28 c6 -11 8 -26 4 -32 -5 -8 -10 -5 -15 8 -16 41 -8
59 11 24z m-1030 0 c0 -5 7 -7 15 -4 8 4 15 1 15 -4 0 -6 -8 -13 -17 -15 -13
-3 -12 -5 5 -6 13 0 20 -5 17 -11 -4 -6 -11 -8 -16 -5 -8 6 -13 -11 -12 -43 1
-7 -5 -11 -12 -8 -8 3 -16 2 -18 -2 -2 -4 -1 0 2 8 3 8 5 34 6 58 0 23 3 42 8
42 4 0 7 -4 7 -10z m100 -5 c-7 -9 -15 -13 -19 -10 -3 3 1 10 9 15 21 14 24
12 10 -5z m650 -67 c-4 -24 -11 -87 -14 -142 -8 -122 -12 -141 -42 -173 l-24
-26 0 57 c0 55 1 57 23 51 22 -6 22 -6 2 10 -16 13 -17 17 -6 24 9 6 10 11 2
15 -7 4 -8 35 -4 89 5 61 11 89 27 109 32 41 45 36 36 -14z m260 -2 c0 -3 -4
-8 -10 -11 -5 -3 -10 -1 -10 4 0 6 5 11 10 11 6 0 10 -2 10 -4z m64 -15 c3 -5
-3 -11 -15 -14 -16 -4 -18 -3 -8 9 13 16 16 17 23 5z m-954 -15 c0 -3 -4 -8
-10 -11 -5 -3 -10 -1 -10 4 0 6 5 11 10 11 6 0 10 -2 10 -4z m550 -26 c0 -16
-4 -30 -8 -30 -5 0 -7 14 -4 30 2 17 6 30 8 30 2 0 4 -13 4 -30z m-64 -29 c-2
-44 -16 -50 -16 -8 0 21 4 37 9 37 5 0 8 -13 7 -29z m-79 -16 c-2 -14 -2 -23
1 -21 2 3 13 -5 23 -18 37 -47 13 -126 -37 -126 -26 0 -31 -11 -11 -32 16 -17
20 -45 7 -53 -6 -3 -7 0 -4 9 3 9 1 16 -6 16 -6 0 -8 5 -5 10 3 6 1 10 -5 10
-6 0 -9 4 -5 9 3 5 1 12 -4 15 -5 3 -7 14 -5 24 2 9 6 33 8 52 2 19 4 38 5 43
0 4 8 7 16 7 8 0 15 5 15 10 0 6 -4 10 -9 10 -6 0 -6 12 0 30 13 37 23 39 16
5z m130 -32 c-3 -10 -5 -4 -5 12 0 17 2 24 5 18 2 -7 2 -21 0 -30z m-7 -83 c8
-5 11 -12 8 -16 -4 -3 -14 1 -23 10 -18 17 -9 21 15 6z m-59 -43 c-10 -9 -11
-8 -5 6 3 10 9 15 12 12 3 -3 0 -11 -7 -18z m294 13 c3 -5 1 -10 -4 -10 -6 0
-11 5 -11 10 0 6 2 10 4 10 3 0 8 -4 11 -10z m-238 -42 c-3 -8 -6 -5 -6 6 -1
11 2 17 5 13 3 -3 4 -12 1 -19z m73 -32 c0 -3 -4 -8 -10 -11 -5 -3 -10 -1 -10
4 0 6 5 11 10 11 6 0 10 -2 10 -4z m245 -46 c3 -5 2 -10 -4 -10 -5 0 -13 5
-16 10 -3 6 -2 10 4 10 5 0 13 -4 16 -10z m-35 -60 c0 -12 -28 -25 -36 -17 -9
9 6 27 22 27 8 0 14 -5 14 -10z m44 -122 c4 -21 11 -38 17 -38 6 0 7 -5 3 -12
-4 -7 -3 -8 4 -4 18 11 15 -30 -3 -48 -9 -8 -14 -21 -13 -28 2 -6 -1 -12 -7
-13 -23 -2 -53 -29 -48 -44 4 -13 2 -13 -6 1 -14 22 14 98 36 98 13 0 14 10 9
61 -4 33 -9 68 -12 77 -5 14 -4 15 4 2 5 -8 12 -32 16 -52z m-207 30 c-3 -8
-6 -5 -6 6 -1 11 2 17 5 13 3 -3 4 -12 1 -19z m10 -40 c-3 -8 -6 -5 -6 6 -1
11 2 17 5 13 3 -3 4 -12 1 -19z m243 -18 c0 -5 -2 -10 -4 -10 -3 0 -8 5 -11
10 -3 6 -1 10 4 10 6 0 11 -4 11 -10z m-233 -37 c-3 -10 -5 -4 -5 12 0 17 2
24 5 18 2 -7 2 -21 0 -30z m163 22 c0 -8 -9 -15 -20 -15 -11 0 -20 4 -20 10 0
5 7 7 15 4 8 -4 15 -1 15 5 0 6 2 11 5 11 3 0 5 -7 5 -15z m96 -33 c6 -4 14
-16 18 -28 5 -18 2 -20 -29 -20 -19 1 -35 2 -35 3 0 1 5 14 12 28 12 27 16 29
34 17z m-248 -68 c-3 -14 -5 -12 -10 9 -3 19 -2 25 4 19 6 -6 8 -18 6 -28z
m247 6 c-3 -5 -13 -10 -21 -10 -8 0 -12 5 -9 10 3 6 13 10 21 10 8 0 12 -4 9
-10z m-155 -49 c0 -6 -4 -13 -10 -16 -5 -3 -10 1 -10 9 0 9 5 16 10 16 6 0 10
-4 10 -9z m145 0 c6 -11 -33 -26 -43 -16 -4 3 0 10 8 15 19 12 27 12 35 1z
m15 -31 c-6 -12 -14 -20 -17 -17 -2 3 1 14 8 26 17 26 24 19 9 -9z m28 6 c-1
-14 -5 -23 -9 -20 -7 4 0 44 7 44 2 0 3 -11 2 -24z m-218 -6 c0 -5 -5 -10 -11
-10 -5 0 -7 5 -4 10 3 6 8 10 11 10 2 0 4 -4 4 -10z m60 6 c0 -3 -4 -8 -10
-11 -5 -3 -10 -1 -10 4 0 6 5 11 10 11 6 0 10 -2 10 -4z m70 -13 c0 -5 -9 -21
-20 -38 -19 -29 -19 -29 -16 -4 1 14 6 30 10 37 8 13 26 16 26 5z m-345 -61
c-11 -11 -25 15 -19 33 7 17 8 16 16 -5 5 -13 6 -25 3 -28z m375 34 c0 -2 -8
-10 -17 -17 -16 -13 -17 -12 -4 4 13 16 21 21 21 13z m55 -7 c11 -17 -1 -21
-15 -4 -8 9 -8 15 -2 15 6 0 14 -5 17 -11z m-38 -21 c-3 -8 -6 -5 -6 6 -1 11
2 17 5 13 3 -3 4 -12 1 -19z m-185 -23 c-2 -14 -9 -25 -14 -25 -6 0 -7 7 -4
16 3 9 6 20 6 25 0 5 4 9 9 9 4 0 6 -11 3 -25z m178 -25 c0 -5 -5 -10 -11 -10
-5 0 -7 5 -4 10 3 6 8 10 11 10 2 0 4 -4 4 -10z"/>
<path d="M2636 1575 c-9 -26 -7 -32 5 -12 6 10 9 21 6 23 -2 3 -7 -2 -11 -11z"/>
<path d="M1200 2436 c0 -8 -6 -17 -12 -19 -10 -4 -10 -8 1 -15 7 -5 11 -14 8
-19 -8 -12 10 -39 20 -30 4 5 1 12 -7 17 -12 8 -12 10 -1 10 10 0 11 3 3 13
-6 7 -9 23 -5 35 3 12 3 22 -1 22 -3 0 -6 -6 -6 -14z"/>
<path d="M765 2370 c-3 -5 -2 -10 4 -10 5 0 13 5 16 10 3 6 2 10 -4 10 -5 0
-13 -4 -16 -10z"/>
<path d="M1170 2339 c0 -5 5 -7 10 -4 6 3 10 8 10 11 0 2 -4 4 -10 4 -5 0 -10
-5 -10 -11z"/>
<path d="M1200 2326 c0 -2 7 -9 15 -16 9 -7 15 -8 15 -2 0 5 -7 12 -15 16 -8
3 -15 4 -15 2z"/>
<path d="M1180 2311 c0 -5 5 -13 10 -16 6 -3 10 -2 10 4 0 5 -4 13 -10 16 -5
3 -10 2 -10 -4z"/>
<path d="M1191 2255 c0 -12 -5 -26 -11 -33 -5 -7 -3 -6 6 2 9 7 14 22 11 32
-4 17 -5 17 -6 -1z"/>
<path d="M0 1959 c0 -40 2 -70 5 -67 9 9 13 128 4 134 -5 3 -9 -27 -9 -67z"/>
<path d="M347 2004 c-35 -19 -29 -28 12 -19 36 8 64 35 35 35 -11 -1 -32 -8
-47 -16z"/>
<path d="M1470 1930 c0 -5 5 -10 10 -10 6 0 10 5 10 10 0 6 -4 10 -10 10 -5 0
-10 -4 -10 -10z"/>
<path d="M1111 1877 c-19 -6 -51 -27 -73 -47 -30 -30 -38 -44 -38 -73 0 -20 5
-39 10 -42 6 -4 10 7 10 25 0 20 4 29 11 25 6 -4 8 -13 5 -21 -3 -8 -1 -14 5
-14 6 0 9 -6 6 -12 -2 -7 3 -18 11 -24 9 -6 15 -25 15 -42 0 -25 3 -29 14 -21
16 14 17 39 2 39 -11 0 -3 9 41 45 21 18 23 18 17 2 -6 -15 -4 -16 13 -7 10 5
21 10 25 10 9 0 -17 -44 -31 -53 -18 -11 -18 -67 -1 -67 8 0 22 9 32 20 30 33
38 23 11 -13 -15 -19 -26 -36 -26 -38 0 -2 27 -4 60 -4 34 1 65 -2 71 -6 13
-8 -9 -26 -39 -31 -12 -1 -24 -7 -25 -13 -4 -17 41 -17 67 1 16 10 26 12 26 5
0 -6 5 -11 11 -11 6 0 9 6 6 13 -6 16 35 18 45 3 4 -6 6 2 5 18 -1 18 4 31 12
34 10 3 12 0 8 -12 -4 -10 -3 -15 4 -11 5 4 7 16 4 26 -6 19 -3 20 32 13 50
-9 49 -8 69 -59 15 -41 34 -60 34 -35 0 6 17 10 38 10 47 0 83 10 77 20 -3 5
2 16 11 24 12 12 13 20 5 30 -8 9 -7 16 2 26 9 10 9 11 0 6 -7 -4 -13 -2 -13
3 0 6 5 11 10 11 6 0 10 7 10 15 0 8 3 14 8 14 21 -4 31 5 47 41 21 46 10 70
-32 70 -39 0 -210 38 -365 80 -147 41 -189 46 -247 27z"/>
<path d="M430 1666 c0 -2 8 -10 18 -17 15 -13 16 -12 3 4 -13 16 -21 21 -21
13z"/>
<path d="M480 1629 c-9 -17 -8 -23 7 -35 10 -7 23 -14 30 -14 16 0 4 37 -14
44 -8 3 -11 10 -8 16 3 5 4 10 1 10 -3 0 -10 -9 -16 -21z"/>
<path d="M1727 1631 c-4 -17 -3 -21 5 -13 5 5 8 16 6 23 -3 8 -7 3 -11 -10z"/>
<path d="M1766 1631 c-9 -10 -16 -31 -16 -47 l1 -29 14 25 c15 27 19 9 6 -25
-5 -12 -4 -26 3 -34 9 -12 8 -14 -5 -9 -14 5 -16 -2 -15 -47 0 -29 4 -51 9
-48 5 3 11 -5 14 -18 6 -21 7 -22 13 -3 4 10 5 21 1 24 -3 3 -3 28 0 55 4 33
7 40 8 20 2 -29 2 -29 16 -11 27 35 13 147 -20 160 -7 2 -20 -3 -29 -13z"/>
<path d="M1001 1573 c12 -15 12 -16 -8 -11 -26 7 -33 -7 -33 -63 0 -48 58
-178 71 -158 5 9 1 21 -11 34 -11 12 -19 32 -19 46 1 20 2 21 6 4 7 -29 33
-55 55 -55 20 0 23 11 7 27 -6 6 -11 27 -11 47 0 20 -2 36 -3 36 -2 0 -15 -4
-29 -10 -25 -9 -26 -8 -26 23 1 30 1 31 15 13 18 -24 30 -15 16 12 -7 13 -7
22 2 31 9 10 8 15 -7 27 -27 19 -42 18 -25 -3z"/>
<path d="M1471 1531 c-10 -7 -7 -9 12 -8 15 1 27 5 27 10 0 10 -22 9 -39 -2z"/>
<path d="M1289 1483 c-13 -16 -12 -17 4 -4 9 7 17 15 17 17 0 8 -8 3 -21 -13z"/>
<path d="M1550 1461 c0 -11 5 -23 10 -26 6 -3 10 -15 10 -27 0 -23 62 -86 68
-69 2 6 11 19 20 28 9 9 22 27 29 41 12 22 11 23 -2 12 -8 -7 -15 -8 -15 -3 0
5 -6 10 -14 10 -8 0 -12 -6 -9 -15 4 -10 0 -13 -13 -10 -12 2 -19 12 -19 27 0
14 -6 26 -12 29 -7 2 -13 -1 -13 -7 0 -6 -4 -11 -10 -11 -5 0 -10 6 -10 14 0
8 -4 18 -10 21 -5 3 -10 -3 -10 -14z"/>
<path d="M1160 1451 c0 -12 29 -41 41 -41 5 0 9 5 9 10 0 13 33 13 46 0 7 -7
16 -4 29 10 10 11 13 20 7 20 -6 0 -12 -6 -14 -12 -4 -10 -11 -9 -29 3 -27 17
-89 24 -89 10z"/>
<path d="M1351 1452 c-21 -7 -51 -35 -51 -48 0 -6 -12 -10 -27 -8 -15 1 -34
-1 -43 -6 -8 -5 -11 -10 -7 -10 11 0 -19 -30 -30 -30 -22 0 -31 -22 -20 -51
11 -29 27 -39 27 -18 0 6 7 9 15 5 9 -3 20 4 28 21 9 16 17 22 21 14 4 -6 12
-11 17 -11 6 0 7 4 4 10 -10 15 27 70 47 70 10 0 18 -5 18 -11 0 -20 34 -38
71 -39 28 0 38 -5 42 -21 5 -18 8 -19 26 -7 16 10 18 15 8 27 -10 12 -7 13 20
8 36 -7 45 0 36 32 -4 16 -10 20 -25 15 -15 -4 -18 -3 -13 7 11 17 -89 5 -119
-15 -20 -12 -24 -12 -33 3 -7 11 -8 23 -1 35 12 21 7 34 -11 28z"/>
<path d="M60 1402 c0 -5 -10 -12 -22 -15 -32 -9 -18 -15 20 -10 18 3 31 10 29
16 -4 14 -27 21 -27 9z"/>
<path d="M0 1354 c0 -5 7 -19 15 -30 8 -10 15 -14 15 -8 0 5 -7 19 -15 30 -8
10 -15 14 -15 8z"/>
<path d="M1464 1283 c13 -23 -5 -36 -21 -16 -13 17 -14 17 -9 1 5 -18 -14 -25
-28 -11 -3 4 -16 8 -27 10 -15 2 -20 -1 -16 -11 4 -9 -2 -13 -20 -13 -17 0
-27 6 -30 18 -7 25 -18 24 -20 -2 -1 -12 -9 -29 -17 -38 -9 -10 -16 -29 -16
-44 0 -14 -4 -29 -10 -32 -15 -9 -12 9 9 70 25 71 10 80 -22 12 -28 -60 -29
-92 -3 -133 18 -26 20 -27 27 -9 31 82 34 85 62 85 16 0 26 4 23 9 -6 9 73 21
141 21 23 0 53 4 67 10 33 12 76 -6 76 -31 0 -10 5 -21 10 -24 6 -4 10 11 10
37 l0 44 -62 2 c-85 4 -103 7 -103 20 0 6 -6 17 -14 24 -10 10 -12 10 -7 1z"/>
<path d="M1090 1250 c-6 -11 -8 -25 -5 -30 3 -5 -4 -19 -15 -30 -12 -12 -19
-28 -16 -36 3 -8 -1 -14 -11 -14 -15 0 -15 -2 0 -18 20 -21 22 -32 6 -32 -5 0
-8 4 -4 9 3 5 1 12 -4 15 -17 11 -21 -10 -6 -30 19 -25 19 -38 1 -31 -10 4
-13 1 -9 -9 3 -9 -1 -14 -12 -14 -14 0 -15 -3 -5 -15 7 -8 19 -15 27 -15 8 0
11 -5 8 -10 -3 -6 -17 -7 -31 -4 -22 6 -24 4 -20 -24 2 -17 1 -30 -3 -29 -3 1
-7 -2 -9 -8 -4 -13 28 -20 37 -8 3 4 20 15 36 23 24 13 30 22 31 50 1 56 13
107 29 120 8 7 12 16 9 21 -3 5 1 9 8 9 7 0 21 7 31 14 17 13 17 15 -1 45 -10
17 -22 28 -26 24 -4 -4 -4 1 0 11 4 11 2 21 -7 27 -21 13 -27 11 -39 -11z m50
-80 c0 -5 -2 -10 -4 -10 -3 0 -8 5 -11 10 -3 6 -1 10 4 10 6 0 11 -4 11 -10z"/>
<path d="M1333 1155 c-18 -11 -32 -23 -33 -27 0 -9 87 -24 118 -20 12 2 22 -1
22 -5 -1 -16 -27 -42 -35 -35 -5 4 -5 -1 -2 -11 4 -11 3 -16 -4 -12 -5 4 -17
1 -26 -7 -11 -8 -14 -8 -10 -1 5 8 1 11 -12 10 -15 -1 -17 -4 -9 -14 6 -8 7
-13 1 -13 -17 0 -108 51 -116 66 -15 27 -28 15 -22 -20 6 -27 2 -39 -14 -55
-33 -33 -27 -76 25 -168 26 -45 53 -84 62 -88 11 -4 12 -2 4 8 -8 10 -6 16 10
26 17 11 22 10 30 -1 5 -8 6 -3 2 15 -3 15 -4 27 -1 27 18 0 37 -14 37 -27 0
-13 2 -13 18 -2 15 13 16 12 4 -3 -8 -9 -11 -22 -7 -28 3 -5 1 -10 -5 -10 -6
0 -10 -8 -9 -17 3 -33 -1 -36 -23 -18 -13 10 -2 -3 24 -29 29 -28 52 -44 59
-40 7 4 9 3 6 -3 -4 -6 4 -20 17 -32 l24 -23 7 44 c13 76 48 128 115 170 14 8
42 44 63 79 30 52 37 73 37 119 1 30 6 71 13 90 13 38 11 80 -4 80 -5 0 -9 -7
-9 -15 0 -20 -39 -88 -56 -98 -8 -4 -14 -13 -14 -18 0 -6 5 -7 10 -4 6 3 10 1
10 -4 0 -6 -10 -11 -22 -11 -13 0 -38 -9 -55 -20 -36 -22 -42 -20 -17 5 18 17
11 51 -7 39 -8 -4 -9 -3 -5 4 4 7 2 12 -4 12 -6 0 -9 4 -5 9 3 5 -6 18 -20 29
-25 20 -25 21 -5 27 12 4 33 4 48 0 25 -6 26 -6 9 13 -19 21 -24 22 -122 25
-56 2 -77 -2 -102 -18z m137 -69 c0 -3 -4 -8 -10 -11 -5 -3 -10 -1 -10 4 0 6
5 11 10 11 6 0 10 -2 10 -4z m-220 -56 c0 -5 -2 -10 -4 -10 -3 0 -8 5 -11 10
-3 6 -1 10 4 10 6 0 11 -4 11 -10z m8 -45 c-3 -3 -9 2 -12 12 -6 14 -5 15 5 6
7 -7 10 -15 7 -18z m259 -52 c-3 -10 -5 -2 -5 17 0 19 2 27 5 18 2 -10 2 -26
0 -35z m-173 -45 c-4 -6 -10 -5 -15 3 -14 22 -10 33 6 19 8 -7 12 -17 9 -22z"/>
<path d="M1142 1030 c0 -14 2 -19 5 -12 2 6 2 18 0 25 -3 6 -5 1 -5 -13z"/>
<path d="M324 909 c-5 -9 -1 -10 15 -6 47 12 52 0 27 -69 -21 -58 -22 -64 -7
-64 10 0 27 10 39 23 18 19 20 29 14 72 -7 49 -8 50 -44 53 -21 2 -39 -2 -44
-9z"/>
<path d="M267 850 c8 -30 21 -34 15 -5 -2 14 -8 25 -12 25 -5 0 -6 -9 -3 -20z"/>
<path d="M300 865 c0 -3 10 -10 23 -15 17 -7 18 -9 5 -9 -19 -1 -21 -6 -9 -34
5 -15 10 -11 29 22 l23 41 -35 0 c-20 0 -36 -2 -36 -5z"/>
<path d="M196 826 c1 -12 3 -23 3 -25 1 -7 30 33 31 41 0 4 -8 6 -18 5 -12 -1
-18 -8 -16 -21z"/>
<path d="M227 810 c-3 -11 -1 -23 4 -26 5 -3 9 -1 9 5 0 5 3 16 6 25 3 9 2 16
-4 16 -5 0 -12 -9 -15 -20z"/>
<path d="M15 810 c-3 -6 1 -7 9 -4 18 7 21 14 7 14 -6 0 -13 -4 -16 -10z"/>
<path d="M60 810 c0 -5 5 -10 11 -10 5 0 7 5 4 10 -3 6 -8 10 -11 10 -2 0 -4
-4 -4 -10z"/>
<path d="M290 796 c0 -12 29 -76 34 -76 3 0 -2 17 -11 38 -16 38 -23 50 -23
38z"/>
<path d="M255 770 c3 -5 11 -10 16 -10 6 0 7 5 4 10 -3 6 -11 10 -16 10 -6 0
-7 -4 -4 -10z"/>
<path d="M240 754 c0 -6 11 -21 25 -34 19 -18 22 -26 13 -37 -9 -11 -7 -12 7
-7 10 4 16 3 14 -2 -35 -83 -69 -197 -69 -233 0 -36 -8 -38 -38 -11 -23 22
-31 13 -9 -9 10 -10 7 -10 -15 -2 -35 13 -45 -2 -18 -29 24 -24 18 -26 -16 -4
-28 19 -48 9 -21 -11 16 -11 16 -13 1 -19 -23 -9 -24 -8 -24 12 0 10 -3 22 -7
26 -4 4 -8 13 -9 19 0 7 -2 20 -2 30 -1 9 -7 17 -13 17 -7 0 -10 -12 -7 -30 3
-16 1 -30 -3 -30 -10 0 -21 49 -13 62 4 7 3 8 -4 4 -7 -4 -12 -16 -12 -27 0
-11 -5 -17 -10 -14 -6 3 -10 -1 -10 -10 0 -11 5 -15 16 -11 9 3 12 2 9 -5 -4
-5 3 -18 15 -29 13 -11 17 -21 10 -25 -5 -3 -10 -1 -10 4 0 6 -9 11 -20 11
-11 0 -20 -4 -20 -10 0 -5 8 -7 17 -4 17 5 17 5 1 -9 -16 -12 -18 -34 -18
-176 l0 -161 278 0 278 0 17 88 c18 94 22 126 33 243 4 53 3 78 -5 83 -6 4
-11 3 -11 -2 0 -6 -11 -13 -25 -16 -14 -4 -25 -13 -25 -22 0 -8 -5 -12 -11 -9
-5 4 -18 0 -27 -8 -18 -16 -55 -19 -46 -5 4 5 12 7 18 5 7 -3 18 4 25 15 11
18 10 19 -18 15 -24 -4 -29 -2 -25 11 4 12 1 10 -8 -3 -7 -11 -24 -21 -38 -22
-21 -1 -30 7 -49 43 -13 24 -41 60 -62 79 -35 32 -37 36 -27 67 5 18 18 49 27
69 19 39 16 49 -31 103 -16 17 -28 26 -28 20z m46 -282 c-12 -3 -14 -8 -6 -23
11 -20 4 -24 -19 -10 -9 6 -11 18 -6 40 7 32 7 32 27 14 17 -15 18 -18 4 -21z
m62 -63 c21 -31 30 -55 25 -60 -6 -6 -17 6 -28 31 -10 22 -24 45 -32 51 -7 6
-13 15 -13 20 0 21 17 5 48 -42z m-86 -3 c-2 -9 4 -16 11 -16 20 0 40 -27 32
-40 -10 -16 -65 38 -65 63 0 11 5 17 13 14 6 -2 11 -11 9 -21z m-85 -62 c-3
-3 -12 -4 -19 -1 -8 3 -5 6 6 6 11 1 17 -2 13 -5z m253 -9 c0 -8 -4 -15 -10
-15 -5 0 -10 7 -10 15 0 8 5 15 10 15 6 0 10 -7 10 -15z m85 -5 c-3 -5 -11
-10 -16 -10 -6 0 -7 5 -4 10 3 6 11 10 16 10 6 0 7 -4 4 -10z"/>
<path d="M374 735 c25 -19 46 -19 46 0 0 10 -10 15 -32 15 -31 -1 -32 -1 -14
-15z"/>
<path d="M350 722 c0 -14 16 -30 30 -32 50 -7 54 12 5 27 -19 6 -35 8 -35 5z"/>
<path d="M324 675 c0 -27 4 -35 15 -33 9 2 17 12 19 23 3 17 1 17 -7 5 -9 -13
-11 -12 -12 5 -1 11 -1 23 0 28 0 4 -3 7 -7 7 -4 0 -8 -16 -8 -35z"/>
<path d="M51 654 c0 -11 3 -14 6 -6 3 7 2 16 -1 19 -3 4 -6 -2 -5 -13z"/>
<path d="M106 657 c3 -10 9 -15 12 -12 3 3 0 11 -7 18 -10 9 -11 8 -5 -6z"/>
<path d="M382 653 c4 -20 18 -26 37 -14 18 12 5 31 -20 31 -14 0 -19 -6 -17
-17z"/>
<path d="M255 650 c-3 -5 -1 -10 4 -10 6 0 11 5 11 10 0 6 -2 10 -4 10 -3 0
-8 -4 -11 -10z"/>
<path d="M455 640 c-3 -6 1 -7 9 -4 18 7 21 14 7 14 -6 0 -13 -4 -16 -10z"/>
<path d="M139 638 c-7 -25 -7 -48 1 -48 6 0 10 11 10 25 0 20 -7 35 -11 23z"/>
<path d="M357 633 c-4 -3 -7 -18 -8 -32 l-1 -26 -10 28 c-5 15 -17 27 -25 27
-9 0 -13 -6 -10 -15 4 -8 2 -17 -3 -20 -6 -4 -10 -12 -9 -18 0 -9 2 -9 6 1 9
24 21 11 57 -58 19 -38 33 -70 30 -70 -2 0 3 -11 12 -25 9 -14 21 -25 28 -24
7 0 6 2 -1 6 -7 2 -13 16 -13 29 0 14 -11 42 -25 62 -14 20 -25 41 -25 47 1
15 39 -36 56 -74 20 -45 27 -34 9 15 -8 21 -21 65 -30 97 -15 54 -23 65 -38
50z"/>
<path d="M10 628 c0 -3 7 -21 15 -39 10 -24 14 -28 14 -14 0 11 -6 29 -14 39
-8 11 -15 17 -15 14z"/>
<path d="M410 620 c-8 -5 -10 -10 -5 -10 6 0 17 5 25 10 8 5 11 10 5 10 -5 0
-17 -5 -25 -10z"/>
<path d="M414 584 c3 -9 6 -20 6 -25 0 -6 4 -8 9 -4 15 8 9 45 -7 45 -9 0 -12
-6 -8 -16z"/>
<path d="M123 555 c-6 -14 -7 -25 -2 -25 5 0 9 -9 9 -20 0 -25 -17 -26 -24 -2
-3 10 -4 8 -3 -7 1 -14 9 -25 18 -27 12 -1 18 9 23 37 6 39 31 62 45 42 8 -14
51 -27 51 -16 0 8 -84 43 -100 43 -3 0 -10 -11 -17 -25z"/>
<path d="M452 555 c0 -16 2 -22 5 -12 2 9 2 23 0 30 -3 6 -5 -1 -5 -18z"/>
<path d="M41 524 c0 -11 3 -14 6 -6 3 7 2 16 -1 19 -3 4 -6 -2 -5 -13z"/>
<path d="M280 532 c0 -5 7 -13 16 -16 10 -4 14 -1 12 6 -5 15 -28 23 -28 10z"/>
<path d="M0 514 c0 -10 5 -26 10 -34 8 -11 9 -7 4 15 -8 37 -14 45 -14 19z"/>
<path d="M580 468 c0 -2 9 -11 20 -21 11 -9 20 -13 20 -7 0 5 -9 14 -20 20
-11 6 -20 9 -20 8z"/>
<path d="M490 441 c0 -6 9 -9 20 -8 11 1 20 5 20 9 0 4 -9 8 -20 8 -11 0 -20
-4 -20 -9z"/>
<path d="M455 430 c4 -6 11 -8 16 -5 14 9 11 15 -7 15 -8 0 -12 -5 -9 -10z"/>
<path d="M1760 240 c0 -5 5 -10 10 -10 6 0 10 5 10 10 0 6 -4 10 -10 10 -5 0
-10 -4 -10 -10z"/>
<path d="M2260 126 c-6 -9 -10 -21 -8 -28 3 -8 9 -4 17 10 15 28 9 39 -9 18z"/>
</g>
</svg>
