<svg height="800" width="800" xmlns="http://www.w3.org/2000/svg" viewBox="0 0 512 512" xml:space="preserve"><circle style="fill:#59d8ff" cx="256.021" cy="255.952" r="247.341"/><path style="fill:#00c3ff" d="M350.475 402.384c-136.603 0-247.342-110.739-247.342-247.341 0-40.264 9.682-78.243 26.751-111.84C57.328 86.312 8.677 165.435 8.677 255.954c0 136.602 110.739 247.341 247.341 247.341 96.338 0 179.752-55.116 220.591-135.501-36.937 21.948-80.051 34.59-126.134 34.59z"/><path style="fill:#b4ff87" d="m298.941 305.418-4.391-3.076a25.728 25.728 0 0 0-19.227-4.263l-3.811.672a17.151 17.151 0 0 1-12.818-2.842l-29.745-20.827a42.886 42.886 0 0 0-32.049-7.105l-35.763 6.306h.001l39.568 40.073 7.417 43.186 8.761 46.023a85.78 85.78 0 0 0 12.491 31.754l17.023 26.267a10.463 10.463 0 0 0 10.379 4.651l.068-.01c5.799-.895 9.728-6.383 8.708-12.16l-5.59-31.711 15.427-14.737a25.734 25.734 0 0 0 7.843-16.178l2.061-21.713a10.818 10.818 0 0 1 8.821-9.065l5.309-.937a10.817 10.817 0 0 0 8.911-9.89l1.52-21.523a25.75 25.75 0 0 0-10.914-22.895z"/><path style="fill:#9bf57d" d="M282.836 393.556c-26.903-7.735-52.086-20.061-74.715-36.016l8.76 46.023a85.772 85.772 0 0 0 12.491 31.754l17.023 26.267a10.464 10.464 0 0 0 10.378 4.651l.068-.01c5.799-.895 9.729-6.382 8.708-12.16l-5.59-31.71 15.427-14.739c3.953-3.773 6.484-8.719 7.45-14.06z"/><path style="fill:#b4ff87" d="m95.404 266.414 34.774 1.048 21.001-1.773c-2.468-13.997 4.326-42.677 4.326-42.677l55.617-86.786a8.574 8.574 0 0 1 5.538-3.527l12.742-2.247a8.582 8.582 0 0 0 6.663-5.777l1.631-4.978a8.579 8.579 0 0 0-4.729-10.537l-22.874-9.951c-5.807-2.526-5.845-10.748-.062-13.328l25.695-11.46-1.878-10.652-61.338 10.815-39.715 21.776-2.526-14.324-10.245 1.806a34.307 34.307 0 0 0-22.148 14.111l-4.474 6.39a8.577 8.577 0 0 1-11.947 2.106l-10.04-7.03-6.301-.257C42.427 126.7 25.717 158.988 16.479 193.89l23.207 42.856a21.633 21.633 0 0 0 22.777 11.003l5.95-1.049 6.91 9.315a25.73 25.73 0 0 0 20.081 10.399zM479.254 149.35l-3.086-.301-12.215 2.154a25.74 25.74 0 0 0-13.307 6.735l-4.955 4.733a25.73 25.73 0 0 1-26.982 5.423l-18.189-6.968a51.46 51.46 0 0 0-27.352-2.625l-19.49 3.436a25.735 25.735 0 0 0-20.721 20.079l-3.933 18.824a49.544 49.544 0 0 0 26.103 54.326l1.434.726a49.541 49.541 0 0 0 30.993 4.596l.632-.112c13.998-2.468 27.344 6.879 29.811 20.874L423 309.618a68.61 68.61 0 0 0 10.158 25.658l18.673 28.538c4.674 7.144 12.507 11.22 20.818 11.527 19.551-35.402 30.709-76.085 30.709-119.388.001-38.173-8.66-74.32-24.104-106.603zM450.454 124.422l13.326-2.35.132-.049a248.476 248.476 0 0 0-84.57-80.439l-5.147 8.422-6.203 8.86a10.811 10.811 0 0 0-1.792 8.083l3.165 17.947a23.514 23.514 0 0 1-11.963 24.768l-16.318 7.522a17.157 17.157 0 0 0-9.713 18.56l2.171 12.32c1.647 9.331 10.544 15.562 19.875 13.916l14.497-2.556a17.156 17.156 0 0 0 13.622-12.571l5.806-22.288 23.976-4.228a34.309 34.309 0 0 1 15.741.903l7.655 2.276a34.264 34.264 0 0 0 15.74.904z"/><path style="fill:#9bf57d" d="M130.178 267.461c-17.252-33.738-27.046-71.924-27.046-112.418 0-23.934 3.494-47.031 9.854-68.911-.23.061-.46.09-.692.152-5.731 2.504-10.77 6.458-14.419 11.667l-4.474 6.391a8.578 8.578 0 0 1-11.948 2.106l-10.04-7.03-6.105-.25c-.03.037-.248-.044-.355-.054-22.506 27.369-39.256 59.609-48.374 94.962l23.106 42.669a21.63 21.63 0 0 0 22.777 11.003l5.949-1.049 6.91 9.315a25.74 25.74 0 0 0 20.082 10.397l34.775 1.05z"/><path style="fill:#ff6991" d="M308.327 155.186c-20.443 0-38.952 8.349-52.371 21.846-13.419-13.497-31.928-21.846-52.371-21.846-40.975 0-74.192 33.522-74.192 74.872 0 57.255 66.557 126.071 126.563 154.148 60.008-28.077 126.563-96.893 126.563-154.147 0-41.352-33.217-74.873-74.192-74.873z"/><path style="fill:#ff507d" d="M210.152 220.897c0-24.228 9.118-45.705 23.201-59.389-9.117-4.04-19.172-6.321-29.768-6.321-40.976 0-74.193 33.52-74.193 74.871 0 57.255 66.557 126.072 126.563 154.149 12.159-5.689 24.567-13.114 36.656-21.712-42.055-32.807-82.459-91.604-82.459-141.598z"/><path d="M508.045 211.558c-11.871-67.324-49.248-125.995-105.248-165.206C346.799 7.14 278.884-7.914 211.558 3.955 144.234 15.825 85.563 53.203 46.353 109.202 7.141 165.201-7.916 233.118 3.955 300.441s49.248 125.995 105.248 165.206C152.717 496.116 203.421 512 255.457 512c14.931 0 29.975-1.309 44.985-3.955 67.324-11.871 125.995-49.248 165.206-105.248 39.211-56 54.267-123.917 42.397-191.239zM406.75 128.939l2.373 13.454a8.59 8.59 0 0 0 9.948 6.966 8.589 8.589 0 0 0 6.967-9.949l-1.773-10.054 5.984 1.781a42.95 42.95 0 0 0 19.589 1.123l9.462-1.668a234.355 234.355 0 0 1 6.095 10.478l-5.12.902a34.076 34.076 0 0 0-17.672 8.944l-4.926 4.705c-4.583 4.379-11.3 5.834-17.268 3.785l-30.621-17.495 2.725-10.465 14.237-2.507zm61.853 235.765a17.286 17.286 0 0 1-11.697-7.577l-18.567-28.374a59.307 59.307 0 0 1-8.829-22.301l-4.973-28.205a34.016 34.016 0 0 0-9.037-17.773 8.588 8.588 0 1 0-12.365 11.923 16.893 16.893 0 0 1 4.485 8.832l4.973 28.205a76.388 76.388 0 0 0 11.372 28.723l18.567 28.374c4.207 6.43 10.379 11.139 17.403 13.612a243.953 243.953 0 0 1-8.358 12.8c-36.579 52.241-91.313 87.11-154.118 98.184-62.806 11.077-126.164-2.973-178.404-39.552s-87.11-91.312-98.184-154.118c-4.75-26.936-4.864-53.971-.577-80.19l12.079 22.305a30.058 30.058 0 0 0 31.693 15.309l.687-.12 3.708 4.999c6.328 8.531 16.049 13.564 26.668 13.806l7.174.164.2.002a8.59 8.59 0 0 0 .193-17.174l-7.174-.164a16.89 16.89 0 0 1-13.264-6.867l-6.871-9.263a8.585 8.585 0 0 0-8.39-3.341l-5.914 1.043a12.902 12.902 0 0 1-13.605-6.572l-21.516-39.736c7.191-25.636 18.738-50.15 34.462-72.606a242.291 242.291 0 0 1 8.513-11.405l7.594 5.318c7.732 5.415 18.426 3.528 23.84-4.204l4.449-6.354c3.912-5.586 9.763-9.314 16.478-10.497l1.729-.305.775 4.395.245 1.389v.001l1.481 8.398a8.59 8.59 0 0 0 9.948 6.966 8.589 8.589 0 0 0 6.967-9.949l-.412-2.337 32.846-18.008 33.253-5.864-2.329 1.039c-5.816 2.594-9.41 8.16-9.381 14.529.029 6.368 3.675 11.902 9.515 14.442l22.711 9.82-1.624 4.951a8.588 8.588 0 1 0 16.321 5.347l1.621-4.948a17.043 17.043 0 0 0-9.438-21.026l-19.936-8.673 22.752-10.147a8.59 8.59 0 0 0 4.961-9.334l-1.867-10.591a8.593 8.593 0 0 0-3.531-5.545 8.592 8.592 0 0 0-6.417-1.423L170.5 65.792a8.583 8.583 0 0 0-2.637.928L138.88 82.611l-.431-2.444a8.586 8.586 0 0 0-9.949-6.966l-10.187 1.796c-11.233 1.981-21.023 8.217-27.566 17.561l-4.366 6.339-6.269-4.39C115.413 55.9 162.165 30.105 214.541 20.87a241.533 241.533 0 0 1 41.967-3.69c38.168 0 75.574 9.169 109.553 26.904l-6.739 9.611a19.21 19.21 0 0 0-3.205 14.453l3.147 17.845a14.7 14.7 0 0 1-2.452 11.059 14.864 14.864 0 0 1-4.981 4.473l-23.789 12.024a8.59 8.59 0 0 0 7.748 15.331l23.911-12.084c.072-.037.144-.074.215-.113a32.12 32.12 0 0 0 10.968-9.778c4.9-6.998 6.78-15.483 5.297-23.894l-3.147-17.845a2.186 2.186 0 0 1 .358-1.618l7.67-10.939a244.907 244.907 0 0 1 11.885 7.813 250.624 250.624 0 0 1 4.369 3.139l-5.78 5.292a8.588 8.588 0 0 0 5.801 14.922 8.553 8.553 0 0 0 5.797-2.254l7.835-7.172a237.741 237.741 0 0 1 37.842 40.652l-1.951.344c-3.88.686-7.93.453-11.71-.671l-7.61-2.265a42.956 42.956 0 0 0-19.59-1.123l-23.841 4.204a8.592 8.592 0 0 0-6.82 6.293l-5.772 22.161a8.589 8.589 0 0 0 4.05 9.622l36.959 21.116a8.58 8.58 0 0 0 1.187.562 33.962 33.962 0 0 0 12.16 2.242c8.668 0 17.225-3.282 23.675-9.444l4.926-4.705a16.943 16.943 0 0 1 8.79-4.449l10.143-1.789c8.198 18.103 14.183 37.355 17.725 57.439 9.143 51.873 1.138 104.115-22.529 150.166z"/><path d="M267.399 418.542a8.589 8.589 0 0 0-16.916 2.982l5.559 31.53c.11.622-.109 1.09-.311 1.373-.203.284-.576.642-1.268.748a1.814 1.814 0 0 1-1.801-.807l-16.926-26.117a76.275 76.275 0 0 1-11.168-28.384l-.995-5.691a8.588 8.588 0 0 0-9.939-6.981 8.588 8.588 0 0 0-6.981 9.939l.997 5.703a93.381 93.381 0 0 0 13.671 34.754l16.926 26.117c3.528 5.443 9.566 8.657 15.97 8.657.973 0 1.955-.074 2.936-.226a18.853 18.853 0 0 0 12.542-7.712 18.852 18.852 0 0 0 3.264-14.357l-5.56-31.528zM162.15 125.245a8.562 8.562 0 0 0 5.318-1.849l12.89-10.181a8.586 8.586 0 0 0 1.416-12.062 8.587 8.587 0 0 0-12.062-1.416l-12.89 10.181a8.586 8.586 0 0 0-1.416 12.062 8.57 8.57 0 0 0 6.744 3.265zM330.077 87.044a8.59 8.59 0 0 0 9.948 6.966 8.589 8.589 0 0 0 6.967-9.949l-2.962-16.799a8.587 8.587 0 0 0-9.949-6.967 8.589 8.589 0 0 0-6.967 9.949l2.963 16.8zM308.327 146.598c-19.312 0-37.623 6.63-52.371 18.821-14.748-12.191-33.06-18.821-52.371-18.821-45.645 0-82.78 37.44-82.78 83.459 0 28.463 15.226 61.717 42.875 93.638 24.819 28.655 57.127 53.545 88.638 68.288a8.574 8.574 0 0 0 7.278 0c31.511-14.743 63.817-39.633 88.636-68.288 27.648-31.921 42.875-65.176 42.875-93.638 0-46.02-37.135-83.459-82.78-83.459zm-52.371 228.078c-56.551-27.966-117.975-93.004-117.975-144.618 0-36.548 29.43-66.283 65.604-66.283 17.463 0 33.9 6.859 46.281 19.313a8.59 8.59 0 0 0 12.181 0c12.382-12.454 28.818-19.313 46.28-19.313 36.174 0 65.604 29.735 65.604 66.283 0 51.614-61.424 116.652-117.975 144.618z"/></svg>