<?xml version="1.0" standalone="no"?>
<!DOCTYPE svg PUBLIC "-//W3C//DTD SVG 20010904//EN"
 "http://www.w3.org/TR/2001/REC-SVG-20010904/DTD/svg10.dtd">
<svg version="1.0" xmlns="http://www.w3.org/2000/svg"
 width="860.000000pt" height="617.000000pt" viewBox="0 0 860.000000 617.000000"
 preserveAspectRatio="xMidYMid meet">
<metadata>
Created by potrace 1.16, written by Peter Selinger 2001-2019
</metadata>
<g transform="translate(0.000000,617.000000) scale(0.100000,-0.100000)"
fill="#000000" stroke="none">
<path d="M0 5893 c0 -244 2 -279 17 -295 9 -10 13 -21 9 -25 -4 -4 -11 -1 -17
7 -6 10 -9 -122 -7 -385 1 -266 5 -403 12 -407 8 -6 8 -10 1 -15 -6 -5 -11
-42 -11 -83 -2 -72 -1 -74 11 -40 l13 35 0 -60 c0 -33 -2 -54 -5 -47 -2 6 -9
12 -14 12 -5 0 -8 -682 -9 -1615 0 -1057 4 -1615 10 -1615 6 0 10 -5 10 -11 0
-5 -4 -8 -9 -5 -6 4 -10 -113 -10 -289 -1 -257 1 -295 14 -295 8 0 15 -7 15
-16 0 -13 -3 -14 -15 -4 -12 10 -14 -35 -15 -364 l0 -376 204 0 c186 0 205 2
209 17 4 17 5 17 6 1 1 -17 20 -18 259 -18 l258 0 22 44 c31 62 27 65 -18 15
-51 -57 -51 -38 0 37 22 33 40 65 40 72 0 17 15 15 30 -3 10 -12 16 -13 26 -4
17 14 18 30 1 26 -8 -1 -11 7 -8 23 l3 25 -22 -20 -22 -20 16 40 c10 22 21 44
27 50 5 5 9 54 9 110 1 70 4 95 10 83 6 -9 9 -66 7 -127 -1 -61 -2 -111 -1
-111 0 0 15 7 32 16 34 17 36 26 23 104 -4 25 -4 70 0 100 l6 55 2 -70 c1 -38
6 -88 10 -110 6 -26 7 -2 4 70 -3 60 -9 120 -14 133 -12 32 -11 35 5 20 7 -7
11 -19 8 -27 -3 -8 -1 -12 5 -8 21 13 30 -150 14 -274 -5 -44 -4 -56 6 -52 7
3 11 8 9 12 -2 3 18 23 46 44 44 32 58 37 104 37 64 0 115 -22 137 -60 23 -38
47 -135 47 -187 l0 -43 99 0 100 0 -5 48 c-9 84 -13 94 -34 87 -28 -9 -25 4 3
15 20 8 20 9 2 10 -16 0 -17 2 -6 9 13 8 12 15 -4 50 -10 23 -22 41 -27 41 -4
0 -8 5 -8 11 0 5 4 8 8 5 4 -2 14 5 22 17 12 20 12 21 -3 8 -15 -12 -17 -11
-16 10 1 13 -3 37 -10 53 -17 42 -6 44 14 2 10 -20 21 -36 26 -36 5 0 9 -11 9
-25 0 -14 5 -25 11 -25 5 0 7 -5 4 -10 -4 -6 -2 -16 3 -23 5 -7 12 -28 16 -47
5 -27 4 -31 -4 -15 -10 20 -7 -59 6 -148 l6 -38 84 2 c73 1 104 10 75 21 -4 2
-20 25 -34 51 -14 26 -29 47 -33 46 -5 -2 -12 10 -15 27 -4 16 -7 23 -8 16 -2
-23 -21 -2 -19 21 1 22 -57 127 -91 163 -10 11 -30 42 -45 70 -15 27 -35 56
-43 64 -9 8 -6 1 5 -17 27 -38 30 -62 6 -42 -49 41 -84 123 -61 145 4 4 7 16
7 26 0 22 22 20 28 -3 3 -11 2 -12 -6 0 -7 10 -11 3 -14 -24 -3 -30 0 -40 19
-52 19 -12 26 -13 38 -3 9 8 15 8 15 2 0 -6 -5 -12 -11 -14 -12 -4 -1 -38 13
-38 6 0 7 7 4 16 -4 12 -2 15 9 10 8 -3 15 -2 15 3 0 11 -40 47 -49 43 -3 -1
-8 10 -9 25 -2 15 -8 33 -13 40 -6 6 -11 31 -12 56 -1 25 -4 43 -6 42 -2 -2
-10 3 -18 11 -21 20 -26 12 -12 -19 8 -17 8 -34 2 -53 -9 -27 -10 -27 -15 -6
-4 12 -2 22 3 22 5 0 9 7 9 15 0 8 -4 15 -10 15 -5 0 -9 3 -8 8 1 4 -4 20 -10
35 -7 16 -12 34 -12 42 0 8 -5 17 -10 20 -6 4 -9 12 -8 18 3 16 -21 87 -40
114 -8 13 -24 24 -36 24 -17 1 -17 2 -3 6 24 6 21 18 -10 42 -14 12 -24 23
-21 26 5 6 88 -75 88 -86 0 -4 8 -5 19 -2 11 3 21 -2 25 -13 5 -14 4 -15 -9
-4 -25 20 -26 7 -6 -51 11 -33 27 -58 40 -64 11 -5 20 -14 19 -20 -5 -22 13
-62 27 -62 22 0 18 19 -15 68 -33 49 -37 66 -16 66 8 0 17 -12 20 -26 7 -32
23 -57 31 -49 4 3 -1 28 -10 55 -28 84 -25 79 -36 63 -8 -12 -9 -10 -4 6 7 27
-3 54 -21 54 -8 0 -14 7 -14 15 0 21 -27 73 -56 108 -38 45 -28 50 14 7 37
-39 92 -69 92 -50 0 6 -3 10 -8 10 -4 0 -13 10 -21 23 l-14 22 25 -22 c13 -13
30 -23 36 -23 7 0 15 -7 18 -15 4 -8 12 -15 19 -15 8 0 17 -5 20 -10 4 -6 1
-9 -6 -8 -7 2 -14 -6 -16 -17 -3 -16 -2 -17 6 -5 8 12 11 12 17 -4 4 -11 2
-21 -6 -26 -10 -6 -7 -14 13 -34 27 -27 47 -34 47 -15 0 5 6 7 13 3 9 -6 9 -4
0 7 -7 7 -13 20 -13 29 0 10 8 5 25 -14 14 -16 25 -32 25 -36 0 -11 69 -42 82
-38 8 3 -37 66 -113 156 -5 7 -15 9 -21 6 -7 -4 -8 -2 -4 5 4 6 12 8 18 5 40
-25 77 -2 43 26 -12 10 -15 9 -15 -6 -1 -15 -4 -13 -16 9 -8 15 -20 27 -26 27
-6 0 -8 3 -5 7 12 11 -44 33 -87 33 -33 1 -38 3 -23 11 10 6 26 8 35 4 13 -5
13 -2 -3 15 -22 24 -13 26 21 4 14 -9 37 -18 52 -19 25 -3 25 -2 8 8 -11 7
-38 28 -60 48 -48 42 -102 72 -116 64 -6 -3 -7 1 -4 9 6 17 -8 21 -54 17 -20
-2 -22 0 -11 12 14 15 62 4 93 -22 9 -7 22 -11 31 -8 8 4 19 -1 24 -10 11 -21
54 -26 46 -6 -3 8 -5 17 -5 19 0 3 -5 2 -10 -1 -6 -4 -9 -1 -8 6 2 7 -13 19
-32 25 -19 7 -28 13 -18 13 25 1 119 -45 110 -54 -4 -5 -2 -6 3 -3 6 3 18 -2
28 -12 16 -16 16 -18 2 -24 -9 -3 -14 -2 -11 3 3 5 -1 12 -10 15 -13 5 -13 2
1 -22 18 -30 65 -69 65 -53 0 5 -7 16 -15 25 -19 19 -19 27 0 20 8 -3 17 -15
21 -26 4 -13 9 -16 13 -10 4 7 17 3 35 -13 16 -14 35 -25 43 -25 7 0 13 -4 13
-10 0 -5 9 -10 19 -10 11 0 21 -5 23 -11 3 -8 9 -6 20 4 14 15 17 15 22 1 4
-10 2 -13 -7 -8 -8 5 -7 2 2 -9 7 -9 19 -17 25 -17 6 0 5 4 -3 9 -10 6 -10 10
-1 16 8 5 7 12 -6 26 -18 20 -60 26 -66 9 -2 -6 -13 -2 -25 10 -12 11 -27 20
-32 20 -5 0 -12 4 -15 9 -3 4 6 6 19 3 14 -2 25 -8 25 -12 0 -4 17 -8 37 -8
35 0 36 1 18 14 -10 8 -32 14 -47 14 -31 0 -114 38 -163 75 -16 12 -45 30 -64
39 -23 12 -30 21 -23 28 13 13 35 1 26 -14 -5 -8 -1 -9 10 -5 11 5 15 3 10 -5
-5 -8 -2 -9 10 -5 9 4 14 3 11 -2 -3 -5 -1 -12 5 -16 5 -3 10 -2 10 4 0 6 6 8
14 5 8 -3 23 -1 33 4 12 7 25 6 43 -2 14 -7 40 -16 58 -19 30 -6 62 -27 62
-41 0 -3 -17 2 -37 10 l-38 15 25 -21 c56 -45 130 -93 136 -87 4 4 -7 14 -24
24 -16 9 -35 26 -42 37 -11 17 -6 15 23 -7 20 -15 38 -27 41 -27 3 0 14 -8 25
-18 68 -63 115 -102 164 -137 31 -22 57 -43 57 -48 0 -20 -111 61 -168 122
-30 33 -32 34 -26 11 10 -39 93 -200 102 -200 5 0 13 -15 19 -34 10 -33 10
-34 -8 -23 -11 7 -22 20 -25 29 -6 19 -113 118 -127 118 -5 0 -4 -7 3 -15 7
-9 10 -18 6 -22 -3 -3 -6 -1 -6 5 0 7 -7 12 -15 12 -8 0 -15 5 -15 10 0 6 -21
20 -47 33 -37 17 -49 29 -54 52 -4 17 -7 22 -8 13 0 -10 -5 -18 -11 -18 -5 0
-6 -7 -3 -17 4 -11 3 -14 -5 -9 -7 4 -12 5 -12 2 0 -3 12 -12 28 -20 37 -20
98 -76 94 -88 -1 -5 2 -7 8 -3 6 4 17 2 25 -5 9 -8 15 -8 20 0 8 13 35 -6 35
-24 0 -6 -7 -2 -15 8 -16 22 -16 22 -20 -13 -2 -18 11 -38 46 -73 27 -27 49
-53 49 -58 0 -19 -22 -10 -48 19 -40 43 -81 92 -79 94 5 5 -67 87 -76 87 -6 0
-2 -10 9 -22 11 -13 28 -34 37 -48 24 -36 59 -85 116 -165 49 -67 62 -102 21
-55 -11 13 -20 19 -20 15 0 -5 -9 1 -20 12 -10 12 -28 24 -40 28 -11 3 -20 11
-20 16 0 17 -20 9 -21 -8 -1 -20 -4 -12 -13 30 -4 15 -11 25 -16 22 -6 -3 -10
1 -10 9 0 24 9 20 46 -21 19 -20 36 -34 40 -31 7 8 -37 77 -66 103 l-23 20 7
-22 c7 -23 -7 -39 -25 -27 -8 4 -7 9 2 14 9 6 6 16 -14 40 -15 17 -27 37 -27
44 0 18 -43 56 -63 56 -9 0 -17 -6 -17 -12 0 -18 73 -125 118 -173 20 -22 29
-34 20 -26 -10 7 -18 10 -18 5 0 -15 58 -164 68 -177 6 -7 39 -27 75 -45 35
-18 79 -47 98 -63 l34 -31 -40 22 c-143 80 -167 92 -172 86 -3 -3 0 -14 8 -23
13 -16 12 -17 -3 -4 -10 7 -18 21 -18 31 0 10 -7 20 -15 24 -21 7 -19 -2 10
-68 30 -69 19 -68 -14 1 -13 26 -31 56 -39 66 -8 9 -12 17 -7 17 4 0 2 7 -5
15 -7 8 -17 15 -22 15 -6 0 -6 -6 1 -14 9 -11 8 -15 -4 -20 -9 -3 -13 -2 -10
3 3 5 1 12 -5 16 -21 13 -9 -63 19 -118 16 -31 36 -78 45 -103 14 -41 14 -45
0 -33 -13 11 -14 9 -8 -17 6 -26 49 -75 193 -221 24 -24 41 -47 37 -50 -3 -3
-14 1 -23 10 -16 13 -20 14 -37 1 -30 -21 -38 -17 -20 11 9 14 15 27 13 30 -2
2 -46 49 -98 104 -52 56 -100 101 -107 101 -7 0 -18 10 -25 21 -9 17 -13 19
-20 8 -7 -11 -9 -10 -9 3 0 17 -72 78 -92 78 -4 0 -8 -7 -8 -15 0 -8 4 -15 9
-15 4 0 12 -28 15 -62 6 -52 14 -70 51 -117 24 -31 58 -83 76 -116 17 -33 38
-67 46 -76 12 -14 12 -18 1 -22 -7 -3 404 -6 915 -6 911 -1 927 -1 927 18 0
11 5 23 10 26 6 4 10 -5 10 -19 0 -16 6 -26 15 -26 8 0 15 5 15 11 0 8 4 8 14
0 10 -8 154 -11 520 -11 495 1 506 1 506 20 0 11 5 20 10 20 6 0 10 -9 10 -20
0 -20 7 -20 1624 -20 l1625 0 3 27 c2 14 9 29 17 31 10 3 12 0 8 -12 -4 -9
-10 -23 -13 -31 -5 -12 4 -15 46 -15 52 0 53 0 35 20 -10 11 -14 20 -8 20 5 0
18 -9 28 -20 17 -19 31 -20 202 -20 l184 0 -2 257 c-1 143 -7 267 -12 278 -7
13 -6 20 1 23 17 5 17 2339 0 2345 -10 4 -11 7 0 18 16 17 16 86 0 92 -10 4
-10 6 0 6 15 1 17 137 2 146 -5 3 -10 15 -10 26 0 10 5 19 10 19 6 0 10 20 10
45 0 34 -4 45 -16 45 -8 0 -12 5 -9 10 4 6 11 8 16 5 5 -4 9 45 9 121 0 126 0
126 -22 121 l-23 -6 23 17 22 17 0 427 c-1 482 8 438 -91 438 -43 0 -58 -3
-53 -12 5 -8 2 -9 -12 -3 -10 5 -43 11 -72 13 -45 3 -57 0 -73 -17 -11 -12
-25 -21 -32 -21 -7 0 4 -10 23 -22 27 -17 31 -23 17 -26 -9 -2 -17 -10 -17
-18 0 -7 -12 -16 -27 -20 -16 -3 -38 -10 -50 -16 -13 -7 -46 -8 -83 -4 -78 9
-90 14 -90 37 0 12 -5 16 -15 13 -10 -4 -15 0 -15 11 0 15 6 17 40 11 27 -4
40 -3 40 5 0 6 7 9 15 5 9 -3 15 0 15 9 0 8 9 15 20 15 11 0 20 5 20 10 0 6 7
10 15 10 8 0 34 6 57 14 36 13 75 21 111 25 12 2 8 21 -6 21 -7 0 -18 9 -25
20 -17 28 -40 26 -37 -4 3 -20 -4 -28 -38 -42 -23 -9 -58 -20 -77 -24 -19 -4
-43 -11 -54 -15 -16 -7 -15 -1 9 41 31 54 64 94 77 94 17 0 7 -21 -14 -31 -18
-7 -15 -8 17 -4 59 9 76 15 74 28 -4 37 3 41 25 13 13 -15 26 -24 29 -19 33
53 72 140 61 136 -9 -3 -14 2 -14 13 0 11 -5 26 -10 34 -9 13 -11 13 -20 0 -9
-13 -10 -13 -10 0 0 9 5 21 10 26 15 15 -13 36 -58 44 -36 6 -36 6 -15 18 19
11 30 8 75 -16 31 -16 53 -35 54 -45 3 -62 3 -64 19 -43 8 11 15 28 15 37 0
10 10 25 23 35 l22 16 -22 -5 c-14 -3 -28 2 -39 14 -10 11 -43 26 -73 35 -72
20 -100 34 -112 56 -8 15 -5 17 20 15 16 -1 27 -5 24 -9 -2 -5 6 -9 19 -9 68
-4 107 -16 174 -51 30 -16 32 -16 49 2 10 11 24 20 30 20 7 0 15 7 19 15 3 9
0 15 -10 15 -8 0 -12 4 -9 10 3 6 -9 9 -31 7 -22 -1 -39 3 -41 10 -6 17 38 33
88 33 33 0 40 3 37 18 -3 13 -13 17 -43 15 -22 -1 -34 1 -27 4 6 2 12 11 12
18 0 8 10 20 23 26 33 18 37 28 37 107 l0 72 -27 -6 c-16 -3 -41 -13 -57 -20
-16 -8 -37 -14 -48 -14 -10 0 -18 -4 -18 -10 0 -5 13 -10 30 -10 32 0 54 -27
44 -54 -11 -28 -51 -15 -65 22 -9 23 -13 24 -59 18 l-51 -7 5 27 c8 41 20 49
54 35 27 -11 32 -10 60 18 17 17 36 31 44 31 26 1 79 57 84 89 3 17 2 31 -3
31 -13 -1 -39 -24 -46 -40 -4 -11 -6 -10 -7 5 0 15 -5 11 -18 -15 -9 -20 -24
-45 -33 -57 -29 -42 -109 -54 -109 -17 0 8 4 13 9 10 5 -3 12 2 16 11 3 10 1
19 -4 21 -6 2 -8 14 -5 28 5 18 2 24 -10 24 -9 0 -16 5 -16 10 0 6 6 10 14 10
8 0 29 8 48 18 18 9 34 18 36 18 2 1 -8 21 -21 45 -13 24 -32 69 -41 99 -10
30 -24 67 -32 82 -26 47 -15 49 59 9 52 -28 80 -38 100 -34 26 5 26 6 10 20
-17 13 -16 14 5 8 12 -4 22 -2 22 4 0 6 7 8 15 5 22 -9 21 65 -1 81 -15 10
-15 13 0 27 9 9 16 19 16 21 0 11 -51 16 -73 8 -21 -8 -24 -7 -20 8 2 10 -3
23 -12 31 -13 11 -15 10 -9 -6 7 -18 6 -18 -12 -1 -10 10 -32 29 -49 42 l-30
25 42 0 c33 0 48 6 68 28 l25 27 -27 5 -28 5 24 17 c14 10 20 21 16 29 -6 8
-4 10 5 4 8 -5 11 -3 8 6 -3 8 -15 15 -29 17 -16 2 -20 0 -11 -6 9 -6 6 -11
-12 -20 -14 -6 -32 -25 -41 -41 -10 -20 -20 -28 -30 -25 -21 9 -19 20 14 67
43 63 81 143 80 169 0 15 -5 9 -13 -19 -24 -75 -97 -178 -126 -178 -16 0 -18
27 -6 57 6 12 2 17 -16 20 -15 2 -22 9 -20 21 5 28 -15 19 -30 -13 -17 -38
-43 -47 -70 -23 -20 18 -21 18 -13 -6 5 -16 4 -21 -3 -17 -6 4 -19 -5 -28 -19
-18 -28 -34 -33 -34 -10 0 8 7 15 15 15 8 0 15 5 15 11 0 6 -9 9 -20 6 -23 -6
-27 8 -5 17 9 3 12 12 8 22 -4 11 -2 15 4 11 10 -6 44 33 56 66 3 9 11 17 16
17 5 0 7 9 4 20 -5 19 -16 19 -497 19 l-491 -1 46 -20 c33 -15 51 -31 63 -54
9 -20 23 -34 34 -34 39 0 91 -83 124 -199 19 -67 19 -72 -6 -65 -14 3 -36 -2
-57 -15 -36 -22 -79 -28 -79 -11 0 6 -5 10 -11 10 -6 0 -9 -6 -6 -12 4 -13
-19 -68 -28 -68 -3 0 -5 23 -5 50 0 45 2 50 23 50 18 0 16 3 -13 17 -19 10
-38 21 -41 26 -3 5 -10 8 -15 7 -5 -1 -10 4 -13 11 -2 8 2 10 13 6 11 -5 16
-1 16 14 0 11 4 17 10 14 14 -9 12 19 -2 33 -9 9 -8 12 6 12 15 0 17 -6 14
-34 -3 -24 0 -32 9 -29 27 11 3 88 -27 88 -4 0 -20 15 -35 33 -20 23 -34 32
-48 28 -10 -2 -16 -2 -13 1 3 3 -3 13 -13 22 -17 16 -40 77 -24 68 4 -3 8 7 8
21 0 27 -1 27 -83 30 l-84 3 7 -58 c4 -32 13 -84 21 -115 7 -32 11 -65 7 -74
-3 -9 -1 -19 6 -23 6 -4 14 -20 17 -36 3 -16 8 -33 11 -39 4 -6 8 -22 9 -35 2
-14 8 -27 14 -29 15 -5 12 -22 -5 -22 -8 0 -15 -5 -15 -11 0 -6 7 -9 15 -5 9
3 15 0 15 -9 0 -8 -7 -15 -15 -15 -8 0 -15 -7 -15 -15 0 -9 6 -12 15 -9 10 4
15 0 15 -11 0 -9 -4 -14 -8 -11 -5 3 -15 -6 -22 -20 -15 -28 -80 -80 -80 -65
0 6 -4 11 -10 11 -5 0 -10 -7 -10 -15 0 -19 -5 -19 -33 -1 -12 8 -43 22 -69
31 -37 12 -51 13 -66 4 -18 -11 -17 -14 19 -51 21 -22 55 -44 76 -51 36 -11
37 -11 11 -15 -31 -4 -39 -32 -10 -32 20 0 99 -76 90 -86 -4 -3 -16 4 -27 15
-16 16 -22 18 -28 6 -7 -12 -61 -18 -147 -16 -28 1 -28 2 -12 20 16 17 15 18
-21 15 -57 -3 -60 -5 -35 -14 12 -5 22 -14 22 -21 0 -7 -7 -8 -17 -4 -10 4
-34 9 -53 11 -19 2 -48 7 -65 10 l-30 5 29 -20 c16 -11 31 -29 33 -39 2 -19
-2 -20 -60 -16 -44 3 -55 1 -37 -5 14 -5 40 -15 58 -23 l33 -15 -36 -27 c-21
-16 -42 -25 -53 -22 -13 4 -21 -2 -29 -24 -13 -36 -52 -42 -60 -10 -3 11 -9
17 -14 14 -5 -3 -9 0 -9 6 0 6 -4 9 -10 5 -10 -6 -2 -36 14 -47 11 -7 -11 -58
-24 -58 -4 0 -13 20 -20 45 -10 36 -15 43 -26 34 -8 -6 -14 -21 -14 -33 0 -17
-2 -18 -10 -6 -7 12 -10 11 -15 -5 -4 -11 -11 -30 -16 -43 -12 -30 -11 -35 2
-27 6 4 17 -1 24 -11 17 -22 20 -99 5 -89 -6 4 -7 12 -4 18 4 7 -6 0 -22 -14
-16 -14 -37 -24 -46 -22 -22 5 -24 23 -3 23 8 0 15 5 15 10 0 6 -9 10 -21 10
-11 0 -17 -4 -14 -10 3 -5 1 -10 -5 -10 -6 0 -9 -4 -6 -9 6 -9 -15 -21 -36
-21 -7 0 -6 5 1 14 9 11 9 16 0 22 -8 4 -9 3 -5 -5 6 -8 0 -10 -21 -6 -15 3
-22 2 -15 -1 19 -9 14 -24 -9 -24 -14 0 -19 5 -16 14 7 19 -22 30 -39 15 -14
-11 -19 -1 -15 24 1 5 -3 6 -9 2 -6 -3 -7 -11 -4 -17 5 -8 1 -9 -12 -3 -10 4
-27 8 -36 9 -10 0 -18 4 -18 8 0 4 -8 8 -17 8 -14 0 -15 -2 -5 -9 8 -4 13 -12
13 -17 0 -5 2 -17 5 -28 4 -10 0 -22 -7 -27 -23 -14 -30 -10 -23 14 5 22 2 24
-26 22 -18 -1 -36 -8 -40 -16 -5 -7 -12 -10 -16 -6 -10 9 26 36 49 37 18 0 25
30 7 30 -5 0 -10 8 -10 18 0 14 -2 15 -10 2 -7 -11 -10 -11 -10 -2 0 7 -5 10
-11 6 -8 -5 -6 -10 5 -16 19 -10 12 -28 -10 -28 -8 0 -12 5 -9 10 3 6 1 10 -5
10 -15 0 -41 -26 -33 -34 4 -3 1 -6 -5 -6 -7 0 -12 7 -12 16 0 14 -2 15 -17 3
-15 -13 -15 -14 0 -17 10 -2 17 -11 17 -20 0 -15 2 -15 10 -2 6 9 10 10 10 3
0 -6 -8 -19 -17 -29 -16 -16 -18 -15 -26 10 -6 18 -16 26 -33 26 -14 0 -24 6
-24 14 0 8 -7 17 -16 20 -24 9 -26 8 -19 -15 6 -18 5 -19 -13 -10 -11 6 -22
16 -24 23 -5 13 -28 2 -28 -13 0 -6 3 -8 8 -5 4 2 16 -3 27 -11 19 -15 19 -15
-10 -10 -27 5 -28 4 -10 -9 16 -12 16 -14 3 -14 -9 0 -20 -5 -24 -12 -5 -7 -2
-8 7 -3 8 4 4 -2 -8 -14 -13 -12 -23 -28 -23 -36 0 -19 8 -19 26 -1 9 9 30 13
59 11 33 -2 48 1 54 13 5 8 14 12 20 8 6 -4 9 -12 5 -17 -5 -9 59 -4 94 7 6 2
12 -3 12 -11 0 -8 4 -15 10 -15 5 0 7 6 4 13 -3 8 2 20 11 27 9 7 15 8 15 2 0
-6 -6 -13 -12 -15 -7 -3 6 -6 29 -6 23 -1 43 3 45 8 2 5 10 2 18 -7 13 -14 12
-15 -3 -9 -9 3 -17 2 -17 -3 0 -6 21 -10 48 -10 41 1 45 2 30 14 -10 7 -18 17
-18 21 0 4 6 3 13 -2 17 -14 57 -23 57 -13 0 5 15 4 32 -1 41 -11 41 -11 32 3
-5 8 -2 9 12 3 26 -10 71 -13 85 -5 6 5 0 10 -16 14 -15 4 -26 9 -24 11 5 4
110 -22 117 -30 3 -3 -10 -3 -29 0 l-34 6 34 -19 c33 -19 33 -19 10 -26 -13
-4 -44 -8 -69 -8 -25 1 -36 -2 -25 -5 39 -10 40 -23 2 -23 -20 0 -37 -4 -37
-10 0 -5 -12 -9 -27 -9 -17 1 -21 3 -10 6 20 5 23 23 3 23 -16 0 -39 -24 -30
-32 2 -3 -2 -8 -11 -11 -20 -8 -20 20 1 41 14 13 14 17 3 20 -8 3 -20 10 -27
15 -17 13 -89 9 -117 -6 -27 -15 -45 -17 -45 -6 0 5 -8 9 -17 8 -11 0 -13 -3
-5 -6 6 -2 12 -12 12 -21 0 -12 -10 -6 -33 19 -27 31 -34 35 -45 23 -11 -12
-10 -14 5 -15 13 0 12 -3 -7 -11 -14 -6 -28 -10 -32 -10 -5 1 -8 -2 -8 -7 0
-6 -9 -8 -20 -6 -11 2 -20 0 -20 -6 0 -5 7 -10 15 -10 31 -3 35 -4 38 -14 3
-15 -51 -14 -57 0 -2 7 -16 13 -31 13 -15 0 -24 -5 -22 -12 3 -6 10 -10 16 -9
23 6 10 -16 -19 -31 -24 -11 -30 -12 -30 -1 0 7 -7 16 -16 19 -8 3 -12 10 -9
16 3 5 -1 10 -9 10 -9 0 -16 4 -16 9 0 4 -13 8 -30 7 -35 -1 -40 -13 -7 -19
19 -4 19 -4 -5 -6 -14 0 -29 5 -32 12 -3 9 -8 8 -18 -4 -7 -9 -24 -19 -38 -22
-14 -4 -19 -4 -12 -1 6 3 10 10 6 15 -3 5 0 9 5 9 6 0 11 5 11 10 0 6 -12 10
-26 10 -14 0 -23 -4 -19 -10 3 -5 -1 -10 -9 -10 -9 0 -16 -4 -16 -8 0 -4 -16
-8 -35 -8 -19 0 -35 4 -35 9 0 4 -6 5 -12 1 -10 -6 -10 -5 -1 8 7 8 10 18 6
21 -3 4 -1 7 5 7 5 0 13 -6 15 -12 4 -10 8 -10 15 1 5 7 15 10 21 7 6 -4 11
-2 11 4 0 7 -16 10 -42 8 -24 -2 -41 -7 -40 -12 6 -16 -20 -24 -57 -19 -44 7
-47 9 -33 26 9 10 4 12 -23 9 -22 -3 -35 0 -35 7 0 6 7 11 16 11 10 0 14 6 10
15 -3 9 0 15 9 15 8 0 15 -4 15 -10 0 -5 5 -10 11 -10 5 0 8 4 5 9 -8 12 18
21 58 21 25 0 43 10 74 40 44 43 59 49 69 24 4 -12 8 -13 13 -3 5 7 3 23 -3
36 -8 17 -13 20 -23 12 -18 -15 -74 -1 -82 21 -5 13 -12 16 -29 9 -19 -7 -23
-16 -23 -53 0 -25 -4 -47 -9 -50 -5 -4 -7 3 -4 14 7 28 -12 48 -41 43 -13 -3
-27 0 -30 6 -4 6 -14 11 -23 11 -11 0 -8 -6 10 -20 26 -21 26 -21 10 -55 -18
-39 -29 -44 -36 -17 -4 16 -5 16 -6 -1 -1 -12 -6 -16 -13 -11 -7 4 -10 4 -6
-1 4 -4 1 -17 -7 -29 -8 -11 -15 -35 -15 -53 0 -17 -4 -43 -10 -57 -5 -14 -12
-47 -14 -73 -3 -27 -10 -97 -15 -158 -6 -60 -13 -130 -17 -154 -4 -29 -2 -41
5 -36 7 4 11 -4 11 -22 0 -22 -2 -25 -10 -13 -5 8 -10 10 -10 4 0 -5 6 -16 13
-23 7 -8 7 -11 1 -8 -19 11 -28 -56 -9 -69 8 -6 15 -18 15 -27 0 -26 18 -29
26 -5 4 13 7 26 6 29 -1 4 8 9 19 12 16 4 19 2 14 -11 -5 -14 -4 -14 13 1 19
18 37 23 28 9 -3 -5 19 -7 49 -4 52 4 75 -8 40 -22 -34 -13 -13 -25 35 -19 32
4 50 2 50 -5 0 -5 -15 -10 -34 -9 -38 1 -86 -26 -86 -48 0 -12 9 -13 45 -8 45
6 75 -6 75 -30 0 -7 -4 -7 -12 1 -15 15 -59 16 -90 1 -13 -6 -34 -28 -47 -49
-13 -21 -34 -43 -47 -49 -13 -6 -24 -17 -24 -25 0 -19 45 -47 64 -40 18 7 22
-11 6 -21 -14 -9 -3 -24 26 -35 32 -13 30 -21 -11 -49 -19 -13 -35 -27 -35
-31 0 -4 -12 -11 -26 -14 -20 -5 -30 -2 -41 14 -8 11 -19 20 -25 20 -7 0 -6
-5 1 -14 10 -12 6 -15 -19 -21 -31 -7 -31 -7 46 -51 43 -24 79 -44 80 -44 2 0
1 7 -2 15 -4 8 -1 15 5 15 6 0 11 -4 11 -9 0 -12 50 -1 78 17 14 9 22 10 22 3
0 -6 -8 -11 -17 -12 -11 0 -13 -3 -5 -6 7 -3 12 -23 12 -51 0 -26 7 -71 14
-99 8 -29 12 -53 10 -53 -2 0 -11 15 -20 33 -33 62 -24 9 20 -131 50 -155 80
-277 72 -290 -2 -4 -1 -26 4 -48 8 -35 7 -41 -18 -64 -15 -14 -34 -25 -42 -25
-13 0 -15 -32 -16 -205 0 -192 -12 -308 -35 -334 -4 -5 -21 -2 -38 5 -24 11
-31 20 -31 41 0 15 4 30 10 33 17 10 11 66 -12 114 -16 33 -23 71 -27 148 -4
66 -2 103 4 103 6 0 4 4 -3 8 -9 6 -5 12 13 20 14 7 32 12 40 12 8 0 27 11 42
25 l28 24 -55 -20 c-29 -11 -62 -25 -72 -30 -26 -14 -116 -29 -133 -23 -12 5
-13 9 -4 20 6 8 8 14 4 14 -4 0 5 10 20 22 l28 22 -24 9 c-13 6 -27 11 -31 11
-17 2 -17 17 2 60 11 26 20 50 20 52 0 2 -17 -13 -38 -34 l-38 -37 -3 -165
c-8 -427 -7 -442 13 -484 11 -22 33 -46 49 -55 44 -25 66 -44 29 -26 l-33 16
7 -37 c4 -21 7 -45 7 -53 1 -19 -13 -109 -20 -135 -4 -14 -1 -18 11 -13 9 4
16 2 16 -3 0 -6 -7 -10 -15 -10 -10 0 -15 -10 -15 -31 0 -24 4 -30 16 -25 8 3
12 2 9 -3 -3 -6 12 -12 32 -14 l38 -4 -43 -1 c-40 -2 -43 -4 -37 -24 14 -47
36 -70 58 -63 12 3 41 12 65 18 24 7 41 15 38 17 -2 3 20 4 51 3 69 -2 79 -9
16 -12 -27 -1 -79 -11 -118 -22 l-70 -21 3 -121 c2 -77 -1 -122 -7 -127 -6 -3
-12 -26 -13 -50 -1 -25 -3 -39 -6 -32 -3 9 -11 8 -32 -3 -36 -19 -256 -70
-415 -97 -73 -12 -169 -20 -245 -21 -133 -1 -206 13 -540 99 -207 54 -230 62
-266 89 -39 30 -42 45 -13 91 14 24 23 62 29 131 5 54 16 123 25 153 17 58 21
75 32 130 3 19 12 49 18 65 7 17 10 35 8 42 -2 6 0 14 6 17 5 3 7 15 4 26 -3
11 4 30 16 46 12 15 21 36 21 48 0 13 3 16 8 10 5 -8 11 -7 22 4 13 14 12 15
-3 9 -9 -3 -19 -2 -22 3 -8 13 12 87 37 138 20 40 23 42 30 21 5 -12 16 -54
24 -93 9 -39 21 -78 26 -86 7 -12 8 -11 4 5 -10 42 -26 140 -26 162 0 32 16
29 31 -6 8 -17 23 -32 35 -35 11 -3 29 -18 40 -32 61 -85 95 -122 123 -134 18
-7 34 -10 37 -8 3 3 -14 28 -37 54 -43 50 -89 139 -89 174 0 12 -13 25 -36 36
-20 9 -39 24 -42 33 -3 9 -12 22 -19 29 -7 7 -13 20 -13 28 0 8 -6 14 -12 14
-10 0 -9 3 1 9 8 5 24 3 41 -7 43 -25 78 -8 100 48 21 55 18 66 -29 89 -20 11
-49 31 -66 45 -16 15 -49 31 -72 37 -45 12 -55 29 -69 115 -5 36 -4 42 15 47
15 4 21 13 21 32 0 22 -3 25 -13 17 -11 -9 -17 2 -30 56 -9 37 -20 87 -23 112
-7 47 -54 175 -78 213 -8 12 -20 42 -27 66 -12 39 -14 41 -21 20 -5 -12 -6
-29 -4 -36 3 -7 1 -13 -4 -13 -10 0 -12 -21 -14 -165 l-1 -110 44 -93 c34 -70
41 -96 33 -104 -9 -9 -12 -8 -12 5 0 9 -4 17 -10 17 -5 0 -18 10 -30 22 -16
17 -20 19 -20 6 0 -9 -5 -18 -11 -20 -6 -2 5 -12 25 -23 19 -11 38 -25 41 -33
2 -7 0 -10 -5 -7 -6 3 -7 -1 -4 -9 3 -9 11 -16 18 -16 6 0 4 -5 -4 -10 -12 -8
-12 -10 5 -11 11 0 14 -3 7 -6 -19 -8 -179 58 -218 90 -36 30 -43 54 -20 63 8
3 12 13 9 22 -3 10 -2 13 4 6 4 -5 26 -18 48 -28 22 -10 47 -22 56 -27 11 -5
16 -3 16 6 0 8 -4 12 -9 9 -4 -3 -26 5 -48 17 -22 13 -35 26 -30 29 7 4 3 17
-10 33 -20 25 -20 31 -9 65 14 41 16 46 18 65 0 7 13 25 27 40 19 21 23 31 15
41 -6 7 -8 16 -4 19 3 4 2 7 -4 7 -6 0 -11 17 -10 38 l0 37 10 -32 c13 -42 23
-42 32 -1 4 17 16 45 26 62 10 17 28 50 39 73 31 64 152 153 275 201 28 11 76
32 107 46 31 14 61 26 65 26 5 0 20 10 32 21 l23 22 -7 -24 c-4 -13 -15 -29
-24 -36 -11 -9 -12 -12 -3 -13 7 0 24 -12 38 -27 l24 -28 -4 80 -5 80 14 -50
c7 -27 14 -60 14 -72 1 -14 6 -21 14 -18 7 3 30 -25 56 -68 24 -39 46 -74 47
-76 2 -2 10 4 19 13 9 9 25 16 35 16 10 0 21 4 24 9 4 5 24 4 48 -3 56 -15 98
-10 98 13 0 9 -5 22 -12 29 -9 9 -7 21 11 52 12 22 20 40 16 40 -3 0 1 13 9
29 14 27 14 28 -7 24 -12 -2 -40 2 -62 10 -55 19 -54 46 3 65 23 7 42 20 42
27 0 8 8 18 18 24 12 7 6 8 -25 4 -45 -6 -93 2 -93 16 0 4 11 6 24 4 24 -5
138 10 167 22 12 4 16 -2 17 -32 1 -41 4 -73 7 -73 1 0 12 8 23 19 22 19 30
37 12 26 -5 -3 -10 2 -11 12 0 10 -2 27 -4 38 -2 10 1 25 6 31 17 20 -2 64
-44 105 -39 37 -72 55 -47 24 6 -8 8 -20 4 -27 -4 -7 -4 -10 1 -6 5 5 19 -8
32 -27 22 -33 23 -35 6 -55 -15 -17 -29 -20 -98 -19 -44 0 -89 4 -100 9 -13 6
-15 9 -5 9 12 1 12 3 2 10 -10 6 -2 11 25 16 67 12 113 29 113 42 0 7 -11 13
-25 13 -14 0 -41 7 -61 15 -32 13 -34 16 -23 37 7 13 17 46 21 73 5 28 11 64
14 81 5 28 2 32 -35 49 -23 10 -46 24 -52 31 -6 7 -16 12 -22 10 -7 -1 -9 -1
-4 1 4 3 5 9 1 14 -3 5 1 12 9 15 11 4 12 15 6 50 -5 25 -11 49 -14 54 -3 5
-3 20 1 34 6 24 56 52 111 62 12 2 33 8 45 13 29 11 101 5 130 -10 45 -24 108
-84 109 -104 2 -24 4 -28 27 -65 22 -35 21 -77 -2 -92 -8 -6 -8 -8 0 -8 8 0 9
-13 3 -42 -12 -61 -11 -130 1 -123 6 3 13 -1 16 -10 6 -13 8 -14 15 -3 14 22
10 58 -6 58 -23 0 -18 43 8 60 42 28 53 29 55 6 1 -16 -5 -22 -19 -23 -26 -2
-39 -14 -21 -20 6 -3 12 -17 13 -31 0 -25 1 -25 14 8 18 47 18 23 0 -48 -8
-31 -17 -69 -20 -84 -7 -34 -38 -53 -64 -39 -16 9 -20 4 -35 -56 -14 -60 -24
-76 -48 -85 -10 -4 -11 -85 -3 -125 5 -24 2 -39 -12 -60 -25 -36 -55 -113 -44
-113 13 0 36 31 81 110 50 88 62 150 35 180 -10 11 -13 20 -7 20 13 0 52 -51
76 -98 10 -18 27 -37 39 -41 12 -5 20 -12 18 -17 -5 -10 186 -111 193 -103 3
3 -1 18 -10 34 -10 20 -12 36 -6 54 6 17 5 38 -4 61 -9 25 -13 29 -14 15 -1
-11 -4 -14 -7 -8 -2 7 2 22 10 33 18 26 11 86 -9 70 -22 -19 -29 51 -9 90 9
17 14 38 11 45 -3 8 0 15 7 18 8 2 6 9 -6 21 -18 19 -23 31 -8 21 13 -7 24 30
16 55 -4 12 -2 20 5 20 7 0 11 20 10 53 -1 77 7 132 19 129 7 -1 9 7 5 22 -4
16 -1 25 10 29 9 4 16 12 16 19 0 9 -3 9 -10 -2 -5 -8 -12 -11 -15 -8 -4 4 -4
12 1 19 4 7 7 41 7 75 -1 41 4 67 13 74 7 6 10 18 7 26 -3 8 0 14 6 14 6 0 8
7 4 15 -3 10 -1 15 8 13 7 -2 15 6 17 16 3 14 0 17 -12 13 -8 -3 -18 -1 -22 5
-4 6 -3 8 3 5 6 -4 13 3 17 16 9 33 8 37 -9 37 -22 0 -19 53 3 73 10 10 24 17
30 17 8 0 10 9 6 26 -6 24 -5 25 15 15 19 -10 21 -9 21 11 0 19 -2 20 -10 8
-5 -8 -10 -10 -10 -3 0 6 -9 9 -22 6 -19 -5 -18 -2 9 19 24 19 29 27 22 41 -6
9 -6 17 -2 18 4 0 -1 4 -12 8 -10 4 -20 19 -21 32 -1 13 -7 38 -12 54 -9 25
-10 18 -11 -47 -1 -42 -5 -79 -10 -82 -10 -7 -7 303 3 344 4 14 8 43 11 65 2
22 9 41 15 43 13 5 13 32 -1 32 -6 0 -1 12 10 26 11 15 18 31 15 36 -3 5 0 15
6 23 6 8 9 19 5 25 -9 14 13 40 34 40 9 0 26 21 41 53 55 115 90 153 90 96 0
-28 13 -23 27 9 15 36 22 82 13 82 -12 0 -21 -31 -15 -51 8 -25 -7 -24 -23 1
-11 18 -8 27 20 70 31 47 57 68 45 36 -4 -9 -1 -13 6 -10 16 6 47 69 47 95 0
11 5 17 10 14 6 -3 10 -19 10 -36 0 -16 5 -29 10 -29 6 0 10 5 10 11 0 5 5 7
11 3 7 -4 10 -1 7 7 -6 17 15 39 38 39 10 0 14 3 11 6 -3 4 3 18 13 32 11 13
20 30 20 36 -1 6 -8 -2 -17 -18 -14 -28 -17 -28 -29 -12 -8 12 -19 16 -32 12
-35 -12 -37 23 -2 37 8 3 -8 6 -36 6 l-51 1 5 -30 c2 -16 8 -30 13 -30 5 0 6
7 3 15 -4 9 0 15 9 15 8 0 17 -7 21 -15 3 -8 2 -14 -2 -13 -22 4 -75 -34 -106
-77 -41 -56 -96 -162 -96 -184 0 -11 -3 -12 -10 -5 -8 8 -2 27 19 65 16 30 33
72 37 94 10 51 11 54 14 58 1 1 3 10 5 21 2 10 15 31 29 45 34 36 33 41 -9 41
-24 0 -35 -5 -35 -15 0 -25 -23 -65 -37 -65 -7 0 -13 -5 -13 -12 0 -6 -6 -4
-13 6 -10 13 -14 14 -14 5 0 -8 -3 -30 -6 -49 -4 -22 -4 -28 1 -16 7 17 9 17
15 3 6 -15 -15 -42 -25 -32 -3 3 -8 -9 -12 -26 -8 -40 0 -49 19 -23 8 10 15
14 15 7 0 -6 -4 -15 -10 -18 -6 -3 -10 -15 -10 -26 0 -11 -7 -22 -15 -25 -9
-4 -15 -19 -16 -38 0 -17 -11 -53 -24 -81 -21 -44 -23 -47 -24 -22 -1 15 3 27
7 27 5 0 10 24 11 52 1 29 6 57 11 62 6 6 10 15 10 20 0 6 -5 4 -11 -4 -8 -11
-9 -9 -3 10 4 14 10 26 13 28 4 1 5 27 3 57 -3 35 0 55 7 55 6 0 8 7 5 15 -4
9 0 15 9 15 11 0 14 11 13 45 l-1 45 -99 0 -99 0 7 -117 c14 -259 20 -320 27
-283 l6 35 2 -36 c0 -20 3 -58 6 -85 4 -41 3 -44 -5 -19 -7 21 -8 9 -3 -45 7
-103 5 -163 -7 -191 -9 -20 -10 -16 -5 19 4 34 3 42 -7 36 -9 -5 -8 -2 1 10
11 13 12 19 3 25 -6 4 -10 18 -7 31 2 13 1 28 -4 34 -9 11 -9 44 0 61 4 9 4
73 -1 85 -12 32 -22 175 -19 265 1 16 -4 96 -10 163 -1 17 -1945 18 -2022 0
-41 -10 -53 -10 -57 0 -5 15 -48 16 -58 1 -5 -8 1 -10 19 -5 35 8 42 -8 18
-43 -26 -37 -26 -51 -1 -51 11 0 20 5 20 11 0 6 12 9 28 7 22 -2 29 -10 37
-43 5 -22 16 -45 23 -51 12 -8 10 -17 -12 -48 -14 -22 -26 -45 -26 -52 0 -7
-16 -22 -35 -34 -19 -12 -40 -30 -45 -40 -8 -15 -5 -19 20 -24 16 -3 37 -3 46
1 14 5 15 0 9 -46 l-7 -51 26 10 c22 8 26 7 26 -10 0 -10 -5 -22 -10 -25 -5
-3 -10 -11 -10 -17 0 -5 15 -1 34 10 l34 20 7 -48 c6 -45 8 -48 25 -38 10 7
21 20 23 30 3 10 10 18 16 18 6 0 8 -7 4 -16 -4 -11 -1 -15 12 -12 13 2 21 -5
25 -22 4 -17 8 -21 14 -12 4 6 16 12 28 12 35 0 2 -28 -43 -35 -21 -4 -41 -11
-45 -16 -3 -5 10 -7 30 -3 31 4 36 2 36 -14 0 -11 -9 -31 -20 -44 -10 -14 -17
-28 -13 -31 3 -4 0 -13 -7 -22 -7 -8 -9 -22 -6 -31 4 -10 -1 -23 -12 -33 -10
-9 -24 -31 -30 -50 -15 -41 -15 -52 -1 -28 15 26 32 21 27 -8 -5 -25 7 -36 14
-13 5 14 58 2 58 -13 0 -6 -5 -7 -11 -3 -8 4 -9 -3 -4 -24 6 -27 3 -33 -24
-46 -16 -9 -37 -16 -46 -16 -8 0 -15 -5 -15 -11 0 -8 -6 -7 -17 2 -14 13 -16
11 -11 -13 3 -18 1 -25 -8 -21 -7 2 -17 -5 -23 -16 -15 -28 -14 -41 5 -34 8 3
13 12 10 19 -3 8 -1 14 4 14 6 0 10 -5 10 -10 0 -6 11 -8 26 -4 18 5 25 3 20
-4 -3 -6 7 -4 24 5 24 12 34 12 45 3 13 -11 13 -14 -1 -25 -10 -6 -14 -17 -10
-23 22 -36 -54 -78 -80 -45 -16 21 -18 10 -4 -17 7 -14 5 -19 -10 -23 -22 -6
-28 8 -7 16 6 2 8 8 4 13 -5 5 -14 1 -22 -9 -8 -12 -15 -14 -20 -8 -3 6 -14
11 -23 11 -15 0 -15 -2 -2 -10 12 -7 8 -10 -15 -10 -20 0 -35 7 -43 21 -14 22
-69 24 -64 2 1 -7 -7 -13 -18 -13 -12 0 -20 7 -20 17 0 15 -1 15 -13 -1 -13
-17 -14 -17 -20 -2 -5 12 -15 15 -42 12 -30 -4 -35 -2 -36 17 -1 17 -2 18 -6
4 -3 -10 -9 -14 -16 -10 -7 4 -6 -1 2 -11 13 -16 12 -17 -15 -10 -16 4 -34 11
-41 16 -7 5 -14 5 -18 -2 -3 -5 0 -10 8 -10 8 0 17 -7 21 -15 3 -8 1 -15 -4
-15 -6 0 -10 4 -10 9 0 5 -8 12 -19 16 -21 6 -111 -29 -111 -45 0 -5 -15 -9
-32 -9 l-33 1 30 7 30 7 -32 8 c-18 4 -33 11 -33 16 0 5 14 5 30 0 19 -5 28
-5 25 1 -4 5 -14 9 -23 9 -15 1 -15 2 2 11 14 9 20 8 27 -2 6 -10 8 -8 7 6 -2
17 -10 20 -48 22 -27 1 -38 -2 -27 -6 17 -6 17 -8 3 -20 -10 -8 -20 -10 -32
-3 -11 6 -13 11 -5 16 21 13 11 34 -25 51 -29 14 -51 16 -105 11 -38 -4 -81
-14 -96 -21 -15 -8 -29 -13 -31 -11 -2 2 0 20 3 40 8 39 19 44 49 21 33 -25
43 -16 11 9 -43 35 -28 39 34 11 62 -29 61 -29 61 -11 0 17 -76 56 -108 56
-13 0 -25 7 -28 15 -4 10 -14 13 -30 9 -18 -5 -24 -2 -24 10 0 9 -6 16 -12 16
-7 0 -22 7 -32 15 -20 15 -20 15 0 30 19 15 19 15 0 30 -11 8 -25 15 -32 15
-16 0 -26 28 -13 36 10 6 66 -2 96 -13 12 -5 14 -3 8 7 -6 10 -1 12 24 7 l31
-7 -36 40 c-21 22 -39 38 -42 36 -2 -3 9 -16 24 -30 30 -27 23 -33 -20 -16
-16 6 -26 17 -26 30 0 11 -6 20 -12 20 -9 0 -8 4 2 10 10 6 11 10 3 10 -7 0
-13 4 -13 9 0 12 102 4 109 -8 3 -4 20 -10 36 -13 17 -3 38 -9 48 -13 14 -6
12 0 -7 18 -14 14 -26 30 -26 34 0 14 -97 32 -135 26 -38 -6 -67 10 -59 32 4
8 -3 15 -18 17 -39 5 -22 22 36 37 31 7 53 17 50 22 -3 5 -32 9 -65 9 -47 0
-59 3 -59 16 0 8 5 12 11 9 14 -9 66 13 73 31 3 8 12 14 21 14 9 0 15 9 16 23
0 12 16 49 35 82 19 33 37 68 40 78 4 9 11 17 16 17 5 0 6 5 3 10 -9 14 8 12
24 -2 11 -11 11 -9 0 9 -20 34 -2 40 41 15 53 -30 61 -28 14 4 -49 33 -49 33
-41 40 3 3 30 -10 61 -30 61 -39 76 -36 21 4 -19 14 -33 30 -30 37 2 6 -4 17
-13 25 -15 12 -16 11 -3 -4 8 -11 9 -18 3 -18 -6 0 -13 4 -16 9 -8 12 4 42 14
36 5 -3 6 4 3 15 -7 27 3 25 46 -7 45 -35 121 -84 121 -78 0 9 -143 124 -150
120 -4 -2 -7 2 -7 10 0 22 29 27 46 8 15 -16 15 -16 -2 -4 -9 8 -20 11 -23 9
-5 -6 49 -48 61 -48 4 0 1 7 -6 17 -12 14 -10 14 21 -2 19 -9 46 -27 60 -39
24 -20 24 -20 7 0 -9 11 -15 23 -12 26 3 3 -11 18 -30 33 -55 41 -34 42 32 1
32 -20 62 -36 66 -36 4 0 24 -16 44 -35 20 -19 39 -32 42 -29 3 3 -28 37 -69
75 -41 37 -71 72 -67 76 5 4 17 2 27 -5 16 -10 18 -9 13 4 -5 14 -3 15 18 4
22 -12 23 -12 10 3 -11 14 -11 17 0 17 8 0 22 6 31 14 15 11 5 13 -62 12 -43
0 -76 -4 -73 -9 2 -4 13 -5 24 -2 11 4 19 2 19 -5 0 -6 -4 -9 -9 -6 -5 4 -11
0 -14 -6 -3 -9 -13 -7 -35 10 -17 12 -34 22 -39 22 -4 0 2 -6 13 -14 10 -8 16
-17 13 -20 -3 -4 -17 3 -32 14 -23 18 -40 20 -180 20 -103 0 -158 -4 -163 -11
-4 -8 -9 -7 -15 2 -7 11 -9 9 -9 -6 0 -11 -23 -42 -50 -69 -48 -48 -50 -48
-50 -23 0 17 6 27 14 27 9 0 12 7 9 20 -3 12 2 29 13 41 18 20 17 20 -175 19
l-193 -2 7 -21 c22 -75 55 -210 51 -214 -2 -3 -30 8 -61 23 -75 35 -145 102
-145 137 0 15 -4 27 -10 27 -5 0 -10 -8 -10 -17 0 -30 -54 -142 -69 -143 -8 0
-31 18 -53 39 l-38 39 -1 -26 0 -27 -10 24 c-5 14 -9 36 -8 50 1 14 1 45 1 69
l-2 43 -37 -3 -37 -3 3 -50 c2 -29 10 -59 22 -73 10 -14 19 -35 19 -47 0 -13
7 -26 15 -29 9 -3 23 -20 31 -38 l15 -33 -6 33 c-7 35 -4 37 27 21 17 -9 18
-13 7 -20 -12 -8 -12 -11 2 -22 8 -6 30 -54 48 -104 18 -51 37 -90 42 -87 13
8 11 68 -3 82 -9 9 -9 12 -1 12 19 0 23 -15 25 -89 1 -46 6 -75 15 -82 18 -16
16 -43 -5 -62 -28 -25 -49 -20 -61 14 -9 27 -9 30 4 19 29 -24 16 13 -20 59
-19 24 -35 51 -35 60 0 10 -4 21 -9 27 -5 5 -17 35 -26 68 l-18 58 -19 -38
c-15 -33 -66 -74 -105 -87 -4 -1 -8 50 -9 113 -2 128 -12 243 -25 278 -8 22
-9 22 -230 22 -188 0 -220 -2 -216 -14 3 -8 9 -31 13 -50 3 -21 12 -36 20 -36
8 0 14 5 14 10 0 17 48 11 93 -11 23 -11 55 -36 70 -55 l29 -34 -27 0 c-37 0
-113 19 -161 40 -32 15 -43 26 -49 52 -5 18 -8 39 -8 46 0 6 -3 12 -7 12 -4 0
-10 9 -13 20 -4 17 -14 20 -66 20 -59 0 -61 -1 -61 -27 0 -14 -7 -35 -17 -45
-14 -16 -14 -18 -1 -18 17 0 32 -26 23 -40 -3 -5 -1 -11 5 -15 5 -3 10 -12 10
-18 0 -7 -4 -6 -11 3 -9 12 -10 12 -5 -4 12 -36 26 -151 25 -216 0 -53 -2 -61
-11 -45 -6 10 -13 52 -16 92 -3 41 -9 76 -13 79 -5 3 -9 14 -9 24 0 31 -15 31
-52 0 l-36 -30 -5 38 c-3 20 -10 60 -15 87 -12 61 -3 75 47 75 36 0 37 1 33
30 l-4 30 -234 0 -234 0 0 -277z m609 166 c20 -11 48 -37 63 -56 23 -29 27
-45 26 -85 -3 -57 -13 -57 -52 1 -22 33 -31 40 -37 29 -4 -8 -5 -25 -2 -37 4
-18 8 -20 15 -9 7 9 8 5 4 -12 -3 -14 -6 -36 -6 -49 0 -20 -2 -21 -15 -11 -8
7 -15 20 -15 30 0 9 -11 39 -25 65 -14 26 -24 50 -21 52 2 2 7 -5 11 -16 3
-12 11 -21 16 -21 13 0 11 12 -6 38 -13 18 -13 21 -2 16 8 -3 19 -15 25 -27 7
-15 11 -17 11 -6 1 8 -13 34 -31 58 -25 35 -28 45 -17 52 18 12 16 12 58 -12z
m129 -240 c-2 -10 19 -40 46 -69 35 -37 46 -54 37 -60 -9 -5 -4 -14 17 -29 17
-12 33 -30 37 -40 3 -10 33 -29 73 -45 89 -36 133 -66 156 -107 l19 -34 -44
41 c-24 22 -80 58 -124 78 -123 59 -124 60 -143 97 -15 29 -21 34 -49 31 -17
-2 -34 2 -38 7 -3 6 0 11 8 11 23 0 27 37 7 55 -11 10 -23 14 -29 11 -15 -10
-25 15 -10 25 12 8 12 11 -1 20 -12 8 -9 9 10 3 25 -7 25 -6 6 14 -10 12 -23
19 -27 16 -5 -3 -9 -1 -9 5 0 17 25 19 43 3 10 -9 16 -23 15 -33z m4240 -171
c9 -9 12 -9 12 0 0 7 5 12 10 12 21 0 6 -51 -41 -142 -10 -20 -19 -53 -19 -72
0 -40 -8 -66 -21 -66 -5 0 -9 7 -9 15 0 8 -5 15 -10 15 -7 0 -7 -6 0 -20 11
-21 9 -110 -2 -110 -5 0 -8 -8 -8 -17 0 -10 -4 -24 -9 -32 -7 -11 -12 -3 -21
28 -6 23 -18 45 -26 48 -7 3 -14 12 -14 20 0 8 -4 11 -10 8 -14 -9 -13 -1 6
39 11 21 22 32 30 29 8 -3 14 1 14 11 0 10 5 13 18 9 15 -6 16 -5 2 13 -8 10
-18 21 -21 24 -10 9 -39 90 -39 110 0 11 4 20 9 20 5 0 9 -14 9 -30 -1 -41 6
-46 31 -21 26 26 31 26 31 -1 0 -45 19 -2 23 52 3 44 5 50 12 32 6 -18 10 -20
16 -10 5 7 6 21 3 31 -6 20 6 23 24 5z m-258 -217 c0 -6 -5 -13 -10 -16 -6 -4
-7 -11 -4 -17 4 -6 10 -5 15 3 6 10 9 3 9 -21 1 -30 2 -33 13 -19 10 13 15 14
24 4 16 -17 5 -58 -14 -51 -8 3 -12 2 -8 -3 3 -5 1 -21 -5 -36 -9 -23 -7 -31
12 -51 28 -29 38 -30 38 -5 0 12 8 21 23 24 18 4 17 4 -6 6 -16 0 -26 5 -22
11 3 6 -2 10 -12 10 -15 0 -15 2 -3 9 8 6 18 7 24 4 5 -3 6 -1 2 5 -4 6 -13 9
-21 6 -12 -5 -12 -1 -2 20 7 14 14 21 16 15 1 -6 14 -21 27 -34 26 -26 41 -72
28 -85 -5 -5 -22 -11 -38 -14 -16 -3 -33 -10 -36 -17 -5 -6 -10 -1 -14 14 -6
25 -39 48 -34 24 6 -31 -14 -67 -45 -80 -59 -27 -70 -29 -63 -11 4 10 1 14 -6
12 -7 -3 -19 2 -26 9 -12 11 -12 21 -1 58 l13 44 29 -32 c27 -30 28 -31 22 -7
-14 57 -17 95 -6 80 5 -8 7 -18 5 -22 -3 -4 2 -8 10 -8 12 0 16 11 17 38 0 20
3 31 6 23 5 -11 7 -11 14 0 7 11 9 10 9 -3 0 -25 17 -23 25 2 4 13 -1 34 -12
53 -19 32 -20 67 -2 67 5 0 9 -4 9 -9z m340 -41 c0 -11 -4 -20 -10 -20 -14 0
-13 -37 1 -46 8 -4 9 0 4 15 -3 11 -2 21 3 21 15 0 18 -57 10 -171 -4 -57 -5
-121 -2 -143 4 -27 2 -41 -7 -47 -12 -8 -12 -11 1 -18 17 -12 14 -16 -20 -25
-17 -5 -21 -4 -12 2 20 14 10 47 -13 47 -25 0 -47 -14 -39 -26 3 -5 -1 -9 -9
-9 -8 0 -17 -7 -21 -15 -4 -12 4 -15 43 -15 27 0 56 -3 65 -6 22 -9 8 -33 -16
-26 -13 3 -24 -1 -30 -12 -5 -9 -17 -16 -26 -15 -14 0 -14 2 -2 7 8 4 16 13
18 21 3 12 0 12 -12 1 -12 -9 -16 -9 -16 -1 0 7 -4 9 -10 6 -5 -3 -10 -1 -10
6 0 10 -3 10 -12 1 -16 -16 -31 -15 -25 2 4 9 -3 16 -16 20 -19 5 -20 8 -7 17
12 8 10 9 -7 4 -14 -4 -23 -2 -23 5 0 6 -4 8 -10 5 -5 -3 -10 -11 -10 -16 0
-6 4 -8 9 -5 5 3 15 -2 22 -11 11 -13 11 -17 2 -20 -15 -5 -17 -33 -3 -33 6 0
10 -4 10 -10 0 -23 -18 -7 -36 32 -21 46 -40 59 -50 33 -4 -9 1 -21 11 -29 16
-12 16 -13 1 -19 -11 -4 -16 -19 -17 -49 -1 -24 -4 -34 -6 -24 -4 15 -7 16
-14 5 -7 -11 -9 -11 -9 4 0 9 5 17 10 17 6 0 10 9 10 20 0 11 -3 19 -7 19 -20
-3 -23 2 -9 16 18 18 11 46 -10 38 -9 -3 -14 2 -14 15 0 11 -12 29 -27 40
l-27 20 44 21 c24 11 50 21 57 21 7 0 13 5 13 10 0 6 5 10 11 10 5 0 8 -4 5
-9 -3 -4 17 -9 44 -10 30 0 50 4 50 10 0 6 -7 9 -15 5 -13 -5 -14 -2 -4 16 10
18 9 20 -7 14 -18 -6 -18 -5 0 9 35 27 56 13 56 -36 0 -14 -4 -18 -12 -13 -9
5 -9 2 1 -9 21 -27 27 -20 26 32 0 27 -3 47 -7 44 -20 -11 -5 31 17 51 14 13
25 33 25 45 0 12 7 37 15 57 8 19 10 32 5 29 -6 -3 -10 1 -10 9 0 9 6 15 12
14 7 -2 14 8 16 22 5 37 10 50 22 50 5 0 10 -9 10 -20z m1675 -164 c-12 -8
-33 -12 -57 -8 -26 3 -38 1 -38 -7 0 -7 4 -10 9 -7 5 4 11 3 13 -1 1 -5 17
-16 33 -25 17 -9 30 -25 30 -34 0 -10 6 -19 13 -22 16 -5 16 -32 -1 -32 -7 0
-19 6 -26 13 -10 10 -11 9 -6 -5 4 -10 0 -24 -9 -33 -15 -16 -20 -35 -17 -63
2 -10 -8 -12 -41 -7 -23 4 -47 9 -52 12 -5 4 -6 1 -2 -5 4 -7 15 -12 25 -12 9
0 21 -4 27 -9 5 -5 18 -11 29 -14 11 -3 -4 -5 -32 -6 -29 0 -53 3 -53 8 0 5
-22 14 -50 21 -45 11 -55 19 -51 43 0 4 -3 7 -9 7 -6 0 -10 -5 -10 -12 0 -6
-13 1 -30 17 -16 16 -30 35 -30 42 0 8 -4 11 -10 8 -6 -4 -7 1 -3 11 4 11 8
13 11 6 2 -7 12 -17 23 -22 14 -8 17 -7 14 2 -4 13 63 63 73 53 3 -3 0 -5 -6
-5 -7 0 -11 -14 -11 -32 1 -27 3 -28 6 -9 4 19 7 21 14 10 7 -11 9 -8 9 9 l0
23 21 -20 c14 -13 19 -26 15 -37 -5 -14 -4 -15 9 -4 13 11 15 9 15 -11 0 -19
2 -21 10 -9 5 8 10 11 10 6 0 -5 7 -3 15 4 12 10 12 15 0 34 -8 13 -12 25 -9
29 4 3 -7 17 -22 31 l-29 26 25 19 c22 18 49 23 144 29 28 2 28 1 11 -12z
m1327 -338 c35 -33 48 -70 48 -137 0 -44 -4 -60 -16 -65 -8 -3 -12 -2 -9 4 10
16 -5 50 -21 50 -8 0 -14 5 -14 11 0 7 -9 0 -20 -14 -11 -14 -20 -33 -20 -42
0 -9 -5 -13 -11 -10 -6 4 -8 13 -5 20 6 17 -21 28 -31 12 -19 -30 -30 100 -12
136 32 61 69 73 111 35z m-105 -220 c12 -11 26 -17 32 -13 7 4 19 -11 31 -37
24 -52 26 -82 6 -75 -16 6 -66 -14 -66 -26 0 -5 -4 -5 -10 -2 -5 3 -10 2 -10
-3 0 -5 -9 -12 -20 -15 -14 -4 -20 0 -20 11 0 36 12 61 26 55 44 -17 -22 67
-82 104 -18 11 -17 12 8 12 15 1 30 6 33 11 9 14 44 3 72 -22z m-1657 -286
c12 -25 21 -32 45 -32 17 0 41 -7 54 -16 19 -14 25 -14 32 -3 7 11 9 11 9 -2
0 -9 -7 -22 -15 -29 -19 -16 -4 -30 33 -30 13 0 25 -8 29 -17 3 -10 17 -28 32
-41 l26 -23 -37 15 c-21 8 -38 13 -38 10 0 -7 23 -30 33 -32 4 -1 7 -4 7 -7 0
-3 0 -9 0 -15 0 -5 -8 -10 -17 -10 -15 0 -16 2 -3 10 9 6 10 10 3 10 -7 0 -17
-8 -23 -17 -10 -15 -11 -16 -6 -1 3 11 -3 18 -20 22 -13 4 -24 11 -24 17 0 8
-5 7 -15 -1 -8 -7 -15 -22 -15 -34 0 -11 -5 -28 -11 -36 -8 -12 -10 -12 -8 5
3 41 -1 64 -13 68 -7 2 -1 3 14 1 31 -4 33 9 5 38 -17 18 -58 17 -56 0 3 -20
-2 -32 -11 -27 -5 3 -10 1 -10 -4 0 -6 7 -11 15 -11 8 0 15 -6 15 -14 0 -7 9
-16 21 -19 12 -3 18 -10 15 -15 -3 -6 -15 -8 -26 -5 -11 3 -20 0 -20 -6 0 -6
7 -8 17 -4 11 4 14 3 9 -5 -4 -7 -17 -10 -29 -8 -12 3 -26 5 -30 5 -5 1 -5 6
-1 12 4 8 9 7 15 -2 6 -10 9 -8 9 8 0 12 -4 25 -10 28 -5 3 -10 17 -10 31 0
13 5 24 10 24 6 0 10 7 10 16 0 14 -3 14 -15 4 -8 -7 -15 -18 -15 -26 0 -7 -4
-15 -9 -18 -5 -4 -7 2 -4 13 3 13 -2 20 -21 25 -14 3 -26 11 -26 16 0 6 9 6
25 0 14 -5 25 -8 26 -7 8 21 3 56 -9 70 -8 9 -12 20 -8 25 4 4 13 -1 21 -11
11 -16 13 -16 19 -1 12 32 5 53 -26 79 -28 22 -30 24 -8 17 13 -5 31 -23 40
-40z m-1874 -68 c-3 -9 -6 -23 -6 -33 0 -17 -50 -81 -64 -81 -4 0 -15 -7 -24
-16 -14 -15 -17 -15 -30 2 -22 30 -42 81 -42 110 0 24 3 25 28 19 15 -4 48 -9
75 -10 36 -3 47 0 47 11 0 8 5 14 11 14 6 0 8 -7 5 -16z m3964 -174 c0 -11 7
-20 16 -20 8 0 12 -5 9 -10 -6 -10 2 -41 31 -123 8 -20 14 -42 14 -47 0 -20
-15 -8 -30 23 -10 22 -21 31 -34 29 -17 -3 -17 -2 -2 19 14 21 14 24 -5 37
-18 12 -22 12 -37 -1 -11 -10 -23 -13 -31 -8 -7 5 -31 6 -52 4 -26 -4 -39 -2
-39 6 0 7 9 9 26 5 18 -5 25 -3 21 3 -4 6 -23 14 -43 17 -19 4 -42 10 -50 13
-8 3 -14 0 -14 -5 0 -6 8 -13 18 -16 9 -3 -1 -3 -23 0 -22 3 -44 9 -48 14 -5
4 4 5 20 2 24 -5 26 -3 15 10 -7 9 -24 19 -39 23 -14 3 -23 8 -20 11 3 3 30
-2 61 -11 31 -9 90 -18 132 -20 72 -3 74 -2 68 19 -4 11 -11 23 -15 24 -20 8
-7 22 21 22 23 0 30 -4 30 -20z m-2589 -139 c6 10 9 10 9 1 0 -7 15 -21 33
-32 23 -14 27 -20 13 -20 -13 0 -16 -5 -11 -17 11 -30 16 -96 9 -146 -5 -39
-8 -46 -20 -36 -8 6 -14 18 -14 26 0 7 -7 16 -15 19 -8 4 -12 10 -9 15 3 5 -2
6 -10 3 -12 -5 -15 9 -14 83 0 48 3 102 7 118 l6 30 3 -29 c3 -22 6 -26 13
-15z m2183 -54 c3 4 6 1 6 -5 0 -6 19 -21 43 -33 23 -12 45 -26 48 -31 7 -10
49 29 49 44 0 5 5 6 10 3 6 -3 10 -21 10 -38 0 -63 -55 -68 -122 -12 -62 52
-56 11 7 -48 31 -29 33 -34 22 -55 -12 -21 -14 -20 -54 40 -22 35 -44 79 -48
98 -4 19 -14 44 -21 55 -25 35 -14 41 15 8 16 -17 32 -29 35 -26z m-5239 -167
c-28 -29 -28 -29 -4 -24 24 5 24 5 4 -11 -19 -16 -19 -17 -1 -13 19 3 29 16
41 53 6 19 7 19 26 -4 10 -13 19 -30 19 -37 0 -15 19 -13 88 8 24 7 37 6 47
-2 8 -7 35 -11 65 -8 27 1 50 0 50 -4 0 -14 59 -5 65 10 4 12 9 9 21 -13 10
-19 11 -31 5 -33 -13 -4 -15 -52 -2 -52 5 0 11 10 13 23 3 20 4 20 9 -5 6 -25
4 -26 -27 -23 -21 2 -35 -2 -38 -11 -3 -8 0 -14 7 -15 9 0 9 -2 -1 -6 -20 -8
-3 -23 26 -23 l27 0 -29 -15 c-15 -8 -38 -15 -50 -15 -17 0 -18 -2 -6 -9 8 -6
18 -7 22 -5 5 3 17 2 29 -1 19 -6 19 -7 -6 -31 -14 -13 -31 -24 -38 -24 -7 0
-6 -4 3 -10 13 -9 13 -11 0 -20 -9 -6 -10 -10 -3 -10 7 0 16 8 21 17 6 9 17
18 26 19 11 2 4 -13 -22 -44 -31 -38 -37 -52 -31 -72 4 -14 7 -18 8 -9 1 9 12
21 26 27 24 11 25 10 20 -16 -3 -15 -2 -21 1 -14 3 6 10 12 15 12 6 0 7 -4 4
-10 -3 -5 -1 -10 5 -10 6 0 9 -4 6 -9 -3 -5 -15 -7 -26 -4 -11 3 -20 1 -20 -5
0 -6 -23 -10 -52 -10 -52 1 -75 -4 -110 -23 -23 -12 -31 -11 -22 2 4 8 -1 9
-17 4 -12 -4 -46 -7 -75 -6 -29 0 -56 -4 -59 -9 -4 -6 -15 -8 -25 -5 -11 3
-20 0 -24 -10 -6 -17 -51 -21 -61 -5 -4 6 7 10 27 10 25 0 29 3 18 10 -16 10
-51 3 -61 -12 -4 -6 -37 -13 -74 -16 -51 -4 -69 -2 -76 9 -7 11 -9 11 -9 -3 0
-20 -15 -24 -25 -8 -3 6 -26 10 -51 10 -28 0 -44 4 -44 13 0 9 -2 9 -8 0 -9
-14 -62 -5 -62 12 0 18 -95 45 -196 55 -49 4 -124 14 -166 21 l-78 12 26 24
c14 12 34 23 45 23 33 0 21 17 -18 25 -34 6 -36 9 -20 19 10 6 26 17 35 24 15
12 14 13 -9 8 -18 -4 -26 -1 -26 9 0 8 4 12 9 9 12 -7 10 10 -3 23 -12 12 47
103 68 103 7 0 12 3 11 8 -1 4 6 21 15 39 l17 32 117 -4 c65 -1 131 -6 147
-10 24 -7 28 -5 23 8 -5 13 -2 14 25 5 23 -8 32 -8 38 3 5 7 6 17 3 22 -8 13
40 -14 49 -27 5 -8 8 -7 8 2 0 6 7 12 16 12 13 0 14 -3 5 -14 -9 -11 -6 -15
14 -18 14 -3 28 -1 31 3 3 5 -2 9 -10 9 -9 0 -16 4 -16 9 0 16 38 23 60 11 16
-9 20 -8 20 5 0 13 3 14 23 2 25 -16 112 -17 112 -2 0 18 59 88 63 75 2 -6 -8
-24 -23 -40z m4360 -77 c32 -20 45 -34 45 -50 0 -21 5 -23 48 -24 40 0 44 -2
23 -10 -23 -9 -24 -10 -5 -24 10 -8 29 -15 41 -15 13 0 24 -8 28 -20 5 -15 12
-19 26 -15 10 4 19 2 19 -3 0 -17 -50 -24 -204 -31 l-148 -6 6 74 c7 75 16
101 44 134 20 22 23 22 77 -10z m-840 -138 c36 -10 76 -7 92 7 6 5 24 8 40 6
24 -3 28 -7 26 -32 -3 -42 -29 -56 -98 -55 -33 1 -65 6 -72 11 -7 5 -17 6 -24
2 -19 -11 30 -32 68 -29 19 1 36 -2 39 -6 3 -5 18 -2 34 6 24 12 34 13 57 3
36 -16 45 -29 31 -45 -6 -7 -8 -14 -4 -14 3 -1 11 -3 16 -4 6 -1 17 -3 26 -4
21 -2 7 -21 -16 -21 -11 0 -41 -13 -67 -30 -54 -35 -60 -36 -84 -14 -17 15
-22 15 -56 1 -90 -36 -143 -61 -143 -69 0 -4 -7 -8 -15 -8 -9 0 -18 -7 -21
-15 -5 -11 -10 -13 -19 -5 -9 8 -14 5 -18 -10 -8 -31 -44 -26 -50 8 -5 21 0
31 21 47 63 47 91 78 118 129 19 37 31 51 37 43 6 -8 7 -7 4 3 -4 16 -23 18
-72 6 l-31 -7 4 41 c5 45 16 54 85 65 20 3 37 11 37 17 0 7 6 5 13 -4 6 -9 26
-19 42 -23z m427 -68 c-14 -17 18 -39 38 -27 8 5 19 6 25 2 5 -3 33 -8 60 -10
47 -3 111 -22 179 -53 27 -13 24 -14 -70 -26 -92 -11 -100 -11 -119 7 -11 10
-40 27 -65 38 -58 25 -77 46 -60 67 7 8 15 15 17 15 3 0 1 -6 -5 -13z m-392
-268 c0 -22 -11 -43 -35 -70 -19 -22 -35 -44 -35 -49 0 -15 -49 -12 -65 4 -12
12 -12 16 0 26 23 19 18 27 -19 40 -38 12 -62 46 -26 37 11 -3 20 0 21 6 0 9
2 9 5 0 5 -11 43 0 94 28 8 4 25 8 38 8 18 1 22 -4 22 -30z m443 -11 c33 -16
36 -33 5 -24 -13 3 -48 8 -78 11 l-55 6 40 -15 c22 -9 46 -14 53 -11 7 3 11 1
8 -4 -9 -14 19 -20 61 -16 l38 5 -40 -10 c-73 -18 -119 -33 -163 -53 -24 -10
-45 -17 -48 -15 -2 3 -2 30 2 61 l7 56 51 9 c73 14 89 14 119 0z m221 -180 l6
-31 26 24 26 24 21 -25 c12 -14 31 -37 42 -50 11 -14 38 -37 60 -53 39 -27 40
-27 43 -7 2 12 -2 28 -9 36 -10 12 -10 15 1 12 8 -2 18 12 24 33 l11 36 70
-47 c38 -27 73 -46 77 -44 3 2 9 0 13 -6 3 -5 17 -10 31 -10 14 0 34 -5 45
-10 15 -9 21 -7 25 5 10 25 31 0 38 -44 14 -92 -138 -231 -255 -231 -9 0 -28
11 -43 25 -15 14 -34 25 -42 25 -8 0 -53 20 -99 44 -57 30 -80 47 -73 54 16
16 1 62 -21 62 -22 0 -135 55 -150 74 -24 29 -2 46 60 46 49 0 59 -3 59 -17 0
-14 2 -15 9 -4 7 11 16 10 47 -9 33 -20 134 -102 182 -147 19 -19 24 -16 12 6
-5 11 -37 41 -70 67 -85 66 -82 72 7 12 45 -30 53 -33 53 -19 0 10 -142 97
-245 149 -57 30 -59 31 -35 41 40 16 47 13 54 -21z m-394 6 c0 -3 -7 -12 -15
-20 -8 -9 -15 -20 -15 -25 0 -5 7 -9 15 -9 25 0 17 -17 -19 -38 -33 -19 -33
-21 -22 -57 l11 -37 3 32 c3 23 10 33 30 41 31 11 70 28 92 39 8 5 14 14 12
22 -3 11 -1 11 10 0 11 -11 10 -16 -4 -26 -10 -7 -18 -18 -18 -24 0 -20 -72
-80 -134 -112 -32 -17 -61 -28 -63 -26 -3 3 -16 -7 -28 -22 -19 -22 -26 -25
-36 -14 -16 15 -33 16 -23 0 4 -6 3 -8 -3 -5 -5 3 -20 -7 -32 -24 -12 -16 -27
-29 -34 -28 -16 3 -50 -12 -59 -25 -4 -6 -10 -7 -13 -4 -4 4 -1 16 7 27 8 12
18 18 21 15 4 -4 24 9 45 28 22 20 45 37 53 40 11 4 11 14 1 59 -12 50 -12 55
7 67 11 8 30 22 42 33 12 10 30 19 40 19 27 0 77 32 88 57 9 20 41 33 41 17z
m64 -220 c8 -3 12 -12 9 -20 -10 -26 17 -44 66 -44 l46 -1 -80 -38 c-73 -35
-77 -38 -52 -45 15 -3 39 -4 55 -1 22 4 24 4 7 -4 -11 -6 -14 -10 -6 -10 10
-1 11 -4 2 -15 -9 -11 -9 -15 1 -19 7 -3 -1 -6 -19 -6 -17 -1 -44 -6 -59 -11
-33 -13 -42 -5 -26 20 14 23 16 50 3 50 -11 0 -25 -75 -16 -90 4 -6 -6 -10
-25 -10 -17 0 -29 4 -26 8 4 7 -13 11 -59 12 -11 1 -23 6 -28 13 -6 8 -7 5 -3
-7 5 -13 2 -17 -9 -12 -13 5 -20 -5 -12 -19 1 -2 -8 -12 -20 -20 -13 -9 -23
-23 -23 -31 0 -8 -5 -14 -10 -14 -6 0 -4 13 5 30 8 16 14 33 13 37 0 4 8 28
20 53 12 25 22 50 22 57 0 7 17 30 38 53 27 27 47 40 66 40 15 0 25 4 21 10
-3 6 1 7 9 4 10 -4 16 -1 16 9 0 23 40 34 74 21z m1224 -123 c17 -41 28 -111
18 -111 -4 0 -16 5 -27 10 -28 16 -25 -15 6 -56 32 -42 32 -57 -6 -88 -25 -22
-30 -31 -25 -53 9 -35 -2 -83 -20 -83 -11 0 -14 19 -14 88 l0 87 -57 61 c-94
99 -130 144 -117 144 17 0 24 25 11 40 -10 10 -7 11 13 6 14 -4 39 -9 55 -12
l30 -5 -24 14 -24 14 34 5 c19 3 36 2 39 -2 3 -4 21 -11 40 -14 33 -7 34 -6
15 9 -11 8 -24 14 -30 11 -6 -2 -11 4 -11 14 0 28 75 -35 94 -79z m-5590 -93
c2 -5 14 -8 26 -8 13 0 23 -7 24 -15 1 -8 3 -22 4 -30 1 -8 6 -15 11 -15 6 0
7 -3 4 -6 -4 -4 -14 -1 -24 7 -14 12 -16 12 -8 0 6 -11 2 -13 -23 -8 -18 4
-32 3 -32 -2 0 -5 -9 -7 -20 -4 -13 3 -20 0 -20 -8 0 -7 -13 2 -29 21 -16 19
-32 32 -37 28 -4 -5 -2 -8 5 -8 7 0 9 -4 6 -10 -3 -5 -1 -10 4 -10 6 0 11 -4
11 -8 0 -4 -13 -8 -29 -7 -22 0 -28 4 -26 17 3 14 -3 18 -26 18 -17 0 -37 6
-44 14 -12 12 -9 14 23 13 20 0 43 -5 50 -10 8 -6 12 -6 12 1 0 6 -6 15 -12
19 -7 4 -19 16 -26 25 -11 14 -11 16 3 14 8 -1 38 -24 66 -52 30 -29 47 -41
43 -29 -4 11 -19 30 -33 42 -14 12 -21 22 -15 23 6 0 17 -6 23 -13 13 -17 71
-20 71 -4 0 6 -10 22 -22 36 l-23 26 30 -25 c16 -14 31 -28 33 -32z m-528
-133 c0 -6 7 -12 15 -12 11 0 12 4 4 14 -9 10 -7 13 9 13 12 0 23 -4 27 -9 3
-5 22 -8 43 -5 l37 4 -32 -12 c-18 -6 -33 -17 -33 -26 0 -9 6 -12 16 -8 18 7
113 -39 121 -59 3 -8 15 -15 27 -15 15 0 17 -3 8 -9 -12 -7 -11 -14 2 -39 9
-17 16 -38 16 -46 0 -8 6 -21 13 -28 20 -20 27 -46 15 -50 -17 -6 0 -28 30
-40 16 -6 22 -12 14 -15 -10 -4 -10 -8 -1 -19 9 -11 8 -14 -5 -14 -9 0 -16 5
-16 11 0 6 -6 17 -14 24 -12 12 -15 12 -19 1 -3 -7 8 -28 24 -46 30 -32 33
-54 4 -30 -8 7 -15 9 -15 4 0 -5 -10 2 -21 16 l-21 25 7 -30 c4 -16 7 -30 8
-31 58 -26 82 -41 118 -74 l44 -41 -47 31 c-52 33 -53 33 -51 -27 1 -22 -11
-14 -25 15 -23 46 -24 52 -15 52 5 0 14 -12 20 -27 l12 -28 -2 28 c-2 24 -11
34 -54 56 -29 16 -59 33 -67 40 -10 8 -15 9 -18 1 -2 -6 -15 1 -28 17 -14 15
-17 21 -7 14 9 -8 20 -11 23 -9 3 3 -7 15 -22 27 -15 11 -22 21 -17 21 6 0 31
-18 56 -40 25 -22 47 -40 49 -40 3 0 4 18 4 40 0 22 -3 40 -7 40 -8 0 -32 51
-34 74 -2 17 -70 85 -86 86 -9 0 24 -69 33 -70 4 0 5 8 1 18 -3 10 5 5 21 -12
18 -20 23 -32 15 -37 -8 -5 -8 -8 0 -13 6 -4 15 -16 21 -26 8 -15 7 -19 -9
-17 -11 0 -18 4 -15 8 2 4 -5 18 -16 30 -11 13 -19 19 -20 12 0 -6 6 -14 13
-17 6 -3 1 -4 -13 -3 -20 2 -24 7 -25 32 0 19 -5 29 -12 28 -7 -2 -13 2 -13 7
0 6 -5 10 -11 10 -6 0 -10 -12 -9 -27 4 -54 0 -79 -16 -99 -8 -10 -13 -14 -10
-8 7 15 -14 93 -36 133 -11 18 -17 35 -15 38 7 7 47 -53 47 -70 0 -9 5 -19 11
-23 15 -9 3 30 -22 75 -16 27 -17 36 -7 48 10 13 6 21 -26 49 -31 27 -34 34
-19 34 11 0 25 -10 32 -22 l11 -23 -6 23 c-3 12 -1 22 5 22 6 0 7 8 4 17 -4
11 -8 12 -11 5 -6 -19 -37 -14 -63 9 -13 11 -18 18 -11 14 7 -4 12 0 12 9 0 9
7 16 15 16 20 0 19 -10 -2 -25 -15 -11 -13 -12 13 -12 16 0 24 2 17 4 -7 2
-10 10 -7 17 3 8 -1 20 -8 27 -8 8 -17 23 -22 34 -6 17 -4 17 18 -4 15 -14 26
-30 26 -36z m1387 -52 c4 -10 -14 -13 -64 -15 -37 0 -76 -1 -85 0 -10 1 -18
-3 -18 -10 0 -8 27 -9 95 -4 52 3 95 4 95 2 0 -2 2 -11 5 -18 4 -10 -2 -15
-22 -15 -15 0 -69 -2 -119 -3 -96 -3 -114 1 -114 26 0 8 -10 14 -24 14 -14 0
-25 7 -28 18 -4 16 7 17 135 17 103 0 141 -3 144 -12z m-298 -6 c6 -8 8 -17 4
-20 -3 -4 2 -9 11 -13 9 -3 16 -12 16 -19 0 -17 -281 -26 -292 -10 -17 22 2
30 78 31 43 1 95 2 114 4 32 2 33 3 10 10 -14 4 -46 5 -72 2 -31 -3 -48 -1
-48 6 0 10 35 15 131 20 20 1 41 -4 48 -11z m3988 -96 c40 -12 83 -35 53 -29
-9 2 -17 0 -18 -4 -6 -20 0 -28 21 -28 26 0 58 -24 82 -62 15 -24 19 -26 43
-16 15 7 41 22 59 35 17 13 34 23 36 23 3 0 5 -15 5 -34 0 -36 23 -87 53 -119
21 -23 24 -37 9 -37 -5 0 -10 -7 -10 -15 0 -20 -10 -19 -26 3 -12 15 -12 12
-3 -16 10 -29 9 -36 -10 -56 -27 -29 -27 -43 2 -51 65 -18 77 -27 77 -56 0
-20 4 -27 14 -23 9 4 16 -6 20 -30 5 -26 12 -36 26 -36 27 0 32 -14 12 -36
-10 -10 -28 -40 -40 -66 -23 -49 -52 -64 -52 -27 0 11 4 18 9 15 5 -3 9 10 8
28 0 19 -5 32 -10 29 -5 -3 -7 0 -5 8 6 17 -38 109 -53 109 -5 0 -8 4 -5 9 8
13 -27 54 -50 58 -10 2 -54 6 -97 10 -59 4 -81 10 -90 24 -9 14 -13 15 -24 3
-11 -10 -19 -11 -38 -2 -31 14 -21 32 14 24 17 -5 21 -4 12 2 -10 7 -10 11 -1
17 6 4 9 18 5 35 -5 22 -2 28 15 33 12 3 24 -1 30 -11 16 -28 11 -3 -6 30
l-17 32 -17 -22 c-11 -13 -24 -20 -34 -16 -11 4 -16 0 -16 -12 0 -16 -2 -17
-10 -4 -6 10 -6 16 0 18 6 2 10 8 10 14 0 6 -12 7 -31 3 -23 -5 -34 -2 -48 14
-10 11 -21 18 -25 14 -3 -3 -6 -1 -6 5 0 15 50 53 61 46 5 -3 9 0 9 6 0 7 8 9
20 5 14 -5 18 -2 15 8 -3 7 6 25 20 39 21 21 24 30 16 49 -5 13 -10 18 -10 11
-1 -7 -5 -10 -11 -7 -5 3 -7 0 -4 -9 4 -10 -4 -16 -25 -21 -30 -6 -41 -20 -22
-27 5 -1 4 -11 -3 -20 -8 -11 -17 -14 -27 -7 -12 7 -12 10 0 18 9 6 10 11 2
15 -6 4 -11 3 -11 -2 0 -5 -12 -18 -27 -27 -16 -10 -25 -15 -21 -10 4 4 -4 17
-18 30 -28 26 -31 37 -6 34 45 -4 62 1 62 21 0 13 -5 18 -15 14 -9 -4 -15 0
-15 10 0 19 11 21 27 5 9 -9 19 -9 42 0 16 7 39 10 50 6 34 -10 24 11 -11 27
-35 15 -31 15 29 -1z m-5075 -482 c5 -4 11 -18 11 -33 1 -14 7 -26 14 -26 7 0
10 7 7 15 -9 22 13 18 49 -9 18 -13 58 -31 90 -41 63 -20 72 -33 10 -16 -57
16 -65 15 -52 -8 8 -12 38 -24 91 -35 43 -9 78 -19 78 -23 0 -3 -12 -2 -27 2
-52 13 -125 16 -118 5 3 -6 -4 -10 -17 -10 -20 -1 -19 -3 12 -21 19 -11 28
-18 20 -16 -53 15 -60 15 -25 -2 22 -10 41 -15 43 -10 2 4 15 1 30 -7 15 -8
36 -14 48 -14 34 0 130 -37 171 -65 45 -32 39 -30 -47 13 -43 21 -84 34 -121
36 -31 3 -76 10 -100 17 -24 6 -81 12 -126 12 -50 0 -80 4 -76 10 3 5 22 7 42
3 25 -4 31 -2 21 4 -20 13 -80 13 -80 0 0 -7 -7 -7 -21 0 -26 14 -81 4 -58
-11 7 -5 10 -9 4 -9 -5 0 -16 4 -24 9 -11 7 -9 10 8 16 12 3 19 11 15 16 -3 6
4 7 18 4 25 -6 32 -7 126 -5 37 1 60 5 57 11 -4 5 1 9 9 9 9 0 16 5 16 10 0 9
-34 14 -77 13 -7 -1 -10 3 -7 8 2 5 -8 11 -23 15 -45 10 -50 12 -20 13 29 1
32 7 18 30 -6 9 -32 16 -71 18 -40 2 -59 0 -55 -7 3 -6 0 -7 -10 -4 -19 8 -87
-20 -134 -55 -26 -19 -33 -21 -28 -8 9 23 -6 21 -27 -2 -10 -11 -24 -17 -32
-14 -8 3 -30 -4 -49 -16 -19 -11 -35 -17 -35 -13 0 12 20 38 20 27 1 -5 7 2
15 17 10 18 21 26 35 23 21 -4 23 11 3 32 -14 15 -27 17 -18 3 3 -5 1 -10 -4
-10 -6 0 -11 5 -11 11 0 6 -7 9 -15 6 -8 -4 -17 -2 -20 3 -4 6 11 10 34 10 23
0 41 -4 41 -9 0 -5 10 -11 23 -15 18 -5 19 -8 7 -16 -10 -6 -3 -8 25 -3 22 3
48 12 57 21 10 8 24 12 33 9 8 -4 37 5 64 18 27 14 64 24 82 24 34 -2 34 -2
-6 -9 l-40 -7 40 -1 c44 -2 75 11 56 22 -15 10 -14 73 2 79 6 2 14 -6 16 -17
1 -12 8 -24 13 -27z m5283 3 c22 -9 41 -20 43 -24 2 -4 9 -5 15 -3 20 8 35 -9
42 -48 8 -42 -4 -48 -44 -20 -14 9 -21 11 -17 5 4 -7 3 -12 -3 -12 -5 0 -13 5
-16 10 -5 8 -11 7 -20 0 -8 -7 -19 -9 -25 -5 -5 3 -10 2 -10 -3 0 -18 50 -31
103 -25 44 4 55 3 60 -11 10 -26 -3 -75 -19 -69 -8 3 -14 0 -14 -6 0 -6 9 -11
19 -11 10 0 21 -7 24 -14 5 -11 -6 -17 -41 -22 -26 -3 -58 -13 -71 -21 -13 -8
-34 -13 -47 -10 -18 3 -24 0 -24 -14 0 -22 -15 -25 -34 -7 -14 13 -10 44 8 67
13 17 9 58 -10 86 -13 20 -11 125 3 148 3 5 -6 20 -18 34 l-24 25 40 -17 c22
-10 58 -25 80 -33z m-765 -36 c0 -12 4 -26 9 -31 10 -11 25 -205 16 -205 -3 0
-15 20 -26 45 -11 24 -23 47 -28 49 -9 6 11 -60 22 -70 4 -4 7 -14 7 -22 0
-12 -3 -12 -15 -2 -11 9 -15 9 -15 1 0 -6 11 -16 24 -23 25 -11 43 -38 27 -38
-5 0 -12 6 -14 13 -3 6 -6 2 -6 -10 -1 -27 -19 -40 -27 -19 -3 9 -11 16 -16
16 -7 0 -6 -5 1 -13 6 -8 8 -17 5 -20 -11 -10 -24 3 -24 24 0 12 -7 19 -19 19
-16 0 -31 18 -35 40 -1 3 -11 15 -23 27 -18 18 -22 19 -27 6 -3 -8 -3 -20 0
-26 3 -7 -2 -3 -10 7 -20 25 -20 46 -1 46 8 0 15 5 15 11 0 5 -4 8 -8 5 -5 -3
-9 1 -9 9 0 20 23 0 40 -34 7 -14 18 -26 25 -25 6 1 29 2 50 3 l37 1 -29 15
c-18 10 -32 12 -36 6 -3 -6 -12 0 -19 12 -13 19 -12 21 1 9 16 -12 21 5 33 99
5 42 16 70 25 64 4 -3 6 4 3 15 -6 22 12 28 20 8 3 -8 6 -5 6 5 1 26 21 10 21
-17z m-2805 -178 c20 0 36 -6 39 -14 5 -14 -9 -18 -47 -14 -13 1 -17 -4 -15
-17 3 -15 -4 -18 -48 -19 -28 0 -59 -4 -69 -8 -10 -3 -23 -2 -29 3 -8 6 -23 4
-44 -6 -22 -11 -43 -13 -69 -8 -32 6 -35 9 -18 15 17 8 17 9 -7 9 -21 1 -28 6
-28 21 0 17 7 20 43 20 33 0 39 -3 27 -11 -12 -9 -11 -9 5 -3 11 4 60 9 108
12 63 3 90 8 94 18 3 8 9 11 15 8 5 -3 24 -6 43 -6z m-1690 -48 c3 -5 27 -11
53 -12 37 -1 40 -2 14 -5 -29 -4 -30 -6 -17 -19 8 -9 19 -13 24 -9 5 3 30 -6
55 -20 25 -14 54 -25 65 -25 12 0 20 -4 18 -9 -1 -5 7 -16 17 -24 15 -11 16
-16 6 -22 -8 -5 -11 -4 -7 2 3 5 -12 20 -33 32 -38 21 -38 20 23 -43 34 -36
78 -72 98 -80 19 -8 41 -22 49 -30 19 -24 -6 -20 -30 4 -24 24 -49 28 -30 5 7
-8 17 -12 23 -8 6 3 7 1 3 -6 -9 -13 19 -94 46 -133 21 -30 24 -53 6 -41 -7 4
-24 6 -38 5 -19 -2 -37 10 -75 49 -43 44 -50 49 -56 33 -4 -11 -8 -14 -8 -7
-1 6 -9 14 -18 16 -14 4 -12 5 5 6 33 2 27 15 -28 61 -52 43 -60 43 -35 0 17
-30 20 -69 4 -53 -6 6 -12 19 -14 29 -1 11 -7 18 -11 17 -5 0 -16 6 -24 15
-13 14 -12 15 4 9 11 -5 16 -3 14 5 -6 17 -128 43 -147 31 -11 -7 -36 -3 -81
13 -47 16 -68 19 -78 12 -14 -12 -27 -5 -18 10 3 4 38 7 78 4 40 -2 85 -4 101
-5 15 0 27 -4 27 -9 0 -5 5 -6 10 -3 6 4 16 2 23 -3 7 -5 22 -13 34 -16 18 -6
22 -4 17 7 -7 19 -39 31 -99 36 -17 1 -18 3 -5 11 13 8 12 10 -2 10 -10 0 -18
5 -18 11 0 7 10 9 28 5 15 -4 56 -11 92 -15 36 -5 91 -18 123 -30 31 -11 57
-17 57 -13 -1 27 -132 124 -147 109 -8 -9 20 -56 36 -60 43 -10 -85 8 -164 23
-77 16 -100 26 -43 21 12 -2 16 3 12 13 -3 9 -1 16 6 16 21 0 -1 20 -23 21
-13 1 -5 5 18 11 22 5 50 7 63 5 14 -3 21 0 19 7 -2 6 -30 14 -62 18 -32 4
-61 10 -64 14 -3 3 14 4 39 0 31 -4 39 -3 25 3 -18 9 -17 10 7 10 15 1 30 -3
33 -9z m1750 -50 c4 -6 10 -8 14 -5 5 2 18 -6 31 -20 21 -22 21 -24 4 -24 -11
0 -30 -2 -44 -4 -14 -2 -34 -1 -46 4 -11 4 -43 3 -70 -2 -27 -5 -91 -11 -141
-13 -96 -3 -106 1 -79 36 10 14 31 17 107 18 52 1 117 5 144 9 73 12 73 12 80
1z m3485 -55 c7 -9 16 -12 19 -7 7 10 160 -24 176 -39 5 -6 3 -9 -7 -9 -23 0
-30 -48 -7 -55 15 -5 17 -16 14 -87 -2 -45 -8 -85 -12 -89 -5 -5 -23 -11 -40
-15 -29 -6 -32 -3 -54 40 -31 63 -46 75 -54 43 -4 -13 -2 -39 2 -58 8 -29 6
-35 -11 -44 -32 -16 -32 -78 -1 -172 15 -43 30 -80 34 -83 3 -3 18 -41 31 -84
20 -65 26 -75 31 -55 6 19 7 16 6 -12 l-2 -37 -78 40 c-45 23 -74 44 -70 50 3
6 1 8 -4 5 -6 -4 -28 3 -49 14 -22 11 -29 18 -16 15 12 -2 20 0 17 4 -3 5 2
13 10 18 13 6 14 14 6 34 -5 14 -7 28 -5 31 3 3 -1 18 -8 34 -18 35 -16 99 2
95 20 -5 30 19 18 41 -7 14 -6 26 2 43 10 17 10 27 2 37 -13 15 -19 83 -9 93
3 4 1 16 -4 27 -8 15 -8 22 2 28 7 4 17 5 22 2 5 -3 6 12 2 37 -7 40 -6 42 14
35 16 -5 21 -2 21 12 0 14 -2 15 -9 5 -6 -10 -10 -3 -15 23 -5 24 -14 39 -29
45 -20 8 -19 9 9 9 17 1 37 -6 44 -14z m-3465 -315 c3 -5 0 -10 -7 -11 -10 0
-10 -2 0 -6 6 -2 12 -14 12 -24 0 -14 -4 -18 -12 -13 -9 5 -9 2 1 -9 7 -9 11
-18 7 -18 -13 -3 -26 -7 -28 -8 -2 -1 -43 -4 -93 -5 -49 -2 -130 -7 -180 -10
-82 -6 -88 -6 -71 8 20 16 20 16 0 16 -10 0 -26 5 -34 11 -12 8 -8 9 15 5 17
-2 37 -1 45 5 12 7 9 9 -10 10 -55 3 -69 7 -84 21 -14 14 1 16 142 15 103 -1
164 3 177 11 25 14 112 16 120 2z m25 -120 c0 -5 6 -7 14 -4 15 6 28 -19 29
-56 1 -22 -4 -26 -47 -33 -36 -6 -54 -4 -71 7 -21 14 -59 11 -106 -8 -8 -4
-26 -2 -40 3 -13 5 -17 10 -9 11 9 0 3 7 -13 16 -38 20 -57 7 -26 -18 18 -15
19 -18 6 -14 -10 3 -35 7 -55 7 -31 2 -32 3 -9 6 15 2 25 9 21 14 -3 5 -10 7
-15 4 -5 -4 -9 1 -9 11 0 12 -3 14 -13 6 -9 -7 -23 -8 -43 -3 -21 7 -23 10 -9
10 18 2 18 3 -5 15 l-25 14 37 7 c20 4 43 3 50 -1 16 -10 212 -6 241 5 30 12
97 12 97 1z m-2367 -196 c8 -21 18 -38 22 -36 15 6 69 -106 91 -188 18 -69 30
-191 16 -171 -5 7 -7 21 -5 31 3 10 0 21 -6 24 -5 4 -7 14 -4 24 4 10 2 14 -3
9 -10 -10 -14 -88 -3 -82 4 3 9 -6 11 -20 7 -35 -4 -31 -26 9 -11 22 -15 42
-11 56 5 17 4 21 -6 15 -11 -6 -12 -5 -1 6 6 7 12 24 12 37 0 13 4 21 9 18 4
-3 6 6 3 19 -2 14 -9 22 -14 19 -6 -4 -7 2 -3 16 5 16 4 20 -5 15 -8 -5 -11
-1 -9 11 2 17 -5 39 -29 98 -6 14 -11 16 -16 8 -4 -7 -2 -12 3 -12 6 0 11 -10
11 -22 l0 -22 -15 21 c-8 12 -12 28 -9 36 3 10 -3 20 -15 27 -27 14 -26 10 4
-50 14 -27 25 -59 25 -70 0 -12 7 -28 15 -36 8 -8 11 -22 8 -30 -8 -21 -17 -8
-38 51 -33 95 -37 105 -46 100 -4 -3 -4 8 1 24 6 23 5 31 -7 36 -9 3 -13 8
-10 11 3 3 15 0 27 -6 21 -11 22 -10 16 13 -3 14 -9 33 -13 44 -3 10 -3 15 0
12 4 -3 13 -23 20 -45z m4832 -34 c-10 -11 -14 -20 -10 -20 5 0 4 -5 -2 -11
-6 -6 -9 -19 -5 -28 5 -14 4 -14 -11 -2 -10 8 -17 9 -17 3 0 -6 8 -15 17 -21
26 -14 9 -25 -17 -11 -25 13 -42 4 -20 -10 20 -13 57 -13 65 0 12 19 25 10 19
-14 -5 -20 -2 -25 18 -28 22 -3 22 -4 -7 -20 -24 -13 -27 -18 -14 -23 18 -7
15 -45 -3 -45 -5 0 -16 -6 -23 -12 -8 -7 -21 -19 -30 -26 -8 -7 -13 -17 -10
-23 4 -5 4 -9 1 -9 -2 0 -16 25 -30 55 -14 30 -30 55 -35 55 -6 0 -13 11 -17
25 -6 24 -7 24 -20 8 -7 -10 -14 -13 -14 -6 0 24 12 41 28 36 20 -5 49 41 46
75 0 12 3 25 7 28 5 3 9 0 9 -6 0 -15 35 -8 36 8 1 6 2 17 3 23 0 6 8 9 16 5
8 -3 15 -1 15 4 0 6 5 10 12 10 6 0 3 -9 -7 -20z m895 -65 c0 -8 5 -17 12 -21
6 -4 8 -3 4 4 -3 6 -2 13 4 17 6 3 13 -1 16 -10 4 -9 12 -14 18 -12 24 9 120
-48 140 -82 20 -36 12 -36 -27 -2 -10 8 -34 16 -52 17 -29 1 -32 -1 -18 -11
19 -14 9 -36 -15 -34 -15 1 -15 2 1 6 24 6 11 23 -19 23 -16 0 -27 8 -33 23
-10 26 -4 40 12 31 7 -4 8 -3 4 2 -5 5 -20 9 -33 9 -16 1 -21 -2 -14 -9 28
-28 -21 -37 -55 -9 -20 15 -20 15 3 10 12 -3 20 -1 16 4 -3 5 -12 9 -20 9 -18
0 -18 17 0 36 8 8 22 11 32 7 13 -5 15 -3 9 7 -5 9 -4 11 3 6 7 -4 12 -13 12
-21z m-6091 -210 c12 -33 26 -68 32 -77 15 -29 11 -36 -41 -86 -27 -26 -50
-56 -50 -66 0 -18 1 -18 18 -3 29 26 31 11 9 -49 -12 -33 -39 -75 -65 -103
-44 -47 -47 -41 -7 14 27 37 58 115 46 115 -5 0 -13 -12 -19 -28 -5 -15 -26
-54 -46 -87 -28 -45 -35 -52 -30 -30 4 17 16 50 27 75 34 80 37 90 27 90 -6 0
-10 -7 -10 -15 0 -27 -31 -79 -68 -113 -19 -18 -36 -31 -38 -30 -1 2 11 37 27
78 16 41 29 87 29 102 0 14 4 28 8 30 17 7 62 77 53 82 -5 3 -20 -11 -32 -31
-13 -21 -26 -40 -29 -43 -3 -3 -13 -36 -23 -74 -20 -78 -53 -140 -41 -77 5 25
4 32 -4 27 -7 -4 -12 -11 -12 -16 0 -5 -9 -24 -20 -42 l-21 -33 7 39 c4 21 15
62 25 90 11 28 19 57 19 65 0 8 12 38 26 67 14 29 24 58 22 63 -5 17 -56 -90
-63 -131 -3 -21 -18 -48 -34 -65 -16 -15 -39 -44 -51 -63 -33 -54 -14 2 22 64
17 27 38 78 49 111 10 33 32 79 48 100 17 22 31 46 31 53 0 10 3 10 14 0 11
-10 11 -16 2 -27 -8 -11 -8 -15 2 -18 6 -3 12 -21 12 -41 0 -28 -7 -41 -32
-62 -17 -15 -27 -29 -21 -33 5 -3 21 8 34 25 51 65 82 93 87 79 4 -11 6 -11
13 0 4 7 10 11 14 8 3 -3 -8 -24 -24 -46 -16 -22 -36 -54 -45 -70 -18 -36 -37
-115 -26 -108 4 3 11 21 14 41 9 48 27 85 37 78 5 -3 9 1 9 9 0 18 66 94 75
85 3 -3 -15 -34 -40 -67 -26 -34 -45 -66 -43 -72 2 -6 17 6 33 27 16 22 39 50
52 63 13 13 23 29 23 36 0 21 -30 85 -39 85 -13 0 -23 87 -15 123 l8 32 6 -45
c4 -25 17 -72 29 -105z m2958 -98 c12 -13 17 -141 5 -133 -6 3 -12 -3 -14 -16
-2 -17 -12 -24 -42 -30 -21 -5 -40 -7 -41 -6 -7 8 9 67 16 62 17 -10 9 7 -16
34 -14 15 -25 34 -25 44 0 9 -4 20 -10 23 -15 10 -12 23 8 28 27 6 110 2 119
-6z m-2859 -91 c-27 -24 -48 -49 -48 -56 0 -8 -8 -10 -22 -7 l-23 6 23 -19
c19 -15 21 -23 12 -39 -5 -12 -14 -30 -20 -41 -6 -11 -6 -21 0 -25 5 -3 14 12
21 35 7 22 19 42 28 45 16 5 61 64 61 79 0 5 -15 -9 -34 -30 -19 -21 -38 -36
-42 -32 -10 11 77 106 99 107 9 1 17 -4 17 -9 0 -21 -38 -85 -59 -100 -24 -17
-29 -53 -6 -44 20 8 19 2 -6 -40 -12 -20 -16 -36 -11 -36 6 0 16 13 24 30 7
17 19 30 25 30 7 0 13 -2 13 -3 0 -17 -41 -78 -77 -116 -44 -46 -44 -46 -27
-11 l17 35 -26 -23 -25 -24 -11 21 c-8 15 -9 27 -1 40 5 11 10 26 10 33 -1 7
-8 0 -16 -15 -23 -43 -26 -27 -5 29 10 27 22 60 26 74 11 36 -10 13 -23 -26
-11 -36 -61 -118 -67 -112 -3 2 9 37 25 77 17 40 30 78 31 85 0 13 139 126
154 126 6 0 -11 -20 -37 -44z"/>
<path d="M4553 4415 c-18 -8 -33 -19 -33 -25 0 -17 21 -53 39 -67 9 -7 12 -13
6 -13 -30 -1 26 -20 60 -20 l40 0 -25 20 -25 20 48 0 c62 0 59 19 -8 41 l-49
17 58 13 c36 8 52 15 44 21 -21 13 -120 8 -155 -7z"/>
<path d="M4141 3601 c-31 -29 -34 -61 -5 -61 8 0 14 -3 14 -7 0 -9 28 -11 160
-16 47 -2 99 -7 117 -11 17 -4 34 -3 37 2 9 15 -85 59 -154 72 -36 7 -74 21
-86 31 -28 26 -47 24 -83 -10z"/>
<path d="M4710 3559 c-22 -17 -30 -18 -58 -8 -40 14 -71 6 -125 -29 -64 -41
-74 -53 -40 -47 15 3 55 10 88 16 93 16 159 20 225 11 33 -5 60 -6 60 -3 0 3
-25 19 -55 35 -30 16 -55 32 -55 37 0 14 -12 10 -40 -12z"/>
<path d="M1620 688 c0 -6 8 -20 18 -31 9 -11 11 -17 5 -13 -18 10 -16 -12 6
-61 11 -23 17 -51 14 -62 -3 -14 -1 -21 9 -21 7 0 19 -15 26 -32 10 -27 14
-30 22 -18 7 11 10 12 10 2 0 -14 39 -51 54 -52 5 0 15 -8 22 -17 11 -15 13
-16 14 -2 0 8 -16 32 -35 53 -19 21 -32 42 -29 47 2 5 0 28 -7 51 -6 24 -14
37 -16 31 -7 -20 -23 -15 -23 7 0 11 -7 23 -15 26 -9 4 -13 14 -11 23 3 9 -7
30 -24 49 -32 34 -40 39 -40 20z"/>
</g>
</svg>
