<?xml version="1.0" standalone="no"?>
<!DOCTYPE svg PUBLIC "-//W3C//DTD SVG 20010904//EN"
 "http://www.w3.org/TR/2001/REC-SVG-20010904/DTD/svg10.dtd">
<svg version="1.0" xmlns="http://www.w3.org/2000/svg"
 width="300.000000pt" height="250.000000pt" viewBox="0 0 300.000000 250.000000"
 preserveAspectRatio="xMidYMid meet">

<g transform="translate(0.000000,250.000000) scale(0.100000,-0.100000)"
fill="#000000" stroke="none">
<path d="M2 2457 l-1 -42 16 33 c20 39 34 41 31 5 -3 -28 -32 -66 -42 -55 -3
3 -6 -5 -6 -17 0 -12 4 -19 10 -16 5 3 10 1 10 -4 0 -6 -4 -11 -10 -11 -7 0
-10 -247 -10 -722 0 -460 4 -718 10 -708 5 8 14 16 20 16 23 3 24 5 11 13 -7
5 -10 14 -6 21 5 8 11 5 22 -9 8 -12 19 -18 25 -15 8 5 9 1 5 -10 -4 -10 -1
-19 8 -22 8 -4 15 -13 15 -22 0 -8 2 -13 5 -10 3 3 1 27 -5 53 -6 26 -8 50 -6
53 11 10 36 -27 30 -45 -4 -13 -3 -14 3 -5 6 7 16 12 24 10 8 -2 13 4 13 15
-2 14 1 15 12 6 8 -6 14 -20 14 -30 0 -11 4 -19 8 -19 5 0 7 26 4 58 -5 56 -4
57 15 39 11 -9 31 -17 45 -17 22 0 25 4 20 25 -2 14 -8 28 -13 31 -5 3 -9 13
-9 24 0 20 -21 32 -37 22 -5 -4 -15 -16 -22 -27 -10 -16 -11 -17 -7 -2 6 18
-33 67 -54 67 -5 0 -10 7 -10 15 0 8 3 14 8 14 25 -4 42 3 43 19 0 13 2 12 9
-6 5 -12 16 -25 25 -28 8 -4 15 -12 15 -20 0 -17 17 -18 23 -1 3 9 9 9 25 0
18 -11 20 -9 18 12 0 13 -5 23 -10 22 -5 -1 -10 3 -12 8 -2 6 5 11 16 12 11 1
20 -3 20 -8 0 -6 4 -8 9 -4 6 3 8 -5 5 -18 -3 -21 -1 -24 21 -19 20 3 23 7 14
18 -12 15 -3 38 12 29 5 -4 9 -2 9 4 0 5 -6 11 -12 14 -23 8 2 21 41 21 22 1
43 4 47 9 12 11 34 8 31 -5 -1 -6 9 -17 22 -24 20 -10 28 -10 46 2 19 12 24
12 43 -6 17 -16 26 -18 41 -11 10 6 28 9 40 6 24 -4 38 10 16 19 -8 3 -15 15
-15 27 0 18 2 19 15 9 12 -10 16 -9 21 4 3 9 11 16 18 15 6 -1 20 -1 30 0 16
1 17 4 8 13 -13 13 -16 29 -4 27 20 -3 31 3 46 26 16 25 16 25 -10 13 -21 -10
-27 -9 -35 3 -10 16 18 42 38 35 7 -3 15 -1 19 5 3 6 -3 13 -15 16 -23 6 -28
19 -8 26 7 2 8 8 3 13 -5 5 -11 4 -13 -3 -3 -7 -16 -13 -29 -13 -13 0 -24 -5
-24 -10 0 -6 -6 -5 -14 2 -7 7 -11 19 -9 26 4 8 0 10 -11 6 -10 -4 -15 -13
-12 -20 3 -8 9 -21 12 -29 5 -11 2 -13 -11 -9 -12 5 -16 16 -13 40 2 19 0 34
-4 34 -4 0 -9 -8 -10 -17 0 -10 -2 -22 -3 -28 -2 -5 -3 -16 -4 -22 0 -7 -5
-13 -11 -13 -5 0 -7 7 -4 15 4 8 1 15 -4 15 -6 0 -13 -8 -16 -17 -3 -10 -4 1
-3 24 3 47 -11 45 -17 -2 -1 -17 -13 -47 -25 -68 -12 -21 -19 -42 -16 -48 4
-5 1 -17 -4 -26 -9 -16 -10 -15 -11 7 0 18 -3 21 -9 11 -10 -15 -51 -6 -51 11
0 5 6 8 13 5 6 -2 25 8 42 24 25 24 27 29 13 34 -12 5 -15 12 -8 23 21 40 24
70 8 65 -5 -2 -8 11 -8 28 0 29 -2 30 -17 18 -16 -12 -17 -12 -5 2 7 9 10 24
6 33 -3 9 -1 16 5 16 6 0 11 8 11 18 0 26 -56 29 -63 3 -3 -14 -1 -18 9 -14 8
3 14 10 14 16 0 7 5 6 13 -2 10 -10 8 -15 -7 -26 -10 -8 -16 -20 -14 -27 5
-14 -19 -37 -40 -38 -10 0 -9 4 2 16 17 17 19 27 10 62 -6 21 -7 21 -20 5 -12
-16 -13 -16 -14 -2 0 19 24 42 34 32 4 -4 9 3 13 15 6 25 7 26 34 11 19 -9 19
-9 10 10 -8 14 -8 22 0 26 6 4 8 14 5 22 -3 8 -2 11 3 8 5 -3 12 -1 15 4 3 5
-1 12 -9 15 -17 6 -16 58 1 89 19 33 48 8 47 -40 -1 -7 3 -13 8 -13 5 0 9 -6
9 -12 -1 -7 -9 -3 -19 9 l-19 23 -18 -28 c-17 -27 -17 -27 3 -9 19 16 21 16
27 2 8 -22 8 -27 -3 -21 -4 3 -6 -6 -3 -19 3 -19 10 -25 31 -24 25 0 25 0 4 9
-13 5 -23 12 -23 16 0 3 6 4 14 1 8 -3 17 7 24 29 6 19 6 34 1 34 -14 0 -11
20 5 36 8 7 16 19 19 26 2 7 8 10 12 6 4 -4 0 -14 -9 -23 -18 -19 -21 -35 -5
-35 5 0 8 -4 5 -8 -3 -5 -6 -28 -8 -51 -1 -24 -8 -45 -15 -48 -7 -3 -13 -9
-13 -14 0 -5 11 -2 24 6 13 9 28 14 32 13 15 -5 56 43 50 58 -7 17 10 19 17 2
4 -10 7 -10 15 0 7 11 12 11 25 -2 14 -14 16 -14 21 0 4 10 14 14 26 11 11 -3
17 -1 14 4 -3 5 2 12 10 15 9 3 16 12 16 20 0 24 16 16 27 -13 l10 -28 11 28
c10 24 17 27 47 25 21 -1 35 -7 35 -15 0 -7 5 -13 10 -13 6 0 10 5 10 12 0 9
3 9 11 1 13 -13 39 -6 39 11 -1 16 -32 51 -53 59 -13 5 -16 13 -12 26 3 11 1
22 -5 26 -6 4 -10 -8 -10 -32 l-1 -38 -24 28 c-13 15 -29 27 -35 27 -5 0 -10
11 -10 25 0 16 6 25 15 25 12 0 13 4 5 19 -12 24 -13 34 -1 27 5 -3 14 1 21 9
7 8 19 15 26 15 8 0 16 11 20 25 3 14 10 25 15 25 5 0 6 -7 3 -15 -4 -8 -2
-15 4 -15 14 0 23 -42 12 -55 -12 -15 -3 -25 16 -18 10 4 12 0 8 -11 -3 -9
-11 -13 -16 -10 -6 4 -8 1 -6 -7 6 -16 37 -13 57 6 11 11 11 20 2 46 -14 42
-5 51 22 19 11 -14 18 -18 14 -9 -3 11 4 26 20 40 24 22 25 22 18 4 -39 -103
-60 -205 -57 -278 3 -48 -15 -117 -30 -117 -4 0 -12 -9 -18 -20 -8 -16 -8 -18
4 -14 13 5 13 1 3 -25 -13 -36 -27 -41 -21 -8 2 12 -1 6 -7 -13 -6 -19 -14
-42 -17 -50 -3 -8 -4 -21 -3 -28 1 -7 -12 -18 -28 -25 -17 -6 -31 -15 -31 -20
0 -5 -27 -37 -60 -71 -33 -35 -60 -72 -60 -83 0 -11 -7 -26 -15 -33 -8 -7 -14
-18 -13 -24 4 -14 -15 -76 -58 -196 -19 -52 -37 -111 -40 -130 -4 -19 -15 -44
-24 -55 -15 -17 -35 -75 -54 -160 -2 -11 -2 52 1 141 4 115 3 163 -6 168 -6 4
-11 2 -11 -3 0 -6 -6 -11 -12 -11 -9 0 -13 -18 -14 -53 0 -28 -6 -97 -13 -152
-8 -55 -15 -120 -18 -145 -3 -25 -9 -49 -14 -54 -5 -6 -9 -25 -9 -43 0 -32 -1
-33 -40 -33 -22 0 -40 4 -40 9 0 4 11 6 24 4 13 -3 27 0 30 6 4 6 2 11 -4 11
-7 0 -10 7 -6 15 4 11 -1 15 -19 15 -21 0 -25 5 -25 28 0 15 -7 37 -15 49 -12
16 -12 22 -2 26 6 3 0 6 -14 6 -15 1 -32 -6 -39 -14 -18 -22 -32 -18 -25 6 7
20 6 20 -15 2 -12 -10 -30 -31 -40 -46 -10 -16 -21 -24 -24 -18 -4 5 3 19 15
30 24 22 19 56 -11 64 -13 3 -17 1 -13 -9 3 -8 0 -14 -6 -14 -6 0 -11 6 -11
13 0 6 -5 4 -11 -5 -9 -17 -11 -17 -32 2 -12 11 -27 18 -34 16 -7 -3 -13 -2
-13 3 0 12 29 35 47 37 8 2 28 16 45 32 30 31 24 49 -12 37 -15 -5 -18 -3 -14
9 4 11 0 16 -15 16 -12 0 -21 -5 -21 -12 0 -6 -7 -3 -15 8 -15 19 -15 19 -8 0
5 -16 3 -18 -13 -12 -15 6 -17 5 -7 -5 20 -20 15 -30 -6 -12 -11 9 -17 23 -14
32 4 14 3 14 -6 1 -7 -11 -6 -21 5 -37 17 -27 12 -29 -16 -6 -22 19 -27 43 -9
43 8 0 7 5 -1 15 -11 13 -15 13 -22 3 -6 -10 -10 -10 -18 2 -8 12 -10 12 -10
1 0 -11 -3 -11 -17 0 -15 12 -16 12 -10 -3 3 -10 2 -20 -2 -23 -5 -3 -14 9
-20 27 -14 40 -14 43 4 28 12 -10 15 -10 15 3 0 15 -34 30 -44 19 -11 -10 -5
-77 8 -94 7 -10 15 -15 18 -13 3 3 36 -10 74 -29 38 -19 63 -36 57 -37 -7 -1
-17 -2 -22 -3 -5 0 -13 -4 -17 -9 -4 -4 -14 -7 -23 -7 -9 0 -29 -7 -45 -15
-41 -22 -53 -18 -27 6 13 12 37 23 54 25 44 6 47 14 4 14 -19 0 -37 4 -39 9
-2 5 -13 5 -25 0 -20 -7 -23 -16 -23 -63 0 -34 5 -57 13 -60 9 -5 9 -7 -1 -12
-9 -4 -12 -75 -12 -305 l0 -299 304 0 304 0 6 31 c3 17 6 49 6 71 0 34 -3 39
-17 33 -34 -12 -114 -27 -120 -21 -7 6 0 9 80 31 52 15 57 19 57 44 0 23 -7
31 -37 44 l-38 15 40 -1 c34 -2 40 1 40 18 0 11 -6 23 -15 27 -12 5 -12 7 3 7
35 2 16 30 -32 46 -27 9 -55 22 -61 30 -8 9 9 6 47 -9 l58 -24 6 31 c4 24 -1
40 -18 65 -26 34 -21 42 9 15 17 -15 18 -14 18 31 0 29 4 45 10 41 6 -4 8 -27
4 -58 l-6 -52 67 -60 c42 -38 74 -59 86 -57 10 2 19 -2 19 -7 0 -6 8 -11 18
-11 13 0 14 2 3 9 -8 5 -9 11 -3 15 6 3 13 2 17 -4 3 -5 11 -10 18 -10 8 0 8
3 -1 12 -9 9 -4 16 19 30 17 11 34 17 36 14 3 -3 1 -25 -6 -50 -6 -24 -13 -61
-16 -83 -8 -54 -13 -65 -27 -57 -8 5 -9 2 -5 -9 4 -10 2 -17 -5 -17 -7 0 -6
-5 2 -15 12 -14 7 -15 -40 -11 -48 4 -51 4 -34 -10 18 -15 18 -15 1 -10 -10 3
-26 6 -35 6 -33 0 -45 15 -32 39 9 18 17 21 41 16 32 -7 36 2 14 31 -11 14
-14 15 -9 2 5 -14 -1 -16 -31 -14 -20 2 -55 -1 -76 -7 l-39 -9 -1 -59 c-1 -33
-2 -65 -3 -71 -1 -14 101 -20 110 -7 3 5 -2 6 -11 3 -21 -8 -51 16 -33 27 7 4
16 3 19 -3 5 -8 15 -6 33 5 14 9 34 17 45 17 10 0 21 6 24 14 7 17 48 17 59 1
14 -18 8 -25 -14 -20 -15 3 -32 -3 -50 -20 -34 -29 -34 -33 -5 -31 15 1 21 7
19 19 -2 12 4 17 23 17 26 0 35 -24 13 -33 -7 -3 145 -6 339 -6 195 -1 354 3
357 8 8 12 -20 34 -33 27 -6 -4 -8 13 -6 44 3 38 1 50 -10 50 -8 0 -19 -8 -24
-19 -12 -22 -59 -20 -77 3 -15 21 -48 21 -40 1 8 -22 -2 -18 -14 6 -22 40 -22
105 0 175 38 126 72 156 170 156 67 -1 87 -8 139 -50 24 -20 42 -29 39 -21 -8
23 -83 71 -133 84 -81 20 -235 -14 -235 -52 0 -8 -5 -11 -10 -8 -14 9 27 65
46 65 11 0 13 6 9 22 -6 17 -4 20 10 14 14 -5 16 -2 11 19 -4 16 -2 25 5 25 8
0 10 -12 6 -35 -3 -19 -1 -37 4 -40 5 -4 9 -2 9 3 0 5 12 7 26 4 15 -3 29 1
34 8 6 9 12 9 29 1 17 -10 21 -9 21 4 0 16 -8 18 -54 15 -19 -1 -26 2 -21 10
5 8 23 10 51 6 27 -3 42 -1 39 4 -4 6 -11 10 -16 10 -5 0 -20 9 -32 21 l-22
20 28 -10 c16 -6 32 -9 37 -6 11 7 40 -5 40 -16 0 -4 -8 -6 -17 -2 -17 6 -17
5 0 -14 9 -11 17 -27 17 -36 0 -9 4 -18 10 -22 5 -3 7 9 4 32 l-4 38 41 -45
40 -45 -31 48 c-17 26 -40 53 -51 60 -10 6 -19 17 -19 23 0 6 -16 29 -35 50
-19 21 -35 43 -35 50 0 20 26 23 50 7 l22 -16 -17 27 c-9 14 -20 24 -24 22 -3
-2 -6 12 -7 31 0 25 2 30 8 19 14 -25 31 -19 17 5 -8 16 -8 20 0 14 7 -4 19
-24 28 -46 8 -21 19 -39 23 -39 5 0 14 -25 20 -56 15 -72 64 -218 90 -269 11
-21 20 -52 20 -68 0 -40 59 -162 109 -225 44 -55 48 -73 13 -51 -23 14 -82 1
-117 -25 -18 -14 50 -15 623 -16 l642 0 0 49 0 50 -43 6 c-27 4 -68 0 -112
-11 -66 -15 -202 -28 -191 -17 2 3 33 16 68 29 35 12 55 23 45 23 -36 2 -173
-31 -231 -55 -33 -13 -61 -22 -63 -20 -13 13 38 47 86 57 60 13 96 33 46 25
-17 -3 -62 -7 -101 -10 -39 -3 -116 -19 -172 -36 -113 -34 -112 -33 -112 -21
0 5 24 15 53 24 28 8 43 16 32 16 -11 1 -35 -3 -53 -8 -39 -12 -43 3 -5 18
l28 10 -30 -1 c-47 -2 -65 1 -65 11 0 5 19 7 42 4 29 -4 39 -3 34 5 -4 7 -21
12 -38 12 -25 0 -29 3 -25 20 6 24 -24 108 -44 121 -8 4 -14 13 -14 18 0 5
-17 27 -37 50 l-36 41 25 20 c14 11 29 18 33 15 4 -2 16 5 26 18 l19 22 -23
-19 c-26 -23 -28 -15 -6 20 21 31 28 78 28 171 0 57 -4 77 -19 95 l-20 23 23
-20 23 -19 -4 29 c-2 17 0 40 4 52 6 16 2 29 -14 50 l-21 28 21 -18 22 -19 8
64 c4 34 7 70 5 78 -1 8 -5 49 -8 90 -9 123 -58 261 -86 244 -6 -4 -8 -2 -5 3
8 13 -38 45 -61 42 -26 -4 -132 21 -132 31 0 5 -14 11 -31 15 -17 4 -53 29
-81 56 -50 48 -52 49 -72 32 -33 -28 -67 -45 -74 -37 -4 4 -2 9 5 11 8 3 10
15 7 33 -5 24 -1 31 32 54 21 14 48 26 59 26 11 0 31 9 44 19 14 10 32 17 40
14 10 -4 9 0 -4 10 -11 9 -27 17 -36 17 -52 1 -70 139 -27 208 12 20 16 32 10
28 -7 -4 -12 -2 -12 4 0 8 13 10 43 5 54 -9 57 -11 57 -41 0 -35 23 -40 59
-13 39 29 39 40 1 29 -37 -11 -39 -5 -3 13 26 14 26 15 5 21 -13 4 -19 12 -16
18 5 7 0 9 -14 6 -22 -6 -25 0 -37 77 -3 17 -18 41 -34 55 -28 25 -45 56 -43
76 1 5 -11 23 -28 39 -16 16 -30 36 -30 45 0 26 -32 48 -68 45 -18 -1 -37 4
-43 11 -8 10 -18 10 -51 -2 -22 -7 -44 -11 -49 -8 -11 7 -79 -17 -79 -28 0 -5
-10 -6 -23 -3 -14 4 -30 -1 -42 -12 -11 -10 -45 -35 -76 -56 -31 -21 -62 -49
-69 -61 -6 -13 -18 -23 -26 -23 -22 0 -17 9 29 50 39 35 34 43 -5 9 -11 -9
-18 -11 -18 -4 0 6 14 21 30 34 27 19 45 58 20 43 -16 -10 -12 12 5 29 19 19
19 37 0 30 -8 -4 -15 -1 -15 4 0 6 -7 18 -16 27 -12 11 -14 19 -6 27 6 6 8 18
5 27 -4 14 -3 14 6 1 8 -12 11 -12 17 3 3 9 12 17 20 17 7 0 11 -6 8 -14 -3
-8 -1 -17 5 -21 18 -10 12 -27 -7 -21 -13 4 -18 1 -18 -13 0 -12 5 -17 15 -13
9 3 12 1 7 -6 -7 -12 33 -44 46 -36 14 9 9 24 -7 18 -9 -4 -15 0 -15 10 0 9 4
16 10 16 5 0 7 7 4 15 -9 21 12 19 36 -5 11 -11 26 -20 34 -20 8 0 18 -5 21
-10 8 -12 35 -9 51 5 7 6 9 14 6 19 -3 5 -1 7 4 3 12 -7 38 13 49 38 8 17 9
16 13 -12 4 -37 16 -41 44 -16 13 12 21 14 29 6 14 -14 39 -6 58 16 12 14 12
13 6 -7 -8 -29 17 -40 51 -22 13 8 27 10 31 7 3 -4 1 -7 -6 -7 -7 0 -9 -5 -6
-10 3 -6 18 -7 33 -3 24 6 26 5 13 -10 -11 -15 -11 -17 2 -17 9 0 19 9 22 20
8 26 21 25 29 -2 7 -22 7 -22 16 -3 5 11 9 15 9 8 1 -7 7 -10 15 -7 8 3 12 12
10 19 -8 20 17 30 28 11 12 -22 28 -20 28 4 0 11 -4 20 -10 20 -5 0 -10 5 -10
10 0 19 15 10 38 -23 23 -35 28 -52 12 -42 -5 3 -10 1 -10 -4 0 -6 6 -11 13
-11 6 0 4 -5 -7 -11 -14 -9 -21 -8 -28 2 -7 10 -8 7 -4 -11 3 -14 3 -41 0 -61
-6 -36 -7 -37 -37 -28 -21 6 -35 5 -42 -2 -7 -8 -6 -13 3 -16 15 -6 16 -45 1
-60 -7 -7 -6 -20 4 -44 7 -19 12 -39 10 -46 -2 -6 1 -14 6 -18 6 -3 11 0 11 7
0 10 2 11 8 0 11 -17 62 22 62 47 0 10 9 26 20 36 12 11 20 13 20 6 0 -9 5 -9
21 0 15 8 20 18 16 35 -2 14 0 27 5 30 5 4 7 22 3 41 -5 29 -3 35 13 40 14 3
18 11 14 25 -3 14 -1 19 6 14 7 -4 12 -2 12 3 0 6 4 11 9 11 12 0 24 -32 14
-39 -16 -11 -15 -67 1 -81 14 -11 16 -9 16 17 0 16 9 46 20 67 l19 39 -22 18
c-12 10 -17 18 -10 19 7 0 10 7 6 16 -4 12 0 14 19 9 31 -8 49 23 22 38 -13 8
-14 11 -3 18 12 8 12 11 -1 19 -10 6 -11 10 -2 10 6 0 12 8 12 18 -1 14 -4 13
-21 -7 -12 -15 -23 -21 -27 -14 -4 5 -14 13 -22 16 -10 3 -6 6 10 7 l25 1 -25
10 c-20 8 -27 6 -39 -8 -13 -17 -13 -17 -8 4 9 40 -11 44 -205 42 -100 -1
-177 -4 -170 -6 6 -3 12 -9 12 -14 0 -6 -4 -7 -10 -4 -13 8 -24 -38 -15 -64 7
-22 -1 -26 -23 -13 -9 6 -10 16 -3 34 7 19 6 29 -7 43 -9 10 -11 15 -4 11 6
-4 12 -2 12 3 0 7 -23 11 -54 11 -63 0 -84 -16 -66 -51 10 -17 9 -20 -2 -17
-7 3 -12 18 -12 37 2 29 0 31 -33 31 -20 0 -32 -4 -28 -10 8 -14 -18 -13 -32
1 -6 6 -19 9 -29 6 -15 -4 -14 -5 5 -6 20 -1 22 -5 17 -27 -18 -69 -19 -86 -5
-94 16 -10 12 -15 -18 -24 -18 -6 -23 -3 -23 11 0 11 -5 24 -12 31 -6 6 -8 15
-4 19 4 4 11 2 15 -6 6 -10 10 -9 15 4 8 21 -13 43 -36 37 -19 -5 -22 5 -12
32 3 9 10 14 14 11 5 -3 11 -1 15 5 4 6 -28 10 -93 10 -76 0 -102 -4 -112 -15
-7 -8 -21 -15 -31 -15 -11 0 -19 -4 -19 -10 0 -5 -5 -10 -10 -10 -6 0 -8 11
-4 25 l6 25 -559 0 -559 0 -2 -43z m530 1 c-7 -7 -12 -8 -12 -2 0 14 12 26 19
19 2 -3 -1 -11 -7 -17z m749 -1 c-10 -9 -11 -8 -5 6 3 10 9 15 12 12 3 -3 0
-11 -7 -18z m339 8 c7 -9 8 -15 2 -15 -5 0 -12 7 -16 15 -3 8 -4 15 -2 15 2 0
9 -7 16 -15z m440 -5 c8 -5 11 -10 5 -10 -5 0 -17 5 -25 10 -8 5 -10 10 -5 10
6 0 17 -5 25 -10z m-1210 -31 c0 6 5 11 10 11 6 0 10 -9 10 -20 0 -11 6 -29
13 -40 10 -17 9 -22 -2 -29 -17 -11 -43 -3 -35 11 4 6 10 5 16 -3 6 -10 7 -6
3 11 -11 39 -22 45 -49 26 -30 -19 -36 -20 -36 -5 0 5 5 7 10 4 14 -9 13 8 -2
23 -15 15 -3 15 24 1 18 -10 20 -9 14 6 -5 15 -4 16 9 5 10 -8 15 -9 15 -1z
m110 -14 c-7 -9 -15 -13 -17 -11 -7 7 7 26 19 26 6 0 6 -6 -2 -15z m543 -16
c-7 -27 -23 -24 -21 5 1 14 7 22 14 19 6 -2 10 -13 7 -24z m487 10 c0 -6 -7
-17 -15 -25 -13 -14 -13 -17 0 -30 8 -9 15 -18 15 -22 0 -4 -10 3 -22 15 -17
17 -19 25 -10 36 7 8 9 17 6 20 -3 3 -3 11 1 16 7 13 25 5 25 -10z m-1061 -13
c12 -21 11 -26 -8 -45 -12 -12 -27 -21 -33 -21 -7 0 -2 9 12 20 14 11 19 20
13 20 -7 0 -13 7 -13 15 0 8 -5 15 -11 15 -5 0 -7 5 -4 10 11 17 31 11 44 -14z
m417 -22 c-4 -9 -9 -15 -11 -12 -3 3 -3 13 1 22 4 9 9 15 11 12 3 -3 3 -13 -1
-22z m224 10 c0 -3 -7 -12 -15 -20 -16 -17 -18 -14 -9 10 6 15 24 23 24 10z
m-1250 -34 c0 -5 -2 -10 -4 -10 -3 0 -8 5 -11 10 -3 6 -1 10 4 10 6 0 11 -4
11 -10z m1060 -20 c0 -5 -2 -10 -4 -10 -3 0 -8 5 -11 10 -3 6 -1 10 4 10 6 0
11 -4 11 -10z m-1265 -30 c3 -5 1 -10 -4 -10 -6 0 -11 5 -11 10 0 6 2 10 4 10
3 0 8 -4 11 -10z m805 -20 c0 -5 -4 -10 -10 -10 -5 0 -10 5 -10 10 0 6 5 10
10 10 6 0 10 -4 10 -10z m-60 -42 c0 6 7 12 15 12 12 0 13 -5 4 -26 -11 -31
-8 -37 15 -28 9 4 15 12 12 19 -11 29 9 23 25 -7 l17 -33 9 34 c10 38 27 51
36 26 4 -8 -2 -23 -12 -32 -10 -10 -21 -27 -25 -37 -5 -16 -4 -17 9 -6 12 10
15 10 15 -4 0 -9 -6 -16 -14 -16 -7 0 -19 -7 -26 -15 -7 -8 -16 -15 -21 -15
-5 0 -6 7 -3 15 4 8 1 15 -5 15 -6 0 -11 -4 -11 -10 0 -5 -5 -10 -11 -10 -5 0
-8 4 -5 9 8 13 -4 42 -15 35 -5 -3 -12 1 -15 9 -3 9 -14 13 -27 10 -18 -3 -16
-1 7 12 21 12 25 20 17 28 -6 6 -11 16 -11 22 0 5 5 3 10 -5 6 -10 10 -11 10
-2z m-573 -30 c-3 -8 -6 -5 -6 6 -1 11 2 17 5 13 3 -3 4 -12 1 -19z m473 18
c0 -3 -4 -8 -10 -11 -5 -3 -10 -1 -10 4 0 6 5 11 10 11 6 0 10 -2 10 -4z m-44
-53 c-10 -10 -19 5 -10 18 6 11 8 11 12 0 2 -7 1 -15 -2 -18z m327 -16 c-3 -5
-9 -3 -14 4 -4 7 -5 17 -2 22 3 5 9 3 14 -4 4 -7 5 -17 2 -22z m47 -68 c0 -5
-9 -9 -20 -9 -13 0 -18 5 -14 14 6 15 34 11 34 -5z m44 -24 c17 -26 13 -49 -7
-42 -24 9 -44 -12 -40 -40 3 -25 1 -23 -17 11 -24 47 -24 46 -4 46 9 0 14 6
11 13 -3 11 19 36 34 37 4 0 14 -11 23 -25z m-528 -1 c-3 -9 -6 -18 -6 -20 0
-2 -7 -4 -15 -4 -18 0 -19 6 -2 25 16 19 31 19 23 -1z m286 -8 c4 -6 7 -22 7
-36 -1 -22 -2 -22 -11 8 -13 38 -21 40 -36 10 -10 -22 -11 -21 -11 9 -1 27 2
30 22 25 12 -3 25 -10 29 -16z m1016 -17 c4 -24 3 -24 -12 -4 -19 24 -20 38
-3 33 6 -3 13 -15 15 -29z m42 0 c0 -5 -4 -9 -10 -9 -5 0 -10 7 -10 16 0 8 5
12 10 9 6 -3 10 -10 10 -16z m-1383 -41 c-3 -8 -6 -5 -6 6 -1 11 2 17 5 13 3
-3 4 -12 1 -19z m-360 -40 c-3 -8 -6 -5 -6 6 -1 11 2 17 5 13 3 -3 4 -12 1
-19z m507 -14 c3 -8 2 -12 -4 -9 -6 3 -10 10 -10 16 0 14 7 11 14 -7z m-35
-66 c1 15 21 16 21 1 0 -14 -30 -38 -46 -39 -8 0 -8 13 0 48 l11 47 6 -35 c4
-19 7 -29 8 -22z m-42 20 c-3 -8 -6 -5 -6 6 -1 11 2 17 5 13 3 -3 4 -12 1 -19z
m-317 -8 c0 -5 -2 -10 -4 -10 -3 0 -8 5 -11 10 -3 6 -1 10 4 10 6 0 11 -4 11
-10z m255 -28 c-8 -8 -25 10 -19 20 4 6 9 5 15 -3 4 -7 6 -15 4 -17z m-155 -2
c0 -5 -5 -10 -11 -10 -5 0 -7 5 -4 10 3 6 8 10 11 10 2 0 4 -4 4 -10z m177
-32 c-3 -7 -5 -2 -5 12 0 14 2 19 5 13 2 -7 2 -19 0 -25z m437 -28 c-6 -6 -10
-2 -11 12 -2 16 1 18 10 9 7 -7 8 -14 1 -21z m-713 3 c0 -10 2 -26 4 -35 2
-10 -1 -20 -6 -24 -5 -3 -9 6 -9 20 0 13 -3 31 -6 40 -3 9 -1 16 5 16 6 0 11
-8 12 -17z m149 -7 c0 -8 -4 -18 -10 -21 -5 -3 -10 -12 -10 -18 0 -7 4 -6 10
3 5 8 10 10 10 5 0 -13 -21 -35 -33 -35 -8 0 -1 55 10 73 7 12 23 8 23 -7z
m386 -23 c-10 -10 -19 5 -10 18 6 11 8 11 12 0 2 -7 1 -15 -2 -18z m-570 -30
c-11 -11 -19 6 -11 24 8 17 8 17 12 0 3 -10 2 -21 -1 -24z m-83 -35 c4 -12 2
-15 -9 -11 -7 3 -14 11 -14 19 0 8 -3 13 -7 13 -28 -5 -36 2 -18 15 17 12 21
12 31 -2 6 -10 13 -25 17 -34z m170 22 c3 -11 1 -18 -4 -14 -5 3 -9 12 -9 20
0 20 7 17 13 -6z m147 -10 c-6 -12 -14 -20 -17 -17 -2 3 1 14 8 26 17 26 24
19 9 -9z m-290 10 c0 -5 -5 -10 -11 -10 -5 0 -7 5 -4 10 3 6 8 10 11 10 2 0 4
-4 4 -10z m260 -19 c0 -10 -6 -21 -13 -24 -16 -6 -19 25 -3 35 15 11 16 10 16
-11z m-350 -16 c0 -8 -4 -15 -10 -15 -5 0 -7 7 -4 15 4 8 8 15 10 15 2 0 4 -7
4 -15z m310 5 c0 -5 -5 -10 -11 -10 -5 0 -7 5 -4 10 3 6 8 10 11 10 2 0 4 -4
4 -10z m-280 -15 c0 -8 -4 -15 -10 -15 -5 0 -7 7 -4 15 4 8 8 15 10 15 2 0 4
-7 4 -15z m104 -15 c13 -27 13 -30 -2 -30 -12 0 -17 9 -17 30 0 17 1 30 2 30
1 0 8 -13 17 -30z m-237 -2 c-3 -8 -6 -5 -6 6 -1 11 2 17 5 13 3 -3 4 -12 1
-19z m388 -48 c-3 -6 -11 -10 -18 -10 -8 0 -8 3 0 11 6 6 9 19 6 28 -4 13 -2
13 7 -2 6 -9 8 -22 5 -27z m55 36 c0 -3 -4 -8 -10 -11 -5 -3 -10 -1 -10 4 0 6
5 11 10 11 6 0 10 -2 10 -4z m-98 -48 c-7 -7 -12 -8 -12 -2 0 14 12 26 19 19
2 -3 -1 -11 -7 -17z m-142 -38 c0 -5 -2 -10 -4 -10 -3 0 -8 5 -11 10 -3 6 -1
10 4 10 6 0 11 -4 11 -10z m160 -11 c0 -6 -4 -7 -10 -4 -5 3 -10 11 -10 16 0
6 5 7 10 4 6 -3 10 -11 10 -16z m-175 -9 c3 -5 -3 -10 -15 -10 -12 0 -18 5
-15 10 3 6 10 10 15 10 5 0 12 -4 15 -10z m115 -36 c0 -14 -12 -18 -40 -14
-20 3 -23 7 -16 18 9 15 56 11 56 -4z m780 -19 c0 -8 -4 -15 -10 -15 -5 0 -10
7 -10 15 0 8 5 15 10 15 6 0 10 -7 10 -15z m306 -21 c33 -13 68 -24 76 -24 18
0 138 -125 138 -144 0 -7 -9 -21 -19 -30 -11 -10 -23 -31 -26 -47 -8 -35 -51
-89 -70 -89 -8 0 -20 9 -27 19 -17 23 -127 78 -171 84 -40 6 -67 17 -67 27 0
10 144 24 165 16 28 -10 15 11 -34 56 -46 42 -51 45 -100 42 -36 -2 -51 1 -51
10 0 15 75 40 90 31 6 -3 10 1 10 9 0 8 -9 17 -19 21 -12 3 -18 12 -15 20 3 8
13 11 21 8 11 -5 14 -3 9 6 -5 7 -17 11 -27 8 -11 -3 -19 -1 -19 5 0 14 62 2
136 -28z m-149 11 c0 -11 -11 -15 -36 -14 l-36 1 30 13 c39 18 42 18 42 0z
m-733 -24 c-4 -9 -6 -24 -6 -33 1 -19 -25 -44 -35 -34 -4 4 -2 11 6 15 10 6 9
10 -4 15 -24 9 -32 8 -48 -9 -13 -12 -15 -12 -20 5 -3 11 -1 20 3 20 5 0 15 7
24 15 13 13 16 13 30 0 20 -21 26 -19 26 10 0 18 4 23 16 18 9 -3 13 -12 8
-22z m1095 0 c9 -6 10 -11 2 -15 -13 -8 -31 1 -31 15 0 11 11 11 29 0z m-1234
-28 c-4 -10 -7 -35 -6 -55 1 -21 -2 -38 -7 -38 -13 0 -12 61 0 88 13 26 24 30
13 5z m774 -29 c2 -2 -3 -4 -12 -4 -9 0 -21 -9 -27 -19 -14 -27 12 -51 56 -51
20 0 42 -7 51 -16 14 -14 14 -16 -3 -29 -11 -7 -20 -9 -22 -4 -5 12 -39 12
-47 0 -3 -5 2 -16 10 -24 8 -9 15 -21 15 -27 0 -15 -65 -2 -106 20 -23 13 -35
15 -49 7 -13 -7 -20 -7 -23 1 -2 6 -9 9 -17 6 -22 -9 -60 55 -56 93 1 17 44
44 84 53 29 8 136 3 146 -6z m-824 -4 c3 -5 1 -10 -4 -10 -6 0 -11 5 -11 10 0
6 2 10 4 10 3 0 8 -4 11 -10z m355 -32 c0 -6 -6 -5 -15 2 -8 7 -15 14 -15 16
0 2 7 1 15 -2 8 -4 15 -11 15 -16z m48 3 c3 -8 -1 -12 -9 -9 -7 2 -15 10 -17
17 -3 8 1 12 9 9 7 -2 15 -10 17 -17z m-268 -1 c0 -5 -4 -10 -10 -10 -5 0 -10
5 -10 10 0 6 5 10 10 10 6 0 10 -4 10 -10z m40 -7 c0 -12 -20 -39 -20 -28 0 6
-5 3 -10 -5 -8 -13 -12 -13 -27 4 -17 17 -17 18 5 11 15 -4 24 -2 28 9 6 16
24 22 24 9z m94 -19 c9 -23 -3 -56 -17 -51 -7 3 -10 11 -8 18 2 8 4 22 5 32 0
22 12 22 20 1z m41 -14 c0 -7 -6 -15 -12 -17 -8 -3 -13 4 -13 17 0 13 5 20 13
18 6 -3 12 -11 12 -18z m-515 -15 c0 -7 -7 -15 -15 -19 -11 -4 -15 1 -15 19 0
18 4 23 15 19 8 -4 15 -12 15 -19z m834 -75 c17 -20 10 -15 -16 11 -26 26 -50
44 -53 41 -3 -4 -3 2 1 11 6 16 8 16 22 -5 8 -13 29 -39 46 -58z m-554 14 c0
-8 -4 -14 -10 -14 -5 0 -10 2 -10 4 0 2 -3 12 -6 20 -5 12 -2 15 10 10 9 -3
16 -12 16 -20z m60 22 c0 -2 -7 -9 -15 -16 -12 -10 -15 -10 -15 4 0 9 7 16 15
16 8 0 15 -2 15 -4z m-93 -23 c4 -10 -27 -23 -55 -23 -10 0 -10 4 0 20 13 20
49 22 55 3z m-202 -33 c3 -5 1 -10 -4 -10 -6 0 -11 5 -11 10 0 6 2 10 4 10 3
0 8 -4 11 -10z m-40 -20 c3 -5 1 -10 -4 -10 -6 0 -11 5 -11 10 0 6 2 10 4 10
3 0 8 -4 11 -10z m810 -20 c13 -6 15 -9 5 -9 -8 0 -22 4 -30 9 -18 12 -2 12
25 0z m445 -4 c7 -9 8 -21 3 -30 -7 -12 -11 -12 -27 -1 -11 8 -16 21 -13 30 8
19 21 19 37 1z m-1320 -31 c9 -10 9 -15 1 -15 -6 0 -11 4 -11 9 0 5 -8 12 -17
14 -15 4 -15 5 -2 6 9 0 22 -6 29 -14z m59 -27 c-4 -31 2 -39 21 -33 11 4 20
2 20 -4 0 -6 -7 -11 -15 -11 -17 0 -20 -16 -5 -25 12 -8 13 -25 2 -25 -5 0
-14 12 -20 26 -7 14 -17 22 -23 19 -6 -4 -21 3 -35 16 -26 24 -32 44 -11 36 8
-3 20 -1 28 4 20 13 40 11 38 -3z m-95 -38 c23 0 46 -24 37 -39 -7 -11 -14 -8
-35 15 -14 16 -25 34 -25 39 0 6 3 4 6 -2 2 -7 10 -13 17 -13z m1446 10 c0 -5
-5 -10 -11 -10 -5 0 -7 5 -4 10 3 6 8 10 11 10 2 0 4 -4 4 -10z m290 -23 c0
-2 -17 -19 -37 -38 l-38 -34 34 38 c33 34 41 42 41 34z m-1600 -67 c0 -5 -2
-10 -4 -10 -3 0 -8 5 -11 10 -3 6 -1 10 4 10 6 0 11 -4 11 -10z m1660 -24 c0
-2 -8 -10 -17 -17 -16 -13 -17 -12 -4 4 13 16 21 21 21 13z m-440 -32 c0 -8
-4 -12 -10 -9 -5 3 -10 13 -10 21 0 8 5 12 10 9 6 -3 10 -13 10 -21z m120 -43
c0 -5 3 -18 6 -28 5 -16 4 -16 -10 1 -18 23 -20 36 -6 36 6 0 10 -4 10 -9z
m-1417 -86 c-3 -9 -8 -14 -10 -11 -3 3 -2 9 2 15 9 16 15 13 8 -4z m1474 -27
c-3 -7 -5 -2 -5 12 0 14 2 19 5 13 2 -7 2 -19 0 -25z m-137 12 c0 -5 -5 -10
-11 -10 -5 0 -7 5 -4 10 3 6 8 10 11 10 2 0 4 -4 4 -10z m55 0 c3 -5 1 -10 -4
-10 -6 0 -11 5 -11 10 0 6 2 10 4 10 3 0 8 -4 11 -10z m-11 -57 c5 -11 2 -13
-11 -9 -9 4 -20 1 -24 -5 -4 -7 -6 -1 -6 13 2 18 7 24 19 20 9 -2 19 -11 22
-19z m103 5 c-3 -8 -6 -5 -6 6 -1 11 2 17 5 13 3 -3 4 -12 1 -19z m-1397 -12
c0 -3 -4 -8 -10 -11 -5 -3 -10 -1 -10 4 0 6 5 11 10 11 6 0 10 -2 10 -4z m-26
-42 c9 -22 -3 -32 -14 -14 -12 19 -12 30 -1 30 5 0 12 -7 15 -16z m-29 -4 c3
-5 1 -10 -4 -10 -6 0 -11 5 -11 10 0 6 2 10 4 10 3 0 8 -4 11 -10z m-28 -7
c-4 -3 -2 -12 4 -20 9 -9 8 -13 0 -13 -6 0 -11 5 -11 11 0 6 -9 8 -22 3 -20
-6 -21 -5 -9 10 7 9 20 16 29 16 8 0 12 -3 9 -7z m98 -24 c10 -15 2 -19 -24
-12 -17 4 -19 8 -9 14 18 12 26 11 33 -2z m-125 -22 c0 -5 -7 -7 -15 -3 -8 3
-19 -2 -24 -12 -7 -13 -13 -14 -22 -5 -6 6 -9 15 -6 20 8 12 67 12 67 0z
m1420 -8 c0 -6 7 -17 15 -25 21 -22 19 -40 -2 -22 -10 9 -24 14 -31 12 -7 -1
-8 0 -2 3 5 2 7 16 4 30 -5 18 -3 24 5 19 6 -4 11 -12 11 -17z m-220 7 c0 -3
-4 -8 -10 -11 -5 -3 -10 -1 -10 4 0 6 5 11 10 11 6 0 10 -2 10 -4z m-1000 -26
c0 -5 -7 -10 -15 -10 -8 0 -15 5 -15 10 0 6 7 10 15 10 8 0 15 -4 15 -10z
m963 -5 c-3 -9 -8 -14 -10 -11 -3 3 -2 9 2 15 9 16 15 13 8 -4z m78 -12 c13
-16 12 -17 -3 -4 -17 13 -22 21 -14 21 2 0 10 -8 17 -17z m-1018 -41 c2 -4 -4
-15 -14 -24 -17 -16 -19 -16 -41 2 -22 19 -22 20 -4 35 18 14 48 7 59 -13z
m73 -9 c-7 -7 -26 7 -26 19 0 6 6 6 15 -2 9 -7 13 -15 11 -17z m989 17 c3 -5
1 -10 -4 -10 -6 0 -11 5 -11 10 0 6 2 10 4 10 3 0 8 -4 11 -10z m-962 -47 c51
-24 67 -37 67 -52 0 -25 -3 -25 -61 -5 -34 13 -51 26 -68 56 -13 22 -19 39
-14 36 4 -2 38 -18 76 -35z m950 -7 c-44 -35 -84 -58 -90 -52 -9 8 15 56 27
56 5 0 10 -6 11 -12 0 -7 4 -3 10 10 7 18 14 22 29 17 12 -4 20 -2 20 5 0 6 5
8 10 5 6 -3 -2 -16 -17 -29z m-1010 -23 c-6 -2 -9 -13 -6 -23 5 -19 24 -25 63
-21 9 1 11 -1 5 -6 -6 -4 -12 -24 -13 -43 -1 -19 -5 -52 -8 -72 -5 -32 -3 -38
12 -38 14 0 15 -3 6 -12 -8 -8 -15 -8 -27 2 -8 7 -23 10 -34 7 -10 -2 -23 -2
-29 2 -13 8 -27 55 -14 47 6 -3 17 -3 26 0 19 7 22 84 4 102 -7 7 -8 12 -2 12
5 0 4 4 -2 8 -16 10 2 56 18 46 8 -5 9 -9 1 -11z m-50 -6 c7 4 8 0 4 -11 -4
-10 -7 -20 -7 -22 0 -2 -4 -4 -9 -4 -5 0 -8 12 -8 28 0 15 2 21 4 14 3 -6 10
-9 16 -5z m967 -42 c0 4 2 6 6 3 3 -3 -3 -20 -14 -37 -10 -17 -21 -28 -25 -25
-3 4 1 17 9 29 14 21 13 24 -4 37 -10 7 -22 20 -27 28 -4 8 6 2 23 -14 18 -17
32 -26 32 -21z m34 -90 c-4 -8 -8 -15 -10 -15 -2 0 -4 7 -4 15 0 8 4 15 10 15
5 0 7 -7 4 -15z m-17 -57 c-3 -8 -6 -5 -6 6 -1 11 2 17 5 13 3 -3 4 -12 1 -19z
m-737 -13 c0 -1 -15 -2 -32 -2 -26 -1 -29 1 -13 7 17 6 45 3 45 -5z m20 -80
c0 -6 -56 -35 -67 -35 -4 1 8 9 27 20 39 22 40 22 40 15z m-297 -42 c-13 -2
-35 -2 -50 0 -16 2 -5 4 22 4 28 0 40 -2 28 -4z m60 0 c-7 -2 -19 -2 -25 0 -7
3 -2 5 12 5 14 0 19 -2 13 -5z m1833 -30 c-7 -7 -26 7 -26 19 0 6 6 6 15 -2 9
-7 13 -15 11 -17z m-1716 -24 c0 -6 -4 -7 -10 -4 -5 3 -10 11 -10 16 0 6 5 7
10 4 6 -3 10 -11 10 -16z m275 -19 c-3 -5 -12 -10 -18 -10 -7 0 -6 4 3 10 19
12 23 12 15 0z m-285 -35 c-7 -8 -18 -15 -24 -14 -7 0 -6 2 2 6 6 2 10 9 6 14
-3 5 2 9 12 9 13 0 14 -3 4 -15z m1400 -19 c0 -3 -4 -8 -10 -11 -5 -3 -10 -1
-10 4 0 6 5 11 10 11 6 0 10 -2 10 -4z"/>
<path d="M1063 1313 c-15 -3 -23 -12 -23 -24 0 -18 1 -18 25 3 21 18 33 32 23
27 -2 -1 -13 -4 -25 -6z"/>
<path d="M1138 2488 c9 -9 15 -9 24 0 9 9 7 12 -12 12 -19 0 -21 -3 -12 -12z"/>
<path d="M2880 2490 c6 -4 8 -14 4 -23 -3 -10 -1 -17 6 -17 6 0 8 5 4 11 -4 7
-1 10 6 7 17 -5 21 -48 4 -48 -6 0 -15 -7 -18 -16 -4 -10 -14 -14 -26 -11 -11
3 -17 1 -14 -4 3 -6 0 -16 -6 -24 -9 -11 -9 -15 -1 -15 6 0 11 4 11 9 0 12 29
23 41 15 12 -7 -15 -34 -35 -34 -8 0 -18 -5 -22 -12 -5 -8 -2 -9 9 -5 10 4 17
2 17 -5 0 -6 9 -3 20 7 11 10 23 15 27 11 4 -4 1 -11 -6 -15 -7 -5 -10 -14 -7
-20 8 -12 -2 -13 -71 -13 -24 1 -43 -3 -43 -8 0 -5 8 -6 18 -3 14 6 15 4 4 -9
-10 -13 -10 -17 3 -22 8 -3 15 0 15 6 0 19 14 -1 17 -25 2 -12 -4 -27 -13 -34
-10 -7 -15 -16 -11 -19 3 -3 18 3 33 15 31 24 44 20 23 -6 -11 -15 -10 -15 9
1 12 11 25 16 29 12 5 -4 -1 -12 -11 -18 -34 -19 -61 -51 -47 -56 23 -8 -39
-52 -72 -52 -17 0 -36 -8 -43 -17 -18 -24 -17 -38 1 -23 29 24 27 1 -1 -24
l-29 -25 28 -1 c15 0 27 4 27 9 0 14 44 21 52 8 10 -16 -18 -36 -41 -30 -10 3
-22 0 -25 -6 -12 -20 -64 -13 -80 11 -9 12 -18 19 -21 16 -3 -3 2 -13 11 -23
10 -10 19 -25 20 -34 1 -9 2 -20 4 -26 6 -23 -1 -65 -10 -65 -5 0 -10 7 -10
15 0 8 -2 15 -4 15 -2 0 -11 3 -20 6 -12 4 -16 0 -16 -15 0 -12 5 -21 11 -21
6 0 8 -7 5 -16 -9 -23 3 -61 20 -61 18 0 18 16 0 23 -8 3 -12 12 -9 20 3 8 9
11 14 8 5 -3 7 -9 4 -14 -3 -5 -1 -11 5 -15 10 -6 8 -54 -4 -74 -4 -7 -17 -9
-29 -6 -21 6 -21 5 -4 -8 11 -9 15 -22 11 -33 -4 -15 -1 -14 14 5 14 18 30 24
65 26 39 1 47 -2 56 -22 14 -30 14 -33 -2 -33 -6 0 -18 -14 -26 -31 -7 -17
-21 -33 -30 -36 -9 -3 -29 -11 -46 -18 -21 -10 -33 -11 -42 -3 -9 7 -20 6 -38
-6 -32 -21 -32 -28 1 -16 33 13 34 13 27 -5 -3 -9 3 -25 13 -37 11 -12 13 -18
7 -14 -7 4 -13 4 -13 -1 0 -4 -14 -23 -31 -40 -16 -18 -26 -33 -20 -33 5 0 7
-10 4 -22 -4 -20 -3 -21 9 -7 7 8 21 18 32 22 14 6 17 4 12 -9 -3 -8 -6 -17
-6 -20 0 -2 -14 -11 -31 -19 -24 -13 -30 -21 -25 -39 4 -17 1 -22 -14 -22 -21
0 -26 11 -10 21 17 10 11 31 -9 31 -10 0 -25 -13 -34 -28 -9 -15 -12 -28 -7
-28 5 0 14 -10 21 -22 10 -18 9 -20 -6 -14 -28 11 -37 -5 -14 -25 12 -10 18
-19 13 -19 -6 0 -16 6 -23 13 -10 10 -11 9 -6 -5 4 -10 15 -20 26 -23 11 -4
17 -10 14 -14 -7 -12 -56 0 -62 15 -3 8 -10 14 -15 14 -6 0 -8 -7 -4 -15 3 -8
0 -15 -6 -15 -7 0 -6 -5 2 -15 6 -8 21 -13 32 -12 12 1 23 -4 25 -11 3 -8 -1
-12 -8 -10 -17 3 -77 -31 -83 -48 -3 -8 1 -11 10 -7 7 3 14 0 14 -6 0 -6 -9
-11 -20 -11 -11 0 -20 -2 -20 -5 0 -13 51 -56 60 -50 16 10 12 -11 -5 -25 -16
-13 -39 -1 -72 39 -11 13 -13 11 -13 -11 0 -14 7 -28 15 -32 19 -7 19 -33 0
-53 -12 -12 -13 -18 -4 -29 6 -8 8 -14 3 -15 -5 0 1 -4 14 -10 18 -7 22 -14
17 -29 -5 -16 -2 -20 14 -20 12 0 21 -5 21 -10 0 -20 -32 -23 -67 -6 -29 14
-36 14 -48 2 -13 -12 -12 -15 1 -20 10 -4 14 -14 11 -26 -4 -15 0 -20 13 -20
14 0 19 -10 22 -40 2 -22 0 -40 -4 -40 -5 0 -8 -4 -8 -10 0 -5 7 -10 15 -10
27 0 16 -18 -15 -25 -16 -4 -30 -10 -30 -13 1 -17 19 -34 29 -28 6 4 11 0 11
-11 0 -14 2 -15 9 -5 6 11 9 9 14 -7 2 -11 0 -22 -7 -24 -6 -2 -8 -8 -4 -12 4
-4 16 -2 25 6 17 13 17 13 4 -4 -11 -13 -24 -18 -48 -15 -25 3 -32 1 -29 -9 4
-8 -3 -13 -17 -13 -17 0 -19 2 -7 10 21 13 12 18 -52 28 -50 8 -57 7 -69 -11
-8 -11 -24 -32 -36 -47 l-22 -27 40 7 c21 4 42 3 45 -1 3 -5 -8 -9 -24 -9 -38
0 -82 -34 -66 -50 7 -7 20 -10 30 -7 16 4 15 5 -3 6 -43 2 -23 21 22 21 26 0
60 7 78 17 39 20 97 34 97 23 0 -4 -15 -11 -32 -14 -18 -4 -41 -13 -52 -21
-17 -13 -16 -14 15 -12 19 1 40 6 47 10 19 12 14 -4 -6 -22 -14 -12 -18 -26
-14 -55 4 -37 6 -38 35 -32 17 4 35 12 39 19 6 9 8 9 8 0 0 -7 -9 -17 -20 -23
-23 -12 -27 -30 -6 -30 8 0 17 -4 21 -9 3 -6 -7 -8 -22 -6 -16 1 -27 8 -25 14
3 13 -9 14 -41 2 -20 -8 -23 -15 -19 -40 3 -25 1 -31 -14 -31 -17 0 -16 -1 2
-15 22 -16 74 -20 74 -5 0 14 31 12 63 -4 21 -12 51 -14 132 -9 58 3 105 10
105 16 0 6 5 5 13 -1 20 -17 84 -25 92 -12 4 6 2 17 -4 23 -23 23 -9 38 64 72
65 29 75 37 75 59 0 14 -4 26 -10 26 -5 0 -7 8 -3 17 6 17 5 17 -14 0 -18 -16
-21 -16 -26 -2 -4 9 -19 15 -37 15 -16 0 -30 5 -30 10 0 9 21 14 42 11 4 0 5
6 2 13 -3 8 -13 12 -22 10 -15 -5 -15 -4 0 6 28 18 40 47 28 69 -8 17 -7 19
15 17 13 -2 22 1 19 5 -3 5 -12 9 -20 9 -19 0 -18 19 1 26 10 4 12 10 6 18
-13 17 -5 85 14 106 21 24 72 42 80 29 11 -17 23 -9 18 11 -3 11 -1 20 3 20 5
0 20 9 34 20 l25 21 -27 -7 c-35 -8 -36 8 -4 33 21 17 24 27 25 102 1 83 1 83
-23 77 -17 -4 -26 -1 -30 11 -7 17 9 33 34 33 13 0 16 14 18 65 2 55 0 65 -14
65 -16 0 -16 1 0 18 15 17 16 74 16 633 -1 613 -1 614 -23 661 -21 46 -23 47
-65 46 -24 -1 -38 -4 -32 -8z m57 -42 c-3 -8 -6 -5 -6 6 -1 11 2 17 5 13 3 -3
4 -12 1 -19z m-56 -201 c-10 -9 -11 -8 -5 6 3 10 9 15 12 12 3 -3 0 -11 -7
-18z m28 -25 c-27 -19 -35 -8 -12 15 11 12 21 15 25 9 4 -6 -2 -16 -13 -24z
m-9 -66 c0 -2 -8 -10 -17 -17 -16 -13 -17 -12 -4 4 13 16 21 21 21 13z m23
-146 c-11 -8 -18 -20 -16 -26 2 -7 -3 -14 -12 -18 -9 -3 -14 -2 -10 3 3 5 -1
11 -7 13 -8 3 0 16 21 35 19 18 30 36 26 43 -5 8 -10 8 -21 -1 -10 -9 -14 -9
-14 0 0 6 10 15 23 20 19 8 22 5 25 -23 3 -21 -2 -35 -15 -46z m-55 -58 c2 -7
-2 -10 -11 -6 -8 3 -18 1 -22 -5 -3 -6 -11 -11 -17 -11 -6 0 -3 9 7 20 19 21
36 22 43 2z m-69 -9 c-8 -10 -18 -21 -22 -24 -5 -3 -8 -10 -7 -15 1 -5 -3 -10
-9 -12 -6 -2 -11 3 -11 12 0 19 -5 20 -30 6 -15 -8 -17 -6 -13 9 3 13 19 22
51 29 26 5 49 10 51 11 2 0 -3 -7 -10 -16z m102 -46 c-8 -8 -11 -7 -11 4 0 20
13 34 18 19 3 -7 -1 -17 -7 -23z m34 -17 c-3 -5 -1 -10 4 -10 19 0 12 -29 -10
-41 -15 -8 -24 -8 -32 0 -11 11 -10 12 16 15 6 1 11 12 10 24 -2 12 2 22 8 22
5 0 7 -4 4 -10z m-80 -20 c-3 -5 -14 -10 -23 -10 -15 0 -15 2 -2 10 20 13 33
13 25 0z m-146 -16 c-12 -15 -11 -16 10 -9 16 5 21 4 17 -4 -4 -6 -2 -11 4
-11 7 0 5 -6 -4 -15 -19 -19 -30 -19 -22 1 3 8 2 12 -3 9 -5 -3 -12 -1 -15 4
-8 12 4 41 16 41 6 0 4 -7 -3 -16z m181 -65 c0 -6 -9 -13 -20 -16 -11 -3 -17
-9 -14 -14 3 -5 0 -9 -6 -9 -6 0 -9 -4 -5 -9 3 -5 -5 -17 -17 -25 -21 -15 -24
-15 -41 3 -11 10 -16 24 -12 31 5 8 11 6 22 -7 14 -17 14 -17 10 3 -3 12 -1
28 4 35 8 12 11 11 19 -1 8 -13 11 -13 27 3 20 19 33 22 33 6z m-170 -69 c0
-5 -5 -10 -11 -10 -5 0 -7 5 -4 10 3 6 8 10 11 10 2 0 4 -4 4 -10z m248 -223
c-1 -17 -6 -44 -12 -58 -9 -22 -15 -25 -34 -18 -24 9 -27 17 -12 39 9 13 11
13 20 0 5 -8 10 -10 11 -5 1 6 2 17 3 25 2 8 3 25 4 38 3 35 21 16 20 -21z
m-28 9 c0 -3 -4 -8 -10 -11 -5 -3 -10 -1 -10 4 0 6 5 11 10 11 6 0 10 -2 10
-4z m-40 -36 c0 -11 -4 -20 -10 -20 -5 0 -10 9 -10 20 0 11 5 20 10 20 6 0 10
-9 10 -20z m-190 -65 c0 -8 -2 -15 -4 -15 -2 0 -6 7 -10 15 -3 8 -1 15 4 15 6
0 10 -7 10 -15z m-37 -24 c-2 -6 2 -11 7 -11 6 0 10 -11 10 -24 0 -25 -16 -36
-55 -36 -18 0 -22 4 -18 20 3 11 12 20 20 20 8 0 12 4 9 9 -9 14 5 42 18 38 6
-3 10 -10 9 -16z m207 10 c0 -5 -8 -17 -17 -27 -17 -17 -16 -17 17 -11 l35 7
-24 -20 c-35 -30 -67 -35 -96 -16 -31 20 -31 26 0 49 24 17 25 17 22 0 -1 -10
-6 -24 -10 -30 -9 -14 -6 -16 16 -7 9 3 13 13 10 25 -4 13 0 19 11 19 9 0 16
5 16 10 0 6 5 10 10 10 6 0 10 -4 10 -9z m50 -1 c0 -5 -2 -10 -4 -10 -3 0 -8
5 -11 10 -3 6 -1 10 4 10 6 0 11 -4 11 -10z m60 -51 c0 -5 -4 -9 -10 -9 -5 0
-10 7 -10 16 0 8 5 12 10 9 6 -3 10 -10 10 -16z m-36 -5 c8 -21 8 -21 -10 -28
-20 -8 -65 4 -59 15 3 4 12 6 19 3 7 -3 16 2 19 10 8 21 23 20 31 0z m-266
-94 c-1 -16 -5 -30 -9 -30 -4 0 -14 -3 -23 -6 -20 -8 -21 10 -1 30 8 8 15 19
15 25 0 6 5 11 10 11 6 0 9 -13 8 -30z m176 -41 c-9 -10 -23 -19 -31 -19 -25
0 -12 27 22 46 26 15 32 -2 9 -27z m121 22 c-3 -6 -11 -11 -16 -11 -5 0 -4 6
3 14 14 16 24 13 13 -3z m-5 -42 c0 -10 -45 -29 -63 -26 -21 4 -19 22 3 22 8
0 16 8 18 17 3 15 7 15 23 5 10 -6 19 -14 19 -18z m-176 -4 c-4 -8 -11 -15
-16 -15 -6 0 -5 6 2 15 7 8 14 15 16 15 2 0 1 -7 -2 -15z m96 -41 c0 -3 -5
-14 -10 -25 -7 -13 -7 -19 0 -19 16 0 12 -17 -7 -24 -9 -4 -21 -2 -27 4 -7 7
-7 10 1 10 6 0 13 14 17 30 3 17 10 30 16 30 5 0 10 -3 10 -6z m-72 -49 c0
-31 -20 -28 -25 3 -2 14 2 22 11 22 8 0 14 -11 14 -25z m90 -46 c-2 -6 -8 -10
-13 -10 -5 0 -11 4 -13 10 -2 6 4 11 13 11 9 0 15 -5 13 -11z m-64 -16 c9 4
16 3 16 -2 0 -5 -9 -11 -20 -14 -11 -3 -20 -1 -20 5 0 5 -4 6 -10 3 -11 -7
-14 8 -3 18 4 4 10 2 14 -4 4 -7 14 -9 23 -6z m-84 -33 c0 -13 -33 -21 -44
-10 -7 7 -5 10 7 10 9 0 17 5 17 11 0 5 5 7 10 4 6 -3 10 -10 10 -15z m30 16
c0 -3 -4 -8 -10 -11 -5 -3 -10 -1 -10 4 0 6 5 11 10 11 6 0 10 -2 10 -4z m98
-18 c7 -7 12 -15 12 -20 0 -7 -99 -58 -113 -58 -15 0 -6 32 16 55 19 20 32 26
68 34 3 0 10 -4 17 -11z m-168 -36 c0 -12 -23 -32 -37 -32 -19 0 -16 28 5 33
28 8 32 7 32 -1z m-289 -52 c5 0 9 -4 9 -10 0 -14 -13 -12 -36 6 -17 14 -17
15 -1 10 10 -3 23 -6 28 -6z m399 -36 c-5 -21 -14 -40 -20 -44 -9 -6 -9 -9 1
-16 7 -4 14 -3 17 4 4 13 16 26 50 54 19 16 20 15 19 -18 -1 -19 -4 -29 -8
-23 -4 7 -15 -1 -28 -20 -12 -17 -19 -31 -15 -31 4 0 -1 -7 -12 -15 -12 -9
-14 -14 -6 -15 7 0 10 -4 7 -10 -3 -5 -4 -10 -1 -10 3 0 12 13 20 29 12 22 57
51 80 51 1 0 1 -14 1 -32 0 -22 -5 -32 -17 -34 -10 -1 -25 -9 -34 -18 -8 -9
-19 -14 -24 -11 -5 3 -10 1 -12 -3 -1 -5 -15 -12 -31 -16 -25 -6 -27 -5 -15
13 9 15 9 25 0 47 -7 14 -10 29 -6 33 4 3 9 0 11 -6 5 -15 23 -17 23 -3 0 5
-10 12 -23 15 -20 5 -24 13 -24 51 -1 24 3 44 8 44 5 0 9 -6 10 -12 0 -7 5 -3
11 10 17 34 27 26 18 -14z m50 16 c-10 -19 -30 -28 -30 -14 0 6 30 33 38 34 1
0 -2 -9 -8 -20z m-197 4 c3 -3 3 -12 0 -20 -4 -11 -9 -12 -19 -3 -8 6 -11 15
-8 20 6 10 18 12 27 3z m-140 -31 c-7 -2 -19 -2 -25 0 -7 3 -2 5 12 5 14 0 19
-2 13 -5z m193 -3 c11 10 11 6 4 -21 -5 -18 -15 -36 -22 -41 -9 -5 -10 -8 -1
-8 6 0 18 7 26 15 31 31 23 2 -9 -32 -39 -42 -43 -57 -11 -48 21 7 21 6 4 -11
-14 -16 -19 -17 -26 -5 -5 8 -14 10 -21 6 -9 -5 -11 -4 -6 3 4 7 2 12 -4 12
-7 0 -11 16 -9 45 2 24 0 47 -4 51 -4 4 -7 12 -7 18 0 6 4 5 9 -3 7 -11 13
-10 32 8 14 13 25 17 27 11 3 -8 8 -8 18 0z m234 -16 c0 -8 -5 -12 -10 -9 -6
4 -8 11 -5 16 9 14 15 11 15 -7z m-456 -55 c-34 -36 -44 -37 -42 -4 2 17 8 25
23 26 11 0 14 3 7 6 -6 2 -10 9 -6 14 3 5 14 5 26 -2 20 -11 19 -11 -8 -40z
m118 -28 c-3 -19 -10 -31 -19 -31 -10 0 -14 7 -10 20 3 10 0 21 -6 23 -6 2 -8
11 -4 21 5 13 11 15 25 7 14 -7 18 -18 14 -40z m-202 -1 c0 -5 -4 -10 -10 -10
-5 0 -10 5 -10 10 0 6 5 10 10 10 6 0 10 -4 10 -10z m120 -15 c0 -10 -7 -14
-22 -11 -34 7 -34 7 -13 16 29 13 35 12 35 -5z m241 -18 c-1 -12 -15 -9 -19 4
-3 6 1 10 8 8 6 -3 11 -8 11 -12z m-365 -36 c-10 -16 -23 -14 -30 5 -9 25 4
38 21 21 9 -8 12 -20 9 -26z m325 10 c-10 -18 -51 -36 -51 -23 0 6 44 37 58
41 1 1 -2 -7 -7 -18z m-291 5 c0 -3 -4 -8 -10 -11 -5 -3 -10 -1 -10 4 0 6 5
11 10 11 6 0 10 -2 10 -4z m293 -51 c-10 -17 -73 -65 -85 -65 -13 0 -9 40 5
54 7 7 17 11 24 9 6 -2 14 1 18 6 3 6 15 11 26 11 15 0 18 -4 12 -15z m-163
-26 c0 -10 -7 -19 -15 -19 -8 0 -15 -4 -15 -10 0 -5 -10 -10 -22 -10 -19 0
-20 2 -8 11 12 9 11 10 -7 6 -17 -4 -21 0 -20 17 1 28 10 33 52 28 26 -3 35
-9 35 -23z m55 -1 c4 4 6 0 3 -8 -7 -22 -32 -18 -37 5 -3 16 -1 17 11 7 8 -6
18 -8 23 -4z m-85 -73 c0 -2 -7 -5 -15 -9 -9 -3 -15 0 -15 9 0 9 6 12 15 9 8
-4 15 -7 15 -9z m213 3 c2 -7 -1 -21 -7 -32 -8 -13 -8 -20 0 -23 12 -4 7 -53
-6 -53 -4 0 -14 7 -21 17 -12 14 -12 17 0 21 11 3 9 9 -8 21 -32 25 -18 51 31
60 3 0 8 -5 11 -11z m-83 -18 c0 -5 -5 -10 -11 -10 -5 0 -7 5 -4 10 3 6 8 10
11 10 2 0 4 -4 4 -10z m-358 -207 c-3 -16 -7 -22 -10 -15 -4 13 4 42 11 42 2
0 2 -12 -1 -27z m478 1 c0 -2 -7 -4 -15 -4 -8 0 -15 4 -15 10 0 5 7 7 15 4 8
-4 15 -8 15 -10z m-460 -114 c0 -5 -4 -10 -10 -10 -5 0 -10 5 -10 10 0 6 5 10
10 10 6 0 10 -4 10 -10z m240 0 c0 -5 -5 -10 -11 -10 -5 0 -7 5 -4 10 3 6 8
10 11 10 2 0 4 -4 4 -10z m56 -2 c4 -7 3 -8 -4 -4 -7 4 -12 2 -12 -4 0 -6 -5
-8 -11 -4 -8 4 -7 9 2 15 18 11 17 11 25 -3z m-93 -13 c-3 -9 -8 -14 -10 -11
-3 3 -2 9 2 15 9 16 15 13 8 -4z"/>
<path d="M2976 2493 c-11 -11 -7 -20 9 -20 8 0 15 4 15 8 0 11 -16 20 -24 12z"/>
<path d="M2150 2310 c0 -5 5 -10 10 -10 6 0 10 5 10 10 0 6 -4 10 -10 10 -5 0
-10 -4 -10 -10z"/>
<path d="M2066 2211 c-4 -7 -5 -15 -2 -18 9 -9 19 4 14 18 -4 11 -6 11 -12 0z"/>
<path d="M1270 2200 c-8 -5 -11 -12 -7 -16 4 -4 13 -2 19 4 15 15 7 24 -12 12z"/>
<path d="M2715 2060 c-3 -5 -1 -10 4 -10 6 0 11 5 11 10 0 6 -2 10 -4 10 -3 0
-8 -4 -11 -10z"/>
<path d="M2620 2009 c0 -5 5 -7 10 -4 6 3 10 8 10 11 0 2 -4 4 -10 4 -5 0 -10
-5 -10 -11z"/>
<path d="M1854 1798 c-3 -4 7 -13 21 -18 35 -13 45 -13 45 4 0 15 -58 28 -66
14z"/>
<path d="M960 1760 c-9 -6 -10 -10 -3 -10 6 0 15 5 18 10 8 12 4 12 -15 0z"/>
<path d="M1065 1730 c3 -5 8 -10 11 -10 2 0 4 5 4 10 0 6 -5 10 -11 10 -5 0
-7 -4 -4 -10z"/>
<path d="M2546 1684 c-4 -9 -4 -19 -1 -22 2 -3 7 3 11 12 4 9 4 19 1 22 -2 3
-7 -3 -11 -12z"/>
<path d="M2560 1640 c0 -5 5 -10 10 -10 6 0 10 5 10 10 0 6 -4 10 -10 10 -5 0
-10 -4 -10 -10z"/>
<path d="M650 1615 c0 -8 6 -15 13 -15 8 0 14 7 14 15 0 8 -6 15 -14 15 -7 0
-13 -7 -13 -15z"/>
<path d="M630 1571 c0 -11 21 -19 38 -14 20 8 14 19 -13 21 -14 1 -25 -2 -25
-7z"/>
<path d="M743 1564 c7 -7 -33 -54 -46 -54 -5 0 -7 6 -4 13 5 14 -16 19 -41 11
-9 -2 -8 -9 5 -24 19 -22 53 -27 53 -8 0 6 9 3 20 -7 11 -10 20 -13 20 -7 0 7
7 12 15 12 8 0 15 7 15 16 0 8 4 13 9 10 5 -3 12 1 15 10 4 12 1 14 -14 9 -14
-5 -20 -2 -20 9 0 9 -7 16 -17 16 -9 0 -14 -3 -10 -6z m7 -44 c0 -5 -4 -10
-10 -10 -5 0 -10 5 -10 10 0 6 5 10 10 10 6 0 10 -4 10 -10z"/>
<path d="M570 1499 c0 -11 5 -19 10 -19 6 0 10 7 10 16 0 14 2 15 17 3 14 -12
16 -12 11 1 -7 23 -48 21 -48 -1z"/>
<path d="M650 1460 c0 -11 2 -20 4 -20 2 0 6 9 9 20 3 11 1 20 -4 20 -5 0 -9
-9 -9 -20z"/>
<path d="M995 1460 c-3 -5 -2 -10 4 -10 5 0 13 5 16 10 3 6 2 10 -4 10 -5 0
-13 -4 -16 -10z"/>
<path d="M451 1194 c0 -11 3 -14 6 -6 3 7 2 16 -1 19 -3 4 -6 -2 -5 -13z"/>
<path d="M561 1176 c-10 -12 -9 -14 5 -12 10 2 20 8 22 14 5 17 -13 15 -27 -2z"/>
<path d="M493 1170 c-13 -5 -24 -14 -24 -20 -1 -5 -2 -16 -3 -22 -1 -7 -9 -12
-19 -10 -9 2 -17 -2 -17 -8 0 -5 5 -10 10 -10 15 0 12 -27 -4 -33 -7 -3 -16
-17 -18 -31 -6 -29 6 -33 46 -15 20 10 30 9 50 -5 32 -21 34 -20 38 7 2 12 7
21 11 19 4 -1 15 4 23 13 10 9 24 13 35 10 11 -4 19 -2 19 5 0 6 5 8 10 5 21
-13 31 7 14 26 -21 23 -40 24 -48 4 -3 -8 -11 -12 -19 -9 -7 2 -22 -4 -32 -16
-17 -19 -19 -19 -37 -4 -31 29 -23 46 17 38 25 -4 35 -3 35 7 0 7 -3 9 -7 6
-10 -11 -42 23 -36 39 6 16 -11 17 -44 4z m7 -20 c0 -5 -2 -10 -4 -10 -3 0 -8
5 -11 10 -3 6 -1 10 4 10 6 0 11 -4 11 -10z m-1 -57 c7 -15 5 -18 -14 -18 -19
0 -21 3 -14 18 5 9 12 17 14 17 2 0 9 -8 14 -17z"/>
<path d="M645 1160 c-3 -5 -1 -10 4 -10 6 0 11 5 11 10 0 6 -2 10 -4 10 -3 0
-8 -4 -11 -10z"/>
<path d="M395 1150 c-3 -6 1 -7 9 -4 18 7 21 14 7 14 -6 0 -13 -4 -16 -10z"/>
<path d="M397 1074 c-4 -4 -7 -14 -7 -23 0 -11 3 -12 11 -4 6 6 10 16 7 23 -2
6 -7 8 -11 4z"/>
<path d="M50 910 c0 -5 5 -10 10 -10 6 0 10 5 10 10 0 6 -4 10 -10 10 -5 0
-10 -4 -10 -10z"/>
<path d="M150 870 c0 -5 5 -10 11 -10 5 0 7 5 4 10 -3 6 -8 10 -11 10 -2 0 -4
-4 -4 -10z"/>
<path d="M299 738 c15 -20 38 -23 61 -8 11 8 8 9 -13 4 -17 -4 -34 -1 -45 7
-15 13 -16 12 -3 -3z"/>
<path d="M1550 741 c0 -6 4 -13 10 -16 6 -3 7 1 4 9 -7 18 -14 21 -14 7z"/>
<path d="M2865 560 c-3 -5 1 -10 9 -10 9 0 16 5 16 10 0 6 -4 10 -9 10 -6 0
-13 -4 -16 -10z"/>
<path d="M2165 509 c-11 -17 1 -21 15 -4 8 9 8 15 2 15 -6 0 -14 -5 -17 -11z"/>
<path d="M1542 498 c6 -18 28 -21 28 -4 0 9 -7 16 -16 16 -9 0 -14 -5 -12 -12z"/>
<path d="M2991 424 c0 -11 3 -14 6 -6 3 7 2 16 -1 19 -3 4 -6 -2 -5 -13z"/>
<path d="M647 368 c-4 -12 -4 -25 -1 -30 7 -11 114 -61 119 -56 3 2 -22 27
-54 56 -54 47 -59 50 -64 30z"/>
<path d="M2976 339 c-18 -17 -18 -19 -2 -19 9 0 19 7 23 15 8 23 0 25 -21 4z"/>
<path d="M2896 341 c-4 -5 -3 -18 1 -29 7 -16 12 -18 33 -10 23 9 24 10 8 22
-10 7 -15 16 -11 19 3 4 -1 7 -10 7 -9 0 -18 -4 -21 -9z"/>
<path d="M640 313 c0 -18 16 -28 43 -29 23 -1 26 1 15 11 -17 16 -58 29 -58
18z"/>
<path d="M685 249 c22 -9 51 -20 65 -23 24 -7 24 -6 -5 18 -20 18 -40 25 -65
24 l-35 -2 40 -17z"/>
<path d="M642 238 c4 -11 66 -33 73 -26 2 2 -15 11 -36 20 -26 11 -39 13 -37
6z"/>
<path d="M850 240 c0 -5 9 -10 21 -10 11 0 17 5 14 10 -3 6 -13 10 -21 10 -8
0 -14 -4 -14 -10z"/>
<path d="M630 184 c0 -21 4 -25 18 -19 9 4 35 10 57 13 l40 5 -50 14 c-66 17
-65 17 -65 -13z"/>
<path d="M2945 179 c-27 -3 -61 -10 -75 -16 -22 -9 -15 -12 50 -19 58 -7 76
-6 78 4 8 30 -3 37 -53 31z"/>
<path d="M836 144 c-10 -25 1 -29 14 -5 6 12 7 21 1 21 -5 0 -12 -7 -15 -16z"/>
<path d="M740 119 c0 -5 5 -7 10 -4 6 3 10 8 10 11 0 2 -4 4 -10 4 -5 0 -10
-5 -10 -11z"/>
</g>
</svg>
